<?xml version="1.0" encoding="utf-8"?>
<!-- Generator: Adobe Illustrator 20.1.0, SVG Export Plug-In . SVG Version: 6.00 Build 0)  -->
<svg version="1.1" id="Layer_1" xmlns="http://www.w3.org/2000/svg" xmlns:xlink="http://www.w3.org/1999/xlink" x="0px" y="0px"
	 viewBox="0 0 369 184" style="enable-background:new 0 0 369 184;" xml:space="preserve">
<style type="text/css">
	.st0{fill:#AED2EC;}
	.st1{fill:#FFFFFF;}
</style>
<g>
	<g>
		<path class="st0" d="M161.8,64.6h-10.6v-2.7h24.1v2.7h-10.5l0,30.2h-2.9L161.8,64.6z"/>
		<path class="st0" d="M181.7,75.4L181.7,75.4c1.7-2.8,4.3-4.2,7.3-4.2c7.5,0,8.1,6.6,8.1,9.3v14.3h-2.7V80.1c0-4-2.3-6.3-6-6.3
			c-4.5,0-6.6,3.8-6.6,7.9v13.2H179v-33h2.7V75.4z"/>
		<path class="st0" d="M204.5,84.1c0.1,4.9,2.3,9,7.9,9c3.2,0,5.9-2.3,6.6-5.5h2.9c-1.4,5.5-4.8,8-10.4,8c-6.9,0-10-5.9-10-12.1
			c0-6.2,3.4-12.1,10.2-12.1c7.7,0,10.5,5.6,10.5,12.8H204.5z M219.2,81.5c-0.3-4.4-2.7-7.8-7.4-7.8c-4.5,0-6.9,3.7-7.2,7.8H219.2z"
			/>
		<path class="st0" d="M240.6,61.9h3.4l18.2,29h0.1v-29h3v33h-3.7l-17.8-28.5h-0.1v28.5h-3V61.9z"/>
		<path class="st0" d="M273.7,84.1c0.1,4.9,2.3,9,7.9,9c3.2,0,5.9-2.3,6.6-5.5h2.9c-1.4,5.5-4.8,8-10.4,8c-6.9,0-10-5.9-10-12.1
			c0-6.2,3.4-12.1,10.2-12.1c7.7,0,10.5,5.6,10.5,12.8H273.7z M288.4,81.5c-0.3-4.4-2.7-7.8-7.4-7.8c-4.5,0-6.9,3.7-7.2,7.8H288.4z"
			/>
		<path class="st0" d="M302.5,91.3L302.5,91.3l7-19.3h3.2l6.8,19.1h0.1l6.6-19.1h3l-8.5,22.9h-2.6l-7-19.8H311l-7.2,19.8H301
			L292.6,72h3L302.5,91.3z"/>
		<path class="st0" d="M161.8,108.6h-10.6v-2.7h24.1v2.7h-10.5l0,30.2h-2.9L161.8,108.6z"/>
		<path class="st0" d="M176.4,128c0.1,4.9,2.3,9,7.9,9c3.2,0,5.9-2.3,6.6-5.5h2.9c-1.4,5.5-4.8,8-10.4,8c-6.9,0-10-5.9-10-12.1
			c0-6.2,3.4-12.1,10.2-12.1c7.7,0,10.5,5.6,10.5,12.8H176.4z M191.1,125.5c-0.3-4.4-2.7-7.8-7.4-7.8c-4.5,0-6.9,3.7-7.2,7.8H191.1z
			"/>
		<path class="st0" d="M213.4,122.9c-0.2-3.5-2.5-5.2-6.3-5.2c-4.2,0-6.8,4.4-6.8,9.6c0,5.3,2.6,9.7,6.8,9.7c3.6,0,6-2.2,6.3-5.3h3
			c-0.7,5.3-3.7,7.9-9,7.9c-6.9,0-10-5.9-10-12.1c0-6.2,3.4-12.1,10.2-12.1c4.7,0,8.5,2.8,8.8,7.7H213.4z"/>
		<path class="st0" d="M223.3,119.4L223.3,119.4c1.7-2.8,4.3-4.2,7.3-4.2c7.5,0,8.1,6.6,8.1,9.3v14.3h-2.7V124c0-4-2.3-6.3-6-6.3
			c-4.5,0-6.6,3.8-6.6,7.9v13.2h-2.7v-33h2.7V119.4z"/>
		<path class="st0" d="M247.1,138.8h-2.7v-17.8c0-1.8-0.1-3.6-0.2-5.2h2.8l0.1,3.4l0.1,0.1c1.6-2.8,4.2-4.2,7.2-4.2
			c7.5,0,8.1,6.6,8.1,9.3v14.3h-2.7V124c0-4-2.3-6.3-6-6.3c-4.5,0-6.6,3.8-6.6,7.9V138.8z"/>
		<path class="st0" d="M288.1,127.4c0,6-3.4,12.1-10.7,12.1c-7.3,0-10.7-6.1-10.7-12.1s3.4-12.1,10.7-12.1
			C284.7,115.2,288.1,121.3,288.1,127.4z M277.4,117.7c-5.5,0-7.7,5.4-7.7,9.6s2.2,9.6,7.7,9.6c5.5,0,7.7-5.4,7.7-9.6
			S282.9,117.7,277.4,117.7z"/>
		<path class="st0" d="M295.3,138.8h-2.7v-33h2.7V138.8z"/>
		<path class="st0" d="M321.1,127.4c0,6-3.4,12.1-10.7,12.1c-7.3,0-10.7-6.1-10.7-12.1s3.4-12.1,10.7-12.1
			C317.7,115.2,321.1,121.3,321.1,127.4z M310.4,117.7c-5.5,0-7.7,5.4-7.7,9.6s2.2,9.6,7.7,9.6c5.5,0,7.7-5.4,7.7-9.6
			S315.9,117.7,310.4,117.7z"/>
		<path class="st0" d="M341.7,115.9h2.8c-0.1,1.6-0.2,3.4-0.2,5.2v13.7c0,4.6,0.2,9.4-4.8,11.7c-1.8,0.9-3.1,1.1-5.2,1.1
			c-4.2,0-9.1-1.4-9.1-6.2h3c0.3,2.7,3.6,3.7,6.5,3.7c3.6,0,6.9-2.5,6.9-6.3v-4.3h-0.1c-1.3,2.7-4.5,4.3-7.4,4.3
			c-6.9,0-9.9-5.3-9.9-11.6c0-6.2,2.8-12,9.8-12c3.3,0,5.7,1.6,7.5,4.2l0.1-0.2L341.7,115.9z M334.2,117.7c-5,0-7.1,5-7.1,9.2
			c0,4.2,2.1,9.3,7.2,9.3c5.3,0,7.3-4.9,7.3-9.4C341.6,122.5,339.1,117.7,334.2,117.7z"/>
		<path class="st0" d="M350.6,115.9l7.7,19.2l7.7-19.2h3l-12.7,31.7h-3l3.5-8.8l-9.5-22.9H350.6z"/>
		<path class="st0" d="M173.9,171.3c0,6-3.4,12.1-10.7,12.1c-7.3,0-10.7-6.1-10.7-12.1s3.4-12.1,10.7-12.1
			C170.6,159.1,173.9,165.3,173.9,171.3z M163.3,161.7c-5.5,0-7.7,5.4-7.7,9.6s2.2,9.6,7.7,9.6c5.5,0,7.7-5.4,7.7-9.6
			S168.8,161.7,163.3,161.7z"/>
		<path class="st0" d="M179.7,182.8v-20.4h-4.6v-2.5h4.6v-4.9c0-3.9,1.6-5.7,5.5-5.7c0.9,0,1.8,0.3,2.6,0.5v2.2
			c-0.5-0.1-1.1-0.2-1.7-0.2c-3.7,0-3.8,1.9-3.7,5.2v2.9h5.2v2.5h-5.2v20.4H179.7z"/>
		<path class="st0" d="M212.3,152.5h-10.6v-2.7h24.1v2.7h-10.5l0,30.2h-2.9L212.3,152.5z"/>
		<path class="st0" d="M227.9,182.8h-2.7V165c0-1.8-0.1-3.6-0.2-5.2h2.8l0.1,3.4h0.1c0.8-2.3,2.9-4,5.2-4.1c0.9,0,1.8,0,2.7,0v2.6
			c-0.5,0-1.1-0.2-1.7-0.2c-4.1,0-6.2,2.9-6.3,7.3V182.8z"/>
		<path class="st0" d="M254.5,159.8h2.7v17.8c0,1.8,0.1,3.6,0.2,5.2h-2.8l-0.1-3.4l-0.1-0.1c-1.6,2.8-4.2,4.2-7.2,4.2
			c-7.5,0-8.1-6.6-8.1-9.3v-14.3h2.7v14.8c0,4,2.3,6.3,6,6.3c4.5,0,6.6-3.8,6.6-7.9V159.8z"/>
		<path class="st0" d="M270.7,159.1c4.3,0,8,1.5,8.4,6.3h-3c-0.3-2.9-2.8-3.8-5.7-3.8c-2.6,0-5.2,1-5.2,3.7c0,3.4,4.4,3.1,10.6,5.3
			c2.4,0.8,3.9,2.9,3.9,5.3c0,5.2-4.8,7.5-9.6,7.5c-4,0-8.5-1.9-8.6-6.9h3c0.2,3.4,3.2,4.4,6.3,4.4c2.9,0,6-1.4,6-4.6
			c0-3.3-3.6-3.8-7.3-4.7c-3.6-0.9-7.3-1.9-7.3-6.2C262.3,160.8,266.7,159.1,270.7,159.1z"/>
		<path class="st0" d="M286.4,162.3h-4.6v-2.5h4.6v-4.9l2.7-1.2v6.1h5.2v2.5h-5.2v15.3c0,2.1,1.1,3.2,3.2,3.2c0.8,0,1.6,0,2.4-0.3
			v2.4c-0.9,0.2-1.9,0.4-2.8,0.4c-5.8,0-5.5-3.7-5.5-6.8V162.3z"/>
	</g>
	<g>
		<g>
			<path class="st1" d="M0,0.3h14.5c5,0,7.7,0.5,10.2,3c1.7,1.7,2.9,4.1,2.9,7.3c0,6.7-4.9,8.4-6.9,9.2c2.4,0.7,8.1,2.4,8.1,10.1
				c0,5.5-3.5,8.3-4.9,9.2c-2.8,1.9-6,1.9-9.2,1.9H0V0.3z M5.5,17.5h7.9c1.9,0,8.4,0,8.4-6.4c0-6.1-5.1-6.1-8.2-6.1H5.5V17.5z
				 M5.5,36.4h9.6c4.4,0,8-2.4,8-7c0-4.1-2.8-7-7.8-7H5.5V36.4z"/>
		</g>
		<g>
			<path class="st1" d="M34.1,0.3h5.3v40.6h-5.3V0.3z"/>
		</g>
		<g>
			<path class="st1" d="M58.7,11.9c11.3,0,13.9,8.9,13.9,14.8c0,8.3-4.7,15.1-14.3,15.1c-9.3,0-13.9-6.5-13.9-14.8
				C44.3,20.2,47.6,11.9,58.7,11.9z M58.3,38c4,0,8.6-2.9,8.6-11.4c0-7-3.3-10.8-8.2-10.8c-3.4,0-8.8,2.1-8.8,11
				C49.8,32.6,52.3,38,58.3,38z"/>
		</g>
		<g>
			<path class="st1" d="M95.5,21.7c-0.1-1.3-0.5-5.9-5.6-5.9c-7.3,0-7.3,8.5-7.3,10.6c0,5.8,1.4,11.2,7,11.2c4.5,0,6-3.4,6.1-6.1
				h5.3c-0.3,5.5-4.4,10.1-11.4,10.1c-1.9,0-6.3-0.4-9.3-3.7c-1.7-2-3.4-5-3.4-10.8c0-11.8,7.2-15.3,12.8-15.3
				c1.9,0,6.1,0.4,8.7,3.5c2.1,2.4,2.3,4.7,2.4,6.3H95.5z"/>
		</g>
		<g>
			<path class="st1" d="M106.1,0h5.2v24.2l10.6-11.5h6.9l-11.9,12l12.7,16.3h-6.9l-11.3-15.3v15.3h-5.2V0z"/>
		</g>
		<g>
			<path class="st1" d="M148.3,21.7c-0.1-1.3-0.5-5.9-5.6-5.9c-7.3,0-7.3,8.5-7.3,10.6c0,5.8,1.4,11.2,7,11.2c4.5,0,6-3.4,6.1-6.1
				h5.3c-0.3,5.5-4.4,10.1-11.4,10.1c-1.9,0-6.3-0.4-9.3-3.7c-1.7-2-3.4-5-3.4-10.8c0-11.8,7.2-15.3,12.8-15.3
				c1.9,0,6.1,0.4,8.7,3.5c2.1,2.4,2.3,4.7,2.4,6.3H148.3z"/>
		</g>
		<g>
			<path class="st1" d="M158.5,0.3h5.3v16.5c1.7-3,5.2-4.7,9.2-4.7c3,0,7.3,1.1,8.9,4.5c0.6,1.1,1,2.5,1,6.6v17.7h-5.4V24.2
				c0-2.5,0-8-6.1-8c-3.9,0-5.9,2.4-6.6,3.8c-0.9,1.6-0.9,4.2-0.9,6v15h-5.3V0.3z"/>
		</g>
		<g>
			<path class="st1" d="M206.8,40.9c-0.4-1.4-0.5-2.8-0.5-4.2c-2.5,4.7-6.4,5.1-8.7,5.1c-6.5,0-10-3.7-10-8.3c0-2.3,0.8-5.9,5-8.3
				c3-1.7,7.5-1.9,9.8-1.9c1.4,0,2.2,0.1,3.8,0.2c0-3.5,0-5-1-6.3c-1.1-1.4-3.4-1.9-4.9-1.9c-5.3,0-5.6,3.7-5.7,4.8h-5.3
				c0.2-1.5,0.3-3.4,2-5.3c2.1-2.4,6.1-3,9.1-3c4.1,0,8.5,1.3,10,4.2c0.9,1.7,1,3,1,4.3l-0.2,13.5c0,0.5,0.1,4.2,0.5,7.1H206.8z
				 M203.1,27c-2.1,0-10.2,0-10.2,5.7c0,1.8,1.1,4.9,5.9,4.9c2.7,0,4.7-1.1,6-3c1.2-1.9,1.2-3.5,1.4-7.4
				C205.2,27.1,204.4,27,203.1,27z"/>
		</g>
		<g>
			<path class="st1" d="M217,0.4h6.4v5.8H217V0.4z M217.6,12.7h5.3v28.3h-5.3V12.7z"/>
		</g>
		<g>
			<path class="st1" d="M229.6,15.9l-0.1-3.3h5.3l0.1,4.6c0.6-1.2,2.6-5.1,9.1-5.1c2.5,0,10.2,1,10.2,9.6v19.2h-5.4V23
				c0-1.9-0.2-3.5-1.5-4.8c-1.4-1.3-3.2-1.9-5-1.9c-3.8,0-7.4,2.8-7.4,8.4v16.3h-5.3V15.9z"/>
		</g>
	</g>
	<g>
		<rect x="92.8" y="78.1" class="st0" width="53.1" height="2.3"/>
	</g>
</g>
</svg>
