<?xml version="1.0" encoding="utf-8"?>
<!-- Generator: Adobe Illustrator 20.1.0, SVG Export Plug-In . SVG Version: 6.00 Build 0)  -->
<svg version="1.1" id="Layer_1" xmlns="http://www.w3.org/2000/svg" xmlns:xlink="http://www.w3.org/1999/xlink" x="0px" y="0px"
	 viewBox="0 0 100 54" style="enable-background:new 0 0 100 54;" xml:space="preserve">
<style type="text/css">
	.st0{fill:#FFD27A;}
</style>
<g>
	<g>
		<circle class="st0" cx="80.5" cy="1.7" r="0.9"/>
		<circle class="st0" cx="76.9" cy="1.7" r="0.9"/>
		<circle class="st0" cx="73.4" cy="1.7" r="0.9"/>
		<circle class="st0" cx="69.8" cy="1.7" r="0.9"/>
		<circle class="st0" cx="66.2" cy="1.7" r="0.9"/>
		<circle class="st0" cx="84.1" cy="5.3" r="0.9"/>
		<circle class="st0" cx="80.5" cy="5.3" r="0.9"/>
		<circle class="st0" cx="76.9" cy="5.3" r="0.9"/>
		<circle class="st0" cx="73.4" cy="5.3" r="0.9"/>
		<circle class="st0" cx="69.8" cy="5.3" r="0.9"/>
		<circle class="st0" cx="66.2" cy="5.3" r="0.9"/>
		<circle class="st0" cx="62.6" cy="5.3" r="0.9"/>
		<circle class="st0" cx="84.1" cy="8.8" r="0.9"/>
		<circle class="st0" cx="80.5" cy="8.8" r="0.9"/>
		<circle class="st0" cx="76.9" cy="8.8" r="0.9"/>
		<circle class="st0" cx="73.4" cy="8.8" r="0.9"/>
		<circle class="st0" cx="69.8" cy="8.8" r="0.9"/>
		<circle class="st0" cx="66.2" cy="8.8" r="0.9"/>
		<circle class="st0" cx="62.6" cy="8.8" r="0.9"/>
		<circle class="st0" cx="87.7" cy="12.4" r="0.9"/>
		<circle class="st0" cx="84.1" cy="12.4" r="0.9"/>
		<circle class="st0" cx="80.5" cy="12.4" r="0.9"/>
		<circle class="st0" cx="76.9" cy="12.4" r="0.9"/>
		<circle class="st0" cx="73.4" cy="12.4" r="0.9"/>
		<circle class="st0" cx="69.8" cy="12.4" r="0.9"/>
		<circle class="st0" cx="66.2" cy="12.4" r="0.9"/>
		<circle class="st0" cx="62.6" cy="12.4" r="0.9"/>
		<circle class="st0" cx="59.1" cy="12.4" r="0.9"/>
		<circle class="st0" cx="87.7" cy="16" r="0.9"/>
		<circle class="st0" cx="84.1" cy="16" r="0.9"/>
		<circle class="st0" cx="80.5" cy="16" r="0.9"/>
		<circle class="st0" cx="76.9" cy="16" r="0.9"/>
		<circle class="st0" cx="73.4" cy="16" r="0.9"/>
		<circle class="st0" cx="69.8" cy="16" r="0.9"/>
		<circle class="st0" cx="66.2" cy="16" r="0.9"/>
		<circle class="st0" cx="62.6" cy="16" r="0.9"/>
		<circle class="st0" cx="59.1" cy="16" r="0.9"/>
		<circle class="st0" cx="94.8" cy="19.6" r="0.9"/>
		<circle class="st0" cx="91.2" cy="19.6" r="0.9"/>
		<circle class="st0" cx="87.7" cy="19.6" r="0.9"/>
		<circle class="st0" cx="84.1" cy="19.6" r="0.9"/>
		<circle class="st0" cx="80.5" cy="19.6" r="0.9"/>
		<circle class="st0" cx="76.9" cy="19.6" r="0.9"/>
		<circle class="st0" cx="73.4" cy="19.6" r="0.9"/>
		<circle class="st0" cx="69.8" cy="19.6" r="0.9"/>
		<circle class="st0" cx="66.2" cy="19.6" r="0.9"/>
		<circle class="st0" cx="62.6" cy="19.6" r="0.9"/>
		<circle class="st0" cx="59.1" cy="19.6" r="0.9"/>
		<circle class="st0" cx="55.5" cy="19.6" r="0.9"/>
		<circle class="st0" cx="51.9" cy="19.6" r="0.9"/>
		<circle class="st0" cx="48.3" cy="19.6" r="0.9"/>
		<circle class="st0" cx="44.8" cy="19.6" r="0.9"/>
		<circle class="st0" cx="41.2" cy="19.6" r="0.9"/>
		<circle class="st0" cx="37.6" cy="19.6" r="0.9"/>
		<circle class="st0" cx="98.4" cy="23.1" r="0.9"/>
		<circle class="st0" cx="87.7" cy="23.1" r="0.9"/>
		<circle class="st0" cx="84.1" cy="23.1" r="0.9"/>
		<circle class="st0" cx="80.5" cy="23.1" r="0.9"/>
		<circle class="st0" cx="76.9" cy="23.1" r="0.9"/>
		<circle class="st0" cx="73.4" cy="23.1" r="0.9"/>
		<circle class="st0" cx="69.8" cy="23.1" r="0.9"/>
		<circle class="st0" cx="66.2" cy="23.1" r="0.9"/>
		<circle class="st0" cx="62.6" cy="23.1" r="0.9"/>
		<circle class="st0" cx="59.1" cy="23.1" r="0.9"/>
		<circle class="st0" cx="55.5" cy="23.1" r="0.9"/>
		<circle class="st0" cx="98.4" cy="26.7" r="0.9"/>
		<circle class="st0" cx="87.7" cy="26.7" r="0.9"/>
		<circle class="st0" cx="84.1" cy="26.7" r="0.9"/>
		<circle class="st0" cx="80.5" cy="26.7" r="0.9"/>
		<circle class="st0" cx="76.9" cy="26.7" r="0.9"/>
		<circle class="st0" cx="73.4" cy="26.7" r="0.9"/>
		<circle class="st0" cx="69.8" cy="26.7" r="0.9"/>
		<circle class="st0" cx="66.2" cy="26.7" r="0.9"/>
		<circle class="st0" cx="62.6" cy="26.7" r="0.9"/>
		<circle class="st0" cx="59.1" cy="26.7" r="0.9"/>
		<circle class="st0" cx="55.5" cy="26.7" r="0.9"/>
		<circle class="st0" cx="51.9" cy="26.7" r="0.9"/>
		<circle class="st0" cx="48.3" cy="26.7" r="0.9"/>
		<circle class="st0" cx="44.8" cy="26.7" r="0.9"/>
		<circle class="st0" cx="41.2" cy="26.8" r="0.9"/>
		<circle class="st0" cx="37.6" cy="26.8" r="0.9"/>
		<circle class="st0" cx="98.4" cy="30.3" r="0.9"/>
		<circle class="st0" cx="87.7" cy="30.3" r="0.9"/>
		<circle class="st0" cx="84.1" cy="30.3" r="0.9"/>
		<circle class="st0" cx="80.5" cy="30.3" r="0.9"/>
		<circle class="st0" cx="76.9" cy="30.3" r="0.9"/>
		<circle class="st0" cx="73.4" cy="30.3" r="0.9"/>
		<circle class="st0" cx="69.8" cy="30.3" r="0.9"/>
		<circle class="st0" cx="66.2" cy="30.3" r="0.9"/>
		<circle class="st0" cx="62.6" cy="30.3" r="0.9"/>
		<circle class="st0" cx="59.1" cy="30.3" r="0.9"/>
		<circle class="st0" cx="55.5" cy="30.3" r="0.9"/>
		<circle class="st0" cx="51.9" cy="30.3" r="0.9"/>
		<circle class="st0" cx="48.3" cy="30.3" r="0.9"/>
		<circle class="st0" cx="44.8" cy="30.3" r="0.9"/>
		<circle class="st0" cx="41.2" cy="30.3" r="0.9"/>
		<circle class="st0" cx="37.6" cy="30.3" r="0.9"/>
		<circle class="st0" cx="94.8" cy="33.9" r="0.9"/>
		<circle class="st0" cx="91.2" cy="33.9" r="0.9"/>
		<circle class="st0" cx="87.7" cy="33.9" r="0.9"/>
		<circle class="st0" cx="84.1" cy="33.9" r="0.9"/>
		<circle class="st0" cx="80.5" cy="33.9" r="0.9"/>
		<circle class="st0" cx="76.9" cy="33.9" r="0.9"/>
		<circle class="st0" cx="73.4" cy="33.9" r="0.9"/>
		<circle class="st0" cx="69.8" cy="33.9" r="0.9"/>
		<circle class="st0" cx="66.2" cy="33.9" r="0.9"/>
		<circle class="st0" cx="62.6" cy="33.9" r="0.9"/>
		<circle class="st0" cx="59.1" cy="33.9" r="0.9"/>
		<circle class="st0" cx="55.5" cy="33.9" r="0.9"/>
		<circle class="st0" cx="51.9" cy="33.9" r="0.9"/>
		<circle class="st0" cx="48.3" cy="33.9" r="0.9"/>
		<circle class="st0" cx="44.8" cy="33.9" r="0.9"/>
		<circle class="st0" cx="41.2" cy="33.9" r="0.9"/>
		<circle class="st0" cx="37.6" cy="33.9" r="0.9"/>
		<circle class="st0" cx="87.7" cy="37.4" r="0.9"/>
		<circle class="st0" cx="84.1" cy="37.4" r="0.9"/>
		<circle class="st0" cx="80.5" cy="37.4" r="0.9"/>
		<circle class="st0" cx="76.9" cy="37.4" r="0.9"/>
		<circle class="st0" cx="73.4" cy="37.4" r="0.9"/>
		<circle class="st0" cx="69.8" cy="37.4" r="0.9"/>
		<circle class="st0" cx="66.2" cy="37.4" r="0.9"/>
		<circle class="st0" cx="62.6" cy="37.4" r="0.9"/>
		<circle class="st0" cx="59.1" cy="37.4" r="0.9"/>
		<circle class="st0" cx="87.7" cy="41" r="0.9"/>
		<circle class="st0" cx="84.1" cy="41" r="0.9"/>
		<circle class="st0" cx="80.5" cy="41" r="0.9"/>
		<circle class="st0" cx="76.9" cy="41" r="0.9"/>
		<circle class="st0" cx="73.4" cy="41" r="0.9"/>
		<circle class="st0" cx="69.8" cy="41" r="0.9"/>
		<circle class="st0" cx="66.2" cy="41" r="0.9"/>
		<circle class="st0" cx="62.6" cy="41" r="0.9"/>
		<circle class="st0" cx="59.1" cy="41" r="0.9"/>
		<circle class="st0" cx="84.1" cy="44.6" r="0.9"/>
		<circle class="st0" cx="80.5" cy="44.6" r="0.9"/>
		<circle class="st0" cx="76.9" cy="44.6" r="0.9"/>
		<circle class="st0" cx="73.4" cy="44.6" r="0.9"/>
		<circle class="st0" cx="69.8" cy="44.6" r="0.9"/>
		<circle class="st0" cx="66.2" cy="44.6" r="0.9"/>
		<circle class="st0" cx="62.6" cy="44.6" r="0.9"/>
		<circle class="st0" cx="84.1" cy="48.2" r="0.9"/>
		<circle class="st0" cx="80.5" cy="48.2" r="0.9"/>
		<circle class="st0" cx="76.9" cy="48.2" r="0.9"/>
		<circle class="st0" cx="73.4" cy="48.2" r="0.9"/>
		<circle class="st0" cx="69.8" cy="48.2" r="0.9"/>
		<circle class="st0" cx="66.2" cy="48.2" r="0.9"/>
		<circle class="st0" cx="62.6" cy="48.2" r="0.9"/>
		<circle class="st0" cx="80.5" cy="51.8" r="0.9"/>
		<circle class="st0" cx="76.9" cy="51.8" r="0.9"/>
		<circle class="st0" cx="73.4" cy="51.8" r="0.9"/>
		<circle class="st0" cx="69.8" cy="51.8" r="0.9"/>
		<circle class="st0" cx="66.2" cy="51.8" r="0.9"/>
		<circle class="st0" cx="34" cy="19.6" r="0.9"/>
		<circle class="st0" cx="30.4" cy="19.6" r="0.9"/>
		<circle class="st0" cx="26.8" cy="19.6" r="0.9"/>
		<circle class="st0" cx="23.3" cy="19.6" r="0.9"/>
		<circle class="st0" cx="19.7" cy="19.6" r="0.9"/>
		<circle class="st0" cx="34" cy="26.7" r="0.9"/>
		<circle class="st0" cx="30.4" cy="26.7" r="0.9"/>
		<circle class="st0" cx="26.8" cy="26.7" r="0.9"/>
		<circle class="st0" cx="23.3" cy="26.7" r="0.9"/>
		<circle class="st0" cx="19.7" cy="26.7" r="0.9"/>
		<circle class="st0" cx="34" cy="30.3" r="0.9"/>
		<circle class="st0" cx="30.4" cy="30.3" r="0.9"/>
		<circle class="st0" cx="26.8" cy="30.3" r="0.9"/>
		<circle class="st0" cx="23.3" cy="30.3" r="0.9"/>
		<circle class="st0" cx="19.7" cy="30.3" r="0.9"/>
		<circle class="st0" cx="30.4" cy="33.9" r="0.9"/>
		<circle class="st0" cx="26.8" cy="33.9" r="0.9"/>
		<circle class="st0" cx="23.3" cy="33.9" r="0.9"/>
		<circle class="st0" cx="19.7" cy="33.9" r="0.9"/>
		<circle class="st0" cx="16.1" cy="19.6" r="0.9"/>
		<circle class="st0" cx="12.5" cy="19.6" r="0.9"/>
		<circle class="st0" cx="9" cy="19.6" r="0.9"/>
		<circle class="st0" cx="9" cy="23.1" r="0.9"/>
		<circle class="st0" cx="5.4" cy="23.1" r="0.9"/>
		<circle class="st0" cx="1.8" cy="23.1" r="0.9"/>
		<circle class="st0" cx="16.1" cy="26.7" r="0.9"/>
		<circle class="st0" cx="12.5" cy="26.7" r="0.9"/>
		<circle class="st0" cx="9" cy="26.7" r="0.9"/>
		<circle class="st0" cx="5.4" cy="26.7" r="0.9"/>
		<circle class="st0" cx="1.8" cy="26.7" r="0.9"/>
		<circle class="st0" cx="16.1" cy="30.3" r="0.9"/>
		<circle class="st0" cx="12.5" cy="30.3" r="0.9"/>
		<circle class="st0" cx="9" cy="30.3" r="0.9"/>
		<circle class="st0" cx="5.4" cy="30.3" r="0.9"/>
		<circle class="st0" cx="16.1" cy="33.9" r="0.9"/>
		<circle class="st0" cx="9" cy="33.9" r="0.9"/>
	</g>
</g>
</svg>
