<?xml version="1.0" encoding="utf-8"?>
<!-- Generator: Adobe Illustrator 19.2.1, SVG Export Plug-In . SVG Version: 6.00 Build 0)  -->
<svg version="1.1" id="Layer_1" xmlns="http://www.w3.org/2000/svg" xmlns:xlink="http://www.w3.org/1999/xlink" x="0px" y="0px"
	 viewBox="0 0 150 150" style="enable-background:new 0 0 150 150;" xml:space="preserve">
<style type="text/css">
	.st0{fill:#FFD17A;}
</style>
<g>
	<g>
		<path class="st0" d="M33.3,42.3h-2V32l-2,2v2.5h-2v-2.5l-2-2v10.3h-2V28.6h1.5l3.5,3.4l3.5-3.4h1.5V42.3z"/>
		<path class="st0" d="M45.1,42.3h-10v-2h4v-9.8h-4v-2h10v2h-4v9.8h4V42.3z"/>
		<path class="st0" d="M57,42.3H47V28.6h2v11.8h8V42.3z"/>
		<path class="st0" d="M68.8,42.3h-10V28.6h10v2h-8v3.9h6v2h-6v3.9h8V42.3z"/>
		<path class="st0" d="M80.6,38.4c0,1.1-0.4,2-1.2,2.8c-0.8,0.8-1.7,1.1-2.8,1.1h-2c-1.1,0-2-0.4-2.8-1.1c-0.8-0.8-1.2-1.7-1.2-2.8
			h2c0,0.5,0.2,1,0.6,1.4s0.9,0.6,1.4,0.6h2c0.5,0,1-0.2,1.4-0.6s0.6-0.8,0.6-1.4s-0.2-1-0.6-1.4c-0.4-0.4-0.9-0.6-1.4-0.6h-2
			c-1.1,0-2-0.4-2.8-1.1c-0.8-0.8-1.2-1.7-1.2-2.8s0.4-2,1.2-2.8c0.8-0.8,1.7-1.1,2.8-1.1h2c1.1,0,2,0.4,2.8,1.2s1.2,1.7,1.2,2.8h-2
			c0-0.5-0.2-1-0.6-1.4s-0.9-0.6-1.4-0.6h-2c-0.5,0-1,0.2-1.4,0.6s-0.6,0.8-0.6,1.4s0.2,1,0.6,1.4s0.9,0.6,1.4,0.6h2
			c1.1,0,2,0.4,2.8,1.2C80.2,36.4,80.6,37.3,80.6,38.4z"/>
		<path class="st0" d="M92.4,30.5h-4v11.8h-2V30.5h-4v-2h10V30.5z"/>
		<path class="st0" d="M104.2,38.4c0,1.1-0.4,2-1.2,2.8c-0.8,0.8-1.7,1.1-2.8,1.1h-2c-1.1,0-2-0.4-2.8-1.1c-0.8-0.8-1.2-1.7-1.2-2.8
			v-5.9c0-1.1,0.4-2,1.2-2.8c0.8-0.8,1.7-1.1,2.8-1.1h2c1.1,0,2,0.4,2.8,1.2s1.2,1.7,1.2,2.8V38.4z M102.2,38.4v-5.9
			c0-0.5-0.2-1-0.6-1.4s-0.9-0.6-1.4-0.6h-2c-0.5,0-1,0.2-1.4,0.6c-0.4,0.4-0.6,0.8-0.6,1.4v5.9c0,0.5,0.2,1,0.6,1.4
			c0.4,0.4,0.9,0.6,1.4,0.6h2c0.5,0,1-0.2,1.4-0.6S102.2,38.9,102.2,38.4z"/>
		<path class="st0" d="M116.1,42.3h-2v-4.5l-6-5.9v10.4h-2V28.6h1.4l6.6,6.5v-6.5h2V42.3z"/>
		<path class="st0" d="M127.9,42.3h-10V28.6h10v2h-8v3.9h6v2h-6v3.9h8V42.3z"/>
	</g>
	<g>
		<path class="st0" d="M71.2,100c0,5.2-1.9,9.6-5.6,13.3c-3.7,3.7-8.3,5.5-13.6,5.5h-9.6c-5.3,0-9.8-1.8-13.6-5.5
			c-3.7-3.7-5.6-8.1-5.6-13.3V71.8c0-5.2,1.9-9.6,5.6-13.3c3.7-3.7,8.3-5.5,13.6-5.5H52c5.3,0,9.8,1.8,13.6,5.5
			c3.7,3.7,5.6,8.1,5.6,13.3V100z M60.2,66.7c-1.9-2.9-4.6-4.3-8.2-4.3h-9.6c-2.6,0-4.9,0.9-6.8,2.8c-1.9,1.8-2.8,4.1-2.8,6.6v21.7
			L60.2,66.7z M61.6,100V78.5l-27.1,26.6c1.9,2.9,4.6,4.3,8,4.3H52c2.6,0,4.9-0.9,6.8-2.8C60.7,104.8,61.6,102.6,61.6,100z"/>
		<path class="st0" d="M89.5,100c0,2.6,0.9,4.8,2.8,6.6c1.9,1.8,4.1,2.8,6.8,2.8h9.6c2.6,0,4.9-0.9,6.8-2.8c1.9-1.8,2.8-4.1,2.8-6.6
			c0-2.6-0.9-4.8-2.8-6.6c-1.9-1.8-4.1-2.8-6.8-2.8h-9.6v-9.4h9.6c2.6,0,4.9-0.9,6.8-2.8c1.9-1.8,2.8-4.1,2.8-6.6
			c0-2.6-0.9-4.8-2.8-6.6c-1.9-1.8-4.1-2.8-6.8-2.8h-9.6c-2.6,0-4.9,0.9-6.8,2.8c-1.9,1.8-2.8,4.1-2.8,6.6h-9.6
			c0-5.2,1.9-9.6,5.6-13.3S93.8,53,99.1,53h9.6c5.3,0,9.8,1.8,13.6,5.5s5.6,8.1,5.6,13.3c0,5.6-2.7,10.3-8.2,14.1
			c5.4,3.8,8.2,8.5,8.2,14.1c0,5.2-1.9,9.6-5.6,13.3c-3.7,3.7-8.3,5.5-13.6,5.5h-9.6c-5.3,0-9.8-1.8-13.6-5.5
			c-3.7-3.7-5.6-8.1-5.6-13.3H89.5z"/>
	</g>
</g>
</svg>
