<?xml version="1.0" encoding="utf-8"?>
<!-- Generator: Adobe Illustrator 20.1.0, SVG Export Plug-In . SVG Version: 6.00 Build 0)  -->
<svg version="1.1" id="Layer_1" xmlns="http://www.w3.org/2000/svg" xmlns:xlink="http://www.w3.org/1999/xlink" x="0px" y="0px"
	 viewBox="0 0 141 141" style="enable-background:new 0 0 141 141;" xml:space="preserve">
<style type="text/css">
	.st0{fill:#FFFFFF;}
</style>
<g>
	<g>
		<g>
			<path class="st0" d="M137.3,73.9c-1.8,0-3.3-1.5-3.3-3.3c0-16.6-6.4-32.3-17.9-44.2c-1.3-1.3-1.2-3.4,0.1-4.7
				c1.3-1.3,3.4-1.2,4.7,0.1c12.8,13.2,19.8,30.5,19.8,48.8C140.6,72.4,139.2,73.9,137.3,73.9z"/>
		</g>
	</g>
	<g>
		<g>
			<path class="st0" d="M26.4,23.7c-0.9,0-1.8-0.4-2.5-1.1c-1.2-1.4-1.1-3.5,0.3-4.7C37,6.6,53.4,0.4,70.5,0.4
				c13.2,0,26,3.7,37.1,10.6c1.6,1,2,3,1.1,4.6c-1,1.6-3,2-4.6,1.1C94,10.4,82.4,7,70.5,7C55,7,40.1,12.7,28.6,22.9
				C27.9,23.4,27.1,23.7,26.4,23.7z"/>
		</g>
	</g>
	<g>
		<g>
			<path class="st0" d="M24.1,22.5"/>
		</g>
	</g>
	<g>
		<g>
			<path class="st0" d="M3.7,73.9c-1.8,0-3.3-1.5-3.3-3.3c0-15,4.7-29.3,13.5-41.4c1.1-1.5,3.2-1.8,4.6-0.7c1.5,1.1,1.8,3.2,0.7,4.6
				C11.2,44,7,56.9,7,70.5C7,72.4,5.5,73.9,3.7,73.9z"/>
		</g>
	</g>
	<g>
		<g>
			<path class="st0" d="M53.3,138.4c-0.8,0-1.6-0.3-2.2-0.9c-1.4-1.2-1.5-3.3-0.2-4.7c24.9-27.3,16.5-61.1,16.5-61.4
				c-0.5-1.8,0.6-3.6,2.4-4c1.8-0.5,3.6,0.6,4,2.4c0.4,1.5,9.3,37.6-18,67.5C55.1,138.1,54.2,138.4,53.3,138.4z"/>
		</g>
	</g>
	<g>
		<g>
			<path class="st0" d="M24.5,122.3c-0.7,0-1.5-0.2-2.1-0.7c-1.4-1.2-1.7-3.2-0.5-4.7c15.4-19.2,12.8-41.1,12.8-41.3l0-0.1l-0.3-3.3
				c0-0.5,0-1,0-1.5c0-5.4,1.2-10.6,3.5-15.5c0.8-1.7,2.8-2.4,4.4-1.6c1.7,0.8,2.4,2.8,1.6,4.4C42,62,41,66.2,41,70.7
				c0,0.4,0,0.8,0,1.1l0.2,3C41.5,76.6,44,100,27,121C26.4,121.8,25.4,122.3,24.5,122.3z"/>
		</g>
	</g>
	<g>
		<g>
			<path class="st0" d="M50.2,48.2c-1,0-2-0.4-2.6-1.3c-1.1-1.4-0.9-3.5,0.6-4.7c6.4-5.1,14.2-7.7,22.4-7.7c5.6,0,11,1.3,16,3.7
				c1.6,0.8,2.3,2.8,1.5,4.5c-0.8,1.6-2.8,2.3-4.5,1.5c-4.1-2-8.5-3-13.1-3c-6.7,0-13,2.2-18.2,6.3C51.6,48,50.9,48.2,50.2,48.2z"/>
		</g>
	</g>
	<g>
		<g>
			<path class="st0" d="M105.5,98.9c-0.1,0-0.2,0-0.3,0c-1.8-0.1-3.2-1.7-3.1-3.6c1-12.6-1-23.3-2.8-30.1l-0.1-0.4l0-0.3
				c-0.9-4.2-2.7-8.2-5.3-11.6c-1.1-1.5-0.8-3.5,0.6-4.7c1.5-1.1,3.5-0.8,4.7,0.6c3.3,4.3,5.6,9.3,6.6,14.6l0.1,0.5
				c1.9,7.3,3.9,18.7,2.9,31.9C108.7,97.5,107.3,98.9,105.5,98.9z"/>
		</g>
	</g>
	<g>
		<g>
			<path class="st0" d="M93.3,136.7c-0.6,0-1.2-0.2-1.7-0.5c-1.6-1-2.1-3-1.1-4.6c4.4-7.2,7.6-14.9,9.6-22.9c0.4-1.8,2.2-2.9,4-2.4
				c1.8,0.4,2.9,2.2,2.4,4c-2.2,8.7-5.7,17-10.4,24.8C95.5,136.1,94.4,136.7,93.3,136.7z"/>
		</g>
	</g>
	<g>
		<g>
			<path class="st0" d="M73.4,137.3"/>
		</g>
	</g>
	<g>
		<g>
			<path class="st0" d="M37.5,131.9c-0.8,0-1.6-0.3-2.3-0.9c-1.3-1.3-1.4-3.4-0.1-4.7c5.8-6.1,10.1-13.2,12.9-20.9
				c0.6-1.7,2.5-2.6,4.2-2c1.7,0.6,2.6,2.5,2,4.2c-3.1,8.6-7.9,16.5-14.3,23.3C39.2,131.5,38.3,131.9,37.5,131.9z"/>
		</g>
	</g>
	<g>
		<g>
			<path class="st0" d="M53.7,96.2"/>
		</g>
	</g>
	<g>
		<g>
			<path class="st0" d="M54.4,94.7c-0.1,0-0.2,0-0.3,0c-1.8-0.2-3.2-1.8-3-3.6c0.8-8.4-0.3-14.4-0.5-15.2l-0.2-0.8
				C50.1,73.8,50,72.4,50,71c0-11.3,9.2-20.5,20.5-20.5c8.5,0,16,5.1,19.1,12.9l0,0l0,0.1c0.2,0.5,0.3,0.9,0.5,1.4l-0.1,0
				c0.4,1.5,1.1,4.2,1.7,7.8c0.3,1.8-0.9,3.5-2.7,3.8c-1.8,0.3-3.5-0.9-3.8-2.7c-0.7-4.4-1.6-7.4-1.9-8.1c-2.1-5.2-7.1-8.6-12.9-8.6
				c-7.7,0-13.9,6.2-13.9,13.9c0,0.9,0.1,1.8,0.3,2.7l0.2,0.7c0.1,0.3,1.6,7.3,0.6,17.4C57.5,93.5,56.1,94.7,54.4,94.7z"/>
		</g>
	</g>
	<g>
		<g>
			<path class="st0" d="M73.4,140.6c-0.7,0-1.4-0.2-2-0.7c-1.5-1.1-1.8-3.2-0.6-4.7c13.6-17.9,16-37,15.6-49.8
				c-0.1-1.8,1.4-3.4,3.2-3.4c1.8,0,3.4,1.4,3.4,3.2c0.4,13.9-2.2,34.6-17,54C75.4,140.2,74.4,140.6,73.4,140.6z"/>
		</g>
	</g>
	<g>
		<g>
			<path class="st0" d="M37.5,128.5"/>
		</g>
	</g>
	<g>
		<g>
			<path class="st0" d="M11.2,105.2c-0.6,0-1.2-0.2-1.8-0.5c-1.6-1-2-3-1.1-4.6c5.8-9.2,8.6-19.2,8.5-29.8c0-1.5,0-3,0.2-4.5
				c0.1-1.8,1.7-3.2,3.6-3.1c1.8,0.1,3.2,1.7,3.1,3.6c-0.1,1.3-0.1,2.6-0.1,3.9c0.1,11.8-3.1,23.1-9.5,33.4
				C13.4,104.7,12.3,105.2,11.2,105.2z"/>
		</g>
	</g>
	<g>
		<g>
			<path class="st0" d="M20.4,66.1"/>
		</g>
	</g>
	<g>
		<g>
			<path class="st0" d="M24.2,54.2c-0.4,0-0.9-0.1-1.3-0.3c-1.7-0.7-2.4-2.7-1.7-4.4c5.3-12.1,15.4-22.2,27.6-27.8
				c1.7-0.8,3.6,0,4.4,1.7c0.8,1.7,0,3.6-1.7,4.4c-10.8,4.9-19.6,13.8-24.3,24.4C26.7,53.5,25.5,54.2,24.2,54.2z"/>
		</g>
	</g>
	<g>
		<g>
			<path class="st0" d="M50.2,24.8"/>
		</g>
	</g>
	<g>
		<g>
			<path class="st0" d="M118.6,59.9c-1.4,0-2.7-0.9-3.2-2.3c-3.4-10.5-8.8-18.4-16.4-24.2c-9.2-7.1-21-10.6-32.7-9.5
				c-1.8,0.2-3.4-1.2-3.6-3c-0.2-1.8,1.2-3.4,3-3.6C79.1,16,92.6,20,103.2,28.1c8.7,6.7,14.8,15.7,18.6,27.4
				c0.6,1.7-0.4,3.6-2.1,4.2C119.3,59.9,119,59.9,118.6,59.9z"/>
		</g>
	</g>
	<g>
		<g>
			<path class="st0" d="M115.9,122.7c-0.5,0-0.9-0.1-1.4-0.3c-1.7-0.8-2.4-2.7-1.6-4.4c6.2-13.5,8.3-29.4,5.9-45.7
				c-0.3-1.8,1-3.5,2.8-3.8c1.8-0.3,3.5,1,3.8,2.8c2.6,17.7,0.4,34.8-6.4,49.5C118.4,121.9,117.2,122.7,115.9,122.7z"/>
		</g>
	</g>
</g>
</svg>
