<?xml version="1.0" encoding="utf-8"?>
<!-- Generator: Adobe Illustrator 20.1.0, SVG Export Plug-In . SVG Version: 6.00 Build 0)  -->
<svg version="1.1" id="Layer_1" xmlns="http://www.w3.org/2000/svg" xmlns:xlink="http://www.w3.org/1999/xlink" x="0px" y="0px"
	 viewBox="0 0 200 294" style="enable-background:new 0 0 200 294;" xml:space="preserve">
<style type="text/css">
	.st0{fill:#FFFFFF;}
</style>
<g>
	<g>
		<rect class="st0" width="200" height="294"/>
	</g>
	<g>
		<path d="M47.8,35.4c0-1.4-0.2-2.7-1.9-2.7c-2,0-2,2.7-2,5.7c0,4.9,0.5,5.7,2.3,5.7c0.5,0,1.1-0.1,1.6-0.3v-3.4H46v-2.4h5v7.9
			c-0.9,0.2-3.1,0.5-4.4,0.5c-5.5,0-6.1-2.3-6.1-8.1c0-3.9,0.2-7.9,5.5-7.9c3.2,0,5.2,1.8,5,5H47.8z"/>
		<path d="M56.1,35.3v1.4h0c0.6-1.2,1.6-1.6,2.8-1.6v2.7c-2.7-0.2-2.7,1.4-2.7,2.5v5.9h-3V35.3H56.1z"/>
		<path d="M62.7,41.2c0,1.3,0,3.2,1.4,3.2c1.1,0,1.3-1,1.3-1.9h3.1c0,1.2-0.4,2.1-1.2,2.8c-0.7,0.7-1.8,1.1-3.2,1.1
			c-3.9,0-4.4-2.4-4.4-5.8c0-3,0.4-5.5,4.4-5.5c4.1,0,4.5,2.6,4.4,6.1H62.7z M65.5,39.5c0-1.1,0-2.6-1.4-2.6c-1.4,0-1.4,1.6-1.4,2.6
			H65.5z"/>
		<path d="M73.1,41.2c0,1.3,0,3.2,1.4,3.2c1.1,0,1.3-1,1.3-1.9h3.1c0,1.2-0.4,2.1-1.2,2.8c-0.7,0.7-1.8,1.1-3.2,1.1
			c-3.9,0-4.4-2.4-4.4-5.8c0-3,0.4-5.5,4.4-5.5c4.1,0,4.5,2.6,4.4,6.1H73.1z M75.8,39.5c0-1.1,0-2.6-1.4-2.6c-1.4,0-1.4,1.6-1.4,2.6
			H75.8z"/>
		<path d="M83.6,36.4L83.6,36.4c0.3-0.5,0.7-0.8,1.1-1c0.4-0.2,0.9-0.3,1.5-0.3c1.4,0,2.7,0.9,2.7,2.4v8.7h-3v-7.5
			c0-1-0.2-1.7-1.1-1.7c-1,0-1.1,0.8-1.1,1.7v7.5h-3V35.3h3V36.4z"/>
		<path d="M102.5,35.4c0-1.4-0.2-2.7-1.9-2.7c-2,0-2,2.7-2,5.7c0,4.9,0.5,5.7,2.3,5.7c0.5,0,1.1-0.1,1.6-0.3v-3.4h-1.8v-2.4h5v7.9
			c-0.9,0.2-3.1,0.5-4.4,0.5c-5.5,0-6.1-2.3-6.1-8.1c0-3.9,0.2-7.9,5.5-7.9c3.2,0,5.2,1.8,5,5H102.5z"/>
		<path d="M110.8,35.3v1.4h0c0.6-1.2,1.6-1.6,2.8-1.6v2.7c-2.7-0.2-2.7,1.4-2.7,2.5v5.9h-3V35.3H110.8z"/>
		<path d="M114.4,40.6c0-3,0.4-5.5,4.4-5.5s4.4,2.5,4.4,5.5c0,3.4-0.5,5.8-4.4,5.8C114.9,46.4,114.4,44,114.4,40.6z M120.2,40.4
			c0-2.3-0.1-3.4-1.4-3.4s-1.4,1.1-1.4,3.4c0,3.3,0.3,4,1.4,4C120,44.5,120.2,43.8,120.2,40.4z"/>
		<path d="M130.5,39.2c0-1.6-0.4-2.1-1.4-2.1c-1.3,0-1.4,1.1-1.4,3.4c0,3.3,0.3,4,1.4,4c0.9,0,1.4-0.9,1.4-2.3h3
			c0,2.9-1.6,4.2-4.4,4.2c-3.9,0-4.4-2.4-4.4-5.8c0-3,0.4-5.5,4.4-5.5c2.8,0,4.4,1.2,4.4,4.1H130.5z"/>
		<path d="M138.1,41.2c0,1.3,0,3.2,1.4,3.2c1.1,0,1.3-1,1.3-1.9h3.1c0,1.2-0.4,2.1-1.2,2.8c-0.7,0.7-1.8,1.1-3.2,1.1
			c-3.9,0-4.4-2.4-4.4-5.8c0-3,0.4-5.5,4.4-5.5c4.1,0,4.5,2.6,4.4,6.1H138.1z M140.9,39.5c0-1.1,0-2.6-1.4-2.6
			c-1.4,0-1.4,1.6-1.4,2.6H140.9z"/>
		<path d="M148.5,35.3v1.4h0c0.6-1.2,1.6-1.6,2.8-1.6v2.7c-2.7-0.2-2.7,1.4-2.7,2.5v5.9h-3V35.3H148.5z"/>
		<path d="M154.3,46.3l-2.9-10.9h3l1.5,7.6h0l1.6-7.6h2.9l-4.2,15h-3.2L154.3,46.3z"/>
	</g>
	<g>
		<path d="M70.8,60.2c0,0.4,0.1,1,1.2,1c1.1,0,1.2-0.7,1.2-0.9c0-0.6-0.5-0.7-1.2-0.9c-0.8-0.2-1.1-0.3-1.4-0.5
			c-0.4-0.3-0.5-0.7-0.5-1c0-1.1,1-1.5,2-1.5c0.3,0,1,0.1,1.5,0.5c0.3,0.3,0.3,0.7,0.3,0.9h-0.7c0-0.6-0.6-0.8-1.1-0.8
			c-0.7,0-1.1,0.3-1.1,0.8c0,0.5,0.3,0.6,0.9,0.8c1.2,0.3,1.4,0.3,1.7,0.5c0.5,0.3,0.5,0.8,0.5,1c0,0.9-0.7,1.6-2,1.6
			c-0.4,0-1.2-0.1-1.6-0.6c-0.3-0.4-0.3-0.8-0.3-1H70.8z"/>
		<path d="M76.3,56.5h3.2v0.6H77v1.6h2.4v0.6H77v1.7h2.6v0.6h-3.3V56.5z"/>
		<path d="M83.6,56.5h0.8l2.1,5.2h-0.8l-0.6-1.3h-2.4l-0.6,1.3h-0.7L83.6,56.5z M83,59.8h2l-1-2.5L83,59.8z"/>
		<path d="M89.8,61.7v-4.6H88v-0.6h4.2v0.6h-1.7v4.6H89.8z"/>
		<path d="M95.4,61.7v-4.6h-1.7v-0.6h4.2v0.6h-1.7v4.6H95.4z"/>
		<path d="M99.9,56.5h0.7v4.5h2.4v0.6h-3.1V56.5z"/>
		<path d="M105,56.5h3.2v0.6h-2.5v1.6h2.4v0.6h-2.4v1.7h2.6v0.6H105V56.5z"/>
		<path d="M111.8,60.8l-0.8,1.8h-0.5l0.5-1.8H111.8z"/>
		<path d="M117.5,56.5l1.1,4.3l1.2-4.3h0.9l1.2,4.3l1.2-4.3h0.7l-1.5,5.2h-0.8l-1.2-4.4l-1.3,4.4h-0.8l-1.5-5.2H117.5z"/>
		<path d="M127.4,56.5h0.8l2.1,5.2h-0.8l-0.6-1.3h-2.4l-0.6,1.3h-0.7L127.4,56.5z M126.8,59.8h2l-1-2.5L126.8,59.8z"/>
	</g>
	<g>
		<path d="M15.7,184.1c0-0.2-0.1-0.9-1.1-0.9c-1.2,0-1.5,1.3-1.5,2.1c0,1,0.3,2,1.5,2c0.3,0,0.6-0.1,0.8-0.3
			c0.2-0.2,0.2-0.4,0.3-0.5h0.8c-0.1,1-1,1.4-1.9,1.4c-1.8,0-2.2-1.6-2.2-2.6c0-1.1,0.4-2.7,2.3-2.7c0.7,0,1.8,0.3,1.9,1.5H15.7z"/>
		<path d="M20.3,182.7H21l2.1,5.2h-0.8l-0.6-1.3h-2.4l-0.6,1.3h-0.7L20.3,182.7z M19.6,186h2l-1-2.5L19.6,186z"/>
		<path d="M25.1,182.7H27c0.3,0,0.8,0,1.2,0.2c0.4,0.2,0.6,0.6,0.6,1.1c0,0.4-0.1,0.7-0.4,0.9c-0.2,0.2-0.5,0.3-0.6,0.3
			c0.5,0.1,0.7,0.4,0.8,1c0.1,0.6,0.1,1.1,0.3,1.6h-0.8c-0.1-0.3-0.2-1-0.2-1.4c-0.1-0.8-0.3-1-1.1-1h-0.9v2.3h-0.7V182.7z
			 M25.8,184.9h1.1c0.1,0,0.5,0,0.7-0.1c0.1-0.1,0.4-0.2,0.4-0.7c0-0.8-0.7-0.8-1-0.8h-1.1V184.9z"/>
		<path d="M31.2,182.7h1.5c0.7,0,1.5,0,2.1,0.7c0.5,0.5,0.6,1.2,0.6,2c0,1.1-0.5,1.8-0.9,2.1c-0.5,0.4-1.1,0.4-1.9,0.4h-1.5V182.7z
			 M31.9,187.3h0.7c0.5,0,1,0,1.4-0.3c0.7-0.5,0.7-1.3,0.7-1.6c0-0.2,0-1.1-0.5-1.6c-0.3-0.4-0.7-0.5-1.4-0.5h-0.9V187.3z"/>
	</g>
	<g>
		<path d="M127.6,119.8c-0.5,0.4-1.3,0.9-1.9,1.2v-1.2c0.8-0.4,1.5-0.9,2-1.3h1.1v8.3h-1.1V119.8z"/>
		<path d="M133.8,125.7l2.2-2.1c0.5-0.4,0.9-0.9,1.3-1.4c0.5-0.7,0.6-1,0.6-1.5c0-0.4-0.1-1.3-1.3-1.3c-1.3,0-1.3,1.1-1.3,1.4h-1.3
			c0-0.4,0-1.2,0.8-1.8c0.6-0.5,1.3-0.6,1.8-0.6c1.3,0,2.6,0.6,2.6,2.4c0,0.5,0,0.9-0.9,2.1c-0.2,0.3-1.3,1.4-1.5,1.6l-1.4,1.4h3.9
			v0.9h-5.3V125.7z"/>
		<path d="M142.9,120.7h1.3v1.4h-1.3V120.7z M142.9,125.4h1.3v1.4h-1.3V125.4z"/>
		<path d="M149.3,124.8c0,0.8,0.8,1.2,1.4,1.2c1.4,0,1.6-1.4,1.6-1.9c0-1.1-0.6-1.8-1.6-1.8c-0.5,0-0.9,0.2-1.1,0.4
			c-0.3,0.3-0.3,0.5-0.4,0.7h-1.1l0.2-4.9h4.6v1h-3.6l-0.2,2.7c0.3-0.3,0.8-0.8,1.7-0.8c1.7,0,2.5,1.3,2.5,2.7c0,1.6-1.1,2.9-3,2.9
			c-1.3,0-2.4-0.7-2.5-2.2H149.3z"/>
		<path d="M158,124.8c0,0.7,0.4,1.2,1.3,1.2c1.8,0,1.8-2.1,1.8-3.4c-0.4,0.8-1.2,1-1.9,1c-1.3,0-2.5-0.9-2.5-2.6
			c0-1.9,1.4-2.7,2.7-2.7c0.9,0,2.2,0.4,2.7,2c0.1,0.5,0.2,1.1,0.2,2.2c0,1.2,0,4.4-3,4.4c-1.1,0-2.4-0.4-2.5-2.2H158z M159.4,119.2
			c-1,0-1.5,0.8-1.5,1.8c0,1.1,0.7,1.7,1.6,1.7c0.9,0,1.5-0.7,1.5-1.7C161,119.8,160.2,119.2,159.4,119.2z"/>
		<path d="M166,120.7h1.3v1.4H166V120.7z M166,125.4h1.3v1.4H166V125.4z"/>
		<path d="M171.1,125.7l2.2-2.1c0.5-0.4,0.9-0.9,1.3-1.4c0.5-0.7,0.6-1,0.6-1.5c0-0.4-0.1-1.3-1.3-1.3c-1.3,0-1.4,1.1-1.4,1.4h-1.3
			c0-0.4,0-1.2,0.8-1.8c0.6-0.5,1.3-0.6,1.8-0.6c1.3,0,2.6,0.6,2.6,2.4c0,0.5,0,0.9-0.9,2.1c-0.2,0.3-1.3,1.4-1.5,1.6l-1.4,1.4h3.9
			v0.9h-5.3V125.7z"/>
		<path d="M182.5,119.8c-0.5,0.4-1.3,0.9-1.9,1.2v-1.2c0.8-0.4,1.5-0.9,2-1.3h1.1v8.3h-1.1V119.8z"/>
	</g>
	<g>
		<path d="M13,151.2c0.5-0.6,1.2-0.7,1.7-0.7c1.4,0,2.3,0.9,2.3,2.7c0,1.4-0.6,2.8-2.4,2.8c-1.8,0-2.3-1.3-2.3-2.7
			C12.4,152.7,12.5,151.8,13,151.2z M13.6,154.9c0.3,0.4,0.7,0.5,1.1,0.5c0.4,0,0.8-0.1,1.1-0.5c0.4-0.5,0.5-1.3,0.5-1.7
			c0-1.2-0.4-2.1-1.6-2.1c-1.3,0-1.6,1.1-1.6,2.1C13.1,153.8,13.2,154.4,13.6,154.9z"/>
		<path d="M19.4,150.7h1.9c0.3,0,0.8,0,1.2,0.2c0.4,0.2,0.6,0.6,0.6,1.1c0,0.4-0.1,0.7-0.4,0.9c-0.2,0.2-0.5,0.3-0.6,0.3
			c0.5,0.1,0.7,0.4,0.8,1c0.1,0.6,0.1,1.1,0.3,1.6h-0.8c-0.1-0.3-0.2-1-0.2-1.4c-0.1-0.8-0.3-1-1.1-1h-0.9v2.3h-0.7V150.7z
			 M20.1,152.9h1.1c0.1,0,0.5,0,0.7-0.1c0.1-0.1,0.4-0.2,0.4-0.7c0-0.8-0.7-0.8-1-0.8h-1.1V152.9z"/>
		<path d="M25.5,150.7H27c0.7,0,1.5,0,2.1,0.7c0.5,0.5,0.6,1.2,0.6,2c0,1.1-0.5,1.8-0.9,2.1c-0.5,0.4-1.1,0.4-1.9,0.4h-1.5V150.7z
			 M26.2,155.3h0.7c0.5,0,1,0,1.4-0.3c0.7-0.5,0.7-1.3,0.7-1.6c0-0.2,0-1.1-0.5-1.6c-0.3-0.4-0.7-0.5-1.4-0.5h-0.9V155.3z"/>
		<path d="M31.9,150.7h3.2v0.6h-2.5v1.6H35v0.6h-2.4v1.7h2.6v0.6h-3.3V150.7z"/>
		<path d="M37.6,150.7h1.9c0.3,0,0.8,0,1.2,0.2c0.4,0.2,0.6,0.6,0.6,1.1c0,0.4-0.1,0.7-0.4,0.9c-0.2,0.2-0.5,0.3-0.6,0.3
			c0.5,0.1,0.7,0.4,0.8,1c0.1,0.6,0.1,1.1,0.3,1.6h-0.8c-0.1-0.3-0.2-1-0.2-1.4c-0.1-0.8-0.3-1-1.1-1h-0.9v2.3h-0.7V150.7z
			 M38.3,152.9h1.1c0.1,0,0.5,0,0.7-0.1c0.1-0.1,0.4-0.2,0.4-0.7c0-0.8-0.7-0.8-1-0.8h-1.1V152.9z"/>
	</g>
	<g>
		<path d="M86.9,229.6V225h-1.7v-0.6h4.2v0.6h-1.7v4.6H86.9z"/>
		<path d="M91.8,225c0.5-0.6,1.2-0.7,1.7-0.7c1.4,0,2.3,0.9,2.3,2.7c0,1.4-0.6,2.8-2.4,2.8c-1.8,0-2.3-1.3-2.3-2.7
			C91.1,226.5,91.2,225.6,91.8,225z M92.3,228.7c0.3,0.4,0.7,0.5,1.1,0.5c0.4,0,0.8-0.1,1.1-0.5c0.4-0.5,0.5-1.3,0.5-1.7
			c0-1.2-0.4-2.1-1.6-2.1c-1.3,0-1.6,1.1-1.6,2.1C91.9,227.6,92,228.2,92.3,228.7z"/>
		<path d="M99.5,229.6V225h-1.7v-0.6h4.2v0.6h-1.7v4.6H99.5z"/>
		<path d="M105.5,224.4h0.8l2.1,5.2h-0.8l-0.6-1.3h-2.4l-0.6,1.3h-0.7L105.5,224.4z M104.8,227.7h2l-1-2.5L104.8,227.7z"/>
		<path d="M110.4,224.4h0.7v4.5h2.4v0.6h-3.1V224.4z"/>
	</g>
	<g>
		<path d="M61.7,275.5H63l1.5,4.3l1.5-4.3h1.2v5.2h-0.7V276l-1.7,4.7H64l-1.6-4.6v4.6h-0.7V275.5z"/>
		<path d="M69.7,275.5h3.2v0.6h-2.5v1.6h2.4v0.6h-2.4v1.7H73v0.6h-3.3V275.5z"/>
		<path d="M75.4,275.5h1.9c0.3,0,0.8,0,1.2,0.2c0.4,0.2,0.6,0.6,0.6,1.1c0,0.4-0.1,0.7-0.4,0.9c-0.2,0.2-0.5,0.3-0.6,0.3
			c0.5,0.1,0.7,0.4,0.8,1c0.1,0.6,0.1,1.1,0.3,1.6h-0.8c-0.1-0.3-0.2-1-0.2-1.4c-0.1-0.8-0.3-1-1.1-1h-0.9v2.3h-0.7V275.5z
			 M76.1,277.7h1.1c0.1,0,0.5,0,0.7-0.1c0.1-0.1,0.4-0.2,0.4-0.7c0-0.8-0.7-0.8-1-0.8h-1.1V277.7z"/>
		<path d="M84.6,276.9c0-0.2-0.1-0.9-1.1-0.9c-1.2,0-1.5,1.3-1.5,2.1c0,1,0.3,2,1.5,2c0.3,0,0.6-0.1,0.8-0.3
			c0.2-0.2,0.2-0.4,0.3-0.5h0.8c-0.1,1-1,1.4-1.9,1.4c-1.8,0-2.2-1.6-2.2-2.6c0-1.1,0.4-2.7,2.3-2.7c0.7,0,1.8,0.3,1.9,1.5H84.6z"/>
		<path d="M88.3,275.5v2.2h2.5v-2.2h0.7v5.2h-0.7v-2.3h-2.5v2.3h-0.7v-5.2H88.3z"/>
		<path d="M95.6,275.5h0.8l2.1,5.2h-0.8l-0.6-1.3h-2.4l-0.6,1.3h-0.7L95.6,275.5z M95,278.8h2l-1-2.5L95,278.8z"/>
		<path d="M100.5,275.5h1l2.5,4.3v-4.3h0.7v5.2h-0.9l-2.6-4.4v4.4h-0.7V275.5z"/>
		<path d="M108.6,280.7v-4.6h-1.7v-0.6h4.2v0.6h-1.7v4.6H108.6z"/>
		<path d="M119.4,276.9c0-0.2-0.1-0.9-1.1-0.9c-1.2,0-1.5,1.3-1.5,2.1c0,1,0.3,2,1.5,2c0.3,0,0.6-0.1,0.8-0.3
			c0.2-0.2,0.2-0.4,0.3-0.5h0.8c-0.1,1-1,1.4-1.9,1.4c-1.8,0-2.2-1.6-2.2-2.6c0-1.1,0.4-2.7,2.3-2.7c0.7,0,1.8,0.3,1.9,1.5H119.4z"
			/>
		<path d="M122.8,276.1c0.5-0.6,1.2-0.7,1.7-0.7c1.4,0,2.3,0.9,2.3,2.7c0,1.4-0.6,2.8-2.4,2.8c-1.8,0-2.3-1.3-2.3-2.7
			C122.1,277.5,122.2,276.7,122.8,276.1z M123.4,279.7c0.3,0.4,0.7,0.5,1.1,0.5c0.4,0,0.8-0.1,1.1-0.5c0.4-0.5,0.5-1.3,0.5-1.7
			c0-1.2-0.4-2.1-1.6-2.1c-1.3,0-1.6,1.1-1.6,2.1C122.9,278.7,123,279.3,123.4,279.7z"/>
		<path d="M129.2,275.5h1.7c0.6,0,1.1,0,1.4,0.4c0.3,0.3,0.4,0.6,0.4,1c0,0.4-0.1,0.7-0.4,1c-0.3,0.3-0.6,0.4-1.6,0.4h-0.8v2.3h-0.7
			V275.5z M129.9,277.8h0.9c0.5,0,1.2,0,1.2-0.9c0-0.8-0.7-0.8-1-0.8h-1V277.8z"/>
		<path d="M136.3,278.6l-2-3.1h0.9l1.5,2.5l1.5-2.5h0.8l-2,3.2v2h-0.7V278.6z"/>
	</g>
	<g>
		<path d="M121,150.3c2.5,0,2.8,2.7,2.8,4.2c0,2-0.4,3.1-1.1,3.8c-0.6,0.5-1.3,0.6-1.6,0.6c-1.1,0-1.9-0.6-2.2-1.4
			c-0.3-0.5-0.5-1.4-0.5-2.8C118.3,153.5,118.4,150.3,121,150.3z M121,157.9c1.4,0,1.6-1.8,1.6-3.3c0-2-0.3-3.4-1.6-3.4
			c-1.4,0-1.6,1.9-1.6,3.4C119.4,156.5,119.8,157.9,121,157.9z"/>
		<path d="M127.2,157.6l2.2-2.1c0.5-0.4,0.9-0.9,1.3-1.4c0.5-0.7,0.6-1,0.6-1.5c0-0.4-0.1-1.3-1.3-1.3c-1.3,0-1.3,1.1-1.3,1.4h-1.3
			c0-0.4,0-1.2,0.8-1.8c0.6-0.5,1.3-0.6,1.8-0.6c1.3,0,2.6,0.6,2.6,2.4c0,0.5,0,0.9-0.9,2.1c-0.2,0.3-1.3,1.4-1.5,1.6l-1.4,1.4h3.9
			v0.9h-5.3V157.6z"/>
		<path d="M138.6,150.3c2.5,0,2.8,2.7,2.8,4.2c0,2-0.4,3.1-1.1,3.8c-0.6,0.5-1.3,0.6-1.6,0.6c-1.1,0-1.9-0.6-2.2-1.4
			c-0.3-0.5-0.5-1.4-0.5-2.8C135.8,153.5,136,150.3,138.6,150.3z M138.6,157.9c1.4,0,1.6-1.8,1.6-3.3c0-2-0.3-3.4-1.6-3.4
			c-1.4,0-1.6,1.9-1.6,3.4C137,156.5,137.3,157.9,138.6,157.9z"/>
		<path d="M147.4,150.3c2.5,0,2.8,2.7,2.8,4.2c0,2-0.4,3.1-1.1,3.8c-0.6,0.5-1.3,0.6-1.6,0.6c-1.1,0-1.9-0.6-2.2-1.4
			c-0.3-0.5-0.5-1.4-0.5-2.8C144.6,153.5,144.8,150.3,147.4,150.3z M147.4,157.9c1.4,0,1.6-1.8,1.6-3.3c0-2-0.3-3.4-1.6-3.4
			c-1.4,0-1.6,1.9-1.6,3.4C145.8,156.5,146.1,157.9,147.4,157.9z"/>
		<path d="M156.1,151.8c-0.5,0.4-1.3,0.9-1.9,1.2v-1.2c0.8-0.4,1.5-0.9,2-1.3h1.1v8.3h-1.1V151.8z"/>
		<path d="M166.5,152.4c0-1-0.7-1.2-1.3-1.2c-1.2,0-1.7,1-1.8,3.2c0.3-0.4,0.7-1.1,1.9-1.1c1.3,0,2.5,0.9,2.5,2.7
			c0,1.9-1.4,2.9-2.8,2.9c-0.8,0-1.6-0.3-2-0.9c-0.6-0.8-0.8-2-0.8-3c0-1.8,0.4-4.7,3.1-4.7c1.1,0,1.7,0.5,2,0.8
			c0.4,0.5,0.4,1,0.4,1.3H166.5z M166.7,156.1c0-0.6-0.2-1.8-1.5-1.8c-1.1,0-1.6,0.9-1.6,1.9c0,1.1,0.7,1.9,1.6,1.9
			C165.9,158,166.7,157.5,166.7,156.1z"/>
		<path d="M171.1,152.5c0-0.7,0.5-2.3,2.7-2.3c1.7,0,2.7,0.9,2.7,2.2c0,0.8-0.5,1.7-1.7,1.9c0.5,0.1,1.8,0.5,1.8,2.1
			c0,1.1-0.8,2.4-2.8,2.4c-0.7,0-1.5-0.1-2.1-0.7c-0.4-0.4-0.7-1-0.7-1.7c0-0.5,0.2-1.1,0.6-1.5c0.4-0.4,0.8-0.5,1.2-0.6
			C171.6,154.1,171.1,153.3,171.1,152.5z M173.8,157.9c1.3,0,1.6-0.9,1.6-1.6c0-0.9-0.7-1.5-1.6-1.5c-1,0-1.7,0.7-1.7,1.6
			C172.1,157,172.5,157.9,173.8,157.9z M173.8,151.1c-0.9,0-1.6,0.5-1.6,1.3c0,0.8,0.7,1.3,1.5,1.3c0.9,0,1.6-0.5,1.6-1.3
			C175.4,151.7,174.8,151.1,173.8,151.1z"/>
		<path d="M179.7,150.5h5.5v1l-3,7.3h-1.4l3.2-7.3h-4.3V150.5z"/>
	</g>
	<g>
		<path d="M12.6,103.1h1.5c0.7,0,1.5,0,2.1,0.7c0.5,0.5,0.6,1.2,0.6,2c0,1.1-0.5,1.8-0.9,2.1c-0.5,0.4-1.1,0.4-1.9,0.4h-1.5V103.1z
			 M13.3,107.7H14c0.5,0,1,0,1.4-0.3c0.7-0.5,0.7-1.3,0.7-1.6c0-0.2,0-1.1-0.5-1.6c-0.3-0.4-0.7-0.5-1.4-0.5h-0.9V107.7z"/>
		<path d="M20.7,103.1h0.8l2.1,5.2h-0.8l-0.6-1.3h-2.4l-0.6,1.3h-0.7L20.7,103.1z M20,106.4h2l-1-2.5L20,106.4z"/>
		<path d="M26.8,108.3v-4.6H25v-0.6h4.2v0.6h-1.7v4.6H26.8z"/>
		<path d="M31.1,103.1h3.2v0.6h-2.5v1.6h2.4v0.6h-2.4v1.7h2.6v0.6h-3.3V103.1z"/>
	</g>
	<g>
		<path d="M87.8,109.5c0,0.6,0.1,1.7,2.1,1.7c1.8,0,2-1.1,2-1.5c0-1-0.8-1.2-2-1.5c-1.3-0.3-1.9-0.5-2.3-0.8
			c-0.7-0.5-0.9-1.1-0.9-1.7c0-1.8,1.7-2.5,3.3-2.5c0.6,0,1.7,0.1,2.4,0.8c0.5,0.5,0.5,1.1,0.5,1.5h-1.2c-0.1-1.1-1-1.3-1.8-1.3
			c-1.2,0-1.9,0.5-1.9,1.4c0,0.8,0.5,1,1.6,1.3c2.1,0.5,2.3,0.6,2.8,0.9c0.8,0.5,0.9,1.4,0.9,1.7c0,1.5-1.2,2.7-3.4,2.7
			c-0.7,0-2-0.1-2.7-1c-0.5-0.6-0.5-1.3-0.5-1.7H87.8z"/>
		<path d="M96.9,103.4h5.4v1h-4.2v2.7h4v1h-4v2.9h4.3v1.1h-5.5V103.4z"/>
		<path d="M106.5,103.4h2.9c1.1,0,1.8,0.1,2.4,0.7c0.4,0.4,0.6,1,0.6,1.7c0,0.7-0.2,1.2-0.7,1.7c-0.5,0.5-1.1,0.7-2.6,0.7h-1.4v3.8
			h-1.2V103.4z M107.7,107.1h1.4c0.8,0,2-0.1,2-1.5c0-1.3-1.1-1.3-1.7-1.3h-1.7V107.1z"/>
		<path d="M118.1,112v-7.6h-2.9v-1h7v1h-2.9v7.6H118.1z"/>
		<path d="M130.5,110.9l2.2-2.1c0.5-0.4,0.9-0.9,1.3-1.4c0.5-0.7,0.6-1,0.6-1.5c0-0.4-0.1-1.3-1.3-1.3c-1.3,0-1.3,1.1-1.3,1.4h-1.3
			c0-0.4,0-1.2,0.8-1.8c0.6-0.5,1.3-0.6,1.8-0.6c1.3,0,2.6,0.6,2.6,2.4c0,0.5,0,0.9-0.9,2.1c-0.2,0.3-1.3,1.4-1.5,1.6l-1.4,1.4h3.9
			v0.9h-5.3V110.9z"/>
		<path d="M139.2,105.8c0-0.7,0.5-2.3,2.7-2.3c1.7,0,2.7,0.9,2.7,2.2c0,0.8-0.5,1.7-1.7,1.9c0.5,0.1,1.8,0.5,1.8,2.1
			c0,1.1-0.8,2.4-2.8,2.4c-0.7,0-1.5-0.1-2.1-0.7c-0.4-0.4-0.7-1-0.7-1.7c0-0.5,0.2-1.1,0.6-1.5c0.4-0.4,0.8-0.5,1.2-0.6
			C139.8,107.4,139.2,106.6,139.2,105.8z M141.9,111.2c1.3,0,1.6-0.9,1.6-1.6c0-0.9-0.7-1.5-1.6-1.5c-1,0-1.7,0.7-1.7,1.6
			C140.3,110.3,140.7,111.2,141.9,111.2z M142,104.4c-0.9,0-1.6,0.5-1.6,1.4c0,0.8,0.7,1.3,1.5,1.3c0.9,0,1.6-0.5,1.6-1.3
			C143.5,105,143,104.4,142,104.4z"/>
		<path d="M153.5,110.9l2.2-2.1c0.5-0.4,0.9-0.9,1.3-1.4c0.5-0.7,0.6-1,0.6-1.5c0-0.4-0.1-1.3-1.3-1.3c-1.3,0-1.4,1.1-1.4,1.4h-1.3
			c0-0.4,0-1.2,0.8-1.8c0.6-0.5,1.3-0.6,1.8-0.6c1.3,0,2.6,0.6,2.6,2.4c0,0.5,0,0.9-0.9,2.1c-0.2,0.3-1.3,1.4-1.5,1.6l-1.4,1.4h3.9
			v0.9h-5.3V110.9z"/>
		<path d="M165,103.5c2.5,0,2.8,2.7,2.8,4.2c0,2-0.4,3.1-1.1,3.8c-0.6,0.5-1.3,0.6-1.6,0.6c-1.1,0-1.9-0.6-2.2-1.4
			c-0.3-0.5-0.5-1.4-0.5-2.8C162.2,106.7,162.3,103.5,165,103.5z M165,111.2c1.4,0,1.6-1.8,1.6-3.3c0-2-0.3-3.4-1.6-3.4
			c-1.4,0-1.6,1.9-1.6,3.4C163.3,109.7,163.7,111.2,165,111.2z"/>
		<path d="M173.7,105c-0.5,0.4-1.3,0.9-1.9,1.2V105c0.8-0.4,1.5-0.9,2-1.3h1.1v8.3h-1.1V105z"/>
		<path d="M184.1,105.7c0-1-0.7-1.2-1.3-1.2c-1.2,0-1.7,1-1.8,3.2c0.3-0.4,0.7-1.1,1.9-1.1c1.3,0,2.5,0.9,2.5,2.7
			c0,1.9-1.4,2.9-2.8,2.9c-0.8,0-1.6-0.3-2-0.9c-0.6-0.8-0.8-2-0.8-3c0-1.8,0.4-4.7,3.1-4.7c1.1,0,1.7,0.5,2,0.8
			c0.4,0.5,0.4,1,0.4,1.3H184.1z M184.3,109.4c0-0.6-0.2-1.8-1.5-1.8c-1.1,0-1.6,0.9-1.6,1.9c0,1.1,0.7,1.9,1.6,1.9
			C183.5,111.2,184.3,110.7,184.3,109.4z"/>
	</g>
	<g>
		<path d="M88.3,185.1l-2.1-0.2l1.2,1.6l-0.8,0.5l-0.8-1.9L85,187l-0.8-0.4l1.3-1.7l-2,0.2v-0.9l2,0.3l-1.2-1.7l0.8-0.4l0.8,1.9
			l0.8-1.9l0.8,0.4l-1.3,1.7l2-0.2V185.1z"/>
		<path d="M97.1,185.1l-2.1-0.2l1.2,1.6l-0.8,0.5l-0.8-1.9l-0.9,1.9l-0.8-0.4l1.3-1.7l-2,0.2v-0.9l2,0.3l-1.2-1.7l0.8-0.4l0.8,1.9
			l0.8-1.9l0.8,0.4l-1.3,1.7l2-0.2V185.1z"/>
		<path d="M105.9,185.1l-2.1-0.2l1.2,1.6l-0.8,0.5l-0.8-1.9l-0.9,1.9l-0.8-0.4l1.3-1.7l-2,0.2v-0.9l2,0.3l-1.2-1.7l0.8-0.4l0.8,1.9
			l0.8-1.9l0.8,0.4l-1.3,1.7l2-0.2V185.1z"/>
		<path d="M114.7,185.1l-2.1-0.2l1.2,1.6l-0.8,0.5l-0.8-1.9l-0.9,1.9l-0.8-0.4l1.3-1.7l-2,0.2v-0.9l2,0.3l-1.2-1.7l0.8-0.4l0.8,1.9
			l0.8-1.9l0.8,0.4l-1.3,1.7l2-0.2V185.1z"/>
		<path d="M123.5,185.1l-2.1-0.2l1.2,1.6l-0.8,0.5l-0.8-1.9l-0.9,1.9l-0.8-0.4l1.3-1.7l-2,0.2v-0.9l2,0.3l-1.2-1.7l0.8-0.4l0.8,1.9
			l0.8-1.9l0.8,0.4l-1.3,1.7l2-0.2V185.1z"/>
		<path d="M132.3,185.1l-2.1-0.2l1.2,1.6l-0.8,0.5l-0.8-1.9L129,187l-0.8-0.4l1.3-1.7l-2,0.2v-0.9l2,0.3l-1.2-1.7l0.8-0.4l0.8,1.9
			l0.8-1.9l0.8,0.4l-1.3,1.7l2-0.2V185.1z"/>
		<path d="M141,185.1l-2.1-0.2l1.2,1.6l-0.8,0.5l-0.8-1.9l-0.9,1.9l-0.8-0.4l1.3-1.7l-2,0.2v-0.9l2,0.3l-1.2-1.7l0.8-0.4l0.8,1.9
			l0.8-1.9l0.8,0.4l-1.3,1.7l2-0.2V185.1z"/>
		<path d="M149.8,185.1l-2.1-0.2l1.2,1.6l-0.8,0.5l-0.8-1.9l-0.9,1.9l-0.8-0.4l1.3-1.7l-2,0.2v-0.9l2,0.3l-1.2-1.7l0.8-0.4l0.8,1.9
			l0.8-1.9l0.8,0.4l-1.3,1.7l2-0.2V185.1z"/>
		<path d="M154.7,189c0,0.7,0.4,1.2,1.3,1.2c1.8,0,1.8-2.1,1.8-3.4c-0.4,0.8-1.2,1-1.9,1c-1.3,0-2.5-0.9-2.5-2.6
			c0-1.9,1.4-2.7,2.7-2.7c0.9,0,2.2,0.4,2.7,2c0.1,0.5,0.2,1.1,0.2,2.2c0,1.2,0,4.4-3,4.4c-1.1,0-2.4-0.4-2.5-2.2H154.7z
			 M156.1,183.4c-1,0-1.5,0.8-1.5,1.8c0,1.1,0.7,1.7,1.6,1.7c0.9,0,1.5-0.7,1.5-1.7C157.7,184,156.9,183.4,156.1,183.4z"/>
		<path d="M163.6,189c0,0.8,0.8,1.2,1.4,1.2c1.4,0,1.6-1.4,1.6-1.9c0-1.1-0.6-1.8-1.6-1.8c-0.5,0-0.9,0.2-1.1,0.4s-0.3,0.5-0.4,0.7
			h-1.1l0.2-4.9h4.6v1h-3.6l-0.2,2.7c0.2-0.3,0.8-0.8,1.7-0.8c1.7,0,2.5,1.3,2.5,2.7c0,1.6-1.1,2.9-3,2.9c-1.3,0-2.4-0.7-2.5-2.2
			H163.6z"/>
		<path d="M174.5,189.2h-3.7v-1.4l3.6-5.2h1.3v5.6h1.2v1h-1.2v1.8h-1.1V189.2z M174.6,188.2v-4.4l-2.9,4.4H174.6z"/>
		<path d="M179.7,182.7h5.5v1l-3,7.3h-1.4l3.2-7.3h-4.3V182.7z"/>
	</g>
	<g>
		<path d="M150.2,225.8c0-0.8-0.3-1.1-0.9-1.1c-0.5,0-1,0.3-1,1l0,1.9c0,0.5,0.1,0.8,0.4,1.2l2.5,4.3c0.5,0.8,0.6,1.4,0.6,2.2l0,2
			c0,1.4-0.7,2.3-1.9,2.5l0,1.8l-1.3,0l0-1.8c-0.6-0.1-1.1-0.3-1.4-0.7c-0.3-0.4-0.5-0.9-0.4-1.5l0-2.1l1.6,0l0,1.9
			c0,0.7,0.2,1.2,1,1.2c0.8,0,1-0.6,1-1.4l0-2c0-0.5-0.1-1-0.4-1.5l-2.5-4.4c-0.4-0.6-0.5-1.2-0.5-1.8l0-1.8c0-1.3,0.7-2.1,1.8-2.3
			l0-1.8l1.3,0l0,1.8c1.2,0.1,1.9,0.8,1.9,2.2l0,1.8l-1.6,0L150.2,225.8z"/>
		<path d="M154.4,233c0-1.1,0.4-1.5,1.2-1.6v0c-0.9-0.4-1.2-0.6-1.2-1.9l0-3.9c0-1.6,0.7-2.6,2.5-2.6c1.7,0,2.5,1.1,2.4,2.6l0,3.9
			c0,1.3-0.4,1.6-1.2,1.9v0c0.9,0.1,1.2,0.5,1.2,1.7l0,4.8c0,1.6-0.7,2.6-2.5,2.6c-1.7,0-2.5-1.1-2.4-2.6L154.4,233z M157.8,233
			c0-0.6-0.4-1.1-1-1.1c-0.6,0-1,0.5-1,1.1l0,5.2c0,0.6,0.4,1.1,1,1.1c0.6,0,1-0.5,1-1.1L157.8,233z M157.8,225.2
			c0-0.6-0.4-1.1-1-1.1c-0.6,0-1,0.5-1,1.1l0,4.5c0,0.6,0.4,1.1,1,1.1c0.6,0,1-0.5,1-1.1L157.8,225.2z"/>
		<path d="M165.4,233.1c-0.5,0.4-1,0.6-1.6,0.6c-1.1,0-1.9-0.6-1.9-2.1l0-6.1c0-1.6,0.7-2.6,2.5-2.6c1.7,0,2.5,1.1,2.4,2.6l0,12.3
			c0,1.6-0.7,2.6-2.5,2.6c-1.7,0-2.5-1.1-2.4-2.6l0-2.4l1.5,0l0,2.8c0,0.6,0.4,1,1,1c0.6,0,1-0.4,1-1L165.4,233.1z M165.4,225.2
			c0-0.6-0.4-1-1-1c-0.5,0-1,0.4-1,1l0,6.3c0,0.6,0.4,1,1,1c0.5,0,1-0.5,1-1L165.4,225.2z"/>
		<path d="M169.5,238.5l1.6,0l0,1.8l-1.6,0L169.5,238.5z"/>
		<path d="M173.9,223.1l4.8,0l0,1.3l-3.3,0l0,5.8h0c0.3-0.5,0.8-0.8,1.4-0.8c1.2,0,2,0.7,2,2.2l0,6.2c0,1.6-0.7,2.6-2.5,2.6
			c-1.8,0-2.5-1.1-2.5-2.6l0-2.3l1.5,0l0,2.3c0,0.9,0.2,1.4,1,1.4c0.8,0,1-0.5,1-1.4l0-5.8c0-0.9-0.2-1.4-1-1.4c-0.8,0-1,0.5-1,1.4
			l0,0.7l-1.5,0L173.9,223.1z"/>
		<path d="M181.3,225.6c0-2.2,1.4-2.5,2.5-2.5c1.1,0,2.5,0.4,2.4,2.6l0,12.4c0,2.2-1.4,2.5-2.5,2.5c-1.1,0-2.5-0.4-2.4-2.6
			L181.3,225.6z M184.7,225.4c0-0.4,0-1.2-1-1.2c-1,0-1,0.8-1,1.2l-0.1,12.8c0,0.4,0,1.2,1,1.2c1,0,1-0.8,1-1.2L184.7,225.4z"/>
	</g>
</g>
</svg>
