<?xml version="1.0" encoding="utf-8"?>
<!-- Generator: Adobe Illustrator 20.1.0, SVG Export Plug-In . SVG Version: 6.00 Build 0)  -->
<svg version="1.1" id="Layer_1" xmlns="http://www.w3.org/2000/svg" xmlns:xlink="http://www.w3.org/1999/xlink" x="0px" y="0px"
	 viewBox="0 0 200 294" style="enable-background:new 0 0 200 294;" xml:space="preserve">
<style type="text/css">
	.st0{fill:#FFFFFF;}
	.st1{fill:#010101;}
</style>
<g>
	<g>
		<rect class="st0" width="200" height="294"/>
	</g>
	<g>
		<path class="st1" d="M47.4,30.7h5.8c3,0,4.1,1.8,4.1,4.6c0,1.8-0.5,4.6-4.3,4.6h-2.4v6.3h-3.2V30.7z M50.6,37.5h1.8
			c1,0,1.6-1.1,1.6-2.1c0-1.3-0.3-2.3-1.8-2.3h-1.6V37.5z"/>
		<path class="st1" d="M62,30.7v15.5h-3V30.7H62z"/>
		<path class="st1" d="M69.6,45.1L69.6,45.1c-0.6,1-1.5,1.3-2.6,1.3c-1.4,0-2.7-0.9-2.7-2.4v-8.7h3v7.5c0,1,0.2,1.7,1.1,1.7
			c1,0,1.1-0.7,1.1-1.7v-7.5h3V44c0,0.7,0,1.4,0.1,2.1h-3.1V45.1z"/>
		<path class="st1" d="M77.4,36.4L77.4,36.4c0.6-1,1.5-1.3,2.6-1.3c1.1,0,1.9,0.5,2.4,1.4c0.7-0.9,1.6-1.4,2.8-1.4
			c1.4,0,2.7,0.9,2.7,2.4v8.7h-3v-7.5c0-1-0.2-1.7-1.1-1.7c-1,0-1.1,0.8-1.1,1.7v7.5h-3v-7.5c0-1-0.2-1.7-1.1-1.7
			c-1,0-1.1,0.8-1.1,1.7v7.5h-3V35.3h3V36.4z"/>
		<path class="st1" d="M89.7,30.7h3v5.7h0c0.6-0.9,1.4-1.2,2.5-1.2c3.1,0,3,3.4,3,5.6c0,2.2,0.1,5.7-3,5.7c-1.2,0-2-0.4-2.6-1.4h0
			v1.2h-2.9V30.7z M95.3,40.7c0-2.2,0-3.7-1.3-3.7c-1.2,0-1.2,1.5-1.2,3.7c0,2.7,0.2,3.9,1.2,3.9C95.1,44.5,95.3,43.4,95.3,40.7z"/>
		<path class="st1" d="M102.8,41.2c0,1.3,0,3.2,1.4,3.2c1.1,0,1.3-1,1.3-1.9h3.1c0,1.2-0.4,2.1-1.2,2.8c-0.7,0.7-1.8,1.1-3.2,1.1
			c-3.9,0-4.4-2.4-4.4-5.8c0-3,0.4-5.5,4.4-5.5c4.1,0,4.5,2.6,4.4,6.1H102.8z M105.6,39.5c0-1.1,0-2.6-1.4-2.6
			c-1.4,0-1.4,1.6-1.4,2.6H105.6z"/>
		<path class="st1" d="M113.2,35.3v1.4h0c0.6-1.2,1.6-1.6,2.8-1.6v2.7c-2.7-0.2-2.7,1.4-2.7,2.5v5.9h-3V35.3H113.2z"/>
		<path class="st1" d="M121.6,30.7h5.4c4.3,0,5.1,2.8,5.1,7.7c0,2.4,0.4,7.8-5.2,7.8h-5.3V30.7z M124.9,43.8h1.6
			c2,0,2.4-1.5,2.4-5.4c0-2.9,0-5.4-2.3-5.4h-1.7V43.8z"/>
		<path class="st1" d="M142.4,44.2c0,0.7,0.1,1.4,0.2,2h-2.8l-0.1-1.4h0c-0.6,1.1-1.5,1.7-2.8,1.7c-2.1,0-2.9-1.6-2.9-3.5
			c0-3.6,2.8-3.7,5.6-3.7v-0.8c0-0.9-0.1-1.6-1.2-1.6c-1.1,0-1.1,0.8-1.1,1.7h-3c0-1.3,0.4-2.1,1.1-2.6c0.7-0.5,1.7-0.7,2.8-0.7
			c3.8,0,4.3,1.7,4.3,3.6V44.2z M136.8,42.8c0,0.8,0.1,1.7,1.1,1.7c1.8,0,1.5-2.4,1.5-3.6C137.9,41,136.8,40.9,136.8,42.8z"/>
		<path class="st1" d="M147.5,36.4L147.5,36.4c0.3-0.5,0.7-0.8,1.1-1c0.4-0.2,0.9-0.3,1.5-0.3c1.4,0,2.7,0.9,2.7,2.4v8.7h-3v-7.5
			c0-1-0.2-1.7-1.1-1.7s-1.1,0.8-1.1,1.7v7.5h-3V35.3h3V36.4z"/>
	</g>
	<g>
		<path class="st1" d="M69.9,56.5h1.9c0.6,0,1,0.1,1.3,0.4c0.2,0.2,0.4,0.5,0.4,0.9c0,0.9-0.6,1.1-0.9,1.2c0.3,0.1,1,0.3,1,1.3
			c0,0.7-0.5,1.1-0.6,1.2c-0.4,0.2-0.8,0.2-1.2,0.2h-1.9V56.5z M70.6,58.7h1c0.2,0,1.1,0,1.1-0.8c0-0.8-0.7-0.8-1-0.8h-1V58.7z
			 M70.6,61.1h1.2c0.6,0,1-0.3,1-0.9c0-0.5-0.4-0.9-1-0.9h-1.3V61.1z"/>
		<path class="st1" d="M76.4,57.1c0.5-0.6,1.2-0.7,1.7-0.7c1.4,0,2.3,0.9,2.3,2.7c0,1.4-0.6,2.8-2.4,2.8c-1.8,0-2.3-1.3-2.3-2.7
			C75.8,58.6,75.9,57.7,76.4,57.1z M77,60.7c0.3,0.4,0.7,0.5,1.1,0.5c0.4,0,0.8-0.1,1.1-0.5c0.4-0.5,0.5-1.3,0.5-1.7
			c0-1.2-0.4-2.1-1.6-2.1c-1.3,0-1.6,1.1-1.6,2.1C76.5,59.7,76.6,60.3,77,60.7z"/>
		<path class="st1" d="M83.6,56.5v3.2c0,0.6,0.1,0.8,0.2,0.9c0.3,0.4,0.8,0.5,1.2,0.5c1.4,0,1.4-1.1,1.4-1.5v-3.2h0.7v3.2
			c0,0.3,0,0.9-0.4,1.4c-0.5,0.6-1.3,0.7-1.7,0.7c-0.5,0-1.3-0.1-1.8-0.8c-0.2-0.2-0.3-0.5-0.3-1.3v-3.2H83.6z"/>
		<path class="st1" d="M89.7,56.5h0.7v4.5h2.4v0.6h-3.1V56.5z"/>
		<path class="st1" d="M95,56.5h1.5c0.7,0,1.5,0,2.1,0.7c0.5,0.5,0.6,1.2,0.6,2c0,1.1-0.5,1.8-0.9,2.1c-0.5,0.4-1.1,0.4-1.9,0.4H95
			V56.5z M95.7,61.1h0.7c0.5,0,1,0,1.4-0.3c0.7-0.5,0.7-1.3,0.7-1.6c0-0.2,0-1.1-0.5-1.6c-0.3-0.4-0.7-0.5-1.4-0.5h-0.9V61.1z"/>
		<path class="st1" d="M101.3,56.5h3.2v0.6h-2.5v1.6h2.4v0.6h-2.4v1.7h2.6v0.6h-3.3V56.5z"/>
		<path class="st1" d="M107.1,56.5h1.9c0.3,0,0.8,0,1.2,0.2c0.4,0.2,0.6,0.6,0.6,1.1c0,0.4-0.1,0.7-0.4,0.9
			c-0.2,0.2-0.5,0.3-0.6,0.3c0.5,0.1,0.7,0.4,0.8,1c0.1,0.6,0.1,1.1,0.3,1.6h-0.8c-0.1-0.3-0.2-1-0.2-1.4c-0.1-0.8-0.3-1-1.1-1h-0.9
			v2.3h-0.7V56.5z M107.8,58.8h1.1c0.1,0,0.5,0,0.7-0.1c0.1-0.1,0.4-0.2,0.4-0.7c0-0.8-0.7-0.8-1-0.8h-1.1V58.8z"/>
		<path class="st1" d="M114.2,60.8l-0.8,1.8h-0.5l0.5-1.8H114.2z"/>
		<path class="st1" d="M122.8,57.9c0-0.2-0.1-0.9-1.1-0.9c-1.2,0-1.5,1.3-1.5,2.1c0,1,0.3,2,1.5,2c0.3,0,0.6-0.1,0.8-0.3
			c0.2-0.2,0.2-0.4,0.3-0.5h0.8c-0.1,1-1,1.4-1.9,1.4c-1.8,0-2.2-1.6-2.2-2.6c0-1.1,0.4-2.7,2.3-2.7c0.7,0,1.8,0.3,1.9,1.5H122.8z"
			/>
		<path class="st1" d="M126.3,57.1c0.5-0.6,1.2-0.7,1.7-0.7c1.4,0,2.3,0.9,2.3,2.7c0,1.4-0.6,2.8-2.4,2.8c-1.8,0-2.3-1.3-2.3-2.7
			C125.6,58.6,125.7,57.7,126.3,57.1z M126.8,60.7c0.3,0.4,0.7,0.5,1.1,0.5c0.4,0,0.8-0.1,1.1-0.5c0.4-0.5,0.5-1.3,0.5-1.7
			c0-1.2-0.4-2.1-1.6-2.1c-1.3,0-1.6,1.1-1.6,2.1C126.3,59.7,126.4,60.3,126.8,60.7z"/>
	</g>
	<g>
		<path class="st1" d="M15.7,184.1c0-0.2-0.1-0.9-1.1-0.9c-1.2,0-1.5,1.3-1.5,2.1c0,1,0.3,2,1.5,2c0.3,0,0.6-0.1,0.8-0.3
			c0.2-0.2,0.2-0.4,0.3-0.5h0.8c-0.1,1-1,1.4-1.9,1.4c-1.8,0-2.2-1.6-2.2-2.6c0-1.1,0.4-2.7,2.3-2.7c0.7,0,1.8,0.3,1.9,1.5H15.7z"/>
		<path class="st1" d="M20.3,182.7H21l2.1,5.2h-0.8l-0.6-1.3h-2.4l-0.6,1.3h-0.7L20.3,182.7z M19.6,186h2l-1-2.5L19.6,186z"/>
		<path class="st1" d="M25.1,182.7H27c0.3,0,0.8,0,1.2,0.2c0.4,0.2,0.6,0.6,0.6,1.1c0,0.4-0.1,0.7-0.4,0.9c-0.2,0.2-0.5,0.3-0.6,0.3
			c0.5,0.1,0.7,0.4,0.8,1c0.1,0.6,0.1,1.1,0.3,1.6h-0.8c-0.1-0.3-0.2-1-0.2-1.4c-0.1-0.8-0.3-1-1.1-1h-0.9v2.3h-0.7V182.7z
			 M25.8,184.9h1.1c0.1,0,0.5,0,0.7-0.1c0.1-0.1,0.4-0.2,0.4-0.7c0-0.8-0.7-0.8-1-0.8h-1.1V184.9z"/>
		<path class="st1" d="M31.2,182.7h1.5c0.7,0,1.5,0,2.1,0.7c0.5,0.5,0.6,1.2,0.6,2c0,1.1-0.5,1.8-0.9,2.1c-0.5,0.4-1.1,0.4-1.9,0.4
			h-1.5V182.7z M31.9,187.3h0.7c0.5,0,1,0,1.4-0.3c0.7-0.5,0.7-1.3,0.7-1.6c0-0.2,0-1.1-0.5-1.6c-0.3-0.4-0.7-0.5-1.4-0.5h-0.9
			V187.3z"/>
	</g>
	<g>
		<path class="st1" d="M127.6,119.8c-0.5,0.4-1.3,0.9-1.9,1.2v-1.2c0.8-0.4,1.5-0.9,2-1.3h1.1v8.3h-1.1V119.8z"/>
		<path class="st1" d="M133.8,125.7l2.2-2.1c0.5-0.4,0.9-0.9,1.3-1.4c0.5-0.7,0.6-1,0.6-1.5c0-0.4-0.1-1.3-1.3-1.3
			c-1.3,0-1.3,1.1-1.3,1.4h-1.3c0-0.4,0-1.2,0.8-1.8c0.6-0.5,1.3-0.6,1.8-0.6c1.3,0,2.6,0.6,2.6,2.4c0,0.5,0,0.9-0.9,2.1
			c-0.2,0.3-1.3,1.4-1.5,1.6l-1.4,1.4h3.9v0.9h-5.3V125.7z"/>
		<path class="st1" d="M142.9,120.7h1.3v1.4h-1.3V120.7z M142.9,125.4h1.3v1.4h-1.3V125.4z"/>
		<path class="st1" d="M149.3,124.8c0,0.8,0.8,1.2,1.4,1.2c1.4,0,1.6-1.4,1.6-1.9c0-1.1-0.6-1.8-1.6-1.8c-0.5,0-0.9,0.2-1.1,0.4
			c-0.3,0.3-0.3,0.5-0.4,0.7h-1.1l0.2-4.9h4.6v1h-3.6l-0.2,2.7c0.3-0.3,0.8-0.8,1.7-0.8c1.7,0,2.5,1.3,2.5,2.7c0,1.6-1.1,2.9-3,2.9
			c-1.3,0-2.4-0.7-2.5-2.2H149.3z"/>
		<path class="st1" d="M156.8,120.6c0-0.7,0.5-2.3,2.7-2.3c1.7,0,2.7,0.9,2.7,2.2c0,0.8-0.5,1.7-1.7,1.9c0.5,0.1,1.8,0.5,1.8,2.1
			c0,1.1-0.8,2.4-2.8,2.4c-0.7,0-1.5-0.1-2.1-0.7c-0.4-0.4-0.7-1-0.7-1.7c0-0.5,0.2-1.1,0.6-1.5c0.4-0.4,0.8-0.5,1.2-0.6
			C157.4,122.2,156.8,121.4,156.8,120.6z M159.5,126c1.3,0,1.6-0.9,1.6-1.6c0-0.9-0.7-1.5-1.6-1.5c-1,0-1.7,0.7-1.7,1.6
			C157.9,125.1,158.3,126,159.5,126z M159.5,119.2c-0.9,0-1.6,0.5-1.6,1.4c0,0.8,0.7,1.3,1.5,1.3c0.9,0,1.6-0.5,1.6-1.3
			C161.1,119.8,160.5,119.2,159.5,119.2z"/>
		<path class="st1" d="M166,120.7h1.3v1.4H166V120.7z M166,125.4h1.3v1.4H166V125.4z"/>
		<path class="st1" d="M172.4,124.8c0,0.8,0.8,1.2,1.4,1.2c1.4,0,1.6-1.4,1.6-1.9c0-1.1-0.6-1.8-1.6-1.8c-0.5,0-0.9,0.2-1.1,0.4
			c-0.3,0.3-0.3,0.5-0.4,0.7h-1.1l0.2-4.9h4.6v1h-3.6l-0.2,2.7c0.2-0.3,0.8-0.8,1.7-0.8c1.7,0,2.5,1.3,2.5,2.7c0,1.6-1.1,2.9-3,2.9
			c-1.3,0-2.4-0.7-2.5-2.2H172.4z"/>
		<path class="st1" d="M179.9,125.7l2.2-2.1c0.5-0.4,0.9-0.9,1.3-1.4c0.5-0.7,0.6-1,0.6-1.5c0-0.4-0.1-1.3-1.3-1.3
			c-1.3,0-1.4,1.1-1.4,1.4H180c0-0.4,0-1.2,0.8-1.8c0.6-0.5,1.3-0.6,1.8-0.6c1.3,0,2.6,0.6,2.6,2.4c0,0.5,0,0.9-0.9,2.1
			c-0.2,0.3-1.3,1.4-1.5,1.6l-1.4,1.4h3.9v0.9h-5.3V125.7z"/>
	</g>
	<g>
		<path class="st1" d="M13,151.2c0.5-0.6,1.2-0.7,1.7-0.7c1.4,0,2.3,0.9,2.3,2.7c0,1.4-0.6,2.8-2.4,2.8c-1.8,0-2.3-1.3-2.3-2.7
			C12.4,152.7,12.5,151.8,13,151.2z M13.6,154.9c0.3,0.4,0.7,0.5,1.1,0.5c0.4,0,0.8-0.1,1.1-0.5c0.4-0.5,0.5-1.3,0.5-1.7
			c0-1.2-0.4-2.1-1.6-2.1c-1.3,0-1.6,1.1-1.6,2.1C13.1,153.8,13.2,154.4,13.6,154.9z"/>
		<path class="st1" d="M19.4,150.7h1.9c0.3,0,0.8,0,1.2,0.2c0.4,0.2,0.6,0.6,0.6,1.1c0,0.4-0.1,0.7-0.4,0.9
			c-0.2,0.2-0.5,0.3-0.6,0.3c0.5,0.1,0.7,0.4,0.8,1c0.1,0.6,0.1,1.1,0.3,1.6h-0.8c-0.1-0.3-0.2-1-0.2-1.4c-0.1-0.8-0.3-1-1.1-1h-0.9
			v2.3h-0.7V150.7z M20.1,152.9h1.1c0.1,0,0.5,0,0.7-0.1c0.1-0.1,0.4-0.2,0.4-0.7c0-0.8-0.7-0.8-1-0.8h-1.1V152.9z"/>
		<path class="st1" d="M25.5,150.7H27c0.7,0,1.5,0,2.1,0.7c0.5,0.5,0.6,1.2,0.6,2c0,1.1-0.5,1.8-0.9,2.1c-0.5,0.4-1.1,0.4-1.9,0.4
			h-1.5V150.7z M26.2,155.3h0.7c0.5,0,1,0,1.4-0.3c0.7-0.5,0.7-1.3,0.7-1.6c0-0.2,0-1.1-0.5-1.6c-0.3-0.4-0.7-0.5-1.4-0.5h-0.9
			V155.3z"/>
		<path class="st1" d="M31.9,150.7h3.2v0.6h-2.5v1.6H35v0.6h-2.4v1.7h2.6v0.6h-3.3V150.7z"/>
		<path class="st1" d="M37.6,150.7h1.9c0.3,0,0.8,0,1.2,0.2c0.4,0.2,0.6,0.6,0.6,1.1c0,0.4-0.1,0.7-0.4,0.9
			c-0.2,0.2-0.5,0.3-0.6,0.3c0.5,0.1,0.7,0.4,0.8,1c0.1,0.6,0.1,1.1,0.3,1.6h-0.8c-0.1-0.3-0.2-1-0.2-1.4c-0.1-0.8-0.3-1-1.1-1h-0.9
			v2.3h-0.7V150.7z M38.3,152.9h1.1c0.1,0,0.5,0,0.7-0.1c0.1-0.1,0.4-0.2,0.4-0.7c0-0.8-0.7-0.8-1-0.8h-1.1V152.9z"/>
	</g>
	<g>
		<path class="st1" d="M86.9,229.6V225h-1.7v-0.6h4.2v0.6h-1.7v4.6H86.9z"/>
		<path class="st1" d="M91.8,225c0.5-0.6,1.2-0.7,1.7-0.7c1.4,0,2.3,0.9,2.3,2.7c0,1.4-0.6,2.8-2.4,2.8c-1.8,0-2.3-1.3-2.3-2.7
			C91.1,226.5,91.2,225.6,91.8,225z M92.3,228.7c0.3,0.4,0.7,0.5,1.1,0.5c0.4,0,0.8-0.1,1.1-0.5c0.4-0.5,0.5-1.3,0.5-1.7
			c0-1.2-0.4-2.1-1.6-2.1c-1.3,0-1.6,1.1-1.6,2.1C91.9,227.6,92,228.2,92.3,228.7z"/>
		<path class="st1" d="M99.5,229.6V225h-1.7v-0.6h4.2v0.6h-1.7v4.6H99.5z"/>
		<path class="st1" d="M105.5,224.4h0.8l2.1,5.2h-0.8l-0.6-1.3h-2.4l-0.6,1.3h-0.7L105.5,224.4z M104.8,227.7h2l-1-2.5L104.8,227.7z
			"/>
		<path class="st1" d="M110.4,224.4h0.7v4.5h2.4v0.6h-3.1V224.4z"/>
	</g>
	<g>
		<path class="st1" d="M61.7,275.5H63l1.5,4.3l1.5-4.3h1.2v5.2h-0.7V276l-1.7,4.7H64l-1.6-4.6v4.6h-0.7V275.5z"/>
		<path class="st1" d="M69.7,275.5h3.2v0.6h-2.5v1.6h2.4v0.6h-2.4v1.7H73v0.6h-3.3V275.5z"/>
		<path class="st1" d="M75.4,275.5h1.9c0.3,0,0.8,0,1.2,0.2c0.4,0.2,0.6,0.6,0.6,1.1c0,0.4-0.1,0.7-0.4,0.9
			c-0.2,0.2-0.5,0.3-0.6,0.3c0.5,0.1,0.7,0.4,0.8,1c0.1,0.6,0.1,1.1,0.3,1.6h-0.8c-0.1-0.3-0.2-1-0.2-1.4c-0.1-0.8-0.3-1-1.1-1h-0.9
			v2.3h-0.7V275.5z M76.1,277.7h1.1c0.1,0,0.5,0,0.7-0.1c0.1-0.1,0.4-0.2,0.4-0.7c0-0.8-0.7-0.8-1-0.8h-1.1V277.7z"/>
		<path class="st1" d="M84.6,276.9c0-0.2-0.1-0.9-1.1-0.9c-1.2,0-1.5,1.3-1.5,2.1c0,1,0.3,2,1.5,2c0.3,0,0.6-0.1,0.8-0.3
			c0.2-0.2,0.2-0.4,0.3-0.5h0.8c-0.1,1-1,1.4-1.9,1.4c-1.8,0-2.2-1.6-2.2-2.6c0-1.1,0.4-2.7,2.3-2.7c0.7,0,1.8,0.3,1.9,1.5H84.6z"/>
		<path class="st1" d="M88.3,275.5v2.2h2.5v-2.2h0.7v5.2h-0.7v-2.3h-2.5v2.3h-0.7v-5.2H88.3z"/>
		<path class="st1" d="M95.6,275.5h0.8l2.1,5.2h-0.8l-0.6-1.3h-2.4l-0.6,1.3h-0.7L95.6,275.5z M95,278.8h2l-1-2.5L95,278.8z"/>
		<path class="st1" d="M100.5,275.5h1l2.5,4.3v-4.3h0.7v5.2h-0.9l-2.6-4.4v4.4h-0.7V275.5z"/>
		<path class="st1" d="M108.6,280.7v-4.6h-1.7v-0.6h4.2v0.6h-1.7v4.6H108.6z"/>
		<path class="st1" d="M119.4,276.9c0-0.2-0.1-0.9-1.1-0.9c-1.2,0-1.5,1.3-1.5,2.1c0,1,0.3,2,1.5,2c0.3,0,0.6-0.1,0.8-0.3
			c0.2-0.2,0.2-0.4,0.3-0.5h0.8c-0.1,1-1,1.4-1.9,1.4c-1.8,0-2.2-1.6-2.2-2.6c0-1.1,0.4-2.7,2.3-2.7c0.7,0,1.8,0.3,1.9,1.5H119.4z"
			/>
		<path class="st1" d="M122.8,276.1c0.5-0.6,1.2-0.7,1.7-0.7c1.4,0,2.3,0.9,2.3,2.7c0,1.4-0.6,2.8-2.4,2.8c-1.8,0-2.3-1.3-2.3-2.7
			C122.1,277.5,122.2,276.7,122.8,276.1z M123.4,279.7c0.3,0.4,0.7,0.5,1.1,0.5c0.4,0,0.8-0.1,1.1-0.5c0.4-0.5,0.5-1.3,0.5-1.7
			c0-1.2-0.4-2.1-1.6-2.1c-1.3,0-1.6,1.1-1.6,2.1C122.9,278.7,123,279.3,123.4,279.7z"/>
		<path class="st1" d="M129.2,275.5h1.7c0.6,0,1.1,0,1.4,0.4c0.3,0.3,0.4,0.6,0.4,1c0,0.4-0.1,0.7-0.4,1c-0.3,0.3-0.6,0.4-1.6,0.4
			h-0.8v2.3h-0.7V275.5z M129.9,277.8h0.9c0.5,0,1.2,0,1.2-0.9c0-0.8-0.7-0.8-1-0.8h-1V277.8z"/>
		<path class="st1" d="M136.3,278.6l-2-3.1h0.9l1.5,2.5l1.5-2.5h0.8l-2,3.2v2h-0.7V278.6z"/>
	</g>
	<g>
		<path class="st1" d="M121,151.8c-0.5,0.4-1.3,0.9-1.9,1.2v-1.2c0.8-0.4,1.5-0.9,2-1.3h1.1v8.3H121V151.8z"/>
		<path class="st1" d="M129.8,150.3c2.5,0,2.8,2.7,2.8,4.2c0,2-0.4,3.1-1.1,3.8c-0.6,0.5-1.3,0.6-1.6,0.6c-1.1,0-1.9-0.6-2.2-1.4
			c-0.3-0.5-0.5-1.4-0.5-2.8C127,153.5,127.2,150.3,129.8,150.3z M129.8,157.9c1.4,0,1.6-1.8,1.6-3.3c0-2-0.3-3.4-1.6-3.4
			c-1.4,0-1.6,1.9-1.6,3.4C128.2,156.5,128.5,157.9,129.8,157.9z"/>
		<path class="st1" d="M138.6,150.3c2.5,0,2.8,2.7,2.8,4.2c0,2-0.4,3.1-1.1,3.8c-0.6,0.5-1.3,0.6-1.6,0.6c-1.1,0-1.9-0.6-2.2-1.4
			c-0.3-0.5-0.5-1.4-0.5-2.8C135.8,153.5,136,150.3,138.6,150.3z M138.6,157.9c1.4,0,1.6-1.8,1.6-3.3c0-2-0.3-3.4-1.6-3.4
			c-1.4,0-1.6,1.9-1.6,3.4C137,156.5,137.3,157.9,138.6,157.9z"/>
		<path class="st1" d="M147.4,150.3c2.5,0,2.8,2.7,2.8,4.2c0,2-0.4,3.1-1.1,3.8c-0.6,0.5-1.3,0.6-1.6,0.6c-1.1,0-1.9-0.6-2.2-1.4
			c-0.3-0.5-0.5-1.4-0.5-2.8C144.6,153.5,144.8,150.3,147.4,150.3z M147.4,157.9c1.4,0,1.6-1.8,1.6-3.3c0-2-0.3-3.4-1.6-3.4
			c-1.4,0-1.6,1.9-1.6,3.4C145.8,156.5,146.1,157.9,147.4,157.9z"/>
		<path class="st1" d="M154.8,156.8c0,0.8,0.8,1.2,1.4,1.2c1.4,0,1.6-1.4,1.6-1.9c0-1.1-0.6-1.8-1.6-1.8c-0.5,0-0.9,0.2-1.1,0.4
			s-0.3,0.5-0.4,0.7h-1.1l0.2-4.9h4.6v1h-3.6l-0.2,2.7c0.3-0.3,0.8-0.8,1.7-0.8c1.7,0,2.5,1.3,2.5,2.7c0,1.6-1.1,2.9-3,2.9
			c-1.3,0-2.4-0.7-2.5-2.2H154.8z"/>
		<path class="st1" d="M163.6,156.8c0,0.8,0.8,1.2,1.4,1.2c1.4,0,1.6-1.4,1.6-1.9c0-1.1-0.6-1.8-1.6-1.8c-0.5,0-0.9,0.2-1.1,0.4
			s-0.3,0.5-0.4,0.7h-1.1l0.2-4.9h4.6v1h-3.6l-0.2,2.7c0.2-0.3,0.8-0.8,1.7-0.8c1.7,0,2.5,1.3,2.5,2.7c0,1.6-1.1,2.9-3,2.9
			c-1.3,0-2.4-0.7-2.5-2.2H163.6z"/>
		<path class="st1" d="M174.5,156.9h-3.7v-1.4l3.6-5.2h1.3v5.6h1.2v1h-1.2v1.8h-1.1V156.9z M174.6,156v-4.4l-2.9,4.4H174.6z"/>
		<path class="st1" d="M182.5,151.8c-0.5,0.4-1.3,0.9-1.9,1.2v-1.2c0.8-0.4,1.5-0.9,2-1.3h1.1v8.3h-1.1V151.8z"/>
	</g>
	<g>
		<path class="st1" d="M12.6,103.1h1.5c0.7,0,1.5,0,2.1,0.7c0.5,0.5,0.6,1.2,0.6,2c0,1.1-0.5,1.8-0.9,2.1c-0.5,0.4-1.1,0.4-1.9,0.4
			h-1.5V103.1z M13.3,107.7H14c0.5,0,1,0,1.4-0.3c0.7-0.5,0.7-1.3,0.7-1.6c0-0.2,0-1.1-0.5-1.6c-0.3-0.4-0.7-0.5-1.4-0.5h-0.9V107.7
			z"/>
		<path class="st1" d="M20.7,103.1h0.8l2.1,5.2h-0.8l-0.6-1.3h-2.4l-0.6,1.3h-0.7L20.7,103.1z M20,106.4h2l-1-2.5L20,106.4z"/>
		<path class="st1" d="M26.8,108.3v-4.6H25v-0.6h4.2v0.6h-1.7v4.6H26.8z"/>
		<path class="st1" d="M31.1,103.1h3.2v0.6h-2.5v1.6h2.4v0.6h-2.4v1.7h2.6v0.6h-3.3V103.1z"/>
	</g>
	<g>
		<path class="st1" d="M87.8,109.5c0,0.6,0.1,1.7,2.1,1.7c1.8,0,2-1.1,2-1.5c0-1-0.8-1.2-2-1.5c-1.3-0.3-1.9-0.5-2.3-0.8
			c-0.7-0.5-0.9-1.1-0.9-1.7c0-1.8,1.7-2.5,3.3-2.5c0.6,0,1.7,0.1,2.4,0.8c0.5,0.5,0.5,1.1,0.5,1.5h-1.2c-0.1-1.1-1-1.3-1.8-1.3
			c-1.2,0-1.9,0.5-1.9,1.4c0,0.8,0.5,1,1.6,1.3c2.1,0.5,2.3,0.6,2.8,0.9c0.8,0.5,0.9,1.4,0.9,1.7c0,1.5-1.2,2.7-3.4,2.7
			c-0.7,0-2-0.1-2.7-1c-0.5-0.6-0.5-1.3-0.5-1.7H87.8z"/>
		<path class="st1" d="M96.9,103.4h5.4v1h-4.2v2.7h4v1h-4v2.9h4.3v1.1h-5.5V103.4z"/>
		<path class="st1" d="M106.5,103.4h2.9c1.1,0,1.8,0.1,2.4,0.7c0.4,0.4,0.6,1,0.6,1.7c0,0.7-0.2,1.2-0.7,1.7
			c-0.5,0.5-1.1,0.7-2.6,0.7h-1.4v3.8h-1.2V103.4z M107.7,107.1h1.4c0.8,0,2-0.1,2-1.5c0-1.3-1.1-1.3-1.7-1.3h-1.7V107.1z"/>
		<path class="st1" d="M118.1,112v-7.6h-2.9v-1h7v1h-2.9v7.6H118.1z"/>
		<path class="st1" d="M130.5,110.9l2.2-2.1c0.5-0.4,0.9-0.9,1.3-1.4c0.5-0.7,0.6-1,0.6-1.5c0-0.4-0.1-1.3-1.3-1.3
			c-1.3,0-1.3,1.1-1.3,1.4h-1.3c0-0.4,0-1.2,0.8-1.8c0.6-0.5,1.3-0.6,1.8-0.6c1.3,0,2.6,0.6,2.6,2.4c0,0.5,0,0.9-0.9,2.1
			c-0.2,0.3-1.3,1.4-1.5,1.6l-1.4,1.4h3.9v0.9h-5.3V110.9z"/>
		<path class="st1" d="M139.2,105.8c0-0.7,0.5-2.3,2.7-2.3c1.7,0,2.7,0.9,2.7,2.2c0,0.8-0.5,1.7-1.7,1.9c0.5,0.1,1.8,0.5,1.8,2.1
			c0,1.1-0.8,2.4-2.8,2.4c-0.7,0-1.5-0.1-2.1-0.7c-0.4-0.4-0.7-1-0.7-1.7c0-0.5,0.2-1.1,0.6-1.5c0.4-0.4,0.8-0.5,1.2-0.6
			C139.8,107.4,139.2,106.6,139.2,105.8z M141.9,111.2c1.3,0,1.6-0.9,1.6-1.6c0-0.9-0.7-1.5-1.6-1.5c-1,0-1.7,0.7-1.7,1.6
			C140.3,110.3,140.7,111.2,141.9,111.2z M142,104.4c-0.9,0-1.6,0.5-1.6,1.4c0,0.8,0.7,1.3,1.5,1.3c0.9,0,1.6-0.5,1.6-1.3
			C143.5,105,143,104.4,142,104.4z"/>
		<path class="st1" d="M153.5,110.9l2.2-2.1c0.5-0.4,0.9-0.9,1.3-1.4c0.5-0.7,0.6-1,0.6-1.5c0-0.4-0.1-1.3-1.3-1.3
			c-1.3,0-1.4,1.1-1.4,1.4h-1.3c0-0.4,0-1.2,0.8-1.8c0.6-0.5,1.3-0.6,1.8-0.6c1.3,0,2.6,0.6,2.6,2.4c0,0.5,0,0.9-0.9,2.1
			c-0.2,0.3-1.3,1.4-1.5,1.6l-1.4,1.4h3.9v0.9h-5.3V110.9z"/>
		<path class="st1" d="M165,103.5c2.5,0,2.8,2.7,2.8,4.2c0,2-0.4,3.1-1.1,3.8c-0.6,0.5-1.3,0.6-1.6,0.6c-1.1,0-1.9-0.6-2.2-1.4
			c-0.3-0.5-0.5-1.4-0.5-2.8C162.2,106.7,162.3,103.5,165,103.5z M165,111.2c1.4,0,1.6-1.8,1.6-3.3c0-2-0.3-3.4-1.6-3.4
			c-1.4,0-1.6,1.9-1.6,3.4C163.3,109.7,163.7,111.2,165,111.2z"/>
		<path class="st1" d="M173.7,105c-0.5,0.4-1.3,0.9-1.9,1.2V105c0.8-0.4,1.5-0.9,2-1.3h1.1v8.3h-1.1V105z"/>
		<path class="st1" d="M184.1,105.7c0-1-0.7-1.2-1.3-1.2c-1.2,0-1.7,1-1.8,3.2c0.3-0.4,0.7-1.1,1.9-1.1c1.3,0,2.5,0.9,2.5,2.7
			c0,1.9-1.4,2.9-2.8,2.9c-0.8,0-1.6-0.3-2-0.9c-0.6-0.8-0.8-2-0.8-3c0-1.8,0.4-4.7,3.1-4.7c1.1,0,1.7,0.5,2,0.8
			c0.4,0.5,0.4,1,0.4,1.3H184.1z M184.3,109.4c0-0.6-0.2-1.8-1.5-1.8c-1.1,0-1.6,0.9-1.6,1.9c0,1.1,0.7,1.9,1.6,1.9
			C183.5,111.2,184.3,110.7,184.3,109.4z"/>
	</g>
	<g>
		<path class="st1" d="M88.3,185.1l-2.1-0.2l1.2,1.6l-0.8,0.5l-0.8-1.9L85,187l-0.8-0.4l1.3-1.7l-2,0.2v-0.9l2,0.3l-1.2-1.7l0.8-0.4
			l0.8,1.9l0.8-1.9l0.8,0.4l-1.3,1.7l2-0.2V185.1z"/>
		<path class="st1" d="M97.1,185.1l-2.1-0.2l1.2,1.6l-0.8,0.5l-0.8-1.9l-0.9,1.9l-0.8-0.4l1.3-1.7l-2,0.2v-0.9l2,0.3l-1.2-1.7
			l0.8-0.4l0.8,1.9l0.8-1.9l0.8,0.4l-1.3,1.7l2-0.2V185.1z"/>
		<path class="st1" d="M105.9,185.1l-2.1-0.2l1.2,1.6l-0.8,0.5l-0.8-1.9l-0.9,1.9l-0.8-0.4l1.3-1.7l-2,0.2v-0.9l2,0.3l-1.2-1.7
			l0.8-0.4l0.8,1.9l0.8-1.9l0.8,0.4l-1.3,1.7l2-0.2V185.1z"/>
		<path class="st1" d="M114.7,185.1l-2.1-0.2l1.2,1.6l-0.8,0.5l-0.8-1.9l-0.9,1.9l-0.8-0.4l1.3-1.7l-2,0.2v-0.9l2,0.3l-1.2-1.7
			l0.8-0.4l0.8,1.9l0.8-1.9l0.8,0.4l-1.3,1.7l2-0.2V185.1z"/>
		<path class="st1" d="M123.5,185.1l-2.1-0.2l1.2,1.6l-0.8,0.5l-0.8-1.9l-0.9,1.9l-0.8-0.4l1.3-1.7l-2,0.2v-0.9l2,0.3l-1.2-1.7
			l0.8-0.4l0.8,1.9l0.8-1.9l0.8,0.4l-1.3,1.7l2-0.2V185.1z"/>
		<path class="st1" d="M132.3,185.1l-2.1-0.2l1.2,1.6l-0.8,0.5l-0.8-1.9L129,187l-0.8-0.4l1.3-1.7l-2,0.2v-0.9l2,0.3l-1.2-1.7
			l0.8-0.4l0.8,1.9l0.8-1.9l0.8,0.4l-1.3,1.7l2-0.2V185.1z"/>
		<path class="st1" d="M141,185.1l-2.1-0.2l1.2,1.6l-0.8,0.5l-0.8-1.9l-0.9,1.9l-0.8-0.4l1.3-1.7l-2,0.2v-0.9l2,0.3l-1.2-1.7
			l0.8-0.4l0.8,1.9l0.8-1.9l0.8,0.4l-1.3,1.7l2-0.2V185.1z"/>
		<path class="st1" d="M149.8,185.1l-2.1-0.2l1.2,1.6l-0.8,0.5l-0.8-1.9l-0.9,1.9l-0.8-0.4l1.3-1.7l-2,0.2v-0.9l2,0.3l-1.2-1.7
			l0.8-0.4l0.8,1.9l0.8-1.9l0.8,0.4l-1.3,1.7l2-0.2V185.1z"/>
		<path class="st1" d="M154.6,188.8c0,0.8,0.5,1.3,1.5,1.3c1.2,0,1.6-0.7,1.6-1.5c0-0.9-0.6-1.3-1.2-1.5c-0.4-0.1-0.7-0.1-1.1-0.1
			v-1c0.8,0.1,2.2-0.1,2.2-1.4c0-0.9-0.6-1.3-1.5-1.3c-0.6,0-1.4,0.3-1.5,1.3h-1.2c0.1-2.1,2-2.3,2.7-2.3c1.8,0,2.7,1.1,2.7,2.2
			c0,0.7-0.4,1.7-1.6,1.9c1.8,0.3,1.8,1.8,1.8,2c0,1.2-0.9,2.4-2.9,2.4c-0.9,0-1.7-0.3-2.3-0.9c-0.5-0.5-0.5-1.1-0.5-1.5H154.6z"/>
		<path class="st1" d="M162.1,182.7h5.5v1l-3,7.3h-1.4l3.2-7.3h-4.3V182.7z"/>
		<path class="st1" d="M170.9,182.7h5.5v1l-3,7.3H172l3.2-7.3h-4.3V182.7z"/>
		<path class="st1" d="M179.9,184.8c0-0.7,0.5-2.3,2.7-2.3c1.7,0,2.7,0.9,2.7,2.2c0,0.8-0.5,1.7-1.7,1.9c0.5,0.1,1.8,0.5,1.8,2.1
			c0,1.1-0.8,2.4-2.8,2.4c-0.7,0-1.5-0.1-2.1-0.7c-0.4-0.4-0.7-1-0.7-1.7c0-0.5,0.2-1.1,0.6-1.5c0.4-0.4,0.8-0.5,1.2-0.6
			C180.4,186.4,179.9,185.6,179.9,184.8z M182.6,190.2c1.3,0,1.6-0.9,1.6-1.6c0-0.9-0.7-1.5-1.6-1.5c-1,0-1.7,0.7-1.7,1.6
			C180.9,189.3,181.3,190.2,182.6,190.2z M182.6,183.4c-0.9,0-1.6,0.5-1.6,1.3c0,0.8,0.7,1.3,1.5,1.3c0.9,0,1.6-0.5,1.6-1.3
			C184.1,184,183.6,183.4,182.6,183.4z"/>
	</g>
	<g>
		<path class="st1" d="M150.2,225.8c0-0.8-0.3-1.1-0.9-1.1c-0.5,0-1,0.3-1,1l0,1.9c0,0.5,0.1,0.8,0.4,1.2l2.5,4.3
			c0.5,0.8,0.6,1.4,0.6,2.2l0,2c0,1.4-0.7,2.3-1.9,2.5l0,1.8l-1.3,0l0-1.8c-0.6-0.1-1.1-0.3-1.4-0.7c-0.3-0.4-0.5-0.9-0.4-1.5l0-2.1
			l1.6,0l0,1.9c0,0.7,0.2,1.2,1,1.2c0.8,0,1-0.6,1-1.4l0-2c0-0.5-0.1-1-0.4-1.5l-2.5-4.4c-0.4-0.6-0.5-1.2-0.5-1.8l0-1.8
			c0-1.3,0.7-2.1,1.8-2.3l0-1.8l1.3,0l0,1.8c1.2,0.1,1.9,0.8,1.9,2.2l0,1.8l-1.6,0L150.2,225.8z"/>
		<path class="st1" d="M156,230.7l0.9,0c0.6,0,1-0.5,1-1.1l0-4.5c0-0.6-0.4-1.1-1-1.1c-0.6,0-1,0.5-1,1.1l0,2.4l-1.5,0l0-2.1
			c0-1.6,0.7-2.6,2.5-2.6c1.7,0,2.5,1.1,2.4,2.6l0,3.9c0,1.3-0.4,1.6-1.2,1.9v0c0.9,0.1,1.2,0.5,1.2,1.7l0,4.8
			c0,1.6-0.7,2.6-2.5,2.6c-1.7,0-2.5-1.1-2.4-2.6l0-2.3l1.5,0l0,2.7c0,0.6,0.4,1.1,1,1.1c0.6,0,1-0.5,1-1.1l0-5c0-0.6-0.4-1.1-1-1.1
			l-0.9,0L156,230.7z"/>
		<path class="st1" d="M161.9,225.5c0-2.2,1.4-2.5,2.5-2.5c1.1,0,2.5,0.4,2.4,2.6l0,12.4c0,2.2-1.4,2.5-2.5,2.5
			c-1.1,0-2.5-0.4-2.4-2.6L161.9,225.5z M165.4,225.3c0-0.4,0-1.2-1-1.2c-1,0-1,0.8-1,1.2l-0.1,12.8c0,0.4,0,1.2,1,1.2
			c1,0,1-0.8,1-1.2L165.4,225.3z"/>
		<path class="st1" d="M169.5,238.5l1.6,0l0,1.8l-1.6,0L169.5,238.5z"/>
		<path class="st1" d="M173.9,225.6c0-1.7,0.8-2.6,2.5-2.6c1.6,0,2.4,1,2.4,2.6l0,1.7c0,0.6-0.1,1.6-0.4,2.3L175,239l3.7,0l0,1.3
			l-5.1,0l0-1.6l3.3-9.4c0.3-0.8,0.4-1.5,0.4-2.4l0-1.4c0-1-0.3-1.4-0.9-1.4c-0.6,0-1,0.5-1,1.4l0,2l-1.5,0L173.9,225.6z"/>
		<path class="st1" d="M181.3,225.6c0-2.2,1.4-2.5,2.5-2.5c1.1,0,2.5,0.4,2.4,2.6l0,12.4c0,2.2-1.4,2.5-2.5,2.5
			c-1.1,0-2.5-0.4-2.4-2.6L181.3,225.6z M184.7,225.4c0-0.4,0-1.2-1-1.2c-1,0-1,0.8-1,1.2l-0.1,12.8c0,0.4,0,1.2,1,1.2
			c1,0,1-0.8,1-1.2L184.7,225.4z"/>
	</g>
</g>
</svg>
