<?xml version="1.0" encoding="utf-8"?>
<!-- Generator: Adobe Illustrator 20.1.0, SVG Export Plug-In . SVG Version: 6.00 Build 0)  -->
<svg version="1.1" id="Layer_1" xmlns="http://www.w3.org/2000/svg" xmlns:xlink="http://www.w3.org/1999/xlink" x="0px" y="0px"
	 viewBox="0 0 211 147" style="enable-background:new 0 0 211 147;" xml:space="preserve">
<style type="text/css">
	.st0{fill:#FFFFFF;}
</style>
<g>
	<g>
		<path class="st0" d="M111.7,101.8V98h2v0.4h-1.5v1.2h1.4v0.4h-1.4v1.3h1.5v0.4H111.7z"/>
		<path class="st0" d="M117.7,101.8h-0.6l-0.9-1.6l-0.8,1.6h-0.5l1.1-2l-1-1.8h0.6l0.8,1.5L117,98h0.5l-1,1.8L117.7,101.8z"/>
		<path class="st0" d="M118.9,101.8V98h1.1c0.5,0,1.1,0.2,1.1,1.1c0,0.9-0.7,1-1.1,1h-0.6v1.7H118.9z M119.4,99.7h0.5
			c0.2,0,0.7-0.1,0.7-0.6c0-0.6-0.4-0.6-0.5-0.6h-0.7V99.7z"/>
		<path class="st0" d="M123,101.8h-0.5V98h0.5V101.8z"/>
		<path class="st0" d="M125,100v1.8h-0.5V98h1.3c0.7,0,0.9,0.5,0.9,0.9c0,0.4-0.2,0.8-0.7,0.9v0c0.4,0.1,0.6,0.2,0.6,1
			c0,0.2,0.1,0.8,0.1,1h-0.5c-0.1-0.3-0.1-0.8-0.1-1.3c0-0.5-0.4-0.5-0.6-0.5H125z M125,99.6h0.7c0.3,0,0.5-0.3,0.5-0.6
			c0-0.3-0.1-0.6-0.5-0.6H125V99.6z"/>
		<path class="st0" d="M128.1,101.8V98h2v0.4h-1.5v1.2h1.4v0.4h-1.4v1.3h1.5v0.4H128.1z"/>
		<path class="st0" d="M131.8,100.6v0.1c0,0.5,0.3,0.7,0.6,0.7c0.4,0,0.7-0.2,0.7-0.6c0-0.8-1.7-0.7-1.7-1.9c0-0.7,0.5-1,1.1-1
			c0.7,0,1.1,0.3,1.1,1.1h-0.5c0-0.4-0.1-0.7-0.6-0.7c-0.3,0-0.6,0.1-0.6,0.6c0,0.8,1.7,0.7,1.7,1.9c0,0.8-0.6,1.1-1.2,1.1
			c-1.1,0-1.1-0.8-1.1-1.2H131.8z"/>
	</g>
	<g>
		<path class="st0" d="M169.4,99.1c0-1.2,0.7-1.4,1.3-1.4s1.3,0.2,1.3,1.4v6.7c0,1.2-0.7,1.4-1.3,1.4s-1.3-0.2-1.3-1.4V99.1z
			 M171.2,99c0-0.2,0-0.6-0.5-0.6c-0.5,0-0.5,0.4-0.5,0.6v6.9c0,0.2,0,0.6,0.5,0.6c0.5,0,0.5-0.4,0.5-0.6V99z"/>
		<path class="st0" d="M175,101.9h0.5c0.3,0,0.5-0.3,0.5-0.6V99c0-0.3-0.2-0.6-0.5-0.6c-0.3,0-0.5,0.3-0.5,0.6v1.3h-0.8v-1.1
			c0-0.8,0.4-1.4,1.3-1.4c0.9,0,1.3,0.6,1.3,1.4v2.1c0,0.7-0.2,0.8-0.7,1v0c0.5,0.1,0.7,0.3,0.7,0.9v2.6c0,0.8-0.4,1.4-1.3,1.4
			c-0.9,0-1.3-0.6-1.3-1.4v-1.3h0.8v1.4c0,0.3,0.2,0.6,0.5,0.6c0.3,0,0.5-0.3,0.5-0.6v-2.7c0-0.3-0.2-0.6-0.5-0.6H175V101.9z"/>
		<path class="st0" d="M178.9,106.1h0.8v1h-0.8V106.1z"/>
		<path class="st0" d="M182.7,101.9h0.5c0.3,0,0.5-0.3,0.5-0.6V99c0-0.3-0.2-0.6-0.5-0.6c-0.3,0-0.5,0.3-0.5,0.6v1.3h-0.8v-1.1
			c0-0.8,0.4-1.4,1.3-1.4c0.9,0,1.3,0.6,1.3,1.4v2.1c0,0.7-0.2,0.8-0.7,1v0c0.5,0.1,0.7,0.3,0.7,0.9v2.6c0,0.8-0.4,1.4-1.3,1.4
			c-0.9,0-1.3-0.6-1.3-1.4v-1.3h0.8v1.4c0,0.3,0.2,0.6,0.5,0.6c0.3,0,0.5-0.3,0.5-0.6v-2.7c0-0.3-0.2-0.6-0.5-0.6h-0.5V101.9z"/>
		<path class="st0" d="M187.6,98.8c-0.2,0.2-0.6,0.4-0.8,0.6v-0.9c0.3-0.1,0.7-0.5,1-0.7h0.7v9.3h-0.8V98.8z"/>
		<path class="st0" d="M190.9,106.1h0.8v1h-0.8V106.1z"/>
		<path class="st0" d="M194.4,98.8c-0.2,0.2-0.6,0.4-0.8,0.6v-0.9c0.3-0.1,0.7-0.5,1-0.7h0.7v9.3h-0.8V98.8z"/>
		<path class="st0" d="M199.8,98.5h-2.1v-0.7h2.8v0.9l-1.4,8.4h-0.8L199.8,98.5z"/>
	</g>
	<g>
		<path class="st0" d="M209,2V145H2V2H209 M211,0H0v147h211V0L211,0z"/>
	</g>
	<g>
		<path class="st0" d="M24.4,28.1l-3.3,6.5l-3.3-6.5v-2.6h1.3v2.3l2,3.9l2-3.9v-2.3h1.3V28.1z"/>
		<path class="st0" d="M33.3,34.6h-6.5v-9.2h6.5v1.3h-5.2v2.6H32v1.3h-3.9v2.6h5.2V34.6z"/>
		<path class="st0" d="M42.2,34.6h-1.3v-3.9H37v3.9h-1.3v-9.2H37v3.9h3.9v-3.9h1.3V34.6z"/>
		<path class="st0" d="M51.2,34.6h-6.5v-1.3h2.6v-6.5h-2.6v-1.3h6.5v1.3h-2.6v6.5h2.6V34.6z"/>
		<path class="st0" d="M60,32c0,0.7-0.3,1.3-0.8,1.9c-0.5,0.5-1.1,0.8-1.9,0.8h-1.3c-0.7,0-1.3-0.3-1.9-0.8
			c-0.5-0.5-0.8-1.1-0.8-1.9v-3.9c0-0.7,0.3-1.3,0.8-1.9c0.5-0.5,1.1-0.8,1.9-0.8h1.3c0.7,0,1.3,0.3,1.9,0.8
			c0.5,0.5,0.8,1.1,0.8,1.8h-1.3c0-0.4-0.1-0.7-0.4-0.9c-0.3-0.3-0.6-0.4-0.9-0.4h-1.3c-0.4,0-0.7,0.1-0.9,0.4
			c-0.3,0.3-0.4,0.6-0.4,0.9V32c0,0.4,0.1,0.7,0.4,0.9c0.3,0.3,0.6,0.4,0.9,0.4h1.3c0.4,0,0.7-0.1,0.9-0.4c0.3-0.3,0.4-0.6,0.4-0.9
			H60z"/>
		<path class="st0" d="M68.9,34.6h-6.5v-9.2h1.3v7.9h5.2V34.6z"/>
		<path class="st0" d="M77.8,34.6h-6.5v-9.2h6.5v1.3h-5.2v2.6h3.9v1.3h-3.9v2.6h5.2V34.6z"/>
		<path class="st0" d="M93.9,34.6V32c0-0.4-0.1-0.7-0.4-0.9c-0.3-0.3-0.6-0.4-0.9-0.4H90v3.9h-1.3v-9.2h3.9c0.7,0,1.3,0.3,1.9,0.8
			c0.5,0.5,0.8,1.1,0.8,1.9c0,0.8-0.4,1.4-1.1,2c0.7,0.5,1.1,1.2,1.1,2v2.6H93.9z M90,29.4h2.6c0.4,0,0.7-0.1,0.9-0.4
			c0.3-0.3,0.4-0.6,0.4-0.9c0-0.4-0.1-0.7-0.4-0.9c-0.3-0.3-0.6-0.4-0.9-0.4H90V29.4z"/>
		<path class="st0" d="M104.2,34.6h-6.5v-9.2h6.5v1.3h-5.2v2.6h3.9v1.3h-3.9v2.6h5.2V34.6z"/>
		<path class="st0" d="M113,32c0,0.7-0.3,1.3-0.8,1.9c-0.5,0.5-1.1,0.8-1.9,0.8h-1.3c-0.7,0-1.3-0.3-1.9-0.8
			c-0.5-0.5-0.8-1.1-0.8-1.9v-3.9c0-0.7,0.3-1.3,0.8-1.9c0.5-0.5,1.1-0.8,1.9-0.8h1.3c0.7,0,1.3,0.3,1.9,0.8
			c0.5,0.5,0.8,1.1,0.8,1.8h-1.3c0-0.4-0.1-0.7-0.4-0.9c-0.3-0.3-0.6-0.4-0.9-0.4h-1.3c-0.4,0-0.7,0.1-0.9,0.4
			c-0.3,0.3-0.4,0.6-0.4,0.9V32c0,0.4,0.1,0.7,0.4,0.9c0.3,0.3,0.6,0.4,0.9,0.4h1.3c0.4,0,0.7-0.1,0.9-0.4c0.3-0.3,0.4-0.6,0.4-0.9
			v-1.3h-1.3v-1.3h2.6V32z"/>
		<path class="st0" d="M121.8,34.6h-6.5v-1.3h2.6v-6.5h-2.6v-1.3h6.5v1.3h-2.6v6.5h2.6V34.6z"/>
		<path class="st0" d="M130.6,32c0,0.7-0.3,1.3-0.8,1.9c-0.5,0.5-1.1,0.8-1.9,0.8h-1.3c-0.7,0-1.3-0.3-1.9-0.8
			c-0.5-0.5-0.8-1.1-0.8-1.9h1.3c0,0.4,0.1,0.7,0.4,0.9c0.3,0.3,0.6,0.4,0.9,0.4h1.3c0.4,0,0.7-0.1,0.9-0.4c0.3-0.3,0.4-0.6,0.4-0.9
			s-0.1-0.7-0.4-0.9c-0.3-0.3-0.6-0.4-0.9-0.4h-1.3c-0.7,0-1.3-0.3-1.9-0.8c-0.5-0.5-0.8-1.1-0.8-1.9c0-0.7,0.3-1.3,0.8-1.9
			c0.5-0.5,1.1-0.8,1.9-0.8h1.3c0.7,0,1.3,0.3,1.9,0.8c0.5,0.5,0.8,1.1,0.8,1.8h-1.3c0-0.4-0.1-0.7-0.4-0.9
			c-0.3-0.3-0.6-0.4-0.9-0.4h-1.3c-0.4,0-0.7,0.1-0.9,0.4c-0.3,0.3-0.4,0.6-0.4,0.9c0,0.4,0.1,0.7,0.4,0.9c0.3,0.3,0.6,0.4,0.9,0.4
			h1.3c0.7,0,1.3,0.3,1.8,0.8S130.6,31.3,130.6,32z"/>
		<path class="st0" d="M139.4,26.7h-2.6v7.9h-1.3v-7.9h-2.6v-1.3h6.5V26.7z"/>
		<path class="st0" d="M147.1,34.6V32c0-0.4-0.1-0.7-0.4-0.9c-0.3-0.3-0.6-0.4-0.9-0.4h-2.6v3.9h-1.3v-9.2h3.9
			c0.7,0,1.3,0.3,1.9,0.8c0.5,0.5,0.8,1.1,0.8,1.9c0,0.8-0.4,1.4-1.1,2c0.7,0.5,1.1,1.2,1.1,2v2.6H147.1z M143.1,29.4h2.6
			c0.4,0,0.7-0.1,0.9-0.4c0.3-0.3,0.4-0.6,0.4-0.9c0-0.4-0.1-0.7-0.4-0.9c-0.3-0.3-0.6-0.4-0.9-0.4h-2.6V29.4z"/>
		<path class="st0" d="M152.1,32v2.6h-1.3v-4.3l2.5-4.9h1.6l2.4,4.9v4.3H156V32H152.1z M154,26.8l-2,3.9h3.9L154,26.8z"/>
		<path class="st0" d="M165.4,26.7h-2.6v7.9h-1.3v-7.9h-2.6v-1.3h6.5V26.7z"/>
		<path class="st0" d="M174.3,34.6h-6.5v-1.3h2.6v-6.5h-2.6v-1.3h6.5v1.3h-2.6v6.5h2.6V34.6z"/>
		<path class="st0" d="M183.1,32c0,0.7-0.3,1.3-0.8,1.9c-0.5,0.5-1.1,0.8-1.9,0.8h-1.3c-0.7,0-1.3-0.3-1.9-0.8
			c-0.5-0.5-0.8-1.1-0.8-1.9v-3.9c0-0.7,0.3-1.3,0.8-1.9c0.5-0.5,1.1-0.8,1.9-0.8h1.3c0.7,0,1.3,0.3,1.9,0.8
			c0.5,0.5,0.8,1.1,0.8,1.8V32z M181.8,32v-3.9c0-0.4-0.1-0.7-0.4-0.9c-0.3-0.3-0.6-0.4-0.9-0.4h-1.3c-0.4,0-0.7,0.1-0.9,0.4
			c-0.3,0.3-0.4,0.6-0.4,0.9V32c0,0.4,0.1,0.7,0.4,0.9c0.3,0.3,0.6,0.4,0.9,0.4h1.3c0.4,0,0.7-0.1,0.9-0.4
			C181.7,32.6,181.8,32.3,181.8,32z"/>
		<path class="st0" d="M192.1,34.6h-1.3v-3l-3.9-3.9v7h-1.3v-9.2h0.9l4.3,4.3v-4.3h1.3V34.6z"/>
	</g>
	<g>
		<path class="st0" d="M81.7,6v4H81l-1.6-3.5h0V10H79V6h0.7l1.5,3.4h0V6H81.7z"/>
		<path class="st0" d="M83.7,10V6h2.1v0.4h-1.5v1.3h1.4v0.4h-1.4v1.4h1.6V10H83.7z"/>
		<path class="st0" d="M87.3,6h0.5l0.8,3.5h0L89.4,6h0.7l0.7,3.5h0L91.6,6h0.5l-1.1,4h-0.6l-0.8-3.5h0L88.9,10h-0.6L87.3,6z"/>
		<path class="st0" d="M97.5,6H98l-1.1,2.5V10h-0.5V8.5L95.3,6h0.6l0.8,1.9L97.5,6z"/>
		<path class="st0" d="M99.5,8.5V7.2c0-0.8,0.4-1.3,1.3-1.3c0.8,0,1.3,0.5,1.3,1.3v1.3c0,1.1-0.4,1.5-1.3,1.5
			C99.9,10.1,99.5,9.6,99.5,8.5z M101.5,8.5V7.2c0-0.8-0.6-0.9-0.7-0.9c-0.2,0-0.7,0-0.7,0.9v1.3c0,0.9,0.3,1.1,0.7,1.1
			S101.5,9.4,101.5,8.5z"/>
		<path class="st0" d="M104.4,8.1V10h-0.5V6h1.4c0.7,0,1,0.5,1,1c0,0.5-0.3,0.8-0.7,0.9v0c0.5,0.1,0.6,0.2,0.7,1
			c0,0.2,0.1,0.8,0.1,1h-0.5c-0.1-0.3-0.1-0.8-0.2-1.3c0-0.5-0.4-0.5-0.6-0.5H104.4z M104.4,7.7h0.8c0.4,0,0.5-0.3,0.5-0.7
			c0-0.3-0.1-0.6-0.5-0.6h-0.8V7.7z"/>
		<path class="st0" d="M108.1,10V6h0.5v1.7h0L110,6h0.6l-1.4,1.8l1.5,2.2H110l-1.4-2.1h0V10H108.1z"/>
		<path class="st0" d="M114.7,8.8v0.1c0,0.5,0.3,0.7,0.7,0.7c0.4,0,0.7-0.2,0.7-0.6c0-0.9-1.8-0.8-1.8-2c0-0.7,0.5-1.1,1.2-1.1
			c0.7,0,1.1,0.4,1.1,1.2H116c0-0.4-0.1-0.7-0.6-0.7c-0.3,0-0.6,0.2-0.6,0.6c0,0.9,1.8,0.8,1.8,2c0,0.8-0.6,1.1-1.2,1.1
			c-1.2,0-1.2-0.9-1.2-1.3H114.7z"/>
		<path class="st0" d="M120.8,6v0.4h-1V10h-0.5V6.4h-1V6H120.8z"/>
		<path class="st0" d="M123.1,6h0.6l1.3,4h-0.6L124.1,9h-1.5l-0.3,0.9h-0.5L123.1,6z M123.4,6.5L123.4,6.5l-0.6,2.1h1.3L123.4,6.5z"
			/>
		<path class="st0" d="M128.3,6v0.4h-1V10h-0.5V6.4h-1V6H128.3z"/>
		<path class="st0" d="M130,10V6h2.1v0.4h-1.5v1.3h1.4v0.4h-1.4v1.4h1.6V10H130z"/>
	</g>
	<g>
		<path class="st0" d="M73.6,140.5h-0.3l-0.6-2.1H73l0.5,1.9h0l0.5-1.9h0.3L73.6,140.5z"/>
		<path class="st0" d="M75.1,139.7V139c0-0.4,0.2-0.7,0.7-0.7c0.4,0,0.7,0.3,0.7,0.7v0.7c0,0.6-0.2,0.8-0.7,0.8
			C75.3,140.5,75.1,140.3,75.1,139.7z M76.1,139.7V139c0-0.4-0.3-0.5-0.4-0.5c-0.1,0-0.4,0-0.4,0.5v0.7c0,0.5,0.1,0.6,0.4,0.6
			C76,140.3,76.1,140.2,76.1,139.7z"/>
		<path class="st0" d="M77.7,140.5h-0.3v-2.1h0.3V140.5z"/>
		<path class="st0" d="M78.8,138.4h0.7c0.3,0,0.5,0.1,0.6,0.3c0.1,0.2,0.1,0.6,0.1,0.7c0,0.5,0,0.7-0.1,0.9
			c-0.1,0.2-0.3,0.3-0.7,0.3h-0.5V138.4z M79.1,140.2h0.3c0.4,0,0.5-0.1,0.5-0.6v-0.4c0-0.4-0.1-0.6-0.4-0.6h-0.4V140.2z"/>
		<path class="st0" d="M82.4,140.5h-0.3v-2.1h0.3V140.5z"/>
		<path class="st0" d="M83.5,140.5v-2.1h1.1v0.2h-0.8v0.7h0.7v0.2h-0.7v1H83.5z"/>
		<path class="st0" d="M86.8,138.4h0.3l0.7,2.1h-0.3l-0.2-0.5h-0.8l-0.2,0.5h-0.3L86.8,138.4z M87,138.6L87,138.6l-0.3,1.1h0.7
			L87,138.6z"/>
		<path class="st0" d="M88.8,140.5v-2.1H89v1.9h0.8v0.2H88.8z"/>
		<path class="st0" d="M91.7,138.4v0.2h-0.6v1.9h-0.3v-1.9h-0.6v-0.2H91.7z"/>
		<path class="st0" d="M92.6,140.5v-2.1h1.1v0.2h-0.8v0.7h0.8v0.2h-0.8v0.7h0.8v0.2H92.6z"/>
		<path class="st0" d="M95,139.5v1h-0.3v-2.1h0.7c0.4,0,0.5,0.3,0.5,0.5c0,0.2-0.1,0.4-0.4,0.5v0c0.2,0,0.3,0.1,0.3,0.5
			c0,0.1,0,0.4,0.1,0.6h-0.3c-0.1-0.1-0.1-0.4-0.1-0.7c0-0.3-0.2-0.3-0.3-0.3H95z M95,139.3h0.4c0.2,0,0.3-0.2,0.3-0.4
			c0-0.2-0.1-0.3-0.3-0.3H95V139.3z"/>
		<path class="st0" d="M96.9,140.5v-2.1H98v0.2h-0.8v0.7H98v0.2h-0.8v0.7H98v0.2H96.9z"/>
		<path class="st0" d="M99,138.4h0.7c0.3,0,0.5,0.1,0.6,0.3c0.1,0.2,0.1,0.6,0.1,0.7c0,0.5,0,0.7-0.1,0.9c-0.1,0.2-0.3,0.3-0.7,0.3
			H99V138.4z M99.2,140.2h0.3c0.4,0,0.5-0.1,0.5-0.6v-0.4c0-0.4-0.1-0.6-0.4-0.6h-0.4V140.2z"/>
		<path class="st0" d="M102.3,140.5v-2.1h1.1v0.2h-0.8v0.7h0.8v0.2h-0.8v0.7h0.8v0.2H102.3z"/>
		<path class="st0" d="M105.8,140.5h-0.3l-0.5-0.9l-0.5,0.9h-0.3l0.6-1.1l-0.6-1h0.3l0.4,0.8l0.4-0.8h0.3l-0.6,1L105.8,140.5z"/>
		<path class="st0" d="M107.6,138.9c0-0.1,0-0.2-0.1-0.3c-0.1-0.1-0.2-0.1-0.2-0.1c-0.2,0-0.3,0.1-0.3,0.2c0,0-0.1,0.1-0.1,0.4v0.6
			c0,0.5,0.2,0.6,0.4,0.6c0.1,0,0.3,0,0.3-0.4h0.3c0,0.7-0.5,0.7-0.6,0.7c-0.3,0-0.7,0-0.7-0.8v-0.6c0-0.6,0.3-0.8,0.7-0.8
			c0.4,0,0.6,0.2,0.6,0.6H107.6z"/>
		<path class="st0" d="M108.9,140.5v-2.1h1.1v0.2h-0.8v0.7h0.8v0.2h-0.8v0.7h0.8v0.2H108.9z"/>
		<path class="st0" d="M111,140.5v-2.1h0.6c0.3,0,0.6,0.1,0.6,0.6c0,0.5-0.4,0.6-0.6,0.6h-0.4v0.9H111z M111.2,139.3h0.3
			c0.1,0,0.4,0,0.4-0.4c0-0.3-0.2-0.4-0.3-0.4h-0.4V139.3z"/>
		<path class="st0" d="M114.4,138.4v0.2h-0.6v1.9h-0.3v-1.9H113v-0.2H114.4z"/>
		<path class="st0" d="M116.2,140.5v-2.1h1.1v0.2h-0.8v0.7h0.7v0.2h-0.7v1H116.2z"/>
		<path class="st0" d="M118.1,139.7V139c0-0.4,0.2-0.7,0.7-0.7c0.4,0,0.7,0.3,0.7,0.7v0.7c0,0.6-0.2,0.8-0.7,0.8
			C118.3,140.5,118.1,140.3,118.1,139.7z M119.2,139.7V139c0-0.4-0.3-0.5-0.4-0.5c-0.1,0-0.4,0-0.4,0.5v0.7c0,0.5,0.1,0.6,0.4,0.6
			C119,140.3,119.2,140.2,119.2,139.7z"/>
		<path class="st0" d="M120.7,139.5v1h-0.3v-2.1h0.7c0.4,0,0.5,0.3,0.5,0.5c0,0.2-0.1,0.4-0.4,0.5v0c0.2,0,0.3,0.1,0.3,0.5
			c0,0.1,0,0.4,0.1,0.6h-0.3c-0.1-0.1-0.1-0.4-0.1-0.7c0-0.3-0.2-0.3-0.3-0.3H120.7z M120.7,139.3h0.4c0.2,0,0.3-0.2,0.3-0.4
			c0-0.2-0.1-0.3-0.3-0.3h-0.4V139.3z"/>
		<path class="st0" d="M124.1,138.4h0.3l0.7,2.1h-0.3l-0.2-0.5h-0.8l-0.2,0.5h-0.3L124.1,138.4z M124.3,138.6L124.3,138.6l-0.3,1.1
			h0.7L124.3,138.6z"/>
		<path class="st0" d="M126.1,138.4h0.7c0.3,0,0.5,0.1,0.6,0.3c0.1,0.2,0.1,0.6,0.1,0.7c0,0.5,0,0.7-0.1,0.9
			c-0.1,0.2-0.3,0.3-0.7,0.3h-0.5V138.4z M126.4,140.2h0.3c0.4,0,0.5-0.1,0.5-0.6v-0.4c0-0.4-0.1-0.6-0.4-0.6h-0.4V140.2z"/>
		<path class="st0" d="M128.4,138.4h0.7c0.3,0,0.5,0.1,0.6,0.3c0.1,0.2,0.1,0.6,0.1,0.7c0,0.5,0,0.7-0.1,0.9
			c-0.1,0.2-0.3,0.3-0.7,0.3h-0.5V138.4z M128.7,140.2h0.3c0.4,0,0.5-0.1,0.5-0.6v-0.4c0-0.4-0.1-0.6-0.4-0.6h-0.4V140.2z"/>
		<path class="st0" d="M131,139.5v1h-0.3v-2.1h0.7c0.4,0,0.5,0.3,0.5,0.5c0,0.2-0.1,0.4-0.4,0.5v0c0.2,0,0.3,0.1,0.3,0.5
			c0,0.1,0,0.4,0.1,0.6h-0.3c-0.1-0.1-0.1-0.4-0.1-0.7c0-0.3-0.2-0.3-0.3-0.3H131z M131,139.3h0.4c0.2,0,0.3-0.2,0.3-0.4
			c0-0.2-0.1-0.3-0.3-0.3H131V139.3z"/>
		<path class="st0" d="M133,140.5v-2.1h1.1v0.2h-0.8v0.7h0.8v0.2h-0.8v0.7h0.8v0.2H133z"/>
		<path class="st0" d="M135.2,139.8L135.2,139.8c0,0.3,0.2,0.4,0.4,0.4c0.2,0,0.4-0.1,0.4-0.3c0-0.5-1-0.4-1-1.1
			c0-0.4,0.3-0.6,0.6-0.6c0.4,0,0.6,0.2,0.6,0.6H136c0-0.2-0.1-0.4-0.3-0.4c-0.2,0-0.3,0.1-0.3,0.3c0,0.5,1,0.4,1,1.1
			c0,0.4-0.3,0.6-0.7,0.6c-0.6,0-0.6-0.5-0.6-0.7H135.2z"/>
		<path class="st0" d="M137.5,139.8L137.5,139.8c0,0.3,0.2,0.4,0.4,0.4c0.2,0,0.4-0.1,0.4-0.3c0-0.5-1-0.4-1-1.1
			c0-0.4,0.3-0.6,0.6-0.6c0.4,0,0.6,0.2,0.6,0.6h-0.3c0-0.2-0.1-0.4-0.3-0.4c-0.2,0-0.3,0.1-0.3,0.3c0,0.5,1,0.4,1,1.1
			c0,0.4-0.3,0.6-0.7,0.6c-0.6,0-0.6-0.5-0.6-0.7H137.5z"/>
	</g>
	<g>
		<path class="st0" d="M65.7,61.5c0,0.5-0.2,0.8-0.5,1.2c-0.3,0.3-0.7,0.5-1.2,0.5h-0.8c-0.5,0-0.8-0.2-1.2-0.5
			c-0.3-0.3-0.5-0.7-0.5-1.2h0.8c0,0.2,0.1,0.4,0.2,0.6s0.4,0.2,0.6,0.2H64c0.2,0,0.4-0.1,0.6-0.2c0.2-0.2,0.2-0.4,0.2-0.6v-0.8
			c0-0.2-0.1-0.4-0.2-0.6c-0.2-0.2-0.4-0.2-0.6-0.2h-2.5v-2.5h4.1v0.8h-3.3V59H64c0.4,0,0.8,0.2,1.2,0.5s0.5,0.7,0.5,1.2V61.5z"/>
		<path class="st0" d="M70.8,63.1h-0.8V62l-1.2-1.2L67.5,62v1.1h-0.8v-1.4l1.5-1.5l-1.5-1.5v-1.4h0.8v1.1l1.2,1.2l1.2-1.2v-1.1h0.8
			v1.4l-1.5,1.5l1.5,1.5V63.1z"/>
		<path class="st0" d="M75.8,63.1H75v-2.5h-2.5v2.5h-0.8v-5.7h0.8v2.5H75v-2.5h0.8V63.1z"/>
		<path class="st0" d="M80.9,59c0,0.4-0.2,0.8-0.5,1.2c-0.3,0.3-0.7,0.5-1.2,0.5h-1.6v2.5h-0.8v-5.7h2.5c0.5,0,0.8,0.2,1.2,0.5
			C80.8,58.2,80.9,58.6,80.9,59z M80.1,59c0-0.2-0.1-0.4-0.2-0.6c-0.2-0.2-0.4-0.2-0.6-0.2h-1.6v1.6h1.6c0.2,0,0.4-0.1,0.6-0.2
			C80,59.4,80.1,59.2,80.1,59z"/>
		<path class="st0" d="M86,61.5c0,0.5-0.2,0.8-0.5,1.2c-0.3,0.3-0.7,0.5-1.2,0.5h-1.6v-0.8h1.6c0.2,0,0.4-0.1,0.6-0.2
			c0.2-0.2,0.2-0.4,0.2-0.6h-1.6c-0.5,0-0.8-0.2-1.2-0.5c-0.3-0.3-0.5-0.7-0.5-1.2V59c0-0.5,0.2-0.8,0.5-1.2
			c0.3-0.3,0.7-0.5,1.2-0.5h0.8c0.5,0,0.8,0.2,1.2,0.5c0.3,0.3,0.5,0.7,0.5,1.2V61.5z M85.2,60.6V59c0-0.2-0.1-0.4-0.2-0.6
			c-0.2-0.2-0.4-0.2-0.6-0.2h-0.8c-0.2,0-0.4,0.1-0.6,0.2c-0.2,0.2-0.2,0.4-0.2,0.6v0.8c0,0.2,0.1,0.4,0.2,0.6
			c0.2,0.2,0.4,0.2,0.6,0.2H85.2z"/>
		<path class="st0" d="M89.5,57.4c0.5,0,0.8,0.2,1.2,0.5c0.3,0.3,0.5,0.7,0.5,1.2c0,0.5-0.2,0.9-0.7,1.2c0.5,0.3,0.7,0.7,0.7,1.2
			c0,0.5-0.2,0.8-0.5,1.2c-0.3,0.3-0.7,0.5-1.2,0.5h-0.8c-0.5,0-0.8-0.2-1.2-0.5c-0.3-0.3-0.5-0.7-0.5-1.2c0-0.5,0.2-0.9,0.7-1.2
			C87.2,59.9,87,59.5,87,59c0-0.5,0.2-0.8,0.5-1.2c0.3-0.3,0.7-0.5,1.2-0.5H89.5z M88.6,58.2c-0.2,0-0.4,0.1-0.6,0.2
			s-0.2,0.4-0.2,0.6c0,0.2,0.1,0.4,0.2,0.6c0.2,0.2,0.4,0.2,0.6,0.2h0.8c0.2,0,0.4-0.1,0.6-0.2c0.2-0.2,0.2-0.4,0.2-0.6
			c0-0.2-0.1-0.4-0.2-0.6c-0.2-0.2-0.4-0.2-0.6-0.2H88.6z M89.5,62.3c0.2,0,0.4-0.1,0.6-0.2c0.2-0.2,0.2-0.4,0.2-0.6
			c0-0.2-0.1-0.4-0.2-0.6c-0.2-0.2-0.4-0.2-0.6-0.2h-0.8c-0.2,0-0.4,0.1-0.6,0.2c-0.2,0.2-0.2,0.4-0.2,0.6c0,0.2,0.1,0.4,0.2,0.6
			c0.2,0.2,0.4,0.2,0.6,0.2H89.5z"/>
		<path class="st0" d="M92.9,61.5c0,0.2,0.1,0.4,0.2,0.6c0.2,0.2,0.4,0.2,0.6,0.2h0.8c0.2,0,0.4-0.1,0.6-0.2
			c0.2-0.2,0.2-0.4,0.2-0.6c0-0.2-0.1-0.4-0.2-0.6c-0.2-0.2-0.4-0.2-0.6-0.2h-0.8v-0.8h0.8c0.2,0,0.4-0.1,0.6-0.2
			c0.2-0.2,0.2-0.4,0.2-0.6c0-0.2-0.1-0.4-0.2-0.6c-0.2-0.2-0.4-0.2-0.6-0.2h-0.8c-0.2,0-0.4,0.1-0.6,0.2c-0.2,0.2-0.2,0.4-0.2,0.6
			h-0.8c0-0.5,0.2-0.8,0.5-1.2c0.3-0.3,0.7-0.5,1.2-0.5h0.8c0.5,0,0.8,0.2,1.2,0.5c0.3,0.3,0.5,0.7,0.5,1.2c0,0.5-0.2,0.9-0.7,1.2
			c0.5,0.3,0.7,0.7,0.7,1.2c0,0.5-0.2,0.8-0.5,1.2c-0.3,0.3-0.7,0.5-1.2,0.5h-0.8c-0.5,0-0.8-0.2-1.2-0.5c-0.3-0.3-0.5-0.7-0.5-1.2
			H92.9z"/>
	</g>
	<g>
		<path class="st0" d="M65.7,79.9c0,0.5-0.2,0.8-0.5,1.2c-0.3,0.3-0.7,0.5-1.2,0.5h-0.8c-0.5,0-0.8-0.2-1.2-0.5
			c-0.3-0.3-0.5-0.7-0.5-1.2v-2.5c0-0.5,0.2-0.8,0.5-1.2c0.3-0.3,0.7-0.5,1.2-0.5H64c0.5,0,0.8,0.2,1.2,0.5c0.3,0.3,0.5,0.7,0.5,1.2
			V79.9z M64.7,77c-0.2-0.3-0.4-0.4-0.7-0.4h-0.8c-0.2,0-0.4,0.1-0.6,0.2c-0.2,0.2-0.2,0.4-0.2,0.6v1.9L64.7,77z M64.9,79.9V78
			l-2.3,2.3c0.2,0.3,0.4,0.4,0.7,0.4H64c0.2,0,0.4-0.1,0.6-0.2C64.8,80.3,64.9,80.1,64.9,79.9z"/>
		<path class="st0" d="M70.8,79.9c0,0.5-0.2,0.8-0.5,1.2c-0.3,0.3-0.7,0.5-1.2,0.5h-0.8c-0.5,0-0.8-0.2-1.2-0.5
			c-0.3-0.3-0.5-0.7-0.5-1.2v-2.5c0-0.5,0.2-0.8,0.5-1.2c0.3-0.3,0.7-0.5,1.2-0.5h0.8c0.5,0,0.8,0.2,1.2,0.5
			c0.3,0.3,0.5,0.7,0.5,1.2V79.9z M69.8,77c-0.2-0.3-0.4-0.4-0.7-0.4h-0.8c-0.2,0-0.4,0.1-0.6,0.2c-0.2,0.2-0.2,0.4-0.2,0.6v1.9
			L69.8,77z M69.9,79.9V78l-2.3,2.3c0.2,0.3,0.4,0.4,0.7,0.4h0.8c0.2,0,0.4-0.1,0.6-0.2C69.9,80.3,69.9,80.1,69.9,79.9z"/>
		<path class="st0" d="M75.8,81.5h-4.1v-0.6l3.2-3.2c0-0.1,0.1-0.2,0.1-0.3c0-0.2-0.1-0.4-0.2-0.6c-0.2-0.2-0.4-0.2-0.6-0.2h-0.8
			c-0.2,0-0.4,0.1-0.6,0.2c-0.2,0.2-0.2,0.4-0.2,0.6h-0.8c0-0.5,0.2-0.8,0.5-1.2c0.3-0.3,0.7-0.5,1.2-0.5h0.8c0.5,0,0.8,0.2,1.2,0.5
			c0.3,0.3,0.5,0.7,0.5,1.2c0,0.3-0.1,0.5-0.2,0.8l-2.5,2.5h2.7V81.5z"/>
		<path class="st0" d="M80.9,81.5h-4.1v-0.8h1.6v-3.3h-1.2v-0.8h0.4c0.2,0,0.4-0.1,0.6-0.2c0.2-0.2,0.2-0.4,0.2-0.6h0.8v4.9h1.6
			V81.5z"/>
		<path class="st0" d="M85.9,79.9c0,0.5-0.2,0.8-0.5,1.2s-0.7,0.5-1.2,0.5h-0.8c-0.5,0-0.8-0.2-1.2-0.5c-0.3-0.3-0.5-0.7-0.5-1.2
			v-2.5c0-0.5,0.2-0.8,0.5-1.2c0.3-0.3,0.7-0.5,1.2-0.5h0.8c0.5,0,0.8,0.2,1.2,0.5c0.3,0.3,0.5,0.7,0.5,1.2V79.9z M85,77
			c-0.2-0.3-0.4-0.4-0.7-0.4h-0.8c-0.2,0-0.4,0.1-0.6,0.2c-0.2,0.2-0.2,0.4-0.2,0.6v1.9L85,77z M85.1,79.9V78l-2.3,2.3
			c0.2,0.3,0.4,0.4,0.7,0.4h0.8c0.2,0,0.4-0.1,0.6-0.2C85,80.3,85.1,80.1,85.1,79.9z"/>
		<path class="st0" d="M91,79.9c0,0.5-0.2,0.8-0.5,1.2c-0.3,0.3-0.7,0.5-1.2,0.5h-0.8c-0.5,0-0.8-0.2-1.2-0.5
			c-0.3-0.3-0.5-0.7-0.5-1.2v-2.5c0-0.5,0.2-0.8,0.5-1.2c0.3-0.3,0.7-0.5,1.2-0.5h0.8c0.5,0,0.8,0.2,1.2,0.5
			c0.3,0.3,0.5,0.7,0.5,1.2V79.9z M90.1,77c-0.2-0.3-0.4-0.4-0.7-0.4h-0.8c-0.2,0-0.4,0.1-0.6,0.2c-0.2,0.2-0.2,0.4-0.2,0.6v1.9
			L90.1,77z M90.2,79.9V78l-2.3,2.3c0.2,0.3,0.4,0.4,0.7,0.4h0.8c0.2,0,0.4-0.1,0.6-0.2C90.1,80.3,90.2,80.1,90.2,79.9z"/>
	</g>
	<g>
		<path class="st0" d="M115.4,79.9c0,0.5-0.2,0.8-0.5,1.2c-0.3,0.3-0.7,0.5-1.2,0.5h-0.8c-0.5,0-0.8-0.2-1.2-0.5
			c-0.3-0.3-0.5-0.7-0.5-1.2v-2.5c0-0.5,0.2-0.8,0.5-1.2c0.3-0.3,0.7-0.5,1.2-0.5h0.8c0.5,0,0.8,0.2,1.2,0.5
			c0.3,0.3,0.5,0.7,0.5,1.2h-0.8c0-0.2-0.1-0.4-0.2-0.6c-0.2-0.2-0.4-0.2-0.6-0.2h-0.8c-0.2,0-0.4,0.1-0.6,0.2
			c-0.2,0.2-0.2,0.4-0.2,0.6v2.5c0,0.2,0.1,0.4,0.2,0.6c0.2,0.2,0.4,0.2,0.6,0.2h0.8c0.2,0,0.4-0.1,0.6-0.2c0.2-0.2,0.2-0.4,0.2-0.6
			v-0.8h-0.8v-0.8h1.6V79.9z"/>
		<path class="st0" d="M120.4,81.5h-4.1v-0.8h1.6v-3.3h-1.2v-0.8h0.4c0.2,0,0.4-0.1,0.6-0.2c0.2-0.2,0.2-0.4,0.2-0.6h0.8v4.9h1.6
			V81.5z"/>
		<path class="st0" d="M125.5,81.5h-4.1v-0.6l3.2-3.2c0-0.1,0.1-0.2,0.1-0.3c0-0.2-0.1-0.4-0.2-0.6c-0.2-0.2-0.4-0.2-0.6-0.2H123
			c-0.2,0-0.4,0.1-0.6,0.2c-0.2,0.2-0.2,0.4-0.2,0.6h-0.8c0-0.5,0.2-0.8,0.5-1.2c0.3-0.3,0.7-0.5,1.2-0.5h0.8c0.5,0,0.8,0.2,1.2,0.5
			c0.3,0.3,0.5,0.7,0.5,1.2c0,0.3-0.1,0.5-0.2,0.8l-2.5,2.5h2.7V81.5z"/>
	</g>
	<g>
		<path class="st0" d="M165.1,79.9c0,0.5-0.2,0.8-0.5,1.2c-0.3,0.3-0.7,0.5-1.2,0.5h-0.8c-0.5,0-0.8-0.2-1.2-0.5
			c-0.3-0.3-0.5-0.7-0.5-1.2v-2.5c0-0.5,0.2-0.8,0.5-1.2c0.3-0.3,0.7-0.5,1.2-0.5h0.8c0.5,0,0.8,0.2,1.2,0.5
			c0.3,0.3,0.5,0.7,0.5,1.2V79.9z M164.2,77c-0.2-0.3-0.4-0.4-0.7-0.4h-0.8c-0.2,0-0.4,0.1-0.6,0.2c-0.2,0.2-0.2,0.4-0.2,0.6v1.9
			L164.2,77z M164.3,79.9V78l-2.3,2.3c0.2,0.3,0.4,0.4,0.7,0.4h0.8c0.2,0,0.4-0.1,0.6-0.2C164.2,80.3,164.3,80.1,164.3,79.9z"/>
		<path class="st0" d="M170,79.9c0,0.5-0.2,0.8-0.5,1.2c-0.3,0.3-0.7,0.5-1.2,0.5h-0.8c-0.5,0-0.8-0.2-1.2-0.5
			c-0.3-0.3-0.5-0.7-0.5-1.2v-2.5c0-0.5,0.2-0.8,0.5-1.2c0.3-0.3,0.7-0.5,1.2-0.5h1.6v0.8h-1.6c-0.2,0-0.4,0.1-0.6,0.2
			c-0.2,0.2-0.2,0.4-0.2,0.6h1.6c0.4,0,0.8,0.2,1.2,0.5c0.3,0.3,0.5,0.7,0.5,1.2V79.9z M169.2,79.9v-0.8c0-0.2-0.1-0.4-0.2-0.6
			c-0.2-0.2-0.4-0.2-0.6-0.2h-1.6v1.6c0,0.2,0.1,0.4,0.2,0.6c0.2,0.2,0.4,0.2,0.6,0.2h0.8c0.2,0,0.4-0.1,0.6-0.2
			C169.1,80.3,169.2,80.1,169.2,79.9z"/>
		<path class="st0" d="M179.9,81.5h-4.1v-0.6l3.2-3.2c0-0.1,0.1-0.2,0.1-0.3c0-0.2-0.1-0.4-0.2-0.6c-0.2-0.2-0.4-0.2-0.6-0.2h-0.8
			c-0.2,0-0.4,0.1-0.6,0.2c-0.2,0.2-0.2,0.4-0.2,0.6h-0.8c0-0.5,0.2-0.8,0.5-1.2c0.3-0.3,0.7-0.5,1.2-0.5h0.8c0.5,0,0.8,0.2,1.2,0.5
			c0.3,0.3,0.5,0.7,0.5,1.2c0,0.3-0.1,0.5-0.2,0.8l-2.5,2.5h2.7V81.5z"/>
		<path class="st0" d="M184.8,79.9c0,0.5-0.2,0.8-0.5,1.2c-0.3,0.3-0.7,0.5-1.2,0.5h-0.8c-0.5,0-0.8-0.2-1.2-0.5
			c-0.3-0.3-0.5-0.7-0.5-1.2v-2.5c0-0.5,0.2-0.8,0.5-1.2c0.3-0.3,0.7-0.5,1.2-0.5h0.8c0.5,0,0.8,0.2,1.2,0.5
			c0.3,0.3,0.5,0.7,0.5,1.2V79.9z M183.8,77c-0.2-0.3-0.4-0.4-0.7-0.4h-0.8c-0.2,0-0.4,0.1-0.6,0.2c-0.2,0.2-0.2,0.4-0.2,0.6v1.9
			L183.8,77z M183.9,79.9V78l-2.3,2.3c0.2,0.3,0.4,0.4,0.7,0.4h0.8c0.2,0,0.4-0.1,0.6-0.2C183.9,80.3,183.9,80.1,183.9,79.9z"/>
		<path class="st0" d="M194.6,81.5h-4.1v-0.8h1.6v-3.3h-1.2v-0.8h0.4c0.2,0,0.4-0.1,0.6-0.2c0.2-0.2,0.2-0.4,0.2-0.6h0.8v4.9h1.6
			V81.5z"/>
		<path class="st0" d="M199.5,79.9c0,0.5-0.2,0.8-0.5,1.2c-0.3,0.3-0.7,0.5-1.2,0.5H197c-0.5,0-0.8-0.2-1.2-0.5
			c-0.3-0.3-0.5-0.7-0.5-1.2h0.8c0,0.2,0.1,0.4,0.2,0.6c0.2,0.2,0.4,0.2,0.6,0.2h0.8c0.2,0,0.4-0.1,0.6-0.2c0.2-0.2,0.2-0.4,0.2-0.6
			v-0.8c0-0.2-0.1-0.4-0.2-0.6c-0.2-0.2-0.4-0.2-0.6-0.2h-2.5v-2.5h4.1v0.8h-3.3v0.8h1.6c0.4,0,0.8,0.2,1.2,0.5
			c0.3,0.3,0.5,0.7,0.5,1.2V79.9z"/>
	</g>
	<g>
		<path class="st0" d="M16.4,59c0,0.4-0.2,0.8-0.5,1.2c-0.3,0.3-0.7,0.5-1.2,0.5h-1.6V63h-0.8v-5.7h2.5c0.5,0,0.8,0.2,1.2,0.5
			C16.3,58.1,16.4,58.5,16.4,59z M15.6,59c0-0.2-0.1-0.4-0.2-0.6s-0.4-0.2-0.6-0.2h-1.6v1.6h1.6c0.2,0,0.4-0.1,0.6-0.2
			C15.5,59.4,15.6,59.2,15.6,59z"/>
		<path class="st0" d="M18,61.4V63h-0.8v-2.7l1.5-3.1h1l1.5,3.1V63h-0.8v-1.6H18z M19.2,58.1L18,60.6h2.4L19.2,58.1z"/>
		<path class="st0" d="M26.4,61.4c0,0.5-0.2,0.8-0.5,1.2c-0.3,0.3-0.7,0.5-1.2,0.5h-0.8c-0.5,0-0.8-0.2-1.2-0.5
			c-0.3-0.3-0.5-0.7-0.5-1.2h0.8c0,0.2,0.1,0.4,0.2,0.6s0.4,0.2,0.6,0.2h0.8c0.2,0,0.4-0.1,0.6-0.2c0.2-0.2,0.2-0.4,0.2-0.6
			c0-0.2-0.1-0.4-0.2-0.6c-0.2-0.2-0.4-0.2-0.6-0.2h-0.8c-0.5,0-0.8-0.2-1.2-0.5c-0.3-0.3-0.5-0.7-0.5-1.2c0-0.5,0.2-0.8,0.5-1.2
			c0.3-0.3,0.7-0.5,1.2-0.5h0.8c0.5,0,0.8,0.2,1.2,0.5c0.3,0.3,0.5,0.7,0.5,1.2h-0.8c0-0.2-0.1-0.4-0.2-0.6
			c-0.2-0.2-0.4-0.2-0.6-0.2h-0.8c-0.2,0-0.4,0.1-0.6,0.2s-0.2,0.4-0.2,0.6c0,0.2,0.1,0.4,0.2,0.6c0.2,0.2,0.4,0.2,0.6,0.2h0.8
			c0.4,0,0.8,0.2,1.2,0.5S26.4,61,26.4,61.4z"/>
	</g>
	<g>
		<path class="st0" d="M115.4,61.5c0,0.5-0.2,0.8-0.5,1.2c-0.3,0.3-0.7,0.5-1.2,0.5h-0.8c-0.5,0-0.8-0.2-1.2-0.5
			c-0.3-0.3-0.5-0.7-0.5-1.2V59c0-0.5,0.2-0.8,0.5-1.2c0.3-0.3,0.7-0.5,1.2-0.5h0.8c0.5,0,0.8,0.2,1.2,0.5c0.3,0.3,0.5,0.7,0.5,1.2
			h-0.8c0-0.2-0.1-0.4-0.2-0.6c-0.2-0.2-0.4-0.2-0.6-0.2h-0.8c-0.2,0-0.4,0.1-0.6,0.2c-0.2,0.2-0.2,0.4-0.2,0.6v2.5
			c0,0.2,0.1,0.4,0.2,0.6c0.2,0.2,0.4,0.2,0.6,0.2h0.8c0.2,0,0.4-0.1,0.6-0.2c0.2-0.2,0.2-0.4,0.2-0.6H115.4z"/>
		<path class="st0" d="M120.5,61.5c0,0.5-0.2,0.8-0.5,1.2c-0.3,0.3-0.7,0.5-1.2,0.5H118c-0.5,0-0.8-0.2-1.2-0.5
			c-0.3-0.3-0.5-0.7-0.5-1.2V59c0-0.5,0.2-0.8,0.5-1.2c0.3-0.3,0.7-0.5,1.2-0.5h0.8c0.5,0,0.8,0.2,1.2,0.5c0.3,0.3,0.5,0.7,0.5,1.2
			V61.5z M119.7,61.5V59c0-0.2-0.1-0.4-0.2-0.6c-0.2-0.2-0.4-0.2-0.6-0.2H118c-0.2,0-0.4,0.1-0.6,0.2c-0.2,0.2-0.2,0.4-0.2,0.6v2.5
			c0,0.2,0.1,0.4,0.2,0.6c0.2,0.2,0.4,0.2,0.6,0.2h0.8c0.2,0,0.4-0.1,0.6-0.2C119.6,61.9,119.7,61.7,119.7,61.5z"/>
		<path class="st0" d="M125.6,61.5c0,0.5-0.2,0.8-0.5,1.2c-0.3,0.3-0.7,0.5-1.2,0.5h-0.8c-0.5,0-0.8-0.2-1.2-0.5
			c-0.3-0.3-0.5-0.7-0.5-1.2v-4.1h0.8v4.1c0,0.2,0.1,0.4,0.2,0.6s0.4,0.2,0.6,0.2h0.8c0.2,0,0.4-0.1,0.6-0.2
			c0.2-0.2,0.2-0.4,0.2-0.6v-4.1h0.8V61.5z"/>
		<path class="st0" d="M130.7,59c0,0.4-0.2,0.8-0.5,1.2c-0.3,0.3-0.7,0.5-1.2,0.5h-1.6v2.5h-0.8v-5.7h2.5c0.5,0,0.8,0.2,1.2,0.5
			C130.5,58.2,130.7,58.6,130.7,59z M129.8,59c0-0.2-0.1-0.4-0.2-0.6c-0.2-0.2-0.4-0.2-0.6-0.2h-1.6v1.6h1.6c0.2,0,0.4-0.1,0.6-0.2
			C129.8,59.4,129.8,59.2,129.8,59z"/>
	</g>
	<g>
		<path class="st0" d="M164.3,63.1v-1.6c0-0.2-0.1-0.4-0.2-0.6c-0.2-0.2-0.4-0.2-0.6-0.2h-1.6v2.5H161v-5.7h2.5
			c0.5,0,0.8,0.2,1.2,0.5c0.3,0.3,0.5,0.7,0.5,1.2c0,0.5-0.2,0.9-0.7,1.2c0.5,0.3,0.7,0.7,0.7,1.2v1.6H164.3z M161.8,59.8h1.6
			c0.2,0,0.4-0.1,0.6-0.2c0.2-0.2,0.2-0.4,0.2-0.6c0-0.2-0.1-0.4-0.2-0.6s-0.4-0.2-0.6-0.2h-1.6V59.8z"/>
		<path class="st0" d="M170.2,63.1h-4.1v-5.7h4.1v0.8h-3.3v1.6h2.5v0.8h-2.5v1.6h3.3V63.1z"/>
		<path class="st0" d="M175.3,61.5c0,0.5-0.2,0.8-0.5,1.2c-0.3,0.3-0.7,0.5-1.2,0.5h-2.5v-5.7h2.5c0.5,0,0.8,0.2,1.2,0.5
			c0.3,0.3,0.5,0.7,0.5,1.2V61.5z M174.5,61.5V59c0-0.2-0.1-0.4-0.2-0.6c-0.2-0.2-0.4-0.2-0.6-0.2H172v4.1h1.6
			c0.2,0,0.4-0.1,0.6-0.2C174.4,61.9,174.5,61.7,174.5,61.5z"/>
	</g>
	<g>
		<rect x="56.2" y="71.7" class="st0" width="0.4" height="15.8"/>
	</g>
	<g>
		<rect x="106" y="71.7" class="st0" width="0.4" height="15.8"/>
	</g>
	<g>
		<rect x="155.7" y="71.7" class="st0" width="0.4" height="15.8"/>
	</g>
	<g>
		<rect x="56.2" y="52.1" class="st0" width="0.4" height="15.8"/>
	</g>
	<g>
		<rect x="106" y="52.1" class="st0" width="0.4" height="15.8"/>
	</g>
	<g>
		<rect x="155.7" y="52.1" class="st0" width="0.4" height="15.8"/>
	</g>
	<g>
		<rect x="108" y="69.7" class="st0" width="46" height="0.4"/>
	</g>
	<g>
		<rect x="157.7" y="69.7" class="st0" width="47.9" height="0.4"/>
	</g>
	<g>
		<rect x="58.3" y="69.7" class="st0" width="46" height="0.4"/>
	</g>
	<g>
		<rect x="6.7" y="69.7" class="st0" width="47.9" height="0.4"/>
	</g>
	<g>
		<rect x="106" y="94.6" class="st0" width="0.4" height="35.4"/>
	</g>
	<g>
		<rect x="6.7" y="12.7" class="st0" width="198.9" height="0.4"/>
	</g>
	<g>
		<rect x="6.7" y="48.3" class="st0" width="198.9" height="0.4"/>
	</g>
	<g>
		<rect x="6.7" y="91" class="st0" width="198.9" height="0.4"/>
	</g>
	<g>
		<rect x="6.7" y="133.4" class="st0" width="198.9" height="0.4"/>
	</g>
	<g>
		<path class="st0" d="M112.6,119.6h0.6l1.2,3.8h-0.5l-0.3-0.9h-1.5l-0.3,0.9h-0.5L112.6,119.6z M112.9,120.1L112.9,120.1l-0.6,2
			h1.2L112.9,120.1z"/>
		<path class="st0" d="M118.3,119.6v3.8h-0.7l-1.5-3.3h0v3.3h-0.4v-3.8h0.7l1.5,3.3h0v-3.3H118.3z"/>
		<path class="st0" d="M122.4,119.6v3.8h-0.7l-1.5-3.3h0v3.3h-0.4v-3.8h0.7l1.5,3.3h0v-3.3H122.4z"/>
		<path class="st0" d="M123.9,119.6h0.5v2.4c0,0.8,0.3,1,0.7,1s0.7-0.2,0.7-1v-2.4h0.5v2.4c0,1.1-0.4,1.5-1.2,1.5
			c-0.8,0-1.2-0.4-1.2-1.5V119.6z"/>
		<path class="st0" d="M128.7,119.6h0.6l1.2,3.8H130l-0.3-0.9h-1.5l-0.3,0.9h-0.5L128.7,119.6z M129,120.1L129,120.1l-0.6,2h1.2
			L129,120.1z"/>
		<path class="st0" d="M131.8,123.5v-3.8h0.5v3.4h1.4v0.4H131.8z"/>
	</g>
	<g>
		<path class="st0" d="M177.1,120c-0.2,0.2-0.6,0.4-0.8,0.6v-0.9c0.3-0.1,0.7-0.5,1-0.7h0.7v9.3h-0.8V120z"/>
		<path class="st0" d="M180.5,120.3c0-1.2,0.7-1.4,1.3-1.4s1.3,0.2,1.3,1.4v6.7c0,1.2-0.7,1.4-1.3,1.4s-1.3-0.2-1.3-1.4V120.3z
			 M182.3,120.2c0-0.2,0-0.6-0.5-0.6c-0.5,0-0.5,0.4-0.5,0.6v6.9c0,0.2,0,0.6,0.5,0.6c0.5,0,0.5-0.4,0.5-0.6V120.2z"/>
		<path class="st0" d="M185.3,120.3c0-0.9,0.4-1.4,1.3-1.4c0.8,0,1.3,0.5,1.3,1.4v0.9c0,0.3-0.1,0.8-0.2,1.2l-1.8,5.1h2v0.7h-2.7
			v-0.9l1.7-5.1c0.2-0.4,0.2-0.8,0.2-1.3v-0.7c0-0.5-0.2-0.8-0.5-0.8c-0.3,0-0.5,0.2-0.5,0.8v1.1h-0.8V120.3z"/>
		<path class="st0" d="M190,127.3h0.8v1H190V127.3z"/>
		<path class="st0" d="M193,120.3c0-1.2,0.7-1.4,1.3-1.4s1.3,0.2,1.3,1.4v6.7c0,1.2-0.7,1.4-1.3,1.4s-1.3-0.2-1.3-1.4V120.3z
			 M194.9,120.2c0-0.2,0-0.6-0.5-0.6c-0.5,0-0.5,0.4-0.5,0.6v6.9c0,0.2,0,0.6,0.5,0.6c0.5,0,0.5-0.4,0.5-0.6V120.2z"/>
		<path class="st0" d="M197.8,120.3c0-1.2,0.7-1.4,1.3-1.4s1.3,0.2,1.3,1.4v6.7c0,1.2-0.7,1.4-1.3,1.4s-1.3-0.2-1.3-1.4V120.3z
			 M199.6,120.2c0-0.2,0-0.6-0.5-0.6c-0.5,0-0.5,0.4-0.5,0.6v6.9c0,0.2,0,0.6,0.5,0.6c0.5,0,0.5-0.4,0.5-0.6V120.2z"/>
	</g>
	<g>
		<path class="st0" d="M14.4,98v0.4h-1v3.4h-0.5v-3.4h-1V98H14.4z"/>
		<path class="st0" d="M16.2,98h0.6l1.2,3.8h-0.5l-0.3-0.9h-1.5l-0.3,0.9H15L16.2,98z M16.5,98.4L16.5,98.4l-0.6,2h1.2L16.5,98.4z"
			/>
		<path class="st0" d="M22,101.8h-0.6l-0.9-1.6l-0.8,1.6h-0.5l1.1-2l-1-1.8h0.6l0.8,1.5l0.8-1.5h0.5l-1,1.8L22,101.8z"/>
		<path class="st0" d="M23.7,101.8h-0.5V98h0.5V101.8z"/>
		<path class="st0" d="M27.9,98v3.8h-0.7l-1.5-3.3h0v3.3h-0.4V98h0.7l1.5,3.3h0V98H27.9z"/>
		<path class="st0" d="M31.2,99c0-0.4-0.2-0.7-0.7-0.7c-0.2,0-0.7,0-0.7,0.8v1.3c0,0.8,0.2,1,0.7,1c0.3,0,0.6-0.1,0.7-0.2v-1.1h-0.7
			v-0.4h1.2v1.9c-0.3,0.2-0.7,0.3-1.2,0.3c-0.8,0-1.2-0.4-1.2-1.5v-1.3c0-0.8,0.4-1.2,1.2-1.2c0.8,0,1.2,0.3,1.2,1.1H31.2z"/>
		<path class="st0" d="M34.6,98h1.2c0.5,0,0.8,0.2,1,0.6c0.2,0.3,0.2,1.1,0.2,1.2c0,0.8-0.1,1.3-0.2,1.5c-0.2,0.3-0.6,0.5-1.3,0.5
			h-0.9V98z M35.1,101.3h0.5c0.7,0,0.9-0.3,0.9-1.1v-0.8c0-0.8-0.2-1.1-0.7-1.1h-0.6V101.3z"/>
		<path class="st0" d="M38.9,101.8h-0.5V98h0.5V101.8z"/>
		<path class="st0" d="M40.8,100.6v0.1c0,0.5,0.3,0.7,0.6,0.7c0.4,0,0.7-0.2,0.7-0.6c0-0.8-1.7-0.7-1.7-1.9c0-0.7,0.5-1,1.1-1
			c0.7,0,1.1,0.3,1.1,1.1h-0.5c0-0.4-0.1-0.7-0.6-0.7c-0.3,0-0.6,0.1-0.6,0.6c0,0.8,1.7,0.7,1.7,1.9c0,0.8-0.6,1.1-1.2,1.1
			c-1.1,0-1.1-0.8-1.1-1.2H40.8z"/>
		<path class="st0" d="M46.3,98v0.4h-1v3.4h-0.5v-3.4h-1V98H46.3z"/>
		<path class="st0" d="M48,100v1.8h-0.5V98h1.3c0.7,0,0.9,0.5,0.9,0.9c0,0.4-0.2,0.8-0.7,0.9v0c0.4,0.1,0.6,0.2,0.6,1
			c0,0.2,0.1,0.8,0.1,1h-0.5c-0.1-0.3-0.1-0.8-0.1-1.3c0-0.5-0.4-0.5-0.6-0.5H48z M48,99.6h0.7c0.3,0,0.5-0.3,0.5-0.6
			c0-0.3-0.1-0.6-0.5-0.6H48V99.6z"/>
		<path class="st0" d="M51.7,101.8h-0.5V98h0.5V101.8z"/>
		<path class="st0" d="M54.9,99c0-0.2,0-0.4-0.1-0.6c-0.1-0.1-0.3-0.2-0.4-0.2c-0.4,0-0.6,0.2-0.6,0.3c0,0-0.1,0.1-0.1,0.8v1
			c0,0.9,0.3,1,0.7,1c0.1,0,0.6-0.1,0.6-0.8h0.5c0,1.2-0.8,1.2-1.1,1.2c-0.5,0-1.2,0-1.2-1.5v-1.1c0-1.1,0.5-1.4,1.2-1.4
			c0.8,0,1,0.4,1,1.1H54.9z"/>
		<path class="st0" d="M59,98v0.4h-1v3.4h-0.5v-3.4h-1V98H59z"/>
	</g>
	<g>
		<path class="st0" d="M80.7,99.1c0-0.9,0.4-1.4,1.3-1.4c0.8,0,1.3,0.5,1.3,1.4v0.9c0,0.3-0.1,0.8-0.2,1.2l-1.8,5.1h2v0.7h-2.7v-0.9
			l1.7-5.1c0.2-0.4,0.2-0.8,0.2-1.3v-0.7c0-0.5-0.2-0.8-0.5-0.8s-0.5,0.2-0.5,0.8v1.1h-0.8V99.1z"/>
		<path class="st0" d="M85.5,97.8h2.6v0.7h-1.8v3.1h0c0.2-0.3,0.4-0.4,0.8-0.4c0.6,0,1.1,0.4,1.1,1.2v3.3c0,0.8-0.4,1.4-1.3,1.4
			c-1,0-1.3-0.6-1.3-1.4v-1.3h0.8v1.3c0,0.5,0.1,0.8,0.6,0.8c0.4,0,0.5-0.3,0.5-0.8v-3.1c0-0.5-0.1-0.8-0.5-0.8
			c-0.4,0-0.5,0.3-0.5,0.8v0.4h-0.8V97.8z"/>
		<path class="st0" d="M92.1,98.9c0-0.3-0.2-0.6-0.5-0.6c-0.3,0-0.5,0.2-0.5,0.6v2.8c0.2-0.2,0.5-0.3,0.8-0.3c0.6,0,1,0.3,1,1.1v3.3
			c0,0.8-0.4,1.4-1.3,1.4c-0.9,0-1.3-0.6-1.3-1.4v-6.6c0-0.8,0.4-1.4,1.3-1.4c0.9,0,1.3,0.6,1.3,1.4v1.3h-0.8V98.9z M92.1,102.6
			c0-0.3-0.2-0.6-0.5-0.6c-0.3,0-0.5,0.2-0.5,0.6v3.4c0,0.3,0.2,0.6,0.5,0.6c0.3,0,0.5-0.2,0.5-0.6V102.6z"/>
		<path class="st0" d="M95.9,98.8c-0.2,0.2-0.6,0.4-0.8,0.6v-0.9c0.3-0.1,0.7-0.5,1-0.7h0.7v9.3h-0.8V98.8z"/>
	</g>
	<g>
		<path class="st0" d="M12.3,123.5v-3.8h0.5v3.4h1.4v0.4H12.3z"/>
		<path class="st0" d="M15.3,122.1v-1.3c0-0.8,0.4-1.2,1.2-1.2c0.8,0,1.2,0.5,1.2,1.2v1.3c0,1.1-0.4,1.5-1.2,1.5
			C15.7,123.5,15.3,123.1,15.3,122.1z M17.2,122.1v-1.3c0-0.8-0.5-0.8-0.7-0.8c-0.2,0-0.7,0-0.7,0.8v1.3c0,0.8,0.2,1,0.7,1
			C17,123.1,17.2,122.9,17.2,122.1z"/>
		<path class="st0" d="M20.8,120.7c0-0.2,0-0.4-0.1-0.6c-0.1-0.1-0.3-0.2-0.4-0.2c-0.4,0-0.6,0.2-0.6,0.3c0,0-0.1,0.1-0.1,0.8v1
			c0,0.9,0.3,1,0.7,1c0.1,0,0.6-0.1,0.6-0.8h0.5c0,1.2-0.8,1.2-1.1,1.2c-0.5,0-1.2,0-1.2-1.5v-1.1c0-1.1,0.5-1.4,1.2-1.4
			c0.8,0,1,0.4,1,1.1H20.8z"/>
		<path class="st0" d="M23.7,119.6h0.6l1.2,3.8H25l-0.3-0.9h-1.5l-0.3,0.9h-0.5L23.7,119.6z M24,120.1L24,120.1l-0.6,2h1.2L24,120.1
			z"/>
		<path class="st0" d="M26.8,123.5v-3.8h0.5v3.4h1.4v0.4H26.8z"/>
		<path class="st0" d="M33.3,119.6v0.4h-1v3.4h-0.5v-3.4h-1v-0.4H33.3z"/>
		<path class="st0" d="M35.1,119.6h0.6l1.2,3.8h-0.5l-0.3-0.9h-1.5l-0.3,0.9h-0.5L35.1,119.6z M35.4,120.1L35.4,120.1l-0.6,2H36
			L35.4,120.1z"/>
		<path class="st0" d="M40.8,123.5h-0.6l-0.9-1.6l-0.8,1.6H38l1.1-2l-1-1.8h0.6l0.8,1.5l0.8-1.5h0.5l-1,1.8L40.8,123.5z"/>
	</g>
	<g>
		<path class="st0" d="M78.5,123.2H79c0.3,0,0.5-0.3,0.5-0.6v-2.4c0-0.3-0.2-0.6-0.5-0.6c-0.3,0-0.5,0.3-0.5,0.6v1.3h-0.8v-1.1
			c0-0.8,0.4-1.4,1.3-1.4c0.9,0,1.3,0.6,1.3,1.4v2.1c0,0.7-0.2,0.8-0.7,1v0c0.5,0.1,0.7,0.3,0.7,0.9v2.6c0,0.8-0.4,1.4-1.3,1.4
			c-0.9,0-1.3-0.6-1.3-1.4v-1.3h0.8v1.4c0,0.3,0.2,0.6,0.5,0.6c0.3,0,0.5-0.3,0.5-0.6v-2.7c0-0.3-0.2-0.6-0.5-0.6h-0.5V123.2z"/>
		<path class="st0" d="M82.4,120.3c0-1.2,0.7-1.4,1.3-1.4c0.6,0,1.3,0.2,1.3,1.4v6.7c0,1.2-0.7,1.4-1.3,1.4c-0.6,0-1.3-0.2-1.3-1.4
			V120.3z M84.2,120.2c0-0.2,0-0.6-0.5-0.6c-0.5,0-0.5,0.4-0.5,0.6v6.9c0,0.2,0,0.6,0.5,0.6c0.5,0,0.5-0.4,0.5-0.6V120.2z"/>
		<path class="st0" d="M87.2,127.3H88v1h-0.8V127.3z"/>
		<path class="st0" d="M90.1,120.3c0-1.2,0.7-1.4,1.3-1.4s1.3,0.2,1.3,1.4v6.7c0,1.2-0.7,1.4-1.3,1.4s-1.3-0.2-1.3-1.4V120.3z
			 M92,120.2c0-0.2,0-0.6-0.5-0.6c-0.5,0-0.5,0.4-0.5,0.6v6.9c0,0.2,0,0.6,0.5,0.6c0.5,0,0.5-0.4,0.5-0.6V120.2z"/>
		<path class="st0" d="M94.9,120.3c0-1.2,0.7-1.4,1.3-1.4c0.6,0,1.3,0.2,1.3,1.4v6.7c0,1.2-0.7,1.4-1.3,1.4c-0.6,0-1.3-0.2-1.3-1.4
			V120.3z M96.7,120.2c0-0.2,0-0.6-0.5-0.6c-0.5,0-0.5,0.4-0.5,0.6v6.9c0,0.2,0,0.6,0.5,0.6c0.5,0,0.5-0.4,0.5-0.6V120.2z"/>
	</g>
</g>
</svg>
