<?xml version="1.0" encoding="utf-8"?>
<!-- Generator: Adobe Illustrator 20.1.0, SVG Export Plug-In . SVG Version: 6.00 Build 0)  -->
<svg version="1.1" id="Layer_1" xmlns="http://www.w3.org/2000/svg" xmlns:xlink="http://www.w3.org/1999/xlink" x="0px" y="0px"
	 viewBox="0 0 75.3 87.3" style="enable-background:new 0 0 75.3 87.3;" xml:space="preserve">
<style type="text/css">
	.st0{fill:#AED3EE;}
</style>
<g>
	<g>
		<path class="st0" d="M37.5,87.3c-9.6,0-18.6-3.6-25.6-10.2C4.2,69.9,0,60.2,0,49.8h1C1,60,5.1,69.4,12.5,76.4
			c7.4,7,17.1,10.5,27.3,9.8c18.3-1.1,32.9-15.8,34.1-34.1c0.6-10.2-2.9-19.9-9.8-27.3c-7-7.4-16.4-11.5-26.6-11.5v-1
			c10.5,0,20.2,4.2,27.3,11.8c7.2,7.6,10.7,17.6,10.1,28.1c-1.2,18.8-16.2,33.8-35,35C39.1,87.3,38.3,87.3,37.5,87.3z"/>
	</g>
	<g>
		<polygon class="st0" points="20.5,12.8 37.5,0 37.5,25.6 		"/>
	</g>
</g>
</svg>
