<?xml version="1.0" encoding="utf-8"?>
<!-- Generator: Adobe Illustrator 19.2.1, SVG Export Plug-In . SVG Version: 6.00 Build 0)  -->
<svg version="1.1" id="Layer_1" xmlns="http://www.w3.org/2000/svg" xmlns:xlink="http://www.w3.org/1999/xlink" x="0px" y="0px"
	 viewBox="0 0 525.9 154.1" style="enable-background:new 0 0 525.9 154.1;" xml:space="preserve">
<style type="text/css">
	.st0{fill:#FFFFFF;}
</style>
<g>
	<g>
		<path class="st0" d="M521,4.8v144.5H4.8V4.8H521 M525.8,0H0v154.1h525.9L525.8,0L525.8,0z"/>
	</g>
	<g>
		<g>
			<rect x="143.6" y="5.6" class="st0" width="0.8" height="4.9"/>
		</g>
		<g>
			<path class="st0" d="M144.3,134.9h-0.8v-10.4h0.8V134.9z M144.3,114.2h-0.8v-10.4h0.8V114.2z M144.3,93.5h-0.8V83.1h0.8V93.5z
				 M144.3,72.7h-0.8V62.3h0.8V72.7z M144.3,52h-0.8V41.6h0.8V52z M144.3,31.3h-0.8V20.9h0.8V31.3z"/>
		</g>
		<g>
			<rect x="143.6" y="145.3" class="st0" width="0.8" height="4.9"/>
		</g>
	</g>
	<g>
		<g>
			<path class="st0" d="M256.9,29c0-0.6,0-1.1-0.3-1.5c-0.3-0.3-0.9-0.4-1.1-0.4c-1.1,0-1.5,0.6-1.5,0.8c0,0.1-0.3,0.4-0.3,2.1v2.7
				c0,2.5,0.8,2.8,1.8,2.8c0.4,0,1.6-0.1,1.6-2.1h1.3c0.1,3.2-2.2,3.2-2.9,3.2c-1.3,0-3.2-0.1-3.2-4v-2.9c0-2.9,1.3-3.7,3.2-3.7
				c2,0,2.8,1,2.6,3H256.9z"/>
		</g>
		<g>
			<path class="st0" d="M263.9,36.3h-1.3V26.2h1.3V36.3z"/>
		</g>
		<g>
			<path class="st0" d="M274.4,26.2v1.1h-2.7v9h-1.3v-9h-2.7v-1.1H274.4z"/>
		</g>
		<g>
			<path class="st0" d="M283.2,26.2h1.3l-2.8,6.3v3.9h-1.3v-3.9l-2.7-6.3h1.4l2,4.9L283.2,26.2z"/>
		</g>
		<g>
			<path class="st0" d="M295.4,26.2h1.6l3.3,10.1h-1.4l-0.7-2.4h-3.9l-0.8,2.4h-1.3L295.4,26.2z M296.2,27.4L296.2,27.4l-1.6,5.4
				h3.2L296.2,27.4z"/>
		</g>
		<g>
			<path class="st0" d="M305.4,31.7v4.7h-1.3V26.2h3.5c1.8,0,2.4,1.3,2.4,2.5s-0.7,2.1-1.8,2.3l0,0c1.2,0.2,1.6,0.6,1.7,2.6
				c0,0.4,0.2,2,0.4,2.6H309c-0.4-0.7-0.3-2-0.4-3.4c-0.1-1.2-1.1-1.3-1.5-1.3h-1.7V31.7z M305.4,30.5h1.9c0.9,0,1.4-0.8,1.4-1.7
				c0-0.7-0.4-1.5-1.4-1.5h-1.9V30.5z"/>
		</g>
		<g>
			<path class="st0" d="M314.3,36.3V26.2h5.2v1.1h-3.9v3.2h3.6v1.1h-3.6v3.5h4v1.1L314.3,36.3L314.3,36.3z"/>
		</g>
		<g>
			<path class="st0" d="M330.6,26.2v10.1h-1.8l-4-8.8l0,0v8.8h-1.1V26.2h1.8l3.9,8.7l0,0v-8.7H330.6z"/>
		</g>
		<g>
			<path class="st0" d="M337.2,26.2h1.6l3.3,10.1h-1.4l-0.7-2.4h-3.9l-0.8,2.4H334L337.2,26.2z M338,27.4L338,27.4l-1.6,5.4h3.2
				L338,27.4z"/>
		</g>
	</g>
	<g>
		<g>
			<path class="st0" d="M169.2,99.5l5.9-21.2h5.8l5.8,21.2H182l-1.2-4.7h-6l-1.2,4.7H169.2z M177.8,82.4L177.8,82.4l-2.1,9.2h4.2
				L177.8,82.4z"/>
		</g>
		<g>
			<path class="st0" d="M191.9,78.4v21.2h-4.1V78.4H191.9z"/>
		</g>
		<g>
			<path class="st0" d="M197.7,78.4v21.2h-4.1V78.4H197.7z"/>
		</g>
		<g>
			<path class="st0" d="M207,90.1v3h-7.2v-3H207z"/>
		</g>
		<g>
			<path class="st0" d="M214.7,99.9c-5.5,0-6.5-3.2-6.3-6.9h4.4c0,2,0.1,3.7,2.5,3.7c1.5,0,2.2-1,2.2-2.4c0-3.8-8.9-4-8.9-10.4
				c0-3.3,1.6-6,7-6c4.3,0,6.5,1.9,6.2,6.4h-4.3c0-1.6-0.3-3.2-2.1-3.2c-1.4,0-2.3,0.8-2.3,2.3c0,4,8.9,3.7,8.9,10.3
				C222.1,99.2,218.1,99.9,214.7,99.9z"/>
		</g>
		<g>
			<path class="st0" d="M222.2,84.7h1.7v-2.3l4.1-1.8v4.2h2.1v2.6H228v7.9c0,1.1,0,1.8,1.3,1.8c0.3,0,0.5,0,0.7-0.1v2.6
				c-0.6,0.1-1.1,0.1-2.1,0.1c-3.6,0-4-2.4-4-3.3v-9.1h-1.7V84.7z"/>
		</g>
		<g>
			<path class="st0" d="M242.7,96.8c0,0.9,0.1,1.8,0.2,2.8h-3.8l-0.2-2h-0.1c-0.9,1.5-2.1,2.3-3.9,2.3c-2.9,0-3.9-2.1-3.9-4.7
				c0-4.9,3.8-5.1,7.6-5v-1.1c0-1.3-0.2-2.2-1.7-2.2c-1.4,0-1.6,1.1-1.6,2.3h-4c0-1.8,0.6-2.9,1.5-3.6s2.3-1,3.9-1
				c5.3,0,5.9,2.3,5.9,5L242.7,96.8L242.7,96.8z M235.1,94.9c0,1.1,0.2,2.3,1.5,2.3c2.4,0,2.1-3.3,2.1-4.9
				C236.6,92.5,235.1,92.3,235.1,94.9z"/>
		</g>
		<g>
			<path class="st0" d="M248.3,84.7v1.9h0.1c0.8-1.7,2.2-2.2,3.8-2.2v3.7c-3.6-0.2-3.7,1.9-3.7,3.3v8.1h-4.1V84.7H248.3z"/>
		</g>
		<g>
			<path class="st0" d="M259.1,99.5V78.3h7.9c3.4,0,6.2,1,6.2,5.5c0,2.4-1.2,4.2-3.6,4.7v0.1c3.1,0.4,4,2.5,4,5.4
				c0,5.4-4.7,5.6-6.5,5.6h-8V99.5z M263.5,87h3c1,0,2.3-0.6,2.3-2.7c0-1.6-1.1-2.7-2.6-2.7h-2.7V87z M263.5,96.3h2.5
				c0.9,0,3.1,0,3.1-3c0-1.9-0.7-3-2.9-3h-2.6L263.5,96.3L263.5,96.3z"/>
		</g>
		<g>
			<path class="st0" d="M278.8,92.8c0,1.8,0.1,4.4,1.9,4.4c1.5,0,1.8-1.4,1.8-2.6h4.2c-0.1,1.6-0.6,2.9-1.6,3.8s-2.4,1.4-4.4,1.4
				c-5.3,0-6-3.3-6-7.9c0-4,0.6-7.5,6-7.5c5.6,0,6.2,3.6,6,8.4L278.8,92.8L278.8,92.8z M282.6,90.5c0-1.4,0.1-3.5-1.9-3.5
				c-1.9,0-1.9,2.2-1.9,3.5H282.6z"/>
		</g>
		<g>
			<path class="st0" d="M292.1,86.2L292.1,86.2c0.5-0.7,1-1.1,1.5-1.4c0.6-0.3,1.3-0.4,2-0.4c2,0,3.7,1.2,3.7,3.2v11.9h-4.1V89.3
				c0-1.3-0.2-2.3-1.6-2.3c-1.3,0-1.6,1-1.6,2.3v10.2h-4.1V84.7h4.1L292.1,86.2L292.1,86.2z"/>
		</g>
		<g>
			<path class="st0" d="M304.7,92.8c0,1.8,0.1,4.4,1.9,4.4c1.5,0,1.8-1.4,1.8-2.6h4.2c-0.1,1.6-0.6,2.9-1.6,3.8s-2.4,1.4-4.4,1.4
				c-5.3,0-6-3.3-6-7.9c0-4,0.6-7.5,6-7.5c5.6,0,6.2,3.6,6,8.4L304.7,92.8L304.7,92.8z M308.5,90.5c0-1.4,0.1-3.5-1.9-3.5
				c-1.9,0-1.9,2.2-1.9,3.5H308.5z"/>
		</g>
		<g>
			<path class="st0" d="M320.8,80.9c-1.7-0.1-2,0.5-2,2v1.8h1.9v2.6h-1.9v12.3h-4.1V87.3h-1.8v-2.6h1.9c0-4.3-0.4-6.5,4.7-6.5
				c0.5,0,1,0,1.5,0.1v2.6H320.8z"/>
		</g>
		<g>
			<rect x="322" y="78.4" class="st0" width="4.1" height="3.3"/>
		</g>
		<g>
			<rect x="322" y="84.7" class="st0" width="4.1" height="14.8"/>
		</g>
		<g>
			<path class="st0" d="M327.2,84.7h1.7v-2.3l4.1-1.8v4.2h2.1v2.6H333v7.9c0,1.1,0,1.8,1.3,1.8c0.3,0,0.5,0,0.7-0.1v2.6
				c-0.6,0.1-1.1,0.1-2.1,0.1c-3.6,0-4-2.4-4-3.3v-9.1h-1.7V84.7z"/>
		</g>
		<g>
			<path class="st0" d="M341.7,88.9c0-5.6,0-10.9,7.3-10.9c4.5,0,6.3,2.5,6.2,7h-4.3c0-2.8-0.5-3.9-1.8-3.9c-2.5,0-2.8,2.3-2.8,7.8
				s0.3,7.8,2.8,7.8c2.1,0,2-2.6,2-4.3h4.4c0,5.7-2.3,7.5-6.4,7.5C341.7,99.9,341.7,94.5,341.7,88.9z"/>
		</g>
		<g>
			<path class="st0" d="M356.4,91.9c0-4,0.6-7.5,6-7.5s6,3.5,6,7.5c0,4.6-0.7,7.9-6,7.9C357.2,99.8,356.4,96.6,356.4,91.9z
				 M364.4,91.7c0-3.1-0.1-4.6-1.9-4.6s-1.9,1.6-1.9,4.6c0,4.5,0.4,5.5,1.9,5.5S364.4,96.2,364.4,91.7z"/>
		</g>
		<g>
			<path class="st0" d="M373.9,86.2L373.9,86.2c0.5-0.7,1-1.1,1.5-1.4c0.6-0.3,1.3-0.4,2-0.4c2,0,3.7,1.2,3.7,3.2v11.9H377V89.3
				c0-1.3-0.2-2.3-1.6-2.3s-1.6,1-1.6,2.3v10.2h-4.1V84.7h4.1L373.9,86.2L373.9,86.2z"/>
		</g>
		<g>
			<path class="st0" d="M390.3,90c0-2.2-0.6-2.9-1.8-2.9c-1.8,0-1.9,1.6-1.9,4.6c0,4.5,0.4,5.5,1.9,5.5c1.3,0,1.9-1.2,1.9-3.1h4.1
				c0,4-2.2,5.8-6,5.8c-5.3,0-6-3.3-6-7.9c0-4,0.6-7.5,6-7.5c3.8,0,6,1.7,6,5.6h-4.2V90z"/>
		</g>
		<g>
			<path class="st0" d="M399.5,92.8c0,1.8,0.1,4.4,1.9,4.4c1.5,0,1.8-1.4,1.8-2.6h4.2c-0.1,1.6-0.6,2.9-1.6,3.8s-2.4,1.4-4.4,1.4
				c-5.3,0-6-3.3-6-7.9c0-4,0.6-7.5,6-7.5c5.6,0,6.2,3.6,6,8.4L399.5,92.8L399.5,92.8z M403.3,90.5c0-1.4,0.1-3.5-1.9-3.5
				c-1.9,0-1.9,2.2-1.9,3.5H403.3z"/>
		</g>
		<g>
			<path class="st0" d="M412.6,84.7v1.9h0.1c0.8-1.7,2.2-2.2,3.8-2.2v3.7c-3.6-0.2-3.7,1.9-3.7,3.3v8.1h-4.1V84.7H412.6z"/>
		</g>
		<g>
			<path class="st0" d="M417.3,84.7h1.7v-2.3l4.1-1.8v4.2h2.1v2.6h-2.1v7.9c0,1.1,0,1.8,1.3,1.8c0.3,0,0.5,0,0.7-0.1v2.6
				c-0.6,0.1-1.1,0.1-2.1,0.1c-3.6,0-4-2.4-4-3.3v-9.1h-1.7V84.7z"/>
		</g>
	</g>
	<g>
		<g>
			<path class="st0" d="M268.5,44.1v6.5h-1.1l-2.6-5.6l0,0v5.6h-0.7v-6.5h1.2l2.5,5.6l0,0v-5.6H268.5z"/>
		</g>
		<g>
			<path class="st0" d="M271.1,50.6v-6.5h3.3v0.7h-2.5v2.1h2.3v0.7h-2.3v2.3h2.6v0.7L271.1,50.6L271.1,50.6z"/>
		</g>
		<g>
			<path class="st0" d="M276.4,44.1h0.9l1.2,5.6l0,0l1.3-5.6h1.1l1.2,5.6l0,0l1.3-5.6h0.9l-1.7,6.5h-1l-1.2-5.6l0,0l-1.3,5.6h-1
				L276.4,44.1z"/>
		</g>
		<g>
			<path class="st0" d="M291.7,44.1h0.8l-1.8,4v2.5h-0.8v-2.5l-1.7-4h0.9l1.3,3.1L291.7,44.1z"/>
		</g>
		<g>
			<path class="st0" d="M294.4,48.2v-2.1c0-1.3,0.7-2.1,2-2.1c1.4,0,2,0.8,2,2.1v2.1c0,1.8-0.7,2.5-2,2.5
				C295.1,50.8,294.4,50,294.4,48.2z M297.7,48.3v-2.2c0-1.4-0.9-1.4-1.2-1.4s-1.2,0-1.2,1.4v2.2c0,1.4,0.4,1.8,1.2,1.8
				S297.7,49.7,297.7,48.3z"/>
		</g>
		<g>
			<path class="st0" d="M301.8,47.6v3H301v-6.5h2.2c1.2,0,1.6,0.8,1.6,1.6c0,0.8-0.4,1.4-1.2,1.5l0,0c0.7,0.1,1,0.4,1.1,1.7
				c0,0.3,0.1,1.3,0.2,1.7H304c-0.2-0.5-0.2-1.3-0.3-2.2c-0.1-0.8-0.7-0.8-1-0.8L301.8,47.6L301.8,47.6z M301.8,46.9h1.2
				c0.6,0,0.9-0.5,0.9-1.1c0-0.5-0.2-1-0.9-1h-1.3L301.8,46.9L301.8,46.9z"/>
		</g>
		<g>
			<path class="st0" d="M307.2,50.6v-6.5h0.8V47l0,0l2.3-2.9h0.9l-2.4,2.9l2.5,3.6h-1.1l-2.3-3.4l0,0v3.4H307.2z"/>
		</g>
		<g>
			<path class="st0" d="M313.7,49.7h0.9l-0.8,2.1h-0.6L313.7,49.7z"/>
		</g>
		<g>
			<path class="st0" d="M323.9,44.1v6.5h-1.1l-2.6-5.6l0,0v5.6h-0.7v-6.5h1.2l2.5,5.6l0,0v-5.6H323.9z"/>
		</g>
		<g>
			<path class="st0" d="M329.6,44.1h0.8l-1.8,4v2.5h-0.8v-2.5l-1.7-4h0.9l1.3,3.1L329.6,44.1z"/>
		</g>
	</g>
	<g>
		<g>
			<path class="st0" d="M234.7,125.2h-1.8v5.4H232v-5.4h-1.8v-0.9h4.5V125.2z"/>
		</g>
		<g>
			<path class="st0" d="M241.9,128.8c0,0.5-0.2,0.9-0.5,1.3c-0.4,0.4-0.8,0.5-1.3,0.5h-0.9c-0.5,0-0.9-0.2-1.3-0.5
				c-0.4-0.4-0.5-0.8-0.5-1.3v-4.5h0.9v4.5c0,0.2,0.1,0.5,0.3,0.6c0.2,0.2,0.4,0.3,0.6,0.3h0.9c0.2,0,0.5-0.1,0.6-0.3
				c0.2-0.2,0.3-0.4,0.3-0.6v-4.5h0.9V128.8z"/>
		</g>
		<g>
			<path class="st0" d="M249.1,130.6h-4.5v-6.3h4.5v0.9h-3.6v1.8h2.7v0.9h-2.7v1.8h3.6V130.6z"/>
		</g>
		<g>
			<path class="st0" d="M254.9,129.5c0,0.3-0.1,0.5-0.2,0.6c-0.2,0.2-0.4,0.3-0.6,0.3c-0.2,0-0.5-0.1-0.6-0.3
				c-0.2-0.2-0.3-0.4-0.3-0.6s0.1-0.5,0.3-0.6c0.2-0.2,0.4-0.3,0.6-0.3c0.2,0,0.5,0.1,0.6,0.3C254.8,129,254.9,129.3,254.9,129.5z"
				/>
		</g>
		<g>
			<path class="st0" d="M262.1,131l-1.4,1.4l-0.6-0.6l1.1-1.1v-0.3c-0.2,0-0.5-0.1-0.6-0.3c-0.2-0.2-0.3-0.4-0.3-0.6
				s0.1-0.5,0.3-0.6c0.2-0.2,0.4-0.3,0.6-0.3c0.2,0,0.5,0.1,0.6,0.3s0.3,0.4,0.3,0.6L262.1,131L262.1,131z"/>
		</g>
		<g>
			<path class="st0" d="M274.3,128.8v1.8h-0.9v-2.9l1.7-3.4h1.1l1.7,3.4v2.9H277v-1.8H274.3z M275.6,125.2l-1.4,2.7h2.7L275.6,125.2
				z"/>
		</g>
		<g>
			<path class="st0" d="M285.1,128.8c0,0.5-0.2,0.9-0.5,1.3c-0.4,0.4-0.8,0.5-1.3,0.5h-0.9c-0.5,0-0.9-0.2-1.3-0.5
				c-0.4-0.4-0.5-0.8-0.5-1.3v-4.5h0.9v4.5c0,0.2,0.1,0.5,0.3,0.6c0.2,0.2,0.4,0.3,0.6,0.3h0.9c0.2,0,0.5-0.1,0.6-0.3
				c0.2-0.2,0.3-0.4,0.3-0.6v-4.5h0.9V128.8z"/>
		</g>
		<g>
			<path class="st0" d="M292.3,128.8c0,0.5-0.2,0.9-0.5,1.3c-0.4,0.4-0.8,0.5-1.3,0.5h-0.9c-0.5,0-0.9-0.2-1.3-0.5
				c-0.4-0.4-0.5-0.8-0.5-1.3v-2.7c0-0.5,0.2-0.9,0.5-1.3c0.4-0.4,0.8-0.5,1.3-0.5h0.9c0.5,0,0.9,0.2,1.3,0.5s0.5,0.8,0.5,1.3h-0.9
				c0-0.2-0.1-0.5-0.3-0.6c-0.2-0.2-0.4-0.3-0.6-0.3h-0.9c-0.2,0-0.5,0.1-0.6,0.3c-0.2,0.2-0.3,0.4-0.3,0.6v2.7
				c0,0.2,0.1,0.5,0.3,0.6c0.2,0.2,0.4,0.3,0.6,0.3h0.9c0.2,0,0.5-0.1,0.6-0.3c0.2-0.2,0.3-0.4,0.3-0.6v-0.9h-0.9V127h1.8
				L292.3,128.8L292.3,128.8z"/>
		</g>
		<g>
			<path class="st0" d="M298.1,129.5c0,0.3-0.1,0.5-0.2,0.6c-0.2,0.2-0.4,0.3-0.6,0.3c-0.2,0-0.5-0.1-0.6-0.3
				c-0.2-0.2-0.3-0.4-0.3-0.6s0.1-0.5,0.3-0.6c0.2-0.2,0.4-0.3,0.6-0.3c0.2,0,0.5,0.1,0.6,0.3C298,129,298.1,129.3,298.1,129.5z"/>
		</g>
		<g>
			<path class="st0" d="M313.9,130.6h-4.5V130l3.5-3.6c0-0.1,0.1-0.2,0.1-0.3c0-0.2-0.1-0.5-0.3-0.6c-0.2-0.2-0.4-0.3-0.6-0.3h-0.9
				c-0.2,0-0.5,0.1-0.6,0.3c-0.2,0.2-0.3,0.4-0.3,0.6h-0.9c0-0.5,0.2-0.9,0.5-1.3c0.4-0.4,0.8-0.5,1.3-0.5h0.9
				c0.5,0,0.9,0.2,1.3,0.5s0.5,0.8,0.5,1.3c0,0.3-0.1,0.6-0.2,0.8l-2.8,2.8h3V130.6z"/>
		</g>
		<g>
			<path class="st0" d="M317.5,128.8c0,0.2,0.1,0.5,0.3,0.6c0.2,0.2,0.4,0.3,0.6,0.3h0.9c0.2,0,0.5-0.1,0.6-0.3
				c0.2-0.2,0.3-0.4,0.3-0.6s-0.1-0.5-0.3-0.6c-0.2-0.2-0.4-0.3-0.6-0.3h-0.9V127h0.9c0.2,0,0.5-0.1,0.6-0.3
				c0.2-0.2,0.3-0.4,0.3-0.6s-0.1-0.5-0.3-0.6c-0.2-0.2-0.4-0.3-0.6-0.3h-0.9c-0.2,0-0.5,0.1-0.6,0.3c-0.2,0.2-0.3,0.4-0.3,0.6h-0.9
				c0-0.5,0.2-0.9,0.5-1.3c0.4-0.4,0.8-0.5,1.3-0.5h0.9c0.5,0,0.9,0.2,1.3,0.5c0.4,0.4,0.5,0.8,0.5,1.3s-0.3,1-0.8,1.4
				c0.5,0.4,0.8,0.8,0.8,1.4c0,0.5-0.2,0.9-0.5,1.3c-0.4,0.4-0.8,0.5-1.3,0.5h-0.9c-0.5,0-0.9-0.2-1.3-0.5c-0.4-0.4-0.5-0.8-0.5-1.3
				h0.9V128.8z"/>
		</g>
		<g>
			<path class="st0" d="M327,131l-1.4,1.4l-0.6-0.6l1.1-1.1v-0.3c-0.2,0-0.5-0.1-0.6-0.3c-0.2-0.2-0.3-0.4-0.3-0.6s0.1-0.5,0.3-0.6
				c0.2-0.2,0.4-0.3,0.6-0.3c0.2,0,0.5,0.1,0.6,0.3s0.3,0.4,0.3,0.6L327,131L327,131z"/>
		</g>
		<g>
			<path class="st0" d="M342.7,130.6h-4.5V130l3.5-3.6c0-0.1,0.1-0.2,0.1-0.3c0-0.2-0.1-0.5-0.3-0.6c-0.2-0.2-0.4-0.3-0.6-0.3H340
				c-0.2,0-0.5,0.1-0.6,0.3c-0.2,0.2-0.3,0.4-0.3,0.6h-0.9c0-0.5,0.2-0.9,0.5-1.3c0.4-0.4,0.8-0.5,1.3-0.5h0.9
				c0.5,0,0.9,0.2,1.3,0.5s0.5,0.8,0.5,1.3c0,0.3-0.1,0.6-0.2,0.8l-2.8,2.8h3V130.6z"/>
		</g>
		<g>
			<path class="st0" d="M349.9,128.8c0,0.5-0.2,0.9-0.5,1.3c-0.4,0.4-0.8,0.5-1.3,0.5h-0.9c-0.5,0-0.9-0.2-1.3-0.5
				c-0.4-0.4-0.5-0.8-0.5-1.3v-2.7c0-0.5,0.2-0.9,0.5-1.3c0.4-0.4,0.8-0.5,1.3-0.5h0.9c0.5,0,0.9,0.2,1.3,0.5s0.5,0.8,0.5,1.3V128.8
				z M348.9,125.6c-0.2-0.3-0.4-0.4-0.8-0.4h-0.9c-0.2,0-0.5,0.1-0.6,0.3c-0.2,0.2-0.3,0.4-0.3,0.6v2.1L348.9,125.6z M349,128.8
				v-2.1l-2.6,2.6c0.2,0.3,0.4,0.4,0.7,0.4h0.9c0.2,0,0.5-0.1,0.6-0.3C348.9,129.3,349,129.1,349,128.8z"/>
		</g>
		<g>
			<path class="st0" d="M357.1,130.6h-4.5v-0.9h1.8v-3.6H353v-0.9h0.5c0.2,0,0.5-0.1,0.6-0.3c0.2-0.2,0.3-0.4,0.3-0.6h0.9v5.4h1.8
				L357.1,130.6L357.1,130.6z"/>
		</g>
		<g>
			<path class="st0" d="M364.3,126.7l-1.8,1.8v2.1h-0.9v-2.4l1.8-1.8v-1.2h-3.6v-0.9h4.5V126.7z"/>
		</g>
	</g>
	<g>
		<g>
			<g>
				<path class="st0" d="M483.2,28.8v-5.7h3.2l20.4,4.4v4.2h-21.4V34h-2.2v-2.3h-8.4v-2.9H483.2z M503.5,28.8L503.5,28.8l-18-3.5
					v3.5H503.5z"/>
			</g>
			<g>
				<path class="st0" d="M483.2,45.7V40h3.2l20.4,4.4v4.2h-21.4v2.3h-2.2v-2.3h-8.4v-2.9H483.2z M503.5,45.7L503.5,45.7l-18-3.5v3.5
					H503.5z"/>
			</g>
			<g>
				<path class="st0" d="M488.2,80c1.6,0,2-0.9,2-2.3v-2h-15.4v-2.9h32v5.5c0,2.8-0.5,4.5-3.7,4.5H495c-2.5,0-3.3-0.9-3.5-3.2h-0.1
					c-0.1,2.1-0.8,3.3-3,3.3h-13.7V80H488.2z M492.7,77.7c0,1.4,0.4,2.2,2.3,2.2h7.2c1.9,0,2.2-1,2.2-2.5v-1.6h-11.7V77.7z"/>
			</g>
			<g>
				<path class="st0" d="M488.2,121.8c-0.7-0.8-1.2-1.8-1.2-2.9c0-2.1,1.2-3.5,3.9-3.5h11.3c2.9,0,4.8,1.3,4.8,4.6s-2,4.6-4.8,4.6
					h-22.8c-2.9,0-4.8-1.3-4.8-4.6s2-4.6,4.8-4.6h4.4v2.8h-5.1c-1.1,0-1.9,0.7-1.9,1.8c0,1.1,0.8,1.9,1.9,1.9L488.2,121.8
					L488.2,121.8z M503,121.8c1.1,0,1.9-0.8,1.9-1.8s-0.8-1.8-1.9-1.8h-11.8c-1.1,0-1.9,0.8-1.9,1.8s0.8,1.8,1.9,1.8H503z"/>
			</g>
		</g>
		<g>
			<g>
				<path class="st0" d="M461.6,30.2h-0.2c-0.9,0-1.1,0.6-1.1,1.1c0,0.6,0.3,1.1,1,1.1c1.4,0,1.3-2.9,3.2-2.9c1.1,0,1.7,0.8,1.7,1.9
					c0,1.2-0.6,1.8-1.9,1.8v-0.9c0.7,0,1.2-0.2,1.2-1c0-0.5-0.2-1-0.9-1c-1.4,0-1.2,2.9-3.2,2.9c-1.3,0-1.8-0.9-1.8-2
					c0-1.9,1.4-1.9,2-1.9L461.6,30.2L461.6,30.2z"/>
			</g>
			<g>
				<path class="st0" d="M459.7,35.5h6.4v3.3h-0.7v-2.5h-2.1v2.3h-0.7v-2.3h-2.2v2.5h-0.7L459.7,35.5L459.7,35.5z"/>
			</g>
			<g>
				<path class="st0" d="M464.3,43.7c0.4,0,0.7,0,0.9-0.2c0.2-0.2,0.3-0.6,0.3-0.7c0-0.7-0.4-0.9-0.5-1c-0.1,0-0.2-0.2-1.3-0.2H462
					c-1.6,0-1.8,0.5-1.8,1.1c0,0.2,0.1,1,1.3,1v0.8c-2,0-2-1.4-2-1.8c0-0.8,0.1-2,2.5-2h1.8c1.8,0,2.3,0.8,2.3,2.1
					c0,1.3-0.7,1.8-1.9,1.7L464.3,43.7L464.3,43.7z"/>
			</g>
			<g>
				<path class="st0" d="M459.7,47.5v-0.8h0.9v0.8H459.7z"/>
			</g>
			<g>
				<path class="st0" d="M462.6,69h-2.9v-0.8h6.4v2.2c0,1.1-0.8,1.5-1.6,1.5c-0.8,0-1.3-0.4-1.5-1.2l0,0c-0.1,0.7-0.4,1-1.7,1
					c-0.3,0-1.3,0.1-1.7,0.2v-0.7c0.4-0.2,1.3-0.2,2.1-0.2c0.8-0.1,0.8-0.7,0.8-1L462.6,69L462.6,69z M463.4,69v1.2
					c0,0.6,0.5,0.9,1.1,0.9c0.5,0,1-0.2,1-0.9V69H463.4z"/>
			</g>
			<g>
				<path class="st0" d="M462,74.1h2.1c1.3,0,2.1,0.7,2.1,2c0,1.4-0.8,2-2.1,2H462c-1.8,0-2.5-0.7-2.5-2
					C459.6,74.8,460.3,74.1,462,74.1z M462,77.3h2.2c1.3,0,1.4-0.9,1.4-1.2c0-0.3,0-1.2-1.4-1.2H462c-1.4,0-1.8,0.4-1.8,1.2
					S460.6,77.3,462,77.3z"/>
			</g>
			<g>
				<path class="st0" d="M466.1,79.9v0.9l-5.6,1.2l0,0l5.6,1.3v1.1l-5.6,1.2l0,0l5.6,1.3v0.9l-6.4-1.7v-1l5.6-1.2l0,0l-5.6-1.3v-1
					L466.1,79.9z"/>
			</g>
			<g>
				<path class="st0" d="M461.6,110.7h-0.2c-0.9,0-1.1,0.6-1.1,1.1c0,0.6,0.3,1.1,1,1.1c1.4,0,1.3-2.9,3.2-2.9
					c1.1,0,1.7,0.8,1.7,1.9c0,1.2-0.6,1.8-1.9,1.8v-0.9c0.7,0,1.2-0.2,1.2-1c0-0.5-0.2-1-0.9-1c-1.4,0-1.2,2.9-3.2,2.9
					c-1.3,0-1.8-0.9-1.8-2c0-1.9,1.4-1.9,2-1.9L461.6,110.7L461.6,110.7z"/>
			</g>
			<g>
				<path class="st0" d="M459.7,115.9h6.4v3.3h-0.7v-2.5h-2.1v2.3h-0.7v-2.3h-2.2v2.5h-0.7L459.7,115.9L459.7,115.9z"/>
			</g>
			<g>
				<path class="st0" d="M466.1,123.1v1l-6.4,2.1v-0.9l1.5-0.5v-2.5l-1.5-0.5V121L466.1,123.1z M465.3,123.6L465.3,123.6l-3.4-1v2.1
					L465.3,123.6z"/>
			</g>
			<g>
				<path class="st0" d="M466.1,131.3h-0.7v-1.7h-5.7v-0.8h5.7v-1.7h0.7V131.3z"/>
			</g>
		</g>
	</g>
	<g>
		<g>
			<g>
				<path class="st0" d="M106.7,28.8v-5.7h3.2l20.4,4.4v4.2h-21.4V34h-2.2v-2.3h-8.4v-2.9H106.7z M127,28.8L127,28.8l-18-3.5v3.5
					H127z"/>
			</g>
			<g>
				<path class="st0" d="M106.7,45.7V40h3.2l20.4,4.4v4.2h-21.4v2.3h-2.2v-2.3h-8.4v-2.9H106.7z M127,45.7L127,45.7l-18-3.5v3.5H127
					z"/>
			</g>
			<g>
				<path class="st0" d="M111.7,80c1.6,0,2-0.9,2-2.3v-2H98.3v-2.9h32v5.5c0,2.8-0.5,4.5-3.7,4.5h-8.1c-2.5,0-3.3-0.9-3.5-3.2h-0.1
					c-0.1,2.1-0.8,3.3-3,3.3H98.2V80H111.7z M116.2,77.7c0,1.4,0.4,2.2,2.3,2.2h7.2c1.9,0,2.2-1,2.2-2.5v-1.6h-11.7V77.7z"/>
			</g>
			<g>
				<path class="st0" d="M111.7,121.8c-0.7-0.8-1.2-1.8-1.2-2.9c0-2.1,1.2-3.5,3.9-3.5h11.3c2.9,0,4.8,1.3,4.8,4.6s-2,4.6-4.8,4.6
					h-22.9c-2.9,0-4.8-1.3-4.8-4.6s2-4.6,4.8-4.6h4.4v2.8h-5.1c-1.1,0-1.9,0.7-1.9,1.8c0,1.1,0.8,1.9,1.9,1.9L111.7,121.8
					L111.7,121.8z M126.5,121.8c1.1,0,1.9-0.8,1.9-1.8s-0.8-1.8-1.9-1.8h-11.8c-1.1,0-1.9,0.8-1.9,1.8s0.8,1.8,1.9,1.8H126.5z"/>
			</g>
		</g>
		<g>
			<g>
				<path class="st0" d="M85.1,30.2h-0.2c-0.9,0-1.1,0.6-1.1,1.1c0,0.6,0.3,1.1,1,1.1c1.4,0,1.3-2.9,3.2-2.9c1.1,0,1.7,0.8,1.7,1.9
					c0,1.2-0.6,1.8-1.9,1.8v-0.9c0.7,0,1.2-0.2,1.2-1c0-0.5-0.2-1-0.9-1c-1.4,0-1.2,2.9-3.2,2.9c-1.3,0-1.8-0.9-1.8-2
					c0-1.9,1.4-1.9,2-1.9V30.2z"/>
			</g>
			<g>
				<path class="st0" d="M83.2,35.5h6.4v3.3h-0.7v-2.5h-2.1v2.3h-0.7v-2.3h-2.2v2.5h-0.7V35.5z"/>
			</g>
			<g>
				<path class="st0" d="M87.8,43.7c0.4,0,0.7,0,0.9-0.2s0.3-0.6,0.3-0.7c0-0.7-0.4-0.9-0.5-1c-0.1,0-0.2-0.2-1.3-0.2h-1.7
					c-1.6,0-1.8,0.5-1.8,1.1c0,0.2,0.1,1,1.3,1v0.8c-2,0-2-1.4-2-1.8c0-0.8,0.1-2,2.5-2h1.8c1.8,0,2.3,0.8,2.3,2.1
					c0,1.3-0.7,1.8-1.9,1.7v-0.8H87.8z"/>
			</g>
			<g>
				<path class="st0" d="M83.2,47.5v-0.8h0.9v0.8H83.2z"/>
			</g>
			<g>
				<path class="st0" d="M86.1,69h-2.9v-0.8h6.4v2.2c0,1.1-0.8,1.5-1.6,1.5s-1.3-0.4-1.5-1.2l0,0c-0.1,0.7-0.4,1-1.7,1
					c-0.3,0-1.3,0.1-1.7,0.2v-0.7c0.4-0.2,1.3-0.2,2.1-0.2c0.8-0.1,0.8-0.7,0.8-1v-1H86.1z M86.9,69v1.2c0,0.6,0.5,0.9,1.1,0.9
					c0.5,0,1-0.2,1-0.9V69H86.9z"/>
			</g>
			<g>
				<path class="st0" d="M85.5,74.1h2.1c1.3,0,2.1,0.7,2.1,2c0,1.4-0.8,2-2.1,2h-2.1c-1.8,0-2.5-0.7-2.5-2
					C83.1,74.8,83.8,74.1,85.5,74.1z M85.5,77.3h2.2c1.3,0,1.4-0.9,1.4-1.2c0-0.3,0-1.2-1.4-1.2h-2.2c-1.4,0-1.8,0.4-1.8,1.2
					S84.1,77.3,85.5,77.3z"/>
			</g>
			<g>
				<path class="st0" d="M89.6,79.9v0.9L84,82l0,0l5.6,1.3v1.1L84,85.6l0,0l5.6,1.3v0.9l-6.4-1.7v-1l5.6-1.2l0,0l-5.6-1.3v-1
					L89.6,79.9z"/>
			</g>
			<g>
				<path class="st0" d="M85.1,110.7h-0.2c-0.9,0-1.1,0.6-1.1,1.1c0,0.6,0.3,1.1,1,1.1c1.4,0,1.3-2.9,3.2-2.9c1.1,0,1.7,0.8,1.7,1.9
					c0,1.2-0.6,1.8-1.9,1.8v-0.9c0.7,0,1.2-0.2,1.2-1c0-0.5-0.2-1-0.9-1c-1.4,0-1.2,2.9-3.2,2.9c-1.3,0-1.8-0.9-1.8-2
					c0-1.9,1.4-1.9,2-1.9V110.7z"/>
			</g>
			<g>
				<path class="st0" d="M83.2,115.9h6.4v3.3h-0.7v-2.5h-2.1v2.3h-0.7v-2.3h-2.2v2.5h-0.7V115.9z"/>
			</g>
			<g>
				<path class="st0" d="M89.6,123.1v1l-6.4,2.1v-0.9l1.5-0.5v-2.5l-1.5-0.5V121L89.6,123.1z M88.8,123.6L88.8,123.6l-3.4-1v2.1
					L88.8,123.6z"/>
			</g>
			<g>
				<path class="st0" d="M89.6,131.3h-0.7v-1.7h-5.7v-0.8h5.7v-1.7h0.7V131.3z"/>
			</g>
		</g>
	</g>
	<g>
		<g>
			<path class="st0" d="M58.8,40.9H23.9V40h34.9V40.9z M58.8,39.3H23.9v-0.9h34.9V39.3z"/>
		</g>
		<g>
			<rect x="28.4" y="41.5" class="st0" width="30.5" height="2.9"/>
		</g>
		<g>
			<rect x="28.4" y="44.9" class="st0" width="30.5" height="1.9"/>
		</g>
		<g>
			<path class="st0" d="M58.8,52.4H28.4v-0.9h30.5L58.8,52.4L58.8,52.4z M58.8,49.1H28.4v-0.9h30.5L58.8,49.1L58.8,49.1z"/>
		</g>
		<g>
			<path class="st0" d="M58.8,58.3H28.4v-1.9h30.5L58.8,58.3L58.8,58.3z M58.8,55H28.4v-1.9h30.5L58.8,55L58.8,55z"/>
		</g>
		<g>
			<rect x="28.4" y="59" class="st0" width="30.5" height="0.9"/>
		</g>
		<g>
			<rect x="28.4" y="62.2" class="st0" width="30.5" height="1.9"/>
		</g>
		<g>
			<path class="st0" d="M58.8,69.7H28.4v-0.9h30.5L58.8,69.7L58.8,69.7z M58.8,66.4H28.4v-0.9h30.5L58.8,66.4L58.8,66.4z"/>
		</g>
		<g>
			<rect x="28.4" y="70.2" class="st0" width="30.5" height="3.9"/>
		</g>
		<g>
			<path class="st0" d="M58.8,78.7H23.9v-0.9h34.9V78.7z M58.8,77.1H23.9v-0.9h34.9V77.1z M58.8,75.5H28.4v-0.9h30.5L58.8,75.5
				L58.8,75.5z"/>
		</g>
		<g>
			<rect x="28.4" y="79.3" class="st0" width="30.5" height="2.9"/>
		</g>
		<g>
			<path class="st0" d="M58.8,94.4H28.4v-0.9h30.5L58.8,94.4L58.8,94.4z M58.8,91.9H28.4V91h30.5L58.8,91.9L58.8,91.9z M58.8,87.8
				H28.4v-0.9h30.5L58.8,87.8L58.8,87.8z M58.8,86.1H28.4v-0.9h30.5L58.8,86.1L58.8,86.1z M58.8,83.7H28.4v-0.9h30.5L58.8,83.7
				L58.8,83.7z"/>
		</g>
		<g>
			<rect x="28.4" y="96.6" class="st0" width="30.5" height="2.9"/>
		</g>
		<g>
			<rect x="28.4" y="100.9" class="st0" width="30.5" height="0.9"/>
		</g>
		<g>
			<path class="st0" d="M58.8,112.6H28.4v-1.9h30.5L58.8,112.6L58.8,112.6z M58.8,110.1H28.4v-1.9h30.5L58.8,110.1L58.8,110.1z
				 M58.8,107.6H28.4v-1.9h30.5L58.8,107.6L58.8,107.6z M58.8,104.3H28.4v-1.9h30.5L58.8,104.3L58.8,104.3z"/>
		</g>
		<g>
			<path class="st0" d="M58.8,116.6H23.9v-0.9h34.9V116.6z M58.8,114.9H23.9V114h34.9V114.9z"/>
		</g>
		<g>
			<g>
				<path class="st0" d="M21.2,31.2c0,0.2,0,0.4,0,0.7c0.1,0.5,0.3,1,0.6,1.3c0.4,0.4,0.9,0.7,1.7,0.8l0,0c-0.4-0.4-0.7-0.9-0.7-1.5
					c0-1.2,0.9-1.9,2-1.9c1.2,0,2.3,0.9,2.3,2.2s-1.1,2.1-2.7,2.1c-1.4,0-2.4-0.5-3-1.1c-0.5-0.5-0.8-1.2-0.9-1.9
					c0-0.3-0.1-0.6,0-0.8L21.2,31.2L21.2,31.2z M26.5,32.7c0-0.7-0.7-1.3-1.6-1.3c-0.8,0-1.4,0.5-1.4,1.2c0,0.6,0.3,1,0.7,1.3
					c0.1,0,0.2,0.1,0.3,0.1C25.7,34.1,26.5,33.7,26.5,32.7L26.5,32.7z"/>
			</g>
		</g>
		<g>
			<g>
				<path class="st0" d="M27,46.3h-0.6l-5.8-2.8v-0.9l5.7,2.8l0,0v-3.1H27L27,46.3L27,46.3z"/>
			</g>
			<g>
				<path class="st0" d="M27,52.1h-0.6l-5.8-2.8v-0.9l5.7,2.8l0,0v-3.1H27L27,52.1L27,52.1z"/>
			</g>
			<g>
				<path class="st0" d="M26.2,55.6L26.2,55.6l-0.6-1.1l0.7-0.2l0.7,1.4v0.7h-6.4v-0.8H26.2z"/>
			</g>
			<g>
				<path class="st0" d="M20.6,62.1h1.7v-3h0.6L27,62v0.9h-4v0.9h-0.6v-0.9h-1.7L20.6,62.1L20.6,62.1z M23.1,62.1h2.1
					c0.3,0,0.7,0,1,0l0,0c-0.4-0.2-0.7-0.4-0.9-0.5L23.1,60l0,0L23.1,62.1L23.1,62.1z"/>
			</g>
			<g>
				<path class="st0" d="M27,69.3h-0.6l-5.8-2.8v-0.9l5.7,2.8l0,0v-3.1H27L27,69.3L27,69.3z"/>
			</g>
			<g>
				<path class="st0" d="M21.6,71.1c-0.2,0.2-0.4,0.8-0.4,1.4c0,1.1,0.7,1.5,1.2,1.5c0.9,0,1.3-0.8,1.3-1.7v-0.5h0.7v0.5
					c0,0.6,0.3,1.4,1.1,1.4c0.5,0,1-0.3,1-1.1c0-0.5-0.2-1-0.4-1.3l0.6-0.2c0.2,0.3,0.5,1,0.5,1.7c0,1.3-0.7,1.8-1.5,1.8
					c-0.7,0-1.2-0.4-1.5-1.2l0,0c-0.2,0.8-0.7,1.4-1.6,1.4c-1,0-1.9-0.8-1.9-2.3c0-0.7,0.2-1.4,0.4-1.7L21.6,71.1z"/>
			</g>
		</g>
		<g>
			<g>
				<path class="st0" d="M21.2,80.5c0,0.2,0,0.4,0,0.7c0.1,0.5,0.3,1,0.6,1.3c0.4,0.4,0.9,0.7,1.7,0.8l0,0c-0.4-0.4-0.7-0.9-0.7-1.5
					c0-1.2,0.9-1.9,2-1.9c1.2,0,2.3,0.9,2.3,2.2c0,1.3-1.1,2.1-2.7,2.1c-1.4,0-2.4-0.5-3-1.1c-0.5-0.5-0.8-1.2-0.9-1.9
					c0-0.3-0.1-0.6,0-0.8L21.2,80.5L21.2,80.5z M26.5,82.1c0-0.7-0.7-1.3-1.6-1.3c-0.8,0-1.4,0.5-1.4,1.2c0,0.6,0.3,1,0.7,1.3
					c0.1,0,0.2,0.1,0.3,0.1C25.7,83.4,26.5,83,26.5,82.1L26.5,82.1z"/>
			</g>
			<g>
				<path class="st0" d="M26.4,89.4c0-0.2,0-0.4,0-0.7c-0.2-1.4-1.2-2.1-2.3-2.2l0,0c0.4,0.3,0.7,0.8,0.7,1.5c0,1.1-0.8,1.9-2.1,1.9
					c-1.2,0-2.3-0.8-2.3-2.1c0-1.4,1.1-2.3,2.7-2.3c1.3,0,2.3,0.5,2.9,1.1c0.5,0.5,0.8,1.2,0.9,2.1c0,0.3,0,0.5,0,0.6h-0.5V89.4z
					 M21.2,87.9c0,0.7,0.6,1.2,1.5,1.2s1.5-0.5,1.5-1.3c0-0.5-0.3-1-0.8-1.2c-0.1-0.1-0.2-0.1-0.4-0.1C22,86.5,21.2,87,21.2,87.9
					L21.2,87.9z"/>
			</g>
			<g>
				<path class="st0" d="M24,92.7c0.3-0.7,0.9-1,1.4-1c1,0,1.7,0.9,1.7,2c0,1.2-0.8,1.9-1.6,1.9c-0.5,0-1.1-0.3-1.5-1.1l0,0
					c-0.3,0.8-0.9,1.3-1.7,1.3c-1.1,0-1.9-1-1.9-2.2c0-1.3,0.8-2.2,1.7-2.2C23.1,91.4,23.6,91.9,24,92.7L24,92.7z M22.3,94.9
					c0.8,0,1.2-0.5,1.4-1.4c-0.2-0.7-0.7-1.2-1.3-1.2c-0.7,0-1.2,0.5-1.2,1.3C21.2,94.4,21.6,94.9,22.3,94.9z M25.5,92.5
					c-0.6,0-1,0.5-1.2,1.2c0.2,0.6,0.6,1,1.2,1c0.5,0,1-0.3,1-1.1C26.5,92.9,26.1,92.5,25.5,92.5z"/>
			</g>
			<g>
				<path class="st0" d="M23.9,101.5c-2.2,0-3.4-0.8-3.4-2.2c0-1.3,1.2-2.1,3.3-2.1c2.2,0,3.3,0.9,3.3,2.2
					C27.2,100.7,25.9,101.5,23.9,101.5z M23.8,98c-1.7,0-2.6,0.5-2.6,1.3c0,0.9,1,1.3,2.7,1.3c1.6,0,2.6-0.4,2.6-1.3
					C26.5,98.6,25.6,98,23.8,98z"/>
			</g>
			<g>
				<path class="st0" d="M26.2,104.9L26.2,104.9l-0.6-1.1l0.7-0.2L27,105v0.7h-6.4v-0.8H26.2z"/>
			</g>
			<g>
				<path class="st0" d="M20.6,108.8h0.5l0.7,0.7c1.6,1.6,2.4,2.4,3.4,2.4c0.7,0,1.3-0.3,1.3-1.3c0-0.6-0.3-1.1-0.5-1.4l0.6-0.3
					c0.4,0.4,0.7,1.1,0.7,1.8c0,1.4-0.9,2-1.9,2c-1.2,0-2.1-0.9-3.4-2.2l-0.5-0.5l0,0v2.9h-0.7v-4.1H20.6z"/>
			</g>
		</g>
		<g>
			<polygon class="st0" points="23.9,125.5 20.7,120 21.4,119.6 23.9,124 26.5,119.6 27.1,120 			"/>
		</g>
	</g>
	<g>
		<rect x="447.8" y="12.3" class="st0" width="0.8" height="129.8"/>
	</g>
</g>
</svg>
