<svg version="1.1" id="Layer_1" xmlns="http://www.w3.org/2000/svg" xmlns:xlink="http://www.w3.org/1999/xlink" x="0px" y="0px" viewBox="0 0 692 406" style="enable-background:new 0 0 692 406;" xml:space="preserve">
<style type="text/css">
	.st0{opacity:0.2;}
	.st1{fill:#FFFFFF;}
</style>
<g class="st0">
	<path class="st1" d="M691,367.8c-0.1-0.6-0.6-1.2-1.3-1.5c-0.3-0.1-0.6-0.2-0.9-0.2c-0.2,0-0.3,0-0.5-0.1c-0.9-0.2-1.7-0.9-2.1-1.8   c-0.2-0.5-0.3-1.2-0.3-1.8c0-0.2,0-0.3,0-0.5c-0.1-1.3-0.4-2.5-0.9-3.7l0-0.1c-0.4-1.2-0.8-2.2-1.6-3.3c-0.3-0.5-0.8-1-1.4-1.3   c-0.8-0.4-1.7-0.2-2.3,0.3c-0.4,0.5-0.4,1.1-0.4,1.5l0,0.1c0.1,1.5,0.4,3.1,0.9,4.9l0.1,0.2c0.4,1.4,0.8,2.9,0.8,4.4   c0,1.1-0.2,2.2-0.6,3.2c-0.2,0.5-0.4,0.9-0.7,1.2c-0.2,0.2-0.4,0.4-0.7,0.6c-0.2,0.2-0.5,0.4-0.7,0.7c-0.7,0.7-0.9,1.6-0.7,2.4   c0.1,0.3,0.3,0.6,0.5,0.8c0.1,0.1,0.2,0.3,0.3,0.4c0.2,0.4,0.1,0.9-0.1,1.6c0,0.1-0.1,0.3-0.2,0.5c-0.2,0.5-0.5,1.1-0.5,1.8   c-0.1,1,0.5,2.1,1.5,2.4c0.1,0,0.2,0,0.4,0c0.3,0,0.6-0.1,0.9-0.2c1.6-0.5,3-1.8,3.7-3.3c0.1-0.3,0.3-0.7,0.4-1   c0.1-0.3,0.2-0.7,0.4-1c0.2-0.3,0.5-1,1.1-1.1c0.1,0,0.3-0.1,0.5-0.1c0.2,0,0.5,0,0.7-0.1c0.8-0.3,1.4-1,1.9-1.6   c0.6-0.9,1.2-1.9,1.7-3C690.9,368.6,691.1,368.2,691,367.8z"/>
	<path class="st1" d="M673,375.4c-0.3-0.1-0.7-0.2-1.1-0.2c-1,0-2,0.5-2.5,1.2c-0.7,1.1-0.9,2.4-1.1,3.6l0,0.2   c-0.2,1.5-1.3,2.7-2.2,3.4c-0.8,0.7-1.7,1.2-2.7,1.8c-0.4,0.2-0.8,0.4-1.1,0.7c-2.2,1.3-4.1,3-5.9,4.9c-0.5,0.5-1,1.2-1.2,2   c-0.2,1,0.3,2,0.8,2.8c0.8,1.3,2,2.9,3.7,3.2c0.2,0,0.4,0,0.6,0c1.2,0,2.5-0.7,3.5-1.8c0.7-0.8,1.2-1.7,1.6-2.6   c0.2-0.3,0.4-0.6,0.5-1c1.8-3.1,4.7-5.6,7.5-8l0.6-0.5c1.1-0.9,2-1.8,2.5-3.1C677.5,379.4,675.5,376.5,673,375.4z"/>
	<path class="st1" d="M644.3,30.7c-1.2-0.7-2.6-1-4.2-1c-1.6,0-3.2,0.3-4.8,0.6c-0.4,0.1-0.7,0.1-1.1,0.2c-3.8,0.7-7.9,0.8-11.7,0.2   c-1-0.1-2-0.3-3-0.5c-2.1-0.4-4.3-0.8-6.5-0.8h-0.2c-3.9,0-7.2,1.5-9,4c-0.2,0.3-0.4,0.5-0.5,0.8c-0.3,0.5-0.6,1-1,1.4   c-0.9,0.8-2.2,1.1-3.3,1.4c-2.9,0.7-5.9,1.3-8.9,1.3c-2.5,0-4.5-0.5-6.3-1.4c-0.3-0.2-0.7-0.4-1-0.6c-1.2-0.7-2.5-1.5-4-1.5   c-1.4,0-2.6,0.7-3.8,1.4c-0.8,0.5-1.6,1-2.4,1.2c-0.4,0.1-0.7,0.1-1.1,0.1c-1.8,0-3.5-1-5.4-2.1c-1.2-0.7-2.4-1.4-3.6-1.9   c-1.2-0.5-2.6-0.7-4-0.7c-3.5,0-6.9,1.3-9.9,2.7c-3,1.3-4.5,3.1-4.2,5c0.1,0.5,0.3,1,0.4,1.4c0.2,0.6,0.5,1.2,0.3,1.6   c-0.2,0.5-0.8,0.8-2.1,1l-7.9,1c-1.2,0.1-2.2,0.2-2.9-0.1c-0.9-0.4-1.5-1.2-2.1-2.1c-0.2-0.2-0.3-0.5-0.5-0.7c-1.8-2.4-4.9-4-7.9-4   c-1.8,0-3.4,0.6-4.7,1.7c-2.3,2.1-6.2,3.5-10,3.7c-0.5,0-1.1,0-1.7,0c-1,0-2.1,0-3.1,0.2c-1.9,0.3-3.7,1.2-5.3,2.1   c-1.1-1.4-2.1-2.8-2-4.3c0-0.6,0.2-1.2,0.4-1.8c0.2-0.7,0.4-1.4,0.4-2.1c0.1-2.1-1.3-3.9-2.4-5.2c-1.2-1.4-2.7-2.9-4.7-3.6   c-1-0.4-2-0.6-3-0.7l-9-1.5c-0.6-0.1-1.2-0.2-1.9-0.2c-1.1,0-1.9,0.3-2.6,0.8c-1.2,1-1.3,2.6-1.4,4c0,0.3,0,0.7-0.1,1   c-0.3,2.5-1.8,4.7-3.9,5.9c-0.6,0.3-1.2,0.7-1.9,1c-3.6,2-7.4,4-9.7,7.6c-0.8,1.4-1.3,3-1.7,4.6c-0.6,2.3-1.2,4.4-3,5.7   c-0.3,0.2-0.7,0.4-1.1,0.6c-0.6,0.3-1.1,0.6-1.6,1c-0.7,0.6-1.2,1.4-1.6,2.2c-0.2,0.3-0.4,0.6-0.6,0.9c-0.7,1.1-1.6,1.7-2.4,1.6   c-0.6-0.1-1.1-0.5-1.7-0.9c-0.7-0.5-1.5-1.1-2.4-1.1c-0.1,0-0.3,0-0.4,0c-1.3-0.2-2.4,0.7-3.3,1.7c-1.8,1.9-2.2,4.8-2.5,6.8   c-0.2,1.8-0.3,3.6,0.7,5c0.2,0.3,0.5,0.5,0.7,0.8c0.3,0.2,0.5,0.5,0.7,0.8c0.7,1.1,0.1,2.8-0.5,4.3c-0.1,0.2-0.2,0.4-0.3,0.5   c-0.1,0-0.3,0-0.6-0.1c-0.5-0.2-1-0.5-1.6-0.8c-0.6-0.3-1.2-0.7-1.9-1c-0.5-0.2-1-0.3-1.6-0.3c-1.2,0-2.1,0.5-2.7,1.3   c-0.3,0.4-0.4,0.9-0.5,1.3c-0.1,0.3-0.1,0.5-0.2,0.8c-0.4,1-1.7,1.4-2.7,1.5c-0.6,0.1-1.3,0-2,0c-0.6,0-1.3-0.1-1.9,0   c-1.5,0.1-2.9,0.6-4.2,1c-0.4,0.1-0.8,0.3-1.2,0.4c-2.2,0.7-4.7,1.1-7.1,1.1c-1.1,0-2.3-0.1-3.3-0.2c-1.6-0.2-3.3,0.7-4.1,2.2   c-0.7,1.4-0.6,3.1,0.1,4.6c0.1,0.2,0.3,0.5,0.5,0.8c0.4,0.7,0.8,1.3,0.7,1.9c-0.1,0.8-1.2,1.2-1.9,1c-0.9-0.3-1.5-1.2-1.6-2.1   c0-0.2-0.1-0.5-0.1-0.7c0-0.4-0.1-0.8-0.2-1.2c-0.4-1.2-1.4-2.3-3.1-3.2c-2.9-1.6-6.2-2.2-9.4-2.8c-1.6-0.3-3.2-0.6-4.7-1   c-1-0.3-1.7-0.6-2.1-1.1c-0.1-0.1-0.2-0.3-0.3-0.4c-0.1-0.2-0.3-0.5-0.5-0.8c-0.5-0.5-1.1-0.8-1.6-1c-2.5-1-5.1-1.9-7.6-1.9   c-1.6,0-3,0.4-4.1,1.1c-0.6,0.3-1.1,0.7-1.6,1.1c-0.6,0.4-1.1,0.9-1.7,1.2c-0.5,0.2-1,0.4-1.5,0.6c-0.7,0.2-1.4,0.4-2,0.8   c-2.1,1.2-2.8,3.4-3.5,5.6c-0.4,1.2-0.8,2.4-1.4,3.3c-0.6,0.9-1.3,1.7-2.1,2.6c-0.9,0.9-1.8,1.9-2.5,3.1c-0.7,1.4-1.1,2.9-1.4,4.4   c-0.3,1.7-0.7,3.3-1.6,4.6c-0.9,1.3-2.4,2.1-3.9,2.9c-1,0.6-2.1,1.1-3,1.9c-2.8,2.2-4,5.9-3,9c0.9,2.7,3.6,4.7,6.3,4.7   c0.6,0,1.3-0.1,1.9-0.3c0.5-0.2,0.9-0.4,1.4-0.6c1-0.5,1.9-0.9,2.7-0.7c0.8,0.3,1.3,1.2,1.7,2.2l2.2,5c0.5,1.1,1,2.1,2.2,2.6   c0.3,0.1,0.7,0.2,1.1,0.2c0.3,0,0.7,0,1.1-0.1c2-0.5,3.7-2.2,4.1-4.3c0.1-0.6,0.1-1.1,0.2-1.6c0-0.6,0-1.2,0.2-1.7   c0.1-0.4,0.3-0.9,0.6-1.4c0.3-0.6,0.6-1.3,0.7-2.1c0.1-0.9-0.1-1.8-0.3-2.6c-0.4-1.6-1.1-3.1-1.9-4.5l-0.1-0.2   c-0.6-1-1.2-2.1-0.9-3.1c0.3-0.8,1.1-1.3,2.1-1.8c0.5-0.3,1.1-0.6,1.5-0.9c2.8-2.2,2.9-6.4,2.6-8.9c1-0.7,2.2-1.2,3.4-1.2   c0.8,0,1.6,0.2,2.3,0.5c0.1,0,0.3,0.1,0.4,0.2c0.1,0.1,0.1,0.4,0,0.5c-0.1,2.8-1.2,5.5-2.9,7.7c-0.2,0.2-0.3,0.4-0.5,0.6   c-1.1,1.3-2.3,2.8-2.1,4.6c0,0.6,0.2,1.2,0.6,1.8c1.3,2.3,3.8,3.8,6.5,3.8c0.5,0,0.9,0,1.4-0.1c0.8-0.2,1.6-0.5,2.3-0.7   c0.5-0.2,0.9-0.4,1.4-0.5c1.3-0.4,2.4-0.3,3.2,0.1c0.4,0.3,0.7,0.8,0.8,1.4c0,0.3,0,0.6-0.3,0.9c-0.4,0.3-1,0.4-1.6,0.5   c-1.4,0.1-3.2,0-4.8-0.1h-0.1c-0.4,0-0.7,0-1.1,0c-0.6,0-1.1,0.1-1.5,0.2c-1.1,0.3-1.9,1.2-2,2.1c-0.2,1.2,0.7,2.4,1.9,2.8   c0.1,0,0.1,0,0.2,0.1c0.2,0,0.3,0.1,0.4,0.2c0,0,0.1,0.1,0.1,0.2c0,0.3-0.2,0.6-0.3,0.7c-0.3,0.3-0.7,0.4-1,0.3   c-0.1,0-0.2-0.1-0.4-0.2c-0.2-0.1-0.5-0.2-0.8-0.3c-1.2-0.3-2.3,0.5-3.2,2.3c-0.4,0.7-0.8,1.6-0.9,2.5c-0.1,1.1,0.3,2.2,1.1,2.8   c0.4,0.3,0.9,0.5,1.3,0.6c0.2,0.1,0.5,0.2,0.7,0.3c0.2,0.1,0.4,0.4,0.5,0.6c0,0.1,0,0.1,0,0.1c-0.1,0.1-0.3,0.2-0.7,0.2   c-1.6,0-3.3-0.1-4.8-0.4c-0.2,0-0.4-0.1-0.6-0.1c-0.9-0.2-1.8-0.3-2.7-0.3c-0.7,0-1.3,0.1-1.9,0.3c-0.7,0.2-1.3,0.6-1.9,1   c-0.9,0.6-1.7,1.1-2.6,1c-0.4-0.1-0.8-0.3-1.3-0.6c-0.5-0.3-0.9-0.5-1.5-0.7c-0.5-0.1-1.3-0.1-2-0.1c-0.3,0-0.5,0-0.8,0   c-0.6,0-1-0.1-1.2-0.4c-0.5-0.5-0.4-1.2-0.2-2.3c0.2-1.1,0.4-2.4-0.4-3.4c-0.4-0.4-0.8-0.7-1.4-0.6c-0.3,0-0.6,0.2-0.8,0.3   c-1.5,1.1-2.1,3.1-1.5,4.8c0.2,0.6,0.5,1.1,0.9,1.7c0.5,0.8,1,1.6,0.8,2.3c-0.2,1-1.5,1.4-2.5,1.5c-0.3,0-0.7,0-1,0   c-1,0-2.1,0.1-3.1,0.6c-1,0.5-1.9,1.5-2.5,2.8c-0.1,0.1-0.1,0.3-0.2,0.4c-0.1,0.3-0.3,0.6-0.4,0.9c-0.3,0.5-0.8,0.9-1.3,1.3   c-0.3,0.2-0.5,0.4-0.8,0.7c-0.8,0.6-1.7,1.2-2.2,2.1c-0.9,1.5-2.6,2.2-3.6,2.4c-1,0.3-2.1,0.4-3.3,0.5c-0.5,0-1.1,0.1-1.6,0.2   c-0.8,0.1-1.7,0.3-2.3,0.8c-0.7,0.6-1.3,1.7-0.8,2.7c0.5,1,1.6,1.2,2.5,1.4c0.2,0,0.5,0.1,0.7,0.1c1.5,0.4,2.4,1.8,2.8,3   c0.5,1.5,0.5,3.1,0.5,4.6c0,0.4,0,0.7-0.2,0.9c-0.2,0.3-0.8,0.4-1.3,0.4c-2.1,0.1-4.2,0-6.3-0.2l-0.4,0c-1.1-0.1-2.3-0.2-3.3-0.1   c-1.5,0.2-2.8,1-3.4,2.1c-0.6,1.1-0.6,2.4-0.5,3.6c0,0.5,0.1,1,0,1.4c0,1.1-0.4,2.3-0.8,3.4c-0.5,1.5-1,3-0.8,4.6   c0,0.4,0.1,1,0.6,1.3c0.3,0.3,0.7,0.3,1.1,0.4c0.4,0,0.8,0.1,1.2,0.1c1.4,0.1,2.8,0.2,3.6,1c0.1,0.1,0.3,0.3,0.4,0.5   c0.3,0.4,0.6,0.8,1,1c0.4,0.2,0.8,0.4,1.4,0.4c0.4,0,0.8-0.1,1.2-0.2c0.3-0.1,0.6-0.2,0.9-0.3c0.2-0.1,0.3-0.1,0.5-0.2   c0.7-0.2,1.5-0.3,2.3-0.4c0.7-0.1,1.4-0.2,2.1-0.4c2-0.5,3.3-1.7,3.8-3.1c0.2-0.6,0.2-1.2,0.2-1.7c0-0.2,0-0.4,0-0.7   c0.1-2.2,1.7-4.3,3.8-5.2c0.1,0,0.3-0.1,0.4-0.1c0.5-0.2,1.2-0.4,1.6-0.9c0.9-0.9,0.9-2.2,0.9-3.3v-0.2c0-0.4,0.1-1.9,0.9-2.2   c0.5-0.2,1.1,0.1,1.7,0.5c0.7,0.4,1.5,0.8,2.3,0.7c0.8,0,1.5-0.5,2-0.8l3.5-2.4c1,0.7,1.8,1.8,2.6,3c0.7,1.1,1.5,2.1,2.5,3   c1.1,0.9,2.4,1.4,3.6,2c0.7,0.3,1.4,0.6,2.1,1c1.6,0.9,3.1,2.6,2.7,4.3c-0.1,0.2-0.2,0.5-0.3,0.8c-0.1,0.3-0.3,0.7-0.4,1.1   c-0.2,0.9,0.1,2,1,2.4c0.2,0.1,0.4,0.1,0.6,0.1c1,0,1.9-1.1,2.2-2.1c0.3-1.3,0.2-2.8-0.2-4c0.1,0,0.4,0,0.6,0l0.1,0   c0.3,0.1,0.7,0.2,1,0.2c0.4,0,0.8-0.1,1.1-0.3c0.4-0.3,0.6-0.8,0.5-1.3c0-0.1,0-0.2,0-0.3c-0.1-0.7-0.7-1.3-1.3-1.7   c-0.1-0.1-0.3-0.2-0.5-0.2c-0.6-0.3-1.2-0.6-1.3-1.1l0-0.3l-0.2-0.1c-0.7-0.4-1.5-0.6-2.2-0.8c-0.9-0.2-1.7-0.4-2.3-1   c-0.5-0.4-0.7-1.1-1-1.8c-0.4-1-0.8-2.1-1.9-2.6c-0.3-0.1-0.6-0.2-0.8-0.3c-0.2,0-0.4-0.1-0.6-0.2c-0.6-0.3-0.9-0.9-0.8-1.6   c0-0.1,0.1-0.2,0.1-0.2c0,0,0.2,0,0.3,0h0.1c0.1,0,0.3,0,0.5,0c0.1,0,0.3-0.1,0.4-0.1c0.1,0,0.2-0.1,0.3-0.1c0.1,0,0.4,0.2,0.6,0.4   c0.1,0.1,0.2,0.2,0.4,0.4c0.4,0.4,0.9,0.6,1.4,0.8c0.2,0.1,0.4,0.2,0.6,0.2c0.4,0.2,0.9,0.6,0.8,1l0,0.2l0.1,0.2   c0.7,0.9,1.7,1.4,2.8,1.9c1.1,0.5,2.2,1,3.2,1.6c0.5,0.3,1,0.6,1.2,1.1c0.1,0.1,0.1,0.3,0.2,0.5c0,0.2,0.1,0.4,0.2,0.6   c0.1,0.1,0.1,0.3,0.2,0.4c0.1,0.2,0.2,0.3,0.2,0.5c0,0.2-0.1,0.5-0.2,0.8c-0.1,0.4-0.3,0.9-0.2,1.4c0,0,0,0.1,0,0.1   c0.1,0.6,0.6,1.1,1,1.4l0.1,0.1c1.1,1.1,1.9,2.4,2.8,3.9c1,1.6,2,3.3,3.5,4.6c0.6,0.5,1.1,0.6,1.6,0.3c0.3-0.1,0.5-0.4,0.6-0.6   c0.3-0.6,0.4-1.2,0.4-1.9c0.5-0.1,1.1-0.2,1.6-0.6c0.8-0.5,1.2-1.7,0.7-2.6c-0.2-0.3-0.5-0.5-0.7-0.7l-0.1,0   c-0.7-0.5-1.4-1.2-1.9-2c-0.3-0.4-0.4-0.9-0.2-1.2c0.1-0.1,0.2-0.1,0.5-0.1c0.2,0,0.4,0,0.5,0c0.2,0,0.3,0,0.5,0h0.1   c0.7,0,1.5-0.2,2.1-0.6c0.2,0,0.3,0,0.5,0c1.1,0,2.1-0.3,2.9-0.6c0.8-0.3,1.4-0.7,2-1.1c0.3-0.2,0.6-0.5,0.8-0.9   c0.3-0.8-0.2-1.4-0.5-1.9c-0.1-0.1-0.2-0.3-0.3-0.4c-0.4-0.8,0-1.9,0.6-2.9l3.2-6.2c0.4-0.7,0.8-1.5,1.4-1.5h0.1   c0.4,0,0.8,0.3,1.3,0.6c0.4,0.2,0.8,0.5,1.3,0.7c0,0.1-0.1,0.2-0.2,0.3c-0.2,0.3-0.4,0.6-0.5,0.9c-0.2,0.5-0.1,1.1,0.1,1.6   c0.4,0.7,1.2,1.3,2,1.6c0.3,0.1,0.7,0.1,1.1,0.1c1.3,0,2.4-0.6,2.9-1.6l0.1-0.1c0-0.1,0.1-0.2,0.1-0.2c0,0,0,0,0.2-0.1   c0.6-0.2,1.2-0.2,1.7,0c0.1,0.1,0.3,0.2,0.4,0.3c0.2,0.1,0.3,0.2,0.5,0.4c0.4,0.2,0.8,0.3,1.2,0.4c0.1,0,0.2,0,0.3,0.1   c1,0.3,2.1,0.8,3,1.4c1.8,1,3.8,2.3,4.1,4.1c0.1,0.6,0,1.2-0.3,1.6c-0.4,0.6-1.3,0.7-1.7,0.7c-1.7,0.1-3.4-0.6-5.2-1.4   c-1.7-0.8-3.4-1.5-5.3-1.5c-0.3,0-0.7,0-1,0.1c-1.1,0.2-2.1,0.6-3,1.1c-1,0.5-2,0.9-2.9,1.6c-0.4,0.3-0.8,0.6-1.2,0.9   c-0.5,0.4-0.9,0.8-1.4,1.1c-0.5,0.3-1.3,0.7-2.1,0.7c-0.1,0-0.3,0-0.4,0l-0.1,0l-0.1,0c-0.6,0-1.3,0.3-1.7,0.7   c-0.4,0.4-0.9,0.8-1.3,1.3c-0.4,0.6-0.6,1.3-0.5,2l0,0.1c0.4,2.3,1.9,4.2,3.1,5.7c0.3,0.3,0.6,0.8,1.1,1.1c0.7,0.4,1.5,0.4,2.1,0.5   c0.2,0,0.5,0,0.7,0c0.6,0,1.4,0,2.1-0.5c0.3-0.2,0.5-0.4,0.8-0.6c0.3-0.3,0.7-0.5,1-0.5c0,0,0,0,0,0c0.2,0,0.4,0.1,0.6,0.3   c0.2,0.1,0.3,0.2,0.5,0.3c0.4,0.3,0.9,0.6,1.4,0.9c0.9,0.4,1.8,0.5,2.6,0.1c0.4-0.2,0.6-0.4,0.9-0.6c0.1-0.1,0.2-0.2,0.3-0.3   c0.7-0.6,1.8-0.7,2.6-0.4h0c0,0,0,0,0,0c0,0.5,0.1,1.2-0.1,1.6c0,0.1-0.1,0.1-0.1,0.2c-0.1,0.1-0.2,0.3-0.2,0.5   c-0.1,0.4-0.1,0.8-0.1,1.2c0,0.3,0,0.5,0,0.7c-0.3,0.7-0.4,1.5-0.5,2.2c-0.1,0.4-0.1,0.9-0.3,1.3c-0.1,0.5-0.4,1-0.6,1.5   c-0.5,0.9-0.9,1.7-1.6,2.1c-0.3,0.1-0.6,0.2-1,0.2c-0.6,0-1.3-0.2-1.8-0.3l-0.2-0.1c-0.8-0.3-1.6-0.5-2.5-0.5c-0.3,0-0.6,0-0.9,0.1   c-0.6,0.1-1.2,0.5-1.7,0.8c-0.6,0.4-1.2,0.7-1.8,0.7c-0.3,0-0.7-0.2-1.1-0.4c-0.2-0.1-0.4-0.2-0.6-0.3c-1-0.4-2-0.4-3-0.5   c-0.8,0-1.6-0.1-2.4-0.3c-0.4-0.1-0.8-0.3-1.2-0.5c-0.7-0.3-1.4-0.7-2.2-0.8l-0.2,0c-0.1,0-0.2,0-0.3,0c-0.1,0-0.2-0.2-0.4-0.3   l-0.1-0.1c-1.2-1.1-3-1.4-4.4-0.9c-1.5,0.6-2.6,2-2.8,3.6c0,0.3,0,0.7,0.1,1c0.1,0.2,0.2,0.3,0.3,0.4c0,0,0.1,0.1,0.1,0.2   c0,0,0,0.2-0.3,0.5c-0.4,0.4-0.9,0.7-1.5,0.9c-0.6-0.1-1.2-0.7-1.4-1.2L364,200l-0.2-0.1c-1.4-0.8-2.8-1.2-4.2-1.3h-0.1   c-0.2,0-0.5,0-0.6-0.1c-0.1-0.1-0.2-0.3-0.4-0.6c0-0.1-0.1-0.2-0.1-0.3c-0.6-1.4-2.2-2.3-4.3-2.7c-0.5-0.1-1.1-0.1-1.6-0.2   c-1-0.1-2-0.2-2.9-0.5c-0.6-0.2-1-0.5-1.2-0.8c-0.2-0.3-0.3-0.7-0.1-1c0.1-0.1,0.1-0.2,0.2-0.3c0.1-0.1,0.2-0.2,0.2-0.2   c0.6-0.6,0.8-1.5,0.7-2.5c-0.1-0.9-0.5-1.7-0.8-2.2c-0.3-0.6-0.8-1.3-1.5-1.8c-0.7-0.6-1.7-0.8-2.5-0.6c-0.3,0.1-0.6,0.2-0.9,0.3   c-0.4,0.2-0.7,0.3-0.9,0.2c-0.7-0.2-1.5-0.3-2.4-0.3c-2,0-4,0.5-5.9,1c-1.6,0.4-3.3,0.9-5,1c-0.2,0-0.4,0-0.6,0   c-1.3,0.1-2.6,0.1-3.7,0.8c-0.3,0.2-0.5,0.3-0.8,0.5c-0.2,0.1-0.3,0.2-0.5,0.3c-0.8,0.5-1.7,0.8-2.6,0.8l-0.1,0   c-0.4,0-0.8,0-1.3-0.1c-0.5,0-0.9-0.1-1.4-0.1c-0.4,0-0.7,0-1.1,0.1c-0.3,0.1-0.6,0.2-0.9,0.3c-0.8,0.4-1.3,1.1-1.9,1.7   c-0.4,0.5-0.8,1-1.3,1.3c-0.4,0.3-0.9,0.4-1.5,0.5c-0.6,0.2-1.3,0.4-1.9,0.7c-0.7,0.5-1.2,1.1-1.6,1.7l-1.2,1.6   c-0.4,0.5-0.8,1.1-1,1.9c-0.2,0.7-0.1,1.3,0,1.9c0.1,0.6,0.1,1.1,0,1.5c-0.2,0.6-0.7,1.1-1.2,1.5c-1.4,1.3-3,2.9-5,3.5l-0.3,0.1   l-0.1,0.3c-0.3,1.2-1.5,2.2-2.5,2.8c-0.1,0.1-0.3,0.2-0.5,0.3c-0.7,0.4-1.4,0.8-1.9,1.5c-0.5,0.6-0.7,1.4-0.8,2.1   c-0.2,1-0.4,2-0.5,3c-0.1,0.7-0.5,1.4-1,2c-0.2,0.3-0.4,0.6-0.5,0.9c-0.2,0.3-0.4,0.8-0.4,1.3c0,0.4,0.1,0.7,0.3,1   c0.9,2.1,2,6,0.3,9.4c-0.1,0.2-0.2,0.4-0.3,0.6c-0.2,0.3-0.4,0.6-0.5,1c-0.7,1.6-0.7,3.5-0.1,5.3c0.5,1.5,1.5,3,2.8,4.4l0.2,0.2   l0.2,0c1.1,0.1,2.2,0.8,3.3,2.1c0.6,0.7,1,1.6,1.5,2.5c0.3,0.5,0.5,0.9,0.8,1.4c1.8,2.9,4.3,5.3,7.2,6.9c0.9,0.5,2.1,1,3.4,1h0.1   c0.7,0,1.4-0.2,2-0.4c0.2-0.1,0.5-0.1,0.7-0.2c1.2-0.3,2.5-0.3,3.6-0.3c0.4,0,0.9,0,1.3,0c0.8,0,1.6,0,2.4,0.2   c0.3,0.1,0.6,0.2,0.9,0.3c0.6,0.2,1.1,0.4,1.8,0.5c1.7,0.1,3.2-0.9,4.5-1.9c0.3-0.2,0.7-0.5,1-0.7c1-0.6,2.6-1.4,4.3-1.3   c1.6,0.1,3,0.9,3.6,2.1c0.1,0.1,0.1,0.3,0.2,0.4c0.2,0.3,0.3,0.7,0.6,1c0.6,0.8,1.6,1.2,2.7,1.3c0.8,0,1.6-0.1,2.4-0.2   c0.5-0.1,1-0.2,1.6-0.2l0.1,0c0.9,0,2.1,0.3,2.5,1.2c0.1,0.4,0.1,0.9,0.1,1.3l-0.1,4.8c0,0-0.2,0.1-0.2,0.2c-0.1,0-0.1,0.1-0.2,0.1   c-1.1,0.9-1.7,1.9-1.7,2.9c0,0.7,0.2,1.3,0.4,1.8c0,0.1,0.1,0.2,0.1,0.4c0.2,0.6,0.2,1.1,0.1,1.4l-0.1,0.2l0.1,0.3   c0.3,1.1,1,1.9,1.8,2.4c0.4,0.2,0.9,0.4,1.3,0.5c0.4,0.1,0.7,0.3,1.1,0.5c1.2,0.6,2.2,1.6,2.8,2.9c0.9,1.9,1.1,3.9,1.3,6.1   c0.1,1,0.2,2.1,0.4,3.1c0.2,1.2,0.4,2.6,0,3.8c-0.3,0.8-0.8,1.4-1.4,2.2c-0.1,0.1-0.2,0.3-0.4,0.4c-2.2,2.8-3.2,5.9-3,8.7   c0.3,3,1.9,5.5,3.5,7.9c1.3,1.9,2.6,3.8,3.1,6c0.3,1.1,0.4,2.3,0.5,3.4c0.2,2.2,0.5,4.5,1.9,6.4c0.3,0.4,0.7,0.8,1,1.1   c0.2,0.2,0.4,0.4,0.6,0.6c1.6,1.7,2.5,4.1,2.4,6.5c0,0.6-0.1,1.2-0.2,1.9c-0.1,0.7-0.2,1.5-0.3,2.3c-0.1,1.9,0.6,3.4,1.8,4.3   c0.7,0.5,1.5,0.7,2.4,0.7c0.7,0,1.5-0.1,2.3-0.4c0.5-0.2,1-0.4,1.4-0.6c0.9-0.4,1.7-0.7,2.6-0.8c0.7-0.1,1.7,0,2.7,0   c1.1,0.1,2.4,0.1,3.3-0.1c1.6-0.4,2.9-1.4,4.2-2.4c3.1-2.5,6.1-5.3,8.9-8.2c1.3-1.3,2.7-2.9,3-4.9c0.1-0.6,0.1-1.3,0-1.9   c0-0.8-0.1-1.5,0.1-2.2c0.4-1.1,1.4-1.8,2.5-2.6c1.2-0.9,2.5-1.8,2.9-3.3c0.4-1.3,0-2.6-0.4-3.8c-0.2-0.8-0.5-1.6-0.5-2.4   c0-2.7,2.9-4.5,4.6-5.3c0.4-0.2,0.8-0.4,1.3-0.6c2.1-1,4.3-2,5.7-4c1.8-2.7,1.4-6.2,0.8-9.5l-1.5-8.5c-0.5-2.9-0.7-5.9,1-7.6   c0.8-0.8,1.5-1.8,2.2-2.7c0.8-1.1,1.5-2.1,2.5-2.9l6-5c3.2-2.7,6.6-5.5,9.2-8.9c2.1-2.7,4.6-7,4.7-12c0-0.5,0-1.1-0.4-1.5   c-0.2-0.3-0.7-0.7-1.5-0.7c-0.5,0-1.1,0.1-1.8,0.4c-2.6,1.1-5.4,1.9-8.2,2.2c-0.9,0.1-1.6,0.2-2.2,0.2c-1.2,0-2.1-0.2-3-0.5   c-2.2-1-3.6-3.2-4.9-5.6c-1.2-2.3-2.7-4.9-5-6.4c0-3.2-1.7-6.1-3.4-8.8c-0.7-1.2-1.5-2.5-2.1-3.7c-0.3-0.6-0.5-1.1-0.7-1.7   c-0.3-0.7-0.6-1.4-0.9-2.1c-0.5-0.9-1-1.8-1.6-2.7c-1.1-1.7-2.1-3.3-2.3-5.2c0-0.1-0.1-0.4,0-0.5c0,0,0.1-0.1,0.4-0.1   c0.2,0,0.6,0.1,0.9,0.2c1.1,0.6,2,1.6,2.5,2.7c1,2.2,2.5,4.2,3.9,6.1c1.1,1.5,2.3,3,3.2,4.6c0.4,0.8,0.8,1.6,1.1,2.4   c0.5,1.2,1.1,2.5,1.9,3.6c0.5,0.7,1,1.3,1.6,1.9c0.5,0.5,0.9,1,1.4,1.6c1.5,2,2.1,4.5,2.4,6.3l0,0.1c0.1,0.7,0.3,1.5,0.8,2.2   c1.1,1.5,3.3,1.6,6.3,0.4l9.8-4.1c2-0.8,4-1.7,5.8-3c0.5-0.4,0.9-0.7,1.4-1.1c3.4-2.5,6.9-5.1,9.2-8.9c0.6-0.9,1.1-1.9,0.9-3.1   c-0.2-1.5-1.3-2.7-3.4-3.6l-0.3-0.1c-1.2-0.5-2.5-1.1-3-2.1c-0.1-0.2-0.2-0.4-0.2-0.5c-0.2-0.6-0.5-1.2-1.1-1.6   c-0.3-0.2-0.7-0.3-1-0.3c-1.1,0-2.1,0.8-2.9,1.5c-0.9,0.7-1.9,1.3-3,1.6c-0.6,0.2-1,0.2-1.3,0.1c-0.3-0.1-0.5-0.4-0.7-0.6l-6.6-6.9   c-1-1.1-1.9-2-2.1-3.2c-0.1-0.6,0-1.4,0.4-1.9c0.2-0.2,0.5-0.5,0.9-0.6c0.9-0.1,1.8,0.8,2.6,1.7c1.4,1.5,2.8,3,4.4,4.3   c1.1,0.9,2.5,1.9,4.1,1.9c0.2,0,0.4,0,0.6,0c0.7-0.1,1.3-0.4,2-0.7c0.9-0.4,1.6-0.8,2.3-0.5c0.4,0.1,0.7,0.5,1,0.8l0.2,0.2   c2.5,2.7,6.2,3.5,8.9,3.7c1.7,0.1,3.9,0,5.8-0.1c1.2-0.1,2.4-0.1,3.6-0.1h0.1c0.7,0,1.6,0,2.3,0.4c0.4,0.2,0.8,0.5,1.3,0.9   c0.8,0.6,1.6,1.3,2.7,1.3c0.1,0,0.2,0,0.3,0c0.3,0,0.5,1.1,0.6,1.4l0,0.2c0.4,2.1,2,3.6,3.3,4.9c0.3,0.2,0.6,0.6,1.1,0.7   c0.2,0,0.3,0.1,0.5,0.1c0.7,0,1.3-0.4,1.8-0.8c0.4-0.3,0.8-0.5,1.1-0.5c0,0,0,0,0,0c0.4,0,0.7,0.5,0.7,0.9c0.1,0.4,0,0.9,0,1.4   c0,0.2,0,0.3,0,0.5c-0.2,2.9,1,5.5,2.2,8.1c0.8,1.7,1.6,3.5,2,5.3l0.1,0.4c0.1,0.7,0.2,1.4,0.7,2c0.3,0.5,0.8,0.9,1.2,1.2   c0.2,0.2,0.5,0.4,0.7,0.6c0.8,0.9,1,2.1,1.3,3.4c0.1,0.4,0.2,0.8,0.3,1.3c0.5,2,1.9,4.1,4,4c1-0.1,2-0.7,2.9-1.8   c2.1-2.5,2.9-6,2.2-9.1c0-0.2-0.1-0.4-0.1-0.6c-0.4-1.8-0.7-3.2,0.2-3.9c0.3-0.2,0.6-0.3,1-0.4c0.4-0.1,0.7-0.2,1.1-0.4   c0.9-0.5,1.4-1.3,1.9-2c0.4-0.6,0.8-1.2,1.3-1.5c0.2-0.1,0.4-0.2,0.7-0.3c0.2-0.1,0.4-0.2,0.5-0.3c1.2-0.6,2-1.7,2.7-2.7l4.2-5.6   c0.3-0.3,0.5-0.7,0.8-0.7c0.2,0,0.4,0,0.7,0c0.2,0,0.4,0.1,0.6,0.1c1.3,0.1,2.3-0.7,3.1-1.4l0.3-0.3c0.8-0.6,1.6-0.9,2.2-0.7   c0.5,0.2,0.7,0.7,1,1.5c0.1,0.3,0.2,0.6,0.3,0.8c0.4,0.9,1.1,1.7,1.7,2.4c0.3,0.4,0.6,0.7,0.8,1.1c1.1,1.5,1.7,3.2,1.9,5   c0,0.2,0,0.3,0,0.5c0.1,0.8,0.1,1.7,0.6,2.5c0.5,0.8,1.1,1.3,1.9,1.3c0.8,0,1.6-0.5,2.3-1c0.7-0.5,1.4-1,1.9-0.8   c0.5,0.2,0.8,0.8,1.1,1.5c0.4,0.8,0.8,1.8,1.1,2.7c0.1,0.3,0.2,0.6,0.3,0.8l0.4,1c0.5,1.4,1,2.8,1.1,4.3c0.1,0.9,0,1.9-0.1,2.8   l-0.5,4.7c0,0.2,0,0.4,0,0.6c0.2,0.5,0.6,0.8,0.9,0.9c1,0.5,2,1.3,2.7,2.3c0.9,1.2,1.4,2.7,2,4.2c0.5,1.4,1,2.9,1.9,4.2   c1.2,1.9,3.2,3.3,5.4,3.9c0.8,0.2,1.2,0,1.5-0.2c0.3-0.3,0.4-0.7,0.4-1.2c-0.1-0.8-0.6-1.4-1.1-1.9c-0.3-0.4-0.6-0.8-0.8-1.2   c-0.1-0.4-0.1-1,0-1.5c0-0.3,0.1-0.6,0.1-1c0-1.9-1.1-3.7-2.7-4.5c-1.3-0.6-2.6-1.9-3.8-3.8c-0.5-0.8-1.1-1.7-1.4-2.6   c-0.8-2.2-0.5-4.8-0.2-7.1c0.1-0.7,0.3-1.1,0.5-1.1c0.2,0,0.4,0.3,0.6,0.5c0.1,0.2,0.3,0.4,0.5,0.6c0.4,0.4,0.8,0.6,1.3,0.7l0.1,0   c0.7,0.3,1.5,0.7,2.1,1.2c1.4,1,2.5,2.2,3.1,3.5c0,0.1,0.1,0.2,0.1,0.3c0.2,0.5,0.4,1,0.8,1.4c0.6,0.7,1.8,0.9,2.4,0.4   c0.3-0.3,0.5-0.6,0.6-0.9c0-0.1,0.1-0.2,0.2-0.3c0.4-0.6,1.2-0.7,2.1-0.9l0.4-0.1c1.2-0.2,2.9-0.8,4-2.2c1.1-1.4,1.3-3.3,0.5-4.7   c-0.6-1-0.9-2.2-1.2-3.5c-0.4-1.8-0.8-3.6-2.1-4.9c-0.6-0.6-1.4-1.2-2.2-1.7c-1.3-0.8-2.5-1.6-2.8-2.9c-0.3-1,0.2-2.3,1.2-3.8   c0.6-0.9,1.6-1.9,2.7-1.7c0.4,0,0.7,0.2,1.1,0.4c0.6,0.3,1.3,0.6,2.1,0.5c0.5-0.1,0.9-0.3,1.3-0.4l3.6-1.9c1-0.5,2.1-1,3.2-1.4   c3-1.2,6-2.5,7.7-5.3c0.1-0.2,0.2-0.4,0.3-0.6c0.3-0.5,0.5-0.9,0.8-1.3c0.2-0.3,0.6-0.5,0.9-0.8c0.2-0.2,0.4-0.3,0.6-0.5   c2-1.9,2.7-4.7,3.3-7c0.3-1.2,0.6-2.6,0.6-3.9c0-3-1.4-5.8-2.6-8.2c-0.8-1.6-2-3.8-4-4.9c-0.1-0.1-0.2-0.1-0.4-0.2   c-0.3-0.2-0.6-0.3-0.8-0.5c-0.4-0.4-0.3-1.2,0-1.7c0.4-0.7,1.2-1.1,1.8-1.4l0.3-0.2c0.7-0.3,1.5-0.7,2.1-1.3   c0.4-0.5,0.7-1.3,0.6-1.9c0-0.5-0.3-1-0.7-1.3c-0.3-0.2-0.6-0.4-0.9-0.5c-1.4-0.4-2.9-0.3-4.2,0.1c-0.2,0.1-0.4,0.1-0.6,0.2   c-0.4,0.2-0.8,0.3-1.2,0.4c-0.4,0-0.9-0.1-1-0.5c-0.3-0.9-1-1.6-1.6-2.1c-0.4-0.4-0.6-0.8-0.5-0.9c0,0,0.2,0,0.3-0.1   c0.1,0,0.1,0,0.2,0c1-0.2,1.9-1,2.7-2.3c0.1-0.2,0.2-0.3,0.3-0.5c0.4-0.7,0.8-1.4,1.3-1.8c0.1-0.1,0.3-0.2,0.4-0.2c0,0,0,0,0.1,0.1   c0.1,0.3,0.1,0.7,0,1.2c-0.1,0.7-0.2,1.6,0.5,2.2c0.3,0.3,0.8,0.5,1.1,0.5c1.6,0.3,3.3,0,4.7-0.8c0.1-0.1,0.2-0.1,0.3-0.2   c0.4-0.2,0.7-0.5,1-0.5c0.5,0,0.9,0.5,0.9,1.1c0.1,0.5,0,1.1-0.1,1.7c0,0.2,0,0.3-0.1,0.5c0,0.3-0.1,0.6,0,0.9c0.3,1,1.4,1,2.1,1   c0.2,0,0.5,0,0.7,0c0.9,0.1,1.4,1.3,1.7,2.2c0.5,1.5,0.8,3.1,0.9,4.7c0,0.5,0.1,1.2,0.5,1.7c0.4,0.6,1.2,0.9,2.2,0.9   c0.3,0,0.7,0,1.2-0.1c0.3,0,0.7-0.1,1.1-0.4c0.4-0.3,0.7-0.8,0.8-1.1c0.3-0.5,0.5-1.1,0.8-1.8c0.3-0.8,0.4-1.7,0.3-2.6   c-0.1-0.8-0.4-1.6-0.7-2.2c-1-2.3-2.1-4.5-4.2-5.9c-0.1-0.1-0.2-0.1-0.4-0.2c-0.8-0.5-1.4-0.9-1.4-1.5c0-0.4,0.4-0.7,1.1-1.2   c0.6-0.4,1.2-0.8,1.6-1.4c0.5-1,0.3-2.1,0.1-3c-0.2-0.8-0.4-1.6,0-2.1c0.2-0.2,0.5-0.4,0.8-0.7c0.5-0.3,1-0.7,1.3-1.3   c0-0.1,0.1-0.2,0.1-0.3c0-0.1,0.1-0.2,0.1-0.3c0,0,0,0,0.2,0c0.2,0,0.5,0.1,0.8,0.2l0.2,0c0.4,0.1,0.8,0.2,1.2,0.2   c1.5,0,3-0.7,3.8-1.9c2.2-3.1,3.6-6.2,4.1-9.4c1.3-7.8,2.2-16.8-1.6-24.5c-0.2-0.5-0.5-1-0.7-1.4c-1.8-3.1-3.9-4.7-6.2-4.8   c-0.8,0-1.6,0.1-2.4,0.3c-0.5,0.1-0.9,0.2-1.4,0.2c-0.1,0-0.3,0-0.4,0c-1,0-1.9-0.4-2.2-1c-0.3-0.5-0.2-1.1-0.2-1.8   c0.3-4.9,1.3-9.8,2.8-14.4c0.3-0.8,0.5-1.5,1-2.1c0.7-0.7,1.7-1,2.7-1.3l8.6-2.7c0.6-0.2,1.2-0.4,1.8-0.3c0.4,0,0.8,0.2,1.2,0.4   c0.2,0.1,0.5,0.2,0.8,0.3c0.5,0.1,1,0.2,1.5,0.2c2,0,3.9-1.1,4.8-2.8c1-1.9,0.9-4,0.7-6.1c-0.2-1.9-0.3-3.8,0.5-5.3   c0.5-1,2-1.6,2.5-0.9c0.2,0.3,0.2,0.9,0.3,1.4c0,0.8,0.1,1.9,1,2.4c0.3,0.2,0.6,0.2,0.9,0.2c0.9,0,1.7-0.7,2.2-1.3   c0.1-0.2,0.2-0.3,0.4-0.5c0.4-0.5,0.7-1,1.2-1.2c0.7-0.3,1.7,0.4,2,1.3c0.3,0.9,0.1,1.9-0.2,3.2c-0.4,1.5-1,3.1-1.6,4.6   c-1.2,3.3-2.5,6.7-2.6,10.3c-0.1,1.5,0.1,2.8,0.4,3.9c0.4,1.2,1.1,2.3,1.8,3.3l11.3,17.3l0.5-0.5c1.5-1.3,1.3-3.5,1.2-5.1   c-0.2-3.4-0.1-6.9,0.4-10.3c0.4-2.9-0.1-6.3-1.6-10.1l-0.4-0.9c-1.1-2.7-2.2-5.5-2.3-8.3c0-2.9,1.6-6.3,4.5-7.1   c0.5-0.1,1.1-0.2,1.7-0.2c1.2-0.1,2.4-0.2,3.5-1c1.6-1.3,1.6-3.3,1.6-5.2c0-1.3,0-2.6,0.5-3.7c0.6-1.3,2.1-2.3,3.6-3.2   c2-1.3,4.1-2.6,4-5.1c0-1.1-0.6-2.1-1-2.7c-0.8-1.3-1.8-2.4-2.8-3.5c-1-1.2-2-2.3-2.8-3.5c-1.4-2.4-1.6-5.9,0.5-7.3   c0.7-0.5,1.7-0.7,2.7-0.9c1.2-0.3,2.4-0.5,3.4-1.3c1.8-1.5,2.2-4.2,1.3-7.8C648.1,35.4,647,32.3,644.3,30.7z"/>
	<path class="st1" d="M639.3,281.7c0.1-0.4-0.1-1-0.9-1.3c-1-0.3-2.1-0.8-3-1.2c-0.1-0.1-0.4-0.2-0.5-0.3c0-0.1-0.1-0.2-0.1-0.3   c0-0.1,0-0.2-0.1-0.3c-0.2-0.6-0.5-1-0.8-1.3c-1.4-1.6-3.4-2.5-5.4-2.5c-1.3-0.8-2.8-1.2-4.2-1.6c-0.7-0.2-1.5-0.4-2.2-0.6   c-0.5-0.2-1-0.4-1.5-0.6c-0.7-0.3-1.4-0.6-2.2-0.9c-0.3-0.1-0.7-0.2-1.2-0.2c0,0,0,0,0,0c-0.5,0-1,0.2-1.4,0.3   c-1.1,0.4-2.3,0.8-2.9,1.9c0,0.1-0.1,0.2-0.1,0.3c-0.1,0.1-0.1,0.2-0.2,0.3c-0.1,0.1-0.2,0.1-0.3,0.1c-0.1,0-0.3,0-0.4-0.1   c-0.4-0.2-0.8-0.7-1-1.3c-0.2-0.5-0.3-1.1-0.4-1.8l0-0.1c-0.1-0.4-0.3-1.8-1.4-2.2c-0.3-0.1-0.6-0.1-1-0.1   c-1.2,0.1-2.4,0.2-3.6,0.4c0,0-0.1,0-0.1,0c-0.1,0-0.1,0-0.2,0c-0.1,0-0.3,0-0.4,0c-0.5,0.1-1.2,0.2-1.7,0.6   c-0.2,0.2-0.4,0.4-0.6,0.6c-0.3,0.4-0.4,0.9-0.2,1.3c0.3,0.8,1.1,1.3,1.7,1.5c1,0.4,2.1,0.7,3.2,1c0.3,0.1,0.5,0.1,0.8,0.2   c0.3,0.1,0.6,0.2,0.7,0.3c0.2,0.2,0.2,0.5,0.3,0.9c0,0.3,0.1,0.6,0.2,1c0.5,1.3,1.9,1.8,3.3,2.2l3,0.8c1,0.3,2.2,0.6,2.9,1.3   c0.8,0.7,1.1,1.8,1.5,3c0.3,0.9,0.6,1.7,1,2.5c1.2,2,3.6,3.2,6.5,3.2c0.8,0,1.6-0.1,2.4-0.3c0.4-0.1,0.8-0.2,1-0.6   c0.4-0.5,0.3-1.1,0.3-1.6c0-0.1,0-0.2,0-0.4c0-0.4,0.2-0.7,0.5-0.9c0.5-0.4,1.4-0.2,2,0.3c0.6,0.5,1,1.3,1.5,2.1l0.1,0.2   c0.5,0.9,1.1,1.9,2.2,2.5c1,0.6,2.1,0.6,3.1,0.6c0.9,0,1.7,0.1,2.4,0.4c0.1,0.1,0.3,0.2,0.4,0.2c0.4,0.2,0.8,0.5,1.4,0.5   c0,0,0.1,0,0.1,0c0.6,0,1.1-0.3,1.4-0.8c0.2-0.4,0.3-0.8,0.1-1.2c-0.2-0.5-0.6-0.7-0.9-0.8c-2.6-1.4-4.7-3.6-6-6.3   c0.2-0.1,0.4-0.3,0.6-0.4C638.9,282.2,639.2,282,639.3,281.7z"/>
	<path class="st1" d="M638.6,314.4c-2.5-3-4.8-5.9-6-9.4c-0.4-1.2-0.7-2.5-1-3.8c-0.7-3.2-1.4-6.4-4-8.5c-0.3-0.3-0.9-0.6-1.5-0.6   c-0.2,0-0.5,0.1-0.7,0.2c-0.7,0.4-0.9,1.2-1,1.6l-2.4,11.2c-0.1,0.3-0.2,0.7-0.4,1.1c-0.1,0.3-0.3,0.6-0.6,0.7   c-0.2,0.1-0.4,0-0.7,0c-0.1,0-0.1,0-0.2,0c-0.1,0-0.2,0-0.2,0c-1.5-0.4-2.6-1.6-2.9-2.9l-0.1-0.3l-0.2-0.1   c-0.5-0.3-0.9-0.5-1.4-0.8c-0.4-0.3-0.9-0.5-1.3-0.8c-1.5-0.9-2.2-1.7-2-2.5c0.1-0.7,0.8-1.2,1.6-1.7l0.2-0.1c1.4-1,2-2.1,1.7-3.2   c-0.4-1.5-2.3-1.9-2.9-2c-1.4-0.3-2.9-0.5-4.4-0.7c-0.7-0.1-1.6-0.2-2.3-0.1c-1,0.1-2,0.6-3.1,1.4c-1,0.7-1.9,1.6-2.7,2.6   c-0.2,0.3-0.4,0.6-0.6,0.8c-0.4,0.6-0.9,1.2-1.4,1.7c-0.7,0.7-1.7,1-2.4,0.7c-0.2-0.1-0.4-0.2-0.7-0.3c-0.4-0.3-0.9-0.5-1.5-0.5   c-0.2,0-0.3,0-0.5,0.1c-3.3,0.9-6.4,2.9-8.6,5.5c-0.6,0.7-1.2,1.5-1.8,2.3c-1,1.4-2,2.7-3.3,3.7c-2,1.5-4.5,2.2-7,2.8   c-3.3,0.8-6.6,1.7-8.7,4.4c-2.6,3.3-2.2,7.9-1.7,12l0,0.4c0.6,6.2,0.4,10.8-0.7,14.9l-0.1,0.2c-0.3,0.9-0.6,2-0.3,3.1   c0.3,1.4,1.7,2.5,3.3,2.9c1.3,0.3,2.9,0.1,4.2-0.1l10.4-1.7c1.1-0.2,2.3-0.4,3.4-0.8c0.9-0.4,1.7-0.9,2.4-1.4   c0.2-0.2,0.4-0.3,0.7-0.5c2.8-1.8,6.1-3,9.4-3.4c0.4,0,0.9-0.1,1.3-0.1c1.3,0,3.7,0.3,4.6,2.1c0.3,0.6,0.4,1.4,0.4,2.3   c0.1,1,0.2,2.1,0.7,3c0.9,1.5,2.6,2.1,4.2,2.7c1.7,0.6,3.1,1.1,3.5,2.4c0.1,0.4,0.1,0.8,0.1,1.3c0,0.2,0,0.4,0,0.6   c0.1,2.9,2.1,5.8,5.2,7.2c1.9,0.9,4.1,1.3,6.9,1.3c0.6,0,1.2,0,1.9-0.1c2.1-0.1,4.8-0.4,7-1.7c0.5-0.3,1.1-0.7,1.5-1.3   c0.3-0.6,0.4-1.2,0.5-1.8l0-0.3c0.6-4,3.3-7.2,6.2-10.5c1.5-1.8,3.1-3.6,4.3-5.6c4.2-6.8,4.5-15.7,0.7-22.7   C642.2,318.8,640.4,316.6,638.6,314.4z"/>
	<path class="st1" d="M623.1,371.4c-0.6-0.1-1.3-0.1-1.9-0.2c-0.3,0-0.7,0-1,0c-1-0.1-2.1-0.4-3-1c-0.2-0.1-0.5-0.3-0.9-0.3   c-0.1,0-0.3,0-0.4,0.1c-0.4,0.2-0.6,0.5-0.6,0.7c-0.6,1.3-0.8,2.9-0.5,4.6c0.2,1.5,0.8,2.9,1.4,4.3c0.2,0.5,0.4,1.1,0.9,1.6   c0.5,0.6,1.3,0.9,2.2,0.9c0.4,0,0.8-0.1,1.2-0.2c0.7-0.3,1.3-1,1.7-1.5c1-1.2,2-2.4,2.9-3.8c0.5-0.8,1.1-1.9,0.8-3.1   C625.4,372.3,624.1,371.6,623.1,371.4z"/>
	<path class="st1" d="M617,152.9l-0.7-1.1c-0.1-0.1-0.2-0.3-0.5-0.4c-0.2-0.1-0.5-0.1-0.7-0.1c0,0-0.1,0-0.1,0c-0.3,0-0.5,0-0.7,0.1   c-0.6,0.3-1.4,0.3-2.2,0.1c-0.7-0.2-1.3-0.6-2-1.3c-0.1-0.1-0.2-0.2-0.3-0.3c-0.5-0.5-1-1-1.8-1.3c-0.6-0.2-1.1-0.1-1.5,0.2   c-0.2,0.2-0.4,0.5-0.5,0.8c-0.2,0.9,0.1,1.7,0.5,2.4c0.2,0.5,0.4,1,0.4,1.4c0,0.3-0.1,0.6-0.3,1.1c-0.3,0.5-0.6,1-1,1.4l-0.2,0.2   c-0.3,0.4-0.8,0.8-0.9,1.4c-0.1,0.4,0,0.7,0,1l0.2,1.2c0,0.4,0.1,0.9,0.4,1.4c0.3,0.6,0.9,0.9,1.5,0.9h0.1c0.6,0,1-0.3,1.3-0.5   l1.6-1.2c0.2-0.2,0.7-0.5,0.7-1.1c0-0.6-0.4-0.9-0.8-1.1c0.5,0,1.1,0.1,1.6,0.3c0.1,0,0.2,0.1,0.3,0.2c0.2,0.2,0.5,0.3,0.9,0.5   c0.6,0.2,1.4,0,2-0.4c0.5-0.3,0.9-0.8,1.2-1.2l1.4-1.6c0.3-0.3,0.4-0.7,0.4-1c0.1-0.3,0.2-0.7,0.1-1.2   C617.3,153.3,617.2,153.1,617,152.9z"/>
	<path class="st1" d="M594.8,181.7c-0.3,0.2-0.9,0.5-1.2,1c0,0.1-0.1,0.2-0.1,0.2c-0.1,0.3-0.1,0.7,0,0.9c0.1,0.5,0.2,1,0.4,1.5   c0.1,0.1,0.2,0.5,0.5,0.7c0.3,0.2,0.8,0.1,1.1,0l4.7-1.9c0.4-0.1,0.8-0.3,1.1-0.3c0.6,0,1.1,0.5,1.2,1c0,0.1,0,0.2,0,0.4   c0,0.4,0,1.1,0.5,1.5c0.2,0.2,0.6,0.3,0.9,0.3c0.5,0,1-0.2,1.4-0.6c0.3-0.3,0.5-0.7,0.6-1c0.1-0.1,0.1-0.3,0.2-0.4   c0.3-0.5,0.7-0.9,1.3-1.2c0.7-0.4,1.6-0.6,2.4-0.4l0.1,0c0.3,0.1,0.8,0.1,1.2,0c0.3-0.1,0.5-0.3,0.7-0.4c0.6-0.5,1.2-1,1.7-1.5   c0.2-0.2,0.5-0.5,0.7-1c0.2-0.7-0.1-1.3-0.3-1.8l-0.1-0.1c-0.4-0.9-0.6-2-0.8-3l-0.5-2.8c0-0.1,0-0.2,0-0.3c0,0,0.1-0.1,0.2-0.2   c0.3-0.1,0.7-0.4,0.8-0.8c0.1-0.2,0-0.4,0-0.6c-0.1-1.7-0.3-3.5-1.2-5.2c-0.3-0.6-0.7-1.1-1-1.6c-0.3-0.5-0.9-1.2-1.7-1.4   c-0.1,0-0.3,0-0.5,0c-0.5,0-1,0.2-1.4,0.3c-0.1,0-0.3,0.1-0.4,0.2c-0.3,0.1-0.5,0.4-0.6,0.8c-0.1,0.4,0,0.8,0,1.1   c0,0.1,0,0.2,0,0.4c0.1,0.5,0.2,1.1,0.5,1.6c0.8,1.3,1,3,0.5,4.5c0,0.1-0.1,0.2-0.1,0.3c-0.1,0.3-0.3,0.7-0.3,1.2   c0,0.2,0,0.3,0,0.5c0,0.1,0,0.2,0,0.3c0,0.5-0.3,0.9-0.6,1.1c-0.1,0.1-0.3,0.1-0.5,0.1c-0.2,0-0.4-0.1-0.6-0.2l-0.1-0.1   c-0.2-0.2-0.5-0.5-1-0.5h-0.1c-0.2,0-0.4,0.1-0.6,0.3c-0.7,0.5-0.9,1.4-0.8,2.7l0,0.4c0.1,0.6,0.1,1.2-0.1,1.6   c-0.4,0.9-1.6,1.1-1.9,1.1c-0.9,0.1-2,0-3,0.1C597,180.6,595.8,181.2,594.8,181.7z"/>
	<path class="st1" d="M608.5,138.5c0.2-0.1,0.4-0.3,0.5-0.6c0.4-0.7,0.1-1.5,0-1.9c-2.3-5.9-5.1-11.6-8.3-17   c-0.2-0.3-0.4-0.6-0.7-0.9c-0.2-0.2-0.3-0.4-0.4-0.5c-0.3-0.5-0.8-1-1.4-1.3c-0.2-0.1-0.5-0.1-0.7-0.1c-0.6,0-1.2,0.3-1.5,0.8   c-0.2,0.4-0.2,0.8-0.2,1.1c0.1,1.4,0.9,2.5,1.6,3.6l0.3,0.4c0.1,0.1,0.2,0.3,0.2,0.4c0.8,1.4,1.4,2.9,2,4.4   c0.2,0.6,0.5,1.3,0.8,1.9c2.2,5.1,3.4,10.6,3.6,16.2c0,0.8,0.1,2.3,1.2,3l0.6,0.3l0.3-0.6c0.2-0.3,0.7-0.5,1.3-0.6   c0.7-0.2,1.6-0.4,2.1-1.2c0.5-0.9,0.1-2-0.4-2.7c-0.2-0.3-0.4-0.5-0.7-0.7c-0.3-0.3-0.5-0.5-0.7-0.8   C607.4,140.6,607.6,139.3,608.5,138.5L608.5,138.5z"/>
	<path class="st1" d="M600.9,189.6c0.5-0.2,0.8-0.5,0.9-0.9c0.1-0.2,0.1-0.4,0.1-0.6c0-0.4,0-0.9-0.1-1.3c-0.2-0.4-0.4-0.7-0.7-1   c-0.2-0.2-0.6-0.7-1.2-0.7c-0.2,0-0.4,0-0.5,0.1c-0.8,0.2-1.5,0.6-2.2,1.1l-0.1,0c-0.2,0.1-0.5,0.3-0.6,0.8c0,0.3,0,0.5,0.1,0.7   c0,0.1,0.1,0.3,0.2,0.5c0,0.1,0.1,0.3,0.1,0.4c0,0.2,0,0.5,0.2,0.8c0.2,0.4,0.5,0.7,0.9,0.8c0.1,0,0.1,0,0.2,0c0.1,0,0.2,0,0.4,0   l1.3-0.3C600.2,189.8,600.6,189.7,600.9,189.6z"/>
	<path class="st1" d="M598.7,266.9c0.5-0.4,0.8-0.9,0.8-1.5c0-0.7-0.4-1.4-1.1-1.5c-0.1-0.1-0.2-0.2-0.2-0.4l0-0.1   c-0.1-0.3-0.2-0.6-0.5-0.9c-0.5-0.5-1.5-0.4-2,0.1c-0.7,0.7-1.1,1.8-1.1,2.8c0,0.5,0.1,1,0.2,1.5c0,0.2,0.1,0.3,0.1,0.5l0,0.3   c0.2,0.8,0.4,1.8,1.2,2.4c0.2,0.2,0.5,0.2,0.7,0.2c0.1,0,0.2,0,0.4-0.1c0.2-0.1,0.9-0.4,0.6-1.6l-0.2-1l0.1,0   C598,267.3,598.4,267.2,598.7,266.9z"/>
	<path class="st1" d="M591.1,189.2c0,0.1,0,0.3,0,0.4c0,0.3-0.1,0.6,0,0.9c0.1,0.3,0.4,0.8,0.8,0.9c0.5,0.1,0.7,0.7,0.8,1   c0.1,0.2,0.2,0.5,0.2,0.8c0.1,0.3,0.2,0.7,0.3,1c0.1,0.4,0.3,0.7,0.6,1c0.1,0.1,0.3,0.3,0.5,0.5c0.2,0.1,0.5,0.2,0.8,0.2   c0.1,0,0.3,0,0.5-0.1c0.8-0.2,1.5-1,1.7-1.9c0.2-0.9,0-1.7-0.1-2.3c-0.1-0.3-0.1-0.5-0.2-0.8c-0.1-0.4-0.2-0.7-0.3-1.1   c0-0.1,0-0.2-0.1-0.3c-0.1-0.6-0.2-1.3-0.8-1.8c-0.3-0.3-0.7-0.5-1.3-0.6c-0.8-0.2-1.5-0.1-2.1,0.2   C591.5,187.6,591,188.4,591.1,189.2z"/>
	<path class="st1" d="M595.2,274.5c-0.1-0.1-0.2-0.3-0.4-0.4c-0.4-0.3-1-0.5-1.6-0.4c-0.2,0-0.4,0.1-0.6,0.2   c-0.2,0.1-0.3,0.1-0.4,0.1c-0.4,0-0.7,0.3-0.9,0.5c0,0-0.1,0.1-0.1,0.1c-0.3,0.2-0.5,0.6-0.5,1c0,0.3,0.2,0.5,0.3,0.7   c0.1,0.1,0.2,0.3,0.4,0.4c0.3,0.2,0.6,0.2,0.8,0.3c0.3,0,0.7,0,1,0h0c0.4,0,0.8,0,1.3-0.2c0.2-0.1,0.3-0.2,0.5-0.3   c0.2-0.2,0.4-0.5,0.4-0.7c0-0.1,0.1-0.3,0.1-0.6C595.6,274.9,595.3,274.6,595.2,274.5z"/>
	<path class="st1" d="M586.7,291.2h0.1c0.5,0,1.1,0,1.7-0.3c0.3-0.1,0.6-0.3,0.8-0.5c0.1-0.1,0.2-0.1,0.3-0.2c0.5-0.3,1-0.5,1.5-0.7   c0.9-0.3,1.8-0.6,2.7-0.9c0.3-0.1,0.7-0.2,1.1-0.5c0.5-0.4,0.7-1,0.5-1.5l-0.1-0.2l-0.1-0.1c-0.6-0.4-1.3-0.6-2-0.5   c-0.9,0-1.9,0.2-2.7,0.4c-1.2,0.3-2.4,0.8-3.5,1.3c-0.4,0.2-0.8,0.4-1.2,0.7c-0.5,0.4-0.7,0.9-0.8,1.5c0,0.4,0.1,0.7,0.2,1   C585.7,291.2,586.4,291.2,586.7,291.2z"/>
	<path class="st1" d="M585.5,248.5c-1.2,0.5-2.1,1.5-2.7,2.6c-0.2,0.4-0.4,0.9-0.3,1.6c0.1,0.8,0.9,1.3,1.6,1.2   c0.6-0.1,0.9-0.7,1.1-1.1c0.1-0.1,0.1-0.2,0.2-0.3c0.2-0.4,0.8-0.6,1.7-0.6c0.1,0,0.2,0,0.2,0c0,0.1,0,0.3,0,0.5c0,0.2,0,0.3,0,0.5   c0,0.7,0.4,1.4,1,1.9c0.5,0.4,1.1,0.7,1.6,0.9c0.2,0.1,0.5,0.2,0.9,0.2c0.1,0,0.2,0,0.2,0c0.7-0.1,1-0.8,1.3-1.3   c0.1-0.1,0.1-0.2,0.2-0.3c0.1-0.3,0.4-0.5,0.7-0.7c0.3-0.2,0.5-0.5,0.8-0.8c0.9-1.2,0.8-2.7,0.6-4.1c-0.2-1.2-1-2.4-2.2-3   c-0.2-0.1-0.5-0.2-0.8-0.2c-0.4,0-0.8,0.2-1,0.6c-0.3,0.6-1,1.1-2,1.5c-0.3,0.1-0.7,0.2-1,0.3C586.8,248,586.1,248.2,585.5,248.5z"/>
	<path class="st1" d="M588.2,241.3c0,0.6,0.3,1,0.6,1.3l0.3,0.4c0.2,0.3,0.4,0.6,0.7,0.8c0.2,0.2,0.5,0.3,0.8,0.3h0   c0.3,0,0.6-0.1,0.7-0.2c0,0,0.1-0.1,0.2-0.1c0.2,0,0.6-0.1,0.8-0.8c0.1-0.3,0-0.6,0-0.7c-0.1-0.4-0.2-0.8-0.5-1.3   c-0.1-0.2-0.2-0.4-0.4-0.6c-0.4-0.6-1.2-0.9-1.9-0.8C588.8,239.8,588.2,240.5,588.2,241.3z"/>
	<path class="st1" d="M581.2,276.4c0.1,0.2,0.2,0.4,0.3,0.6c0.1,0.2,0.2,0.5,0.3,0.7c0.2,0.4,0.4,0.8,0.7,1.1   c0.2,0.2,0.3,0.3,0.4,0.4c0.1,0.1,0.2,0.2,0.3,0.3c0.4,0.5,1.1,0.8,1.8,0.8c0.5,0,1.1-0.2,1.5-0.5c0.9-0.6,1.3-1.8,1.1-3   c-0.2-0.9-0.8-1.8-1.7-2.5c-0.1-0.1-0.3-0.2-0.4-0.3c-0.2-0.1-0.4-0.3-0.6-0.5c-0.2-0.2-0.4-0.5-0.4-0.7c0-0.4,0.4-0.7,0.7-0.8   c0.2-0.1,0.5-0.2,0.7-0.3c0.3-0.1,0.7-0.2,1-0.4c0.9-0.5,1.4-1.3,1.3-2.1c0-0.4-0.2-0.7-0.5-0.9c-0.3-0.2-0.7-0.4-1.2-0.3   c-1.1,0.1-2.2,0.5-3.1,1c-0.3,0.2-0.6,0.3-1,0.4c-0.3,0.1-0.5,0.2-0.8,0.2c-0.2,0-0.3-0.1-0.4-0.1c-0.1-0.1-0.1-0.2,0-0.4   c0.2-0.9,1.1-1.4,2-1.6c0.7-0.1,1.4-0.1,2.1-0.1c0.4,0,0.9,0,1.3,0c0.5,0,1-0.1,1.5-0.5c0.5-0.4,0.9-1.2,0.5-1.9   c-0.4-0.7-1.3-0.8-1.6-0.8c-2.2-0.2-4.3,0.3-6.3,0.7c-0.6,0.1-1.2,0.3-1.8,0.7c-0.8,0.6-1.3,1.6-1.3,3c0,0.3,0,0.5,0,0.8   c0,0.7,0,1.3-0.2,1.9c-0.1,0.3-0.3,0.6-0.5,1c-0.2,0.3-0.4,0.7-0.5,1c-0.3,0.8-0.4,2.1,0.5,2.8c0.2,0.2,0.5,0.3,0.7,0.4   c0.2,0.1,0.4,0.2,0.5,0.3c0.1,0.2,0,0.5-0.1,0.8c0,0.1-0.1,0.2-0.1,0.3c-0.2,0.8-0.1,1.6,0.3,2.2c0.3,0.4,0.9,0.7,1.4,0.7   c0.4,0,0.8-0.1,1-0.4c0.6-0.6,0.5-1.4,0.5-1.9l-0.1-1.3C581.1,277,581,276.6,581.2,276.4C581.2,276.4,581.2,276.4,581.2,276.4z"/>
	<path class="st1" d="M583.5,230.7c0.1-0.2,0.3-0.5,0.3-0.9c0-0.3,0-0.5,0-0.7c0-0.1,0-0.1,0-0.2c0-0.1,0-0.3,0-0.4   c0-0.6,0-1.4-0.7-1.9c-0.4-0.3-0.8-0.3-1.1-0.4l-0.2,0c-0.2,0-0.3-0.1-0.3-0.1l-0.1-0.2l-0.2-0.1c0,0,0,0,0,0   c-0.1-0.1-0.2-0.2-0.3-0.3c-0.2-0.2-0.6-0.2-0.9-0.1c-0.4,0.1-0.7,0.5-0.9,0.8c-0.1,0.1-0.2,0.3-0.3,0.3c-0.5,0.3-0.8,1-0.8,1.8   c0,0.1,0,0.3,0,0.4c0,0.3,0,0.6,0,0.8c0,0.2-0.2,0.4-0.3,0.6c-0.1,0.1-0.1,0.2-0.2,0.4c-0.5,1.1-0.6,2.4-0.1,3.7   c0.3,1,1,1.9,1.9,2.9c0.3,0.3,0.6,0.6,1,0.8c0.4,0.2,0.9,0.2,1.2,0.2c0.2,0,0.3,0,0.5,0l0.1,0c0.1,0,0.3,0,0.4,0   c1.3,0,2.2,0.3,2.7,0.9c0.1,0.1,0.1,0.2,0.2,0.3c0.2,0.3,0.4,0.6,0.7,0.9c0.2,0.2,0.5,0.3,0.9,0.3c0.6,0,1.1-0.4,1.2-0.9   c0-0.2,0-0.5,0-0.6c-0.3-1.1-1-3-2.8-3.5c-0.4-0.1-0.8-0.1-1.2-0.2c-0.5,0-1-0.1-1.3-0.3c-0.3-0.3-0.3-0.8-0.3-1.1   C582.5,232.6,583,231.6,583.5,230.7z"/>
	<path class="st1" d="M587.2,243.2c0-0.4-0.2-0.8-0.3-1.1c-0.1-0.2-0.2-0.6-0.4-0.8c-0.2-0.2-0.4-0.3-0.6-0.4   c-0.5-0.3-1.2-0.7-2-0.8c-0.1,0-0.2,0-0.3-0.1c-0.1-0.1-0.3-0.2-0.6-0.2c-0.3,0-0.6,0-0.8,0.1c-0.3,0.2-0.5,0.6-0.4,1   c0,0.2,0.1,0.4,0.2,0.5c0.1,0.1,0.1,0.4,0.1,0.6l0.1,0.9c0,0.3,0.1,0.8,0.3,1.2c0.1,0.2,0.2,0.3,0.3,0.4c0.1,0,0.2,0.1,0.2,0.2   c0,0,0,0.1,0,0.2c0,0.1,0,0.1,0,0.2c0.1,0.5,0.3,1,0.8,1.5c0.4,0.4,0.8,0.6,1.2,0.8c0.2,0.1,0.4,0.2,0.7,0.2c0.1,0,0.2,0,0.2,0   c0.3,0,0.5-0.1,0.7-0.2c0.3-0.2,0.5-0.7,0.4-1.1c0-0.1,0-0.3-0.1-0.5c0-0.1,0-0.1,0-0.2c-0.1-0.3,0-0.6,0.1-1   C587.2,244.1,587.3,243.7,587.2,243.2z"/>
	<path class="st1" d="M581.1,211.7c0-0.6,0-1.4-0.2-1.9c-0.3-0.9-0.9-1.6-1.8-1.8l-0.3-0.1l-0.2,0.2c-0.3,0.3-0.5,0.6-0.8,0.9   c-0.1,0.1-0.2,0.2-0.2,0.3c-1.2,1.6-1.9,3.6-1.9,5.7c0,0.4,0,0.9,0.4,1.4c0.1,0.2,0.3,0.3,0.5,0.4c0.1,0,0.1,0.1,0.2,0.1   c0.1,0.1,0.1,0.4,0.2,0.7c0,0.3,0,0.7,0.2,1.1c0.3,0.7,1,1.2,1.8,1.2c0.2,0,0.3,0,0.5-0.1l0.4-0.1l0.3-2.5c0-0.2,0-0.4,0.1-0.6   c0-0.1,0.1-0.3,0.2-0.4c0.1-0.1,0.1-0.2,0.2-0.3c0.6-1.2,0.6-2.5,0.5-3.6C581.1,212.1,581.1,211.9,581.1,211.7z"/>
	<path class="st1" d="M555.9,265.2c-0.2,0.5-0.4,1.4-0.1,2.2c0.1,0.3,0.4,0.6,0.6,0.8l0.1,0.1c1.1,1.2,1.7,2.7,1.9,4.3l0,0.1   c0,0.5,0.1,1.1,0.5,1.5c0.5,0.6,1.2,0.7,1.8,0.8c0.3,0,0.5,0.1,0.7,0.1c0.2,0.1,0.4,0.2,0.7,0.4c0.3,0.2,0.7,0.4,1.1,0.6   c0.4,0.1,0.9,0.1,1.4,0.1c0.2,0,0.3,0,0.5,0h0.1c0.5,0,1.1,0.2,1.7,0.4c0.7,0.2,1.4,0.5,2.1,0.5c0.2,0,0.5,0,0.7-0.1   c0.8-0.2,1.6-0.7,2.1-1.6c0.5-0.7,0.7-1.4,1-2.2l1.2-3.3c0.2-0.6,0.5-1.3,0.8-1.9c0.2-0.3,0.4-0.6,0.6-0.9c0.6-0.7,1.2-1.5,1.3-2.6   c0.1-1-0.4-1.9-0.8-2.7c-0.4-0.8-0.8-1.5-0.6-2.2c0.1-0.5,0.6-0.9,1.1-1.3c0.5-0.4,1.2-1,1.4-1.9c0.2-0.6,0.1-1.2-0.2-1.7   c-0.3-0.4-0.6-0.7-1.1-0.7c-0.3,0-0.6-0.4-0.9-0.7l-0.2-0.2c-0.3-0.3-0.6-0.7-1-0.9c-0.2-0.2-0.7-0.4-1.3-0.4   c-0.3,0-0.6,0.1-0.9,0.3c-0.8,0.6-1.4,1.5-2,2.3c-0.5,0.7-1,1.4-1.6,1.9c-0.3,0.2-0.6,0.5-1,0.7c-0.5,0.3-1,0.6-1.4,1   c-0.4,0.4-0.7,0.8-1,1.2c-0.3,0.5-0.7,1-1.1,1.3c-0.2,0.1-0.4,0.2-0.6,0.4c-0.2,0.1-0.5,0.3-0.8,0.5c-0.4,0.3-0.8,0.7-1.1,1.1   c-0.1,0.2-0.3,0.3-0.5,0.5c-0.5,0.5-0.9,0.7-1.3,0.7c-0.2,0-0.4-0.1-0.7-0.2c-0.4-0.2-1-0.4-1.5-0.3   C556.5,263.4,556.1,264.7,555.9,265.2z"/>
	<path class="st1" d="M571.8,288h0.1c0.5,0,0.9-0.1,1.4-0.2c0.4-0.1,0.8-0.2,1.2-0.2c0.2,0,0.3,0,0.5,0c0.4,0,0.7,0.1,1.1,0   c0.5-0.1,0.9-0.3,1.2-0.7c0.2-0.3,0.3-0.6,0.2-1c-0.1-0.6-0.6-1-1.3-1.2c-0.4-0.1-0.8-0.2-1.4-0.2c-0.4,0-0.7,0-1.1,0.1   c-0.2,0-0.4,0-0.6,0c-2,0.1-4-0.4-5.7-1.3c-0.3-0.1-0.5-0.3-0.8-0.5c-0.3-0.2-0.6-0.4-0.9-0.5c-1.4-0.8-3-1.2-4.6-1.3   c-0.6,0-1.2,0-1.8,0c-0.2,0-0.5,0-0.7,0c-1.2,0-2.1-0.1-3-0.5c-0.5-0.2-1.1-0.3-1.5-0.3c-0.2,0-0.4,0-0.7,0c-0.2,0-0.4,0-0.5,0   c-0.6,0-1.2,0-1.8,0.2c0,0-0.1,0-0.1,0c-0.1,0-0.2,0-0.3,0.1c-0.4,0.1-0.8,0.5-1,0.9c-0.2,0.5-0.2,1.1,0,1.7   c0.3,0.8,1.1,1.3,2.1,1.6c0.6,0.1,1.1,0.1,1.7,0.2c0.2,0,0.3,0,0.5,0c0.8,0,1.5,0.1,2.4,0.3c4.7,0.8,9.4,1.7,14,2.7   C570.7,287.9,571.3,288,571.8,288z"/>
	<path class="st1" d="M558.9,225.7c0.2-0.3,0.3-0.7,0.4-1.1c0.1-0.9-0.5-1.8-1.4-2.1c-0.7-0.3-1.6-0.2-2.3,0.2   c-0.7,0.4-1.2,1-1.5,1.4c-0.2,0.2-0.4,0.5-0.5,0.8c-0.3,0.8,0.1,1.7,0.8,2.3c0.5,0.4,1.2,0.6,1.9,0.6h0.2c0.9,0,1.9-0.4,2.1-1.5   C558.6,226.1,558.8,225.9,558.9,225.7z"/>
	<path class="st1" d="M550.6,277.6c0.3-1.1,0.3-2.4-0.1-3.5c-0.7-2.1-2.4-3.7-3.7-5c-0.8-0.8-1.6-1.6-2.6-2.2   c-0.4-0.3-0.9-0.6-1.4-0.8c-0.7-0.4-1.3-0.8-1.9-1.2c-1.1-0.9-1.9-2.2-2.6-3.5L538,261c-1.7-2.8-3.6-5.5-6.6-7   c-0.5-0.3-1.3-0.6-2.1-0.7c-0.8-0.1-1.7,0.1-2.3,0.5c-0.8,0.5-1.2,1.3-1.2,2.2c0,0.8,0.6,1.5,1.6,1.9c1.8,0.7,3.5,1.9,4.7,3.4   c0.8,1,1.4,2.1,1.9,2.9c0.7,1.4,1.4,2.8,2.1,4.2c1.6,3.3,3.2,6.7,5.7,9.4c0.7,0.8,1.9,2,3.4,2.5c0.4,0.1,0.9,0.2,1.4,0.2   c1.2,0,2.2-0.5,2.9-1.2C550.1,278.9,550.4,278.3,550.6,277.6z"/>
	<path class="st1" d="M530.3,27c0.4,0.4,0.8,0.9,1.5,1.1c0.2,0.1,0.5,0.1,0.8,0.1c0.4,0,0.8-0.1,1.2-0.2c0.7-0.3,1.4-0.7,2-1.3   c0.2-0.3,0.4-0.5,0.6-0.8c0.3-0.5,0.7-0.9,1.1-1.2c0.4-0.2,0.9-0.2,1.5-0.3c0.6,0,1.1-0.1,1.7-0.3c1.3-0.5,2.1-1.9,2-3.3   c-0.1-1.2-0.3-2.3-0.8-3.3c-0.3-0.6-0.8-1-1.5-1L530,15.8c-0.2,0-0.5,0-0.7,0c-0.5,0-2.2,0-2.9,1.3c-0.3,0.5-0.3,1.1-0.3,1.6   c0,0.3,0,0.6-0.1,0.9c0,0.1-0.1,0.2-0.1,0.3c-0.1,0.3-0.3,0.6-0.3,1c-0.1,0.9,0.6,1.6,0.9,2L530.3,27z"/>
	<path class="st1" d="M499,248.5c-0.2-0.3-0.8-1.2-1.7-1.1c-0.9,0.1-1.3,1.1-1.4,1.4c-0.4,1-0.7,2-1,3c-0.1,0.4-0.2,0.9-0.2,1.4   c0.1,0.6,0.4,1.2,1,1.7c0.5,0.4,1,0.6,1.5,0.8c0.4,0.1,0.7,0.2,1.2,0.2c0.1,0,0.2,0,0.3,0c0.6-0.1,1.1-0.5,1.3-1   c0.3-0.4,0.3-0.9,0.3-1.2c0-0.2,0-0.3,0-0.5c0-0.3-0.1-0.7,0-0.9C500.4,250.9,499.7,249.6,499,248.5z"/>
	<path class="st1" d="M464.9,23.8c0.2,0.4,0.4,0.9,0.7,1.3c0.4,0.5,1,0.8,1.6,0.8h0c0.5,0,1-0.3,1.3-0.5l4.5-2.6   c0.5-0.3,1.1-1,1.2-1.6c0.1-0.6-0.2-1.1-0.3-1.4c-0.1-0.2-0.2-0.5-0.5-0.7c-0.2-0.2-0.5-0.3-0.7-0.4l-1.8-0.8   c-0.3-0.1-0.5-0.1-0.7-0.1c-0.1,0-0.2,0-0.3,0c-1-0.3-2.1-0.6-3.1-0.7c-0.4-0.1-0.9-0.1-1.3,0c-0.4,0.1-0.7,0.4-1,0.8   c-0.6,0.8-0.8,1.9-0.6,3.1C464.1,22,464.5,22.9,464.9,23.8z"/>
	<path class="st1" d="M442.4,11l0.1,0.5c0.5,2.7,1.4,4.8,2.7,6.6c1.5,2.1,3.7,3.6,6,3.9c0.3,0,0.7,0.1,1,0.1c0.5,0,1,0.1,1.5,0.2   c0.6,0.2,1.2,0.5,1.8,0.9c0.4,0.2,0.8,0.5,1.2,0.7c0.5,0.2,1.2,0.5,2.1,0.5c0.8,0,1.5-0.2,2-0.7c1.1-1,1.3-2.8,0.3-5   c-0.3-0.7-0.6-1.4-1-2.1c-0.7-1.2-1.8-3-3.7-3.6c-0.4-0.1-0.8-0.2-1.2-0.3c-0.5-0.1-0.9-0.2-1.3-0.3c-0.7-0.3-1.2-0.9-1.7-1.5   c-0.1-0.2-0.3-0.3-0.4-0.5c-1-1.1-1.9-1.6-2.9-1.7c-0.8-1-2.8-1.3-3.1-1.4c-0.9-0.1-1.9,0.1-2.8,0.2c-0.2,0-0.5,0.1-0.7,0.4   c-0.3,0.3-0.2,0.7-0.2,0.9C442.1,9.6,442.3,10.3,442.4,11z"/>
	<path class="st1" d="M432.6,295c-0.1-0.5-0.2-1-0.5-1.5c-0.3-0.7-0.8-1.2-1.4-1.5c-0.3-0.2-0.7-0.2-1-0.1c-0.4,0.1-0.6,0.6-0.6,0.8   c0,0,0,0.1,0,0.1c-1.5,3.5-4.3,6.3-7.8,7.8l-0.4,0.1c-1.4,0.6-2.9,1.2-3.4,2.7c-0.4,1.2,0,2.5,0.5,3.5c0.3,0.9,0.7,1.7,0.5,2.5   c-0.1,0.7-0.7,1.4-1.3,2.1c-0.6,0.7-1.3,1.4-1.6,2.4c-0.2,0.7-0.1,1.4-0.1,2.2c0.1,1.3,0.3,2.7,0.5,4c0,0.2,0.1,0.6,0.3,1   c0.2,0.4,0.6,0.6,0.9,0.7c1,0.4,2.2,0.7,3.4,0.7c0.8,0,1.6-0.1,2.4-0.3c0.7-0.2,1.3-0.5,1.7-0.9c0.4-0.4,0.7-0.8,1-1.3   c1.4-2.5,2.2-5.3,2.9-8c0.4-1.6,0.9-3.3,1.5-4.9c0.3-0.7,0.6-1.5,0.9-2.2c0.4-1.1,0.9-2.2,1.3-3.3c0.8-2.4,0.9-4.4,0.5-6.2   C432.6,295.3,432.6,295.1,432.6,295z"/>
	<path class="st1" d="M416.6,79.6c0.3,0,0.6,0,0.8,0c1.7,0,2.8-0.7,2.9-1.9c0.1-1.3-1.2-2-2.1-2.6L418,75c-2.7-1.5-3.3-5.2-3-8   c0.3-3.4,1.7-6.7,3.8-9.4c0.3-0.4,0.7-0.8,1-1.2c0.8-0.9,1.6-1.8,2.2-2.9c0-0.1,0.1-0.2,0.2-0.3c0.2-0.3,0.3-0.6,0.5-0.8   c0.5-0.6,1.2-0.9,2-1.3c0.5-0.2,1-0.4,1.5-0.7c0.9-0.6,1.6-1.4,2.1-2.3c0.6-0.4,0.7-1.4,0.7-2c-0.1-0.7-0.2-1.4-0.5-2   c-0.4-0.8-1.2-1.3-2-1.3h-0.1c-0.5,0-0.9,0.2-1.3,0.3c-0.4,0.2-0.8,0.5-1.1,0.8c-0.2,0.2-0.4,0.3-0.6,0.4l-5.7,3.6   c-2.5,1.6-5.4,3.4-7.1,6.3c-1.5,2.6-1.9,5.6-2.1,8.3l-0.6,5.4c-0.3,3.2-0.5,6.5,1.5,8.8C411,78.7,413.7,79.2,416.6,79.6z"/>
	<path class="st1" d="M342.9,45.4c2,2.3,2.9,5.3,3.6,7.9c0.2,0.8,0.5,1.8,1.2,2.5c0.5,0.5,1.1,0.8,1.8,0.8c0.5,0,1-0.2,1.3-0.5   c0.5-0.5,0.6-1.1,0.7-1.6l1.4-6.8c0.1-0.6,0.3-1.2,0.7-1.3c0.3-0.1,0.8,0.1,1.2,0.5c0.2,0.3,0.4,0.6,0.6,1c0.1,0.3,0.3,0.6,0.5,0.9   c0.9,1.4,2.5,2.3,4.1,2.3c0.8,0,1.6-0.3,2.1-0.9c0.3-0.4,0.4-0.8,0.3-1.3c-0.1-0.3-0.2-0.6-0.3-0.8l-2.8-4.6   c-0.5-0.9-0.7-1.5-0.4-1.8c0.1-0.2,0.4-0.3,0.7-0.4l0.2-0.1c1.6-0.8,2.9-2.2,3.6-3.9c0.4-1.1,0.5-2.1,0.2-3c-0.5-1.6-2.1-2.4-3.6-3   c-1.4-0.6-2.7-1.1-4.2-1.1h-0.1c-1.5,0-3.4,0.9-3.9,2.6c-0.1,0.4-0.6,1.1-0.9,1.6c-0.1,0.2-0.3,0.4-0.4,0.6c-0.3,0.5-0.6,0.9-1,1.2   c-0.2,0.2-0.7,0.3-1.1,0.3c-0.1,0-0.2,0-0.2,0l-0.1-0.1l-0.2,0c-1.4-0.2-3.2-0.5-4.6-0.2c-1.5,0.3-3.2,1.5-3.5,3.3   c-0.4,2.1,1.2,3.8,2.5,5.2C342.4,44.8,342.7,45.1,342.9,45.4z"/>
	<path class="st1" d="M356,183.9c0-0.4-0.2-0.9-0.7-1.1c-0.3-0.2-0.6-0.3-0.9-0.4c-0.7-0.1-1.4-0.1-2-0.1c-0.1,0-0.1,0-0.2,0h-0.5   c-0.1,0-0.3,0-0.4,0c-0.4,0-1,0.1-1.4,0.6c-0.3,0.3-0.4,0.8-0.2,1.2c0.1,0.2,0.3,0.3,0.4,0.4c0.1,0.1,0.4,0.2,0.8,0.3   c0.5,0.1,1,0.3,1.6,0.5c0.1,0.1,0.3,0.1,0.3,0.2c0.1,0,0.1,0.1,0.2,0.2l0.1,0.1c0.3,0.4,0.7,0.7,1.2,0.9c0.2,0.1,0.5,0.3,1,0.3   c0.3,0,0.6-0.1,0.9-0.4c0.4-0.4,0.4-1.1,0.1-1.7l-0.1-0.2c-0.1-0.1-0.2-0.3-0.2-0.4c0,0,0-0.1,0-0.1C356,184.2,356,184.1,356,183.9   z"/>
	<path class="st1" d="M343.3,182c0.1,0.1,0.3,0.4,0.6,0.5c0.1,0,0.2,0,0.3,0c0.1,0,0.2,0,0.3,0c0.5-0.1,0.9-0.4,1.2-0.9   c0.3-0.4,0.4-0.7,0.6-1.1c0.3-0.6,0.2-1.2,0.1-1.7c0-0.2-0.1-0.4-0.1-0.6c0-0.4,0-1.2-0.5-1.7c-0.3-0.3-0.7-0.5-1.2-0.6l-0.1,0   c-0.1,0-0.1,0-0.2,0c-0.3,0-0.7,0-0.9,0.2c-0.8,0.5-0.8,1.4-0.8,1.8C342.5,179.1,342.4,180.7,343.3,182z"/>
	<path class="st1" d="M345.6,170.1l-0.4-0.1c-0.2,0-0.3-0.1-0.5-0.1c-0.8,0-1.5,0.7-1.8,1.4c-0.2,0.6-0.3,1.2-0.4,1.8   c0,0.3,0,0.6,0.1,1c0.4,0.8,1.4,0.9,1.7,0.9c0,0,0.1,0,0.2,0c0.2,0,0.4-0.1,0.6-0.2c0.2-0.1,0.2-0.3,0.3-0.4c0.4-0.7,0.9-1.9,0.6-3   c0-0.2-0.1-0.4-0.2-0.6c-0.1-0.1-0.2-0.3-0.2-0.3v0L345.6,170.1z M344.6,174.3l0-0.6c0,0,0,0,0,0V174.3z"/>
	<path class="st1" d="M316,135.1c0.1,0.3,0.3,0.6,0.5,0.9c0.3,0.7,0.7,1.3,0.7,1.8c0,0,0,0,0,0.1c0,0.1,0,0.3,0,0.6   c0.1,0.3,0.4,0.6,0.8,0.7c0.2,0.1,0.5,0.1,0.7,0.1l1.1,0c0.1,0,0.3,0,0.4,0c0.1,0.1,0.1,0.4,0,0.6c0,0.3,0,0.7,0,1   c0,0.1,0.1,0.3,0.2,0.4c0,0.1,0.1,0.2,0.1,0.3c0,0.1-0.1,0.4-1.1,0.7c-0.6,0.2-1.3,0.7-1.5,1.3c-0.2,0.4-0.1,0.7,0,1.1   c0.1,0.2,0.2,0.3,0.3,0.4c0,0,0.1,0.1,0.1,0.1c0,0,0,0.2-0.5,0.4c-0.9,0.5-1.2,1.3-0.9,1.9c0.2,0.5,0.6,0.7,1,0.8   c0.1,0,0.2,0.1,0.3,0.1c0.2,0.2,0.2,0.6,0.1,0.9c-0.2,0.4-0.7,0.8-1.1,1.2c-0.5,0.4-1.1,0.9-1.4,1.6c0,0.1-0.2,0.4-0.1,0.8   c0.1,0.5,0.5,0.8,1,0.8c0.3,0,0.7-0.1,0.9-0.3l0.5-0.3c0.6-0.4,1.2-0.7,1.8-1c1.2-0.5,2.5-0.8,3.9-1.1c1.6-0.3,3.3-0.6,4.8-1.5   c0.3-0.1,1.1-0.6,1.3-1.5c0-0.2,0-0.4,0-0.6c0-0.1,0-0.2,0-0.3c0-0.3,0.3-0.5,0.6-0.8c0.4-0.4,0.9-1,0.9-1.7c0-1.2-1.1-1.8-1.9-2.2   c-0.1-0.1-0.2-0.1-0.3-0.2c-1.3-0.8-2.1-2.3-2.9-3.8c-0.5-1-1.1-2.1-1.9-3c-0.1-0.2-0.3-0.3-0.5-0.5c-0.6-0.7-1.2-1.4-1.2-2.1   c0-0.3,0.2-0.6,0.3-0.9c0.1-0.2,0.2-0.5,0.3-0.8c0.2-0.6,0.1-1.3-0.1-1.7c-0.2-0.4-0.5-0.6-0.9-0.7c-0.2-0.1-0.5-0.1-0.7-0.1   c0,0-0.1,0-0.1,0c0-0.1,0.1-0.1,0.1-0.2c0.3-0.3,0.7-0.8,0.6-1.5c-0.1-0.4-0.4-0.8-0.6-0.9c-0.3-0.2-0.6-0.2-1-0.2   c-0.2,0-0.5,0.1-0.6,0.2c-0.1,0-0.1,0-0.2,0.1c-1.4,0.4-2.6,1.1-3.6,2.1c-0.3,0.3-0.6,0.7-0.8,1.2c-0.2,0.5-0.2,1.1-0.1,1.5   C315.4,132.4,315.5,133.8,316,135.1z"/>
	<path class="st1" d="M310,138.7c0,0.1,0,0.2,0,0.3c-0.1,0-0.2,0-0.3,0c-0.2,0-0.4-0.1-0.7-0.1c-0.4,0-0.8,0.2-1.1,0.5   c-0.4,0.4-0.5,0.9-0.5,1.5c0,0.9,0.6,1.6,1,2.1c0.1,0.1,0.2,0.2,0.2,0.3c0.1,0.2,0,0.5-0.3,0.8c-0.2,0.2-0.4,0.3-0.6,0.5   c-0.2,0.2-0.5,0.4-0.7,0.6c-0.7,0.7-0.9,1.6-0.5,2.3c0.4,0.7,1.2,1,1.7,1.1c0.6,0.2,1.1,0.3,1.7,0.3c0.3,0,0.6,0,0.9-0.1   c0.5-0.2,1-0.5,1.3-0.8c0.3-0.2,0.5-0.5,0.8-0.6c0.3-0.1,0.6-0.2,0.9-0.2c0.8-0.1,1.7-0.3,2.1-1.2c0.3-0.6,0.2-1.2,0.1-1.7   c-0.1-0.7-0.1-1.5-0.1-2.2c0-0.3,0-0.5,0.1-0.7c0-0.1,0.1-0.2,0.2-0.3c0.1-0.1,0.2-0.2,0.3-0.4c0.6-0.9,0.5-2.2-0.3-3   c-0.8-0.8-1.9-0.9-2.8-0.9c-0.2,0-0.4,0-0.5,0c-0.9-0.2-2,0.3-2.6,0.8C310,137.7,310,138.3,310,138.7z"/>
	<path class="st1" d="M291.4,86.4c0.4-0.8,0.4-1.7,0.4-2.5c0-0.3,0-0.6,0-1c0.1-1.5,0.8-2.9,1.6-4.4c0.7-1.3,1.4-2.7,1.7-4.2   c0.2-1.3,0.1-2.7,0-4c-0.1-2-0.3-3.9,0.7-5.4c0.4-0.6,0.9-1,1.5-1.5c0.5-0.4,1-0.9,1.5-1.4c1.9-2.4,1.6-5.5,1.3-8.6   c-0.1-0.7-0.1-1.3-0.2-2c-0.3-5.6,1.8-11.3,5.7-15.3c0.5-0.5,1.1-1.1,1.6-1.6c1.1-1,2.2-2,3.1-3.2c1.3-1.7,2.3-4.5,1.2-6.8   l-0.1-0.1l-0.1-0.1c-0.7-0.5-1.5-0.8-2.4-0.8c-1.3,0-2.8,0.6-4.1,1.1c-1.3,0.5-2.6,1.1-3.8,1.1c-0.5,0-1-0.1-1.5-0.4   c-0.7-0.4-1.1-1.2-1.1-2.2c0-1,0.4-1.8,1.1-2.2c0.3-0.1,0.6-0.2,0.9-0.4c0.4-0.1,0.8-0.3,1.2-0.5c0.9-0.5,1.5-1.8,1-2.7   c-0.3-0.5-0.7-0.7-1.1-0.9l-0.1,0c-1.2-0.6-2.2-1.5-3-2.5c-0.5-0.7-1-1.4-1.5-2.2c-0.7-1.2-1.5-2.4-2.6-3.4c-1.5-1.3-3.5-2-5.9-2   c-2.9,0-5.9,1-8.3,1.8l-13.7,4.9l-1,0c-1.2,0-2.5-0.1-3.8-0.1c-2.6,0-6,0.2-9.1,1.5c-2.4,1-4.5,2.5-6.5,4c-1.9,1.4-3.8,2.8-6,3.8   l-0.3,0.1c-0.7,0.3-1.5,0.6-2.1,1.3c-0.8,0.8-1.2,2.2-0.5,3.2c0.2,0.3,0.4,0.4,0.6,0.6c0.1,0.1,0.1,0.1,0.2,0.2   c0.4,0.4,0.7,1,0.6,1.6c0,0.6-0.2,1.2-0.7,1.6c-0.5,0.5-1.3,0.7-2.4,0.7c-0.5,0-1,0-1.6-0.1c-0.7,0-1.3-0.1-2-0.1   c-2.1,0.1-4.1,1-5.5,2.5l-0.1,0.1c-0.1,0.1-0.2,0.2-0.4,0.4c-0.1,0.1-0.3,0.2-0.4,0.4c-0.3,0.4-0.4,0.9-0.4,1.2l-0.1,1.5   c-0.1,0.6-0.1,1.4-0.4,1.9c-1,2.3-1.2,5-0.8,7.4c0.1,0.7,0.3,1.5,0.9,2.1c0.7,0.8,1.8,0.9,2.7,1c0.7,0,1.4,0.1,2.1,0.1   c2,0.1,3.9,0.1,5.6,0.9c2.9,1.4,4.3,4.6,4.7,7.3c0.4,3.1-0.2,6.3-0.8,9.4l-1.8,9.3c-0.1,0.6-0.2,1.2-0.1,1.9   c0.3,1.4,1.4,2.2,2.4,2.9c0.8,0.6,1.6,1.1,1.9,1.9c0.4,1.2-0.5,2.6-1.4,3.4c-0.4,0.3-0.8,0.7-1.2,1c-0.8,0.6-1.7,1.3-2.3,2.2   c-1.4,1.9-1.4,4.4-1.2,6.6c0.5,6.6,2.3,13.3,5.2,19.3c0.3,0.7,0.7,1.3,1.3,1.8c0.7,0.5,1.5,0.7,2.2,0.8c0.7,0.1,1.3,0.2,1.7,0.6   c0.3,0.3,0.6,0.7,0.8,1.2c0.5,0.9,1.1,1.9,2.2,1.9c0.1,0,0.3,0,0.4,0c0.7-0.2,1.2-0.8,1.5-1.3c3.3-5.1,5.9-10.6,7.8-16.4l0-0.1   c0.4-1.1,0.8-2.3,1.6-3.1c1-0.9,2.5-1.1,4.1-1.2c1.3-0.1,2.7-0.2,3.9-0.8c1.4-0.7,2.4-1.9,3.3-3.1c0.7-0.9,1.4-1.8,2.3-2.4   c1.3-0.9,2.9-1.2,4.4-1.5l0.7-0.1c3.2-0.7,6.4-1.8,9.4-3.3C289.6,88.3,290.8,87.6,291.4,86.4z"/>
	<path class="st1" d="M293.3,111.6c1.2,0,2.2-0.5,2.9-1c0.6-0.4,1.1-0.8,1.6-1.2c0.4-0.3,0.8-0.7,1.2-1c0.3-0.2,0.6-0.4,0.9-0.6   c0.9-0.5,1.8-1.1,2.4-2c0.9-1.3,1-3.3,0-4.6c-0.9-1.3-2.5-2-4.1-1.8c-0.4-0.2-0.9-0.2-1.3-0.2c-0.7,0-1.8,0.2-2.4,0.6   c-0.7,0.5-1.3,0.9-2,1.2c-0.5,0.2-1.2-0.1-2-0.8l-0.1-0.1c-0.8-0.7-1.7-1.5-3-1.4c-1,0.1-1.9,0.9-2.3,2c-0.3,0.9-0.3,1.9-0.3,2.7   c0.1,2.1,0.4,4.7,2.5,5.8c0.4,0.2,0.9,0.3,1.3,0.5c0.3,0.1,0.6,0.1,0.8,0.3c0.4,0.1,0.7,0.4,1.1,0.6c0.5,0.3,1.1,0.7,1.7,0.9   C292.7,111.6,293,111.6,293.3,111.6z"/>
	<path class="st1" d="M253.9,278c-0.4-0.2-0.8-0.3-1.2-0.4c-0.8-0.2-1.5-0.5-2.1-0.8c-0.7-0.4-1.2-1-1.9-1.6c-0.3-0.3-0.7-0.7-1.1-1   c-0.6-0.5-1.8-1.4-3.3-1.4c-0.3,0-0.6,0-0.9,0.1l-12.7-4.4c-1.9-0.6-4-1.4-5.4-2.8c-1.3-1.2-2-2.9-2.7-4.7   c-0.6-1.5-1.3-3.1-2.4-4.5c-1.5-1.8-3.6-3-5.9-3.3c-0.7-0.1-1.3-0.1-1.8-0.1c-0.3,0-0.5,0-0.8,0c-0.3,0-0.5,0-0.8,0   c-1.3,0-2.4-0.1-3.3-0.6c-0.9-0.5-1.7-1.3-2.5-2.1c-0.2-0.2-0.4-0.5-0.6-0.7c-1.8-1.9-4-3.3-6.1-4.7c-0.5-0.4-1.2-0.8-1.9-1   c-0.4-0.1-0.9-0.2-1.5-0.2c-0.3,0-0.6,0-0.9,0c-0.2,0-0.3,0-0.5,0c-3.9,0.1-7.7-1.5-11-2.9c-2-0.8-4.6-0.7-7,0.3   c-1.9,0.8-3.8,2.2-5.5,4.1l-0.1,0.1c-0.3,0.4-0.6,0.7-1,0.9c-0.3,0.2-0.7,0.3-1.1,0.3c-0.7,0-1.3-0.3-1.7-0.8   c-0.3-0.4-0.8-0.6-1.4-0.6c-0.3,0-0.6,0-0.8,0.1l-0.2,0c-0.7,0.1-1.5,0.3-2.1,0.6c-0.3,0.1-0.5,0.3-0.8,0.4c-0.5,0.3-1,0.5-1.5,0.6   c-0.6,0.1-1.2,0-1.8-0.3c-0.5-0.2-1-0.6-1.6-1.2c-0.8-0.8-1.3-1.6-1.3-2.3c-0.1-0.5,0.1-1.1,0.2-1.7c0.1-0.3,0.1-0.7,0.2-1   c0.1-0.6,0.2-1.2,0.4-1.8c0.2-0.6,0.4-1.2,0.6-1.9c0.1-0.5,0.2-1,0.1-1.6c-0.1-0.9-0.8-1.7-1.6-2.2c-0.7-0.3-1.4-0.3-2-0.4   c-1.1,0-2.3-0.1-3.5-0.1c-1,0-1.9,0-2.7,0.1l-0.3,0c-0.5,0-0.9,0.1-1.3,0.1c0,0-0.1,0-0.1,0c0.6-1.1,0.9-2.3,0.9-3.5v-0.2   c0-0.3,0-0.6,0-0.8l0.1-0.2l-0.1-0.2c0-0.2,0-0.4,0.1-0.6c0.1-0.1,0.1-0.2,0.2-0.3c0.1-0.1,0.1-0.1,0.2-0.2   c0.3-0.4,0.6-0.9,0.8-1.4c0.1-0.2,0.2-0.5,0.3-0.7c0.2-0.4,0.5-0.7,0.8-1.1c0.2-0.2,0.4-0.5,0.6-0.7c0.6-0.9,0.9-1.8,0.9-2.6l0-0.3   l-0.2-0.2c-0.3-0.2-0.7-0.5-1.2-0.5c-0.3,0-0.6,0-0.9,0l-1.6,0.3c-0.3,0.1-0.6,0.1-1,0.1c-0.6,0-1.1,0.1-1.7,0.3   c-1.1,0.4-2,1.1-2.4,2c-0.2,0.4-0.3,0.8-0.4,1.1l-0.1,0.2c-0.3,1.1-0.8,2.2-1.4,3.3c-0.1,0.1-0.2,0.3-0.3,0.3c-0.1,0-0.3,0-0.5-0.1   c-0.1,0-0.2-0.1-0.3-0.1c-0.2-0.1-0.5-0.2-0.8-0.3c-0.2,0-0.4-0.1-0.6-0.1c-0.7,0-1.3,0.3-1.9,0.5c-0.4,0.2-0.9,0.4-1.3,0.4   c-0.2,0-0.3,0-0.4,0c-0.1,0-0.2-0.2-0.3-0.3c-0.1-0.1-0.3-0.3-0.4-0.4c-0.3-0.3-0.7-0.4-1-0.5c-0.1,0-0.3-0.1-0.4-0.2   c-0.5-0.3-1-0.8-1.4-1.7l-0.1-0.2c-0.1-0.3-0.3-0.7-0.6-1.1c-0.2-0.2-0.4-0.4-0.6-0.6c-0.1-0.1-0.2-0.2-0.4-0.4   c-0.6-0.7-0.6-1.8-0.6-2.8c0-0.6,0.1-1.2,0.1-1.7c0.1-0.6,0.1-1.3,0.1-1.9c0-1.3,0.1-2.5,0.5-3.6c0.1-0.1,0.1-0.3,0.2-0.4   c0.2-0.4,0.4-0.8,0.5-1.2c0.1-0.5,0.1-0.9,0.1-1.3c0-0.2,0-0.4,0-0.6c0.1-0.8,0.4-1.6,0.7-2.4c0.2-0.5,0.4-1.1,0.8-1.4   c0.4-0.3,0.9-0.4,1.5-0.6c0.7-0.1,1.3-0.3,1.9-0.7c0.2-0.1,0.3-0.2,0.4-0.3c0.1-0.1,0.2-0.1,0.2-0.2c0.4-0.3,0.9-0.5,1.5-0.7   c0.5-0.2,1-0.4,1.5-0.3c0.2,0,0.4,0.1,0.7,0.2c0.4,0.1,0.8,0.2,1.3,0.2c0.2,0,0.5-0.1,0.7-0.1c0.1,0,0.2-0.1,0.4-0.1   c0,0,0.1,0,0.1,0c0.1,0,0.2,0,0.2,0c0,0,0,0.1,0,0.1c0,0,0,0.1,0.1,0.1c0.2,0.6,0.8,1.1,1.5,1.3c0.5,0.1,1.1,0.1,1.7,0.1   c0.4,0,0.8-0.1,1.2-0.4c0.5-0.3,0.8-1.1,0.5-1.7c-0.1-0.2-0.2-0.3-0.3-0.3c0,0,0,0,0,0c0,0,0-0.1,0.1-0.1c0,0,0.1-0.1,0.1-0.1   c0.1-0.1,0.3-0.3,0.4-0.5c0.5-0.3,1.1-0.4,2-0.4c0.4,0,0.8,0,1.2,0l2.1,0.1c0.6,0,1.1,0.1,1.4,0.4c0.1,0.1,0.2,0.2,0.2,0.4   c0.2,0.3,0.4,0.7,0.8,0.9c0.5,0.3,1.2,0.3,2.1-0.1l0.1-0.1c0.3-0.2,0.7-0.3,0.9-0.3c0.3,0,0.6,0.4,0.8,0.7c0.5,0.7,1,1.8,0.6,2.6   c0,0.1-0.1,0.2-0.2,0.3c-0.1,0.2-0.2,0.3-0.3,0.5c-0.2,0.5-0.2,1.1,0.1,1.4c0.1,0.2,0.3,0.3,0.4,0.3c0,0,0.1,0,0.1,0.1   c0.1,0.1,0.2,0.4,0.3,0.7c0,0.1,0.1,0.2,0.1,0.3c0.1,0.2,0.2,0.4,0.2,0.6l1.5,3.2c0.1,0.2,0.2,0.4,0.5,0.6c0.3,0.2,0.7,0.3,1.1,0.2   c0.5-0.1,0.9-0.2,1.3-0.4c0.2-0.1,0.5-0.3,0.7-0.6c0.1-0.3,0.1-0.6,0.1-0.9c0-0.5,0-1.1,0.3-1.6l0-0.1c0.1-0.3,0.3-0.6,0.3-1   c0-0.1,0-0.2,0-0.3c0,0,0-0.1,0-0.1c0.1-0.1,0.2-0.4,0.1-0.7c-0.1-0.4-0.4-0.6-0.5-0.6l-0.1,0c0,0-0.2-0.2-0.2-0.7   c0-0.4,0-0.8,0-1.2c0-0.2,0-0.4,0-0.6c-0.1-0.3-0.2-0.5-0.3-0.7l-0.1-0.1c-0.7-1-0.7-2.5-0.8-3.6c0-0.6,0-1.3,0.1-1.9   c0.1-0.5,0.5-1,0.8-1.2c1.8-0.8,3.2-2.1,4.6-3.3c0.9-0.8,1.8-1.5,2.7-2.2c0.8-0.6,1.7-1.2,2.4-1.9c1.8-1.7,2.8-4.1,3.7-6.1   c0.6-1.3,1.2-2.7,1.3-4.2l0-0.1c0-0.2,0-0.4,0.1-0.5c0.1-0.1,0.3-0.3,0.5-0.4c0.2-0.1,0.4-0.3,0.7-0.4c0.6-0.5,0.8-1.2,0.9-1.8   c0.1-0.2,0.1-0.5,0.2-0.7c0.5-1.3,1.9-1.9,2.7-2.1c0.7-0.2,1.5-0.3,2.3-0.5c0.5-0.1,1.1-0.2,1.7-0.3c0.3-0.1,1.1-0.2,1.4-1   c0.1-0.3,0-0.6,0-0.9l0-0.1c-0.2-1.3,0.4-2.7,1.7-3.8c1.2-1,2.8-1.5,4.3-2c0.1,0,0.2-0.1,0.3-0.1c0.1,0,0.2,0.1,0.3,0.2l0,0   c1,0.9,2.3,1.4,3.4,1.2c0.5-0.1,1-0.3,1.5-0.4l0.1,0c2.2-0.9,4.6-1.6,6.9-2c1.1-0.2,2-0.6,2.8-1.2c1-0.7,1.7-2.1,1-3.3   c-0.6-1.1-1.9-1.3-2.7-1.4l-3.5-0.6c-0.5-0.1-1-0.2-1.3-0.5c-0.4-0.4-0.4-1.2-0.3-1.7c0-0.2,0.1-0.4,0.1-0.6c0.1-0.6,0.2-1.3,0.1-2   c-0.1-0.9-0.8-1.8-1.8-1.9c0-0.3,0.2-0.7,0.5-0.9c0.5-0.4,1.2-0.5,1.9-0.5c2.7-0.2,5.4-0.1,8,0.4c0.4,0.1,1.7,0.3,1.7,1   c0,0.2,0,0.4-0.2,0.7c-0.2,0.4-0.5,0.8-0.8,1.3c-0.6,0.8-1.3,1.7-1.4,2.9l-0.1,0.5l0.5,0.2c1.8,0.6,3.6,0.8,5.4,0.9   c0.8,0,1.6,0.1,2.4,0.2c0.2,0,0.4,0,0.5,0.1c0.1,0.1,0.3,0.3,0.4,0.5l0.1,0.2c0.9,1.3,2.5,2.2,4.1,2.2h0.1c0.3,0,0.7,0,1.1-0.3   c0.7-0.5,0.7-1.4,0.7-1.7c0-1.1-0.2-2.3-0.6-3.3c-0.1-0.4-0.3-0.7-0.5-1.1c-0.3-0.7-0.7-1.3-0.8-2c0-0.4,0-0.8,0-1.3   c0-0.5,0.1-1.1,0-1.6c-0.1-0.7-0.4-1.4-0.7-2c-0.2-0.4-0.4-0.8-0.5-1.3c-0.2-0.7-0.2-1.5-0.2-2.3c0-0.8,0-1.7-0.2-2.5   c-0.6-2.2-2.4-3.8-3.8-4.9c-1.4-1.2-2.7-2.5-3.8-3.8c-1.2-1.4-1.2-3.5-1.2-5.5v-0.6c-0.1-3-0.5-6-1.3-8.8c-0.3-1.1-0.8-1.7-1.6-1.8   c-1-0.1-1.6,0.8-1.9,1.3c-0.9,1.3-2.1,2.4-3.2,3.5c-1,1-2,1.8-3.2,1.9c-0.1,0-0.1,0-0.1,0c0,0-0.1-0.1-0.1-0.3   c-0.4-1.3-0.7-2.6-0.8-4c-0.1-1.3-0.6-2.6-1-3.7c-0.1-0.4-0.3-0.8-0.4-1.2c-0.8-2.3-2.4-4.1-4.5-5.2c-1.2-0.6-2.5-0.9-3.6-1.2   c-0.7-0.2-1.5-0.3-2.2-0.3c-0.9,0-1.6,0.2-2.2,0.6c-0.9,0.7-1.3,1.7-1.6,2.5l-2.1,5.5c-0.4,1-0.8,2.1-0.9,3.2   c-0.1,1.4,0.1,2.8,0.4,4.1c0.2,1.1,0.5,2.1,0.5,3.1c0,1.4-0.4,2.7-1.2,3.8c-0.2,0.4-0.5,0.6-0.7,0.8c-0.2,0.2-0.5,0.3-0.8,0.4   c-0.3,0.1-0.7,0.3-1,0.5c-0.8,0.5-1.2,1.4-1.6,2.2c-1,2.3-1.7,4.7-2,7.2l0,0.1c-0.1,1.2-0.3,2.5-1.1,3.1c-0.2,0.1-0.5,0.2-0.8,0.2   c-0.8,0-1.8-0.6-2.2-1.4c-0.6-1.3-0.4-2.9-0.2-4.3c0.1-0.8,0.3-1.6,0.6-2.4c0.1-0.3,0.2-0.5,0.4-0.8c0.4-0.8,0.9-1.8,0.8-2.8   c-0.1-0.7-0.4-1.2-0.9-1.5c-0.3-0.2-0.7-0.2-1-0.3l-3.1-0.3c-2.1-0.2-3.9-1.8-5.6-3.5c-0.3-0.3-0.5-0.6-0.8-0.9   c-0.5-0.6-1.1-1.2-1.7-1.7c-0.4-0.3-0.8-0.6-1.2-0.9c-0.5-0.3-0.9-0.6-1.3-1c-1-0.9-1.7-2.1-2.4-3.3c-0.4-0.6-0.8-1.3-1-2   c-0.4-1.6,0.4-3.4,1-4.6c3.8-7,10.3-11.3,15.1-13.6c0.5-0.2,1-0.4,1.4-0.4c0.3,0,0.7,0.2,0.8,0.4c0.1,0.2,0,0.5-0.1,0.8   c-0.1,0.3-0.1,0.6-0.1,0.9c0,1.3,1.1,2.4,2.3,2.7c1,0.3,2.2,0.1,3.2,0l3.2-0.5c0.8-0.1,2.2-0.4,2.9-1.5c0.5-0.9,0.3-2.1-0.4-3.3   c-0.1-0.2-0.3-0.4-0.5-0.7c-0.4-0.5-0.7-1-0.9-1.5c-0.2-0.7,0-1.6,0.5-2.4c0.5-0.8,1.2-1.4,1.9-2.1c0.4-0.4,1-0.7,1.5-1.1   c0.6-0.4,1.3-0.8,1.8-1.3c1.2-1.2,1.9-2.6,1.9-3.9c0-0.2,0-0.4,0-0.5c0-0.4,0-0.8,0.1-1c0.1-0.2,0.2-0.3,0.4-0.5   c0.1-0.1,0.2-0.2,0.3-0.3c1-1.2,1-3.1,0.1-4.6c-0.9-1.5-2.5-2.3-3.6-2.7c-0.1,0-0.2-0.1-0.4-0.1c-1.1-0.3-2.1-0.1-2.7,0.5   c-0.5,0.5-0.6,1.2-0.7,1.7l0,0.3c-0.4,1.9-1.8,3.6-3,5.1c-0.4,0.4-0.8,0.9-1.2,1.2c-0.4,0.2-0.9,0.3-1.2,0.1   c-0.5-0.3-0.5-1.3-0.2-2c0.1-0.3,0.3-0.6,0.5-0.9c0.4-0.7,0.8-1.3,0.9-2.2c0-0.4,0-0.7-0.1-1c-0.3-0.6-0.9-1-1.6-1   c-0.4,0-0.8,0.1-1.1,0.2c-0.5,0.2-0.8,0.6-1.2,0.9c-0.2,0.2-0.4,0.3-0.5,0.5c0-0.3,0.1-0.7,0.3-1c0.2-0.6,0.4-1.2,0.3-1.9   c-0.1-0.4-0.2-0.7-0.4-1c-0.1-0.2-0.2-0.4-0.2-0.5c-0.2-0.7,0.3-1.4,0.9-2.2c0.2-0.2,0.3-0.5,0.5-0.7c0.6-1,1-2.3,1.1-4   c0.1-0.8,0.1-1.7-0.2-2.6c-0.4-1-1.2-1.8-2.2-1.9c-1-0.1-1.9,0.3-2.6,0.7c-0.4,0.2-0.8,0.5-1.1,0.8c-1.1,0.8-2.1,1.8-2.9,2.8   c-0.5,0.6-0.9,1.3-1,2.1c0,1.1,0.6,1.9,1.2,2.6c0.1,0.2,0.3,0.4,0.4,0.6c0.8,1.1,1,2.6,0.7,3.9c-0.4,1.3-1.3,2.5-2.6,3.1   c-0.1,0-0.2,0.1-0.3,0.1c-0.3,0.1-0.7,0.3-1.1,0.6c-0.1,0.1-0.2,0.1-0.2,0.2c-0.1,0.1-0.3,0.3-0.3,0.3c-0.1-0.1-0.3-0.6-0.4-0.8   c0-0.1-0.1-0.2-0.1-0.4c-0.4-1-1.6-1.8-2.8-1.8c-0.8,0-1.6,0.3-2.1,0.9c-0.1,0.1-0.2,0.3-0.3,0.4c-0.1,0.2-0.3,0.4-0.4,0.5   c-0.3,0.2-1,0.1-1.6,0l-0.3-0.1c-1.1-0.2-2.3-0.2-3.4,0c-0.7-0.1-1.2-0.6-1.5-1.1c-0.1-0.3-0.3-0.5-0.4-0.8   c-0.3-0.6-0.6-1.1-1.1-1.6c-0.9-1-2.2-1.5-3.5-1.4c-1.3,0.1-2.5,0.7-3.3,1.8c-0.6,0.8-0.8,1.7-1.1,2.5c-0.1,0.3-0.2,0.6-0.3,0.9   c-0.2,0.6-0.5,1.1-0.8,1.7l-1.1-5.5c-0.2-1-0.7-1.6-1.3-1.7c-0.4,0-0.7,0.1-1,0.2l-0.1,0c-0.7,0.3-1.4,0.4-2.4,0.4   c-1,0-2-0.2-3.1-0.3c-0.3,0-0.5-0.1-0.7-0.2c-0.1-0.1-0.1-0.1-0.1-0.2c0,0,0-0.1,0.2-0.2c0.3-0.1,0.6-0.2,1-0.3   c0.4-0.1,0.7-0.2,1.1-0.4c0.9-0.4,1.7-1.5,1.3-2.5c-0.2-0.5-0.5-0.8-0.8-1.1c-1.1-0.9-2.3-2-3.8-2.5c-0.2-0.1-0.5-0.1-0.7-0.2   c-0.5-0.1-0.9-0.2-1.3-0.5c-0.5-0.4-0.8-1-1-1.6l-0.1-0.4c-0.2-0.7-0.4-1.3-0.9-1.9c-0.6-0.8-1.6-1.3-2.5-1.2   c-0.2-0.1-0.4-0.1-0.6-0.1c-0.7,0-1.4,0.4-2.1,0.7c-0.6,0.3-1.1,0.6-1.6,0.6c-0.9,0-1.6-1-1.7-2c-0.1-0.8,0-1.5,0.1-2.4   c0-0.4,0.1-0.8,0.1-1.2c0-0.2,0-0.8-0.3-1.3c-0.2-0.3-0.6-0.4-1-0.5c-0.8-0.1-1.5,0.3-2.1,0.7c-0.3,0.2-0.6,0.3-0.8,0.4   c-0.7,0.3-1.7,0.1-2.8-0.1c-0.7-0.2-1.4-0.3-2.2-0.3c-0.3,0-0.6,0-0.9,0.1c-0.8,0.2-1.4,0.6-2,0.9c-0.4,0.2-0.7,0.4-1.1,0.6   c-0.3,0.1-0.6,0.2-0.9,0.3c-0.8,0.3-1.6,0.5-2.2,1.2c-0.1,0.1-0.1,0.1-0.2,0.2c-0.1,0.1-0.2,0.2-0.2,0.3c-0.1,0.1-0.2,0.1-0.4,0.1   l-0.1,0c-0.7,0-1.5-0.5-2.2-1.4c-0.4-0.5-0.7-1-1-1.6c-0.2-0.4-0.4-0.8-0.6-1.1c-1.1-1.8-2.8-3.3-4.7-4.2c-0.6-1.5-2-2.9-3.7-3.7   c-0.7-0.3-1.5-0.5-2.3-0.8c-1.2-0.3-2.3-0.6-3.1-1.3c-0.5-0.4-0.8-1-1.2-1.6c-0.9-1.5-1.8-2.9-3.2-3.8c-0.1-0.1-0.2-0.1-0.3-0.2   c-0.2-0.1-0.5-0.3-0.6-0.4c-0.2-0.1-0.3-0.4-0.4-0.6L79,37.2c-1.7-2.3-4.4-3.4-6.8-2.8c-4.6,1.3-9.3,2.8-13.9,4.3   c-3,1-5.8,2-8.4,3.6c-0.9,0.5-1.8,1.2-2.1,2.3c-0.3,1.2,0.2,2.4,0.7,3.4c0.1,0.1,0.1,0.3,0.2,0.5c1,2.2,1.2,4.9,0.4,7.2   c-0.8,0.2-1.9-0.2-3-0.7c-0.4-0.2-0.8-0.4-1.2-0.5c-2.3-0.8-5-0.4-6.9,1c-2,1.4-3.2,3.8-3.1,6.2c0,2.8,2.3,5.9,5.3,5.6   c0.7-0.1,1.4-0.3,2.1-0.6c1.1-0.4,2.2-0.7,2.8-0.2c0.3,0.3,0.4,0.7,0.4,1c0,0.6-0.4,1.3-0.9,1.7c-1,0.7-2.3,0.8-3.6,0.9l-0.2,0   c-2.7,0.2-5.5,0.7-8.2,1.4c-1,0.3-2.2,0.6-3,1.5c-0.5,0.6-0.8,1.3-1,2.1c-1.2,3.6-1.9,7.4-2.2,11.3c-0.1,1.8-0.1,3.7,1.1,5.2   c1,1.2,2.6,1.7,4,2.1l0.2,0c1.3,0.4,2.7,0.9,3.3,1.9c0.3,0.5,0.3,1.2,0,1.8c-0.1,0.2-0.4,0.5-0.8,0.5c0,0,0,0,0,0l-0.3,0l-0.2,0.2   c-2.2,2.6-5.5,3.8-9.1,5c-2.4,0.8-4.9,1.7-7,3c-0.6,0.4-1.1,0.8-1.7,1.2c-0.5,0.4-1,0.8-1.6,1.1c-1,0.7-2.2,1.2-3.3,1.7l-10.4,5.1   c-0.3,0.1-0.6,0.3-0.7,0.6c-0.1,0.5,0.2,1.2,0.8,1.5c0.6,0.3,1.3,0.4,2,0.4c1.3,0,2.5-0.5,3.3-0.9c0.8-0.4,1.5-0.9,2.3-1.4   c0.7-0.4,1.3-0.9,2-1.2c2-1.1,4.3-1.5,6.7-1.9c1.8-0.3,3.7-0.7,5.4-1.3c1-0.4,2-0.8,2.9-1.3c1.7-0.8,3.3-1.6,5-1.8   c0.5-0.1,1-0.1,1.4-0.1c2.1-0.1,4-1,5.8-2l0.2-0.1c0.6-0.3,1.4-0.5,2.3-0.7c0.9-0.2,1.8-0.4,2.5-0.7c0.7-0.3,1.4-0.8,1.9-1.4   c0.4-0.4,0.7-0.9,1-1.3c0.1-0.2,0.3-0.4,0.4-0.6c1.4-2,3.7-3.6,6.8-4.7c2.2-0.8,4.4-1.2,6.6-1.2c1.9,0,3.6,0.3,5.2,0.9   c4.1,1.5,7.6,5,9.9,10c0.8,1.7,1.3,3.1,1.5,4.5c0.1,0.8,0.1,1.7,0.2,2.6c0,0.9,0.1,1.8,0.2,2.6c0.4,2.6,1.6,5.1,2.7,7.4   c1.3,2.7,2.5,5.2,2.6,8c0,0.4,0,0.8,0,1.2c0,0.9,0,1.9,0.2,2.9c0.3,1,0.7,1.8,1.2,2.6c0.2,0.3,0.3,0.6,0.5,0.8   c1.5,2.7,1.9,6.1,1.2,9.1c-0.3,1.1-0.5,2.3-0.8,3.4c-0.7,3-1.4,6.1-2.5,9c-2,5.5-3,11.6-2.7,17.5c0.1,2.8,0.6,6.7,3.2,9.3   c0.8,0.8,1.8,1.4,2.7,2c1.2,0.8,2.4,1.5,3.2,2.7c0.8,1.2,1.1,2.7,1.3,4.3c0.3,2.1,0.7,4.2,2.3,5.6c2,1.7,2.8,4.3,3.7,7.1   c0.5,1.5,1,3.1,1.7,4.5c0.6,1.2,1.2,2.4,1.9,3.5l0.1,0.2c0.1,0.2,0.2,0.3,0.3,0.5c0.1,0.2,0.2,0.3,0.4,0.5c0,0,0.1,0,0.1,0.1   c0,0,0,0,0,0.1c0.1,0.1,0.1,0.3,0.3,0.4c0.3,0.2,0.6,0.2,1,0.2c0.1,0,0.4-0.1,0.6-0.3c0.1-0.1,0.3-0.4,0.3-0.8   c0-0.5-0.2-0.9-0.3-1.2c-0.1-0.2-0.2-0.4-0.2-0.6c-0.1-1-0.5-1.9-0.8-2.7l-5.2-14.4c-0.3-0.7-0.5-1.5-0.3-2   c0.1-0.2,0.4-0.5,0.7-0.5c0,0,0,0,0,0c0,1.3,0.6,2.6,1.9,4c0.2,0.2,0.4,0.4,0.6,0.7c0.8,0.8,1.5,1.6,1.9,2.5   c0.1,0.1,0.1,0.3,0.2,0.5c0.1,0.4,0.3,0.9,0.6,1.3c0.2,0.3,0.5,0.5,0.7,0.7c0.3,0.2,0.5,0.4,0.6,0.7c0.1,0.3,0,0.8-0.2,1.3   c-0.2,0.5-0.4,1.2-0.3,1.9c0.1,0.9,0.8,1.6,1.5,2.1l0.2,0.2c1.8,1.6,2.9,3.7,4,5.8c0.3,0.7,0.8,1.5,0.7,2.2c0,0.5-0.2,1-0.4,1.5   c-0.1,0.3-0.2,0.5-0.3,0.8c-0.4,1.3-0.1,2.4,0.6,3.1c0.5,0.4,1,0.5,1.5,0.7c0.1,0,0.2,0.1,0.3,0.1c1.3,0.4,2.4,1.2,3.6,2.1   c1.1,0.8,2.1,1.7,3.4,2.2c0.9,0.4,1.9,0.5,2.9,0.7c1.2,0.2,2.4,0.4,3.4,1c0.4,0.3,0.8,0.6,1.3,1c1,0.8,2,1.7,3.3,1.7h0.1   c0.8,0,1.5-0.3,2.1-0.6c0.4-0.2,0.7-0.3,1.1-0.4c1-0.3,2.2,0,2.9,0.8c0.5,0.5,0.8,1.1,1.1,1.8c0.2,0.4,0.4,0.7,0.6,1.1   c0.9,1.5,2.2,2.3,3.5,2.1c0.3-0.1,0.6-0.2,0.9-0.3c0.3-0.1,0.6-0.2,0.8-0.2c0.2,0,0.4,0.2,0.7,0.3c0.2,0.1,0.5,0.3,0.8,0.4   c0.4,0.1,0.8,0.1,1.2,0.1h0.5c0.1,0,0.3,0,0.4,0c1,0.1,1.9,1,2,2l0,0.2l0.2,0.2c0.3,0.3,0.5,0.6,0.8,0.8c0.3,0.3,0.5,0.6,0.8,0.9   c0.1,0.1,0.2,0.2,0.3,0.3c0.1,0.1,0.1,0.4,0.1,0.7c0,0.3,0,0.7,0.1,1.1c0.2,0.6,0.8,1,1.1,1.2c0.8,0.5,1.6,1.1,2.5,1.5l0.2,0.1   c0.2,0.1,0.4,0.1,0.5,0.2c0.1,0.1,0.3,0.2,0.4,0.3l0.1,0.1c0.6,0.5,1.3,0.8,1.9,1.2c1.1,0.6,2.3,1.3,3.6,1.4c0.1,0,0.1,0,0.2,0   c0.7,0,1.3-0.3,1.6-0.8c0.1-0.2,0.2-0.4,0.2-0.6c0-0.1,0-0.2,0-0.2c0.1-0.1,0.3-0.2,0.5-0.3c0.2-0.1,0.5-0.2,0.7-0.4   c0.1-0.1,0.2-0.2,0.3-0.3c0.1-0.1,0.1-0.1,0.2-0.2c0.3-0.2,0.9,0.1,1.1,0.5c0.1,0.1,0.1,0.2,0.1,0.2c0,0,0,0.2-0.1,0.2   c0,0.1-0.1,0.3-0.1,0.5c-0.1,0.6,0.2,1.2,0.5,1.6l1.3,2.1l0.2,0.3h0.3c0,0.1,0.1,0.3,0.1,0.4c-0.1,0.2-0.2,0.4-0.4,0.7   c-0.1,0.1-0.2,0.2-0.2,0.4c-0.5,0.7-0.5,1.5-0.1,2.1c0.2,0.2,0.3,0.4,0.5,0.5c0.1,0.1,0.2,0.1,0.2,0.2c0,0,0.1,0.1-0.2,0.6   c-0.8,1.5-2,2.8-3.5,3.7c-0.3,0.2-0.6,0.4-0.8,0.7c-0.1,0.2-0.1,0.4-0.2,0.5c0,0.1,0,0.2-0.1,0.2c0,0-0.2,0.1-0.3,0.1l-0.1,0   c-2.1,0.9-2.8,3.3-3.4,5.6c-0.1,0.5-0.4,1.6,0.4,2.4c0.2,0.2,0.4,0.3,0.5,0.4c0.1,0,0.1,0.1,0.2,0.1c0.4,0.3,0.4,1.2,0.1,1.8   c-0.1,0.3-0.3,0.6-0.5,0.9c-0.3,0.5-0.7,1-0.9,1.7c-0.3,1.1-0.1,2.3,0.5,3.2c0.4,0.5,0.8,0.9,1.2,1.2l0.3,0.2   c3.1,2.6,4.6,6.6,6,10.1c0.6,1.5,1.6,3.1,2.3,4.3l1.3,2.1c1.1,1.7,2.3,3.3,4.2,4.3l4.3,2.3c1.3,0.7,2.7,1.4,3.5,2.6   c0.9,1.3,1.1,3,1.2,4.3c0.1,1.6,0,3.3-0.1,4.9c-0.6,5.3-0.6,10.7-0.6,15.9c0,2.4,0,4.8,0,7.2c0,0.7,0,1.5,0,2.2c0,1.1,0,2.3,0,3.4   c-0.1,1.2-0.3,2.4-0.5,3.5c-0.1,0.8-0.3,1.6-0.4,2.4c-0.5,4.3-0.2,8.6,0.2,12.8l0.9,11c0.5,5.4,0.9,10.9,2.4,16.3   c1,3.6,3.5,9.9,8.9,12.3c2.1,0.9,4.3,1,6.4,1c0.2,0,0.5,0,0.7,0c0.4,0,0.9,0,1.3-0.2c0.6-0.3,1-0.7,1.3-1.2c0.4-0.6,0.8-1.3,1-2   c0.2-0.9-0.1-1.9-0.7-2.4c-0.2-0.1-0.3-0.3-0.5-0.4c-0.1-0.1-0.2-0.1-0.3-0.2c-0.2-0.2-0.3-0.4-0.5-0.8c-0.2-0.3-0.3-0.7-0.7-1   c-0.7-0.7-1.3-1.5-1.9-2.4c-1.6-2.6-2.9-6.8-0.9-10.1c0.2-0.3,0.4-0.7,0.7-1c0.8-1.1,1.6-2.3,1.5-3.8c-0.1-1.1-0.8-2-1.5-2.8   c-0.1-0.2-0.3-0.3-0.4-0.5c-0.6-0.8-1-1.8-0.6-2.5c0.1-0.2,0.4-0.4,0.7-0.6c0.3-0.3,0.7-0.6,1-1c0.5-0.9,0.4-1.9,0.3-2.6l-0.8-5.8   c0-0.2,0-0.4,0-0.6c0-0.1,0-0.2,0-0.4c0.1,0,0.2,0,0.2-0.1c0.1,0,0.3-0.1,0.4-0.1c1.2,0,2.3-0.4,3.2-1.2c1.2-1.2,1.9-3,1.7-4.9   c0-0.1,0-0.4,0-0.5c0,0,0.1,0,0.3-0.1c0.6-0.1,1.2-0.1,1.7-0.1c1.1-0.1,2.3-0.2,3.5-0.4c2.2-0.5,3.8-1.6,4.6-3.1   c0.7-1.3,0.3-2.9-0.4-3.8c-0.1-0.1-0.2-0.2-0.3-0.4c-0.2-0.3-0.5-0.6-0.5-0.8c0-0.3,0.2-0.5,0.5-0.7c0.3-0.2,0.8-0.2,1.2-0.3l0.2,0   c1.7-0.2,3-0.8,3.9-1.7c2.8-2.8,4.8-6.3,6.7-9.7c0.4-0.7,0.7-1.3,1.1-2c0.8-1.4,1.5-2.7,1.5-4.3c0-0.6-0.1-1.2-0.2-1.8   c-0.1-0.7-0.2-1.4-0.1-2.1c0.1-0.7,0.6-1.3,1-1.9c2.5-3.3,5-5.1,7.6-5.5c0.5-0.1,0.9-0.1,1.5-0.1c0.9,0,1.9-0.1,2.8-0.4   c2.6-0.9,3.8-3.6,4.7-6.1c1-2.7,2.1-5.5,2.4-8.4c0.1-1,0.1-1.9,0.1-2.9c0-0.9,0-1.9,0.1-2.9c0.1-1.5,0.6-3.5,2-4.7   c0.3-0.2,0.6-0.5,0.9-0.7c0.3-0.2,0.6-0.4,0.9-0.7c2-1.7,2.8-4.3,3.4-6.4c0.3-0.9,0.6-2.2,0.3-3.3C256.5,279.3,255,278.4,253.9,278   z"/>
	<path class="st1" d="M199.7,29.3c0.4,0.2,0.7,0.4,1.1,0.5c0.3,0.1,0.6,0.2,0.8,0.4c0.4,0.2,0.8,0.7,0.7,1c0,0.1-0.1,0.2-0.1,0.3   c-0.1,0.1-0.1,0.3-0.2,0.4c-0.3,0.9,0,1.8,0.3,2.5c0.2,0.5,0.3,0.9,0.3,1.3c-0.4,0.1-0.9,0.1-1.4,0.2c-0.7,0.1-1.5,0.1-2.2,0.4   c-1.5,0.6-2.5,2.3-2.3,3.9c0,0.2,0.1,0.6,0.3,0.9c0.2,0.3,0.5,0.4,0.7,0.5l2.4,1.2c0.4,0.2,1,0.5,1.6,0.5c0,0,0,0,0,0   c0.7,0,1.3-0.4,1.8-0.7c0.3-0.2,0.6-0.4,1-0.5c0.6-0.1,1.3,0.1,2.1,0.7c0.2,0.1,0.3,0.3,0.5,0.4c0.6,0.5,1.2,1,1.9,1.3   c0.4,0.1,0.8,0.2,1.2,0.2c1.8,0,3.6-1.4,3.8-3.1c0-0.2,0-0.5,0.1-0.7c0-0.3,0-0.5,0.1-0.7c0.2-0.9,1.2-1.6,2.3-2.2   c1.1-0.6,2.3-1.3,3.5-2.2c1.9-1.5,3.3-3.4,4.3-5.7l0.1-0.3c0.2-0.4,0.3-0.8,0.5-1.1c0.2-0.3,0.5-0.6,1-0.9c1.1-0.7,2.6-1.1,3.9-0.9   c1.2,0.1,2.4-0.3,3.4-1.1c0.5-0.4,0.9-0.9,1.3-1.4c0.3-0.4,0.6-0.7,0.9-1c1.2-1.2,2.8-2,4.4-2.8c1.1-0.5,2.2-1.1,3.3-1.8   c0.8-0.5,1.5-1.1,2.1-1.7c1.1-1,2.2-1.9,3.5-2.5c0.3-0.1,0.6-0.2,0.9-0.3c1.3-0.5,2.8-1,3.3-2.5c0.4-1.2-0.1-2.5-0.8-3.6   c-0.7-1.2-1.4-2.4-2.6-3.2c-0.8-0.5-1.7-0.8-2.6-1c-0.3-0.1-0.6-0.2-1-0.3c-1.1-0.3-2-0.8-3.1-1.4c-0.7-0.4-1.5-0.8-2.2-1.1   c-0.8-0.3-1.6-0.5-2.4-0.7c-0.3,0-0.5-0.1-0.8-0.2c-0.7-0.2-1.5-0.3-2.2-0.2c-0.1,0-0.2,0-0.3,0.1c-0.1,0-0.3,0.1-0.4,0.1   s-0.3-0.1-0.5-0.1c-0.1,0-0.2-0.1-0.3-0.1c-0.3-0.1-0.7-0.2-1-0.2c-0.7,0-1.3,0.2-2,0.4L229,0.8c-0.2,0.1-0.5,0.1-0.7,0.3   c-0.6,0.4-0.7,1.1-0.8,1.6c0,0.1,0,0.3-0.1,0.4c-0.2,0.9-1.1,1.6-2.1,1.6c-0.2,0-0.3,0-0.5-0.1c0,0-0.1,0-0.1,0   c0-0.1,0-0.2,0.1-0.2c0.1-0.2,0.1-0.4,0.2-0.7c0-0.7-0.6-1.4-1.3-1.5c-0.6-0.1-1.3,0.1-1.7,0.6c-0.5,0.5-0.8,1.2-0.9,1.9   c0,0.1,0,0.3,0,0.4c0,0.4,0,0.8-0.2,0.9c0,0-0.1,0-0.1,0c-0.1,0-0.3-0.1-0.5-0.2c-0.2-0.1-0.3-0.2-0.4-0.4   c-0.2-0.2-0.5-0.4-0.7-0.6c-0.5-0.3-1.1-0.4-1.7-0.4c-0.5,0-1.1,0.1-1.6,0.2c-0.7,0.1-1.5,0.3-2.2,0.7c-0.9,0.5-1.4,1.3-1.5,2.2   c0,0.7,0.3,1.4,0.6,2c0.3,0.5,0.5,1,0.4,1.4c0,0.1-0.1,0.2-0.2,0.4c-0.1,0.2-0.2,0.4-0.3,0.7c-0.1,0.4,0,0.8,0,1.2   c0,0.1,0,0.3,0,0.4c0,0.3-0.1,0.6-0.4,0.9c-0.4,0.4-1,0.6-1.5,0.4c-0.7-0.3-1-1-1.1-1.7c-0.1-0.7,0-1.5,0.1-2.3l0-0.2   c0.1-0.6,0.2-1.7-0.4-2.5c-0.4-0.4-0.9-0.7-1.6-0.7c-0.6,0-1.2,0.2-1.7,0.6c-0.5,0.4-0.9,1.1-1.1,1.6c-0.1,0.3-0.3,0.6-0.5,0.8   c-0.5,0.8-1.2,1.6-1.8,2.3c-0.2,0.2-0.3,0.4-0.5,0.5c-0.7,0.8-1.5,1.6-2,2.6c-0.5,0.9-0.7,2-0.9,3c-0.1,0.3-0.1,0.7-0.2,1   c-0.1,0.5-0.3,1-0.4,1.5c-0.3,1-0.6,2.1-0.7,3.2C197.6,26.1,198.1,28.2,199.7,29.3z"/>
	<path class="st1" d="M212,93.4c0.2-0.1,0.5,0,0.8,0.1c0.7,0.4,1.1,1.2,1.4,2l0.1,0.1c0.4,0.8,0.8,1.8,1.6,2.5   c0.5,0.4,1.2,0.7,1.9,0.7c0.6,0,1.2-0.2,1.6-0.6c0.3-0.3,0.5-0.7,0.6-1.1c0.1-0.2,0.2-0.5,0.3-0.7c0.3-0.4,0.9-0.5,1.6-0.6l0.4-0.1   c1.4-0.3,2.2-1.1,2.3-2.1c0.1-0.7-0.3-1.3-0.6-1.8c-1.2-1.7-2.7-3.3-4.4-4.6c-0.2-0.1-0.4-0.3-0.5-0.4c-1-0.7-1.9-1.4-2.4-2.4   c-0.6-1.2-0.4-2.5-0.3-4c0.1-1.2,0.3-2.5,0-3.7c-0.3-1.4-1.1-2.5-1.8-3.6c-1.2-1.8-2.5-3.7-4-5.4l-0.3-0.4   c-0.4-0.5-0.8-0.9-1.2-1.4c-0.2-0.3-0.3-0.6-0.5-0.9c-0.5-0.9-1-1.8-2-2.4c-0.5-0.2-1-0.4-1.7-0.4c-0.5,0-1.1,0.1-1.6,0.2   c-0.4,0.1-0.8,0.1-1.1,0.1c-0.4,0-0.8,0-1-0.2c-0.1-0.1-0.2-0.2-0.2-0.3c0,0,0-0.1,0-0.1c1.2-1.3,0.6-3.1,0.1-4.5l0-0.1   c-0.1-0.3-0.2-0.7-0.5-1c-0.5-0.4-1.1-0.5-2.1-0.2c-2.1,0.7-4.1,2-5.7,3.7c-0.4,0.5-1,1.1-1.3,1.9c-0.2,0.6-0.3,1.2-0.4,1.8   c-0.2,1.2-0.3,2.3-0.4,3.5c0,0.3-0.1,0.5-0.1,0.6c-0.1-0.1-0.1-0.4-0.1-0.7c0-1.3,0-2.6,0-3.9c0-0.6,0-1.2,0.2-1.7   c0.1-0.5,0.4-0.9,0.7-1.4c1.2-1.8,2.3-3,3.5-3.5c0.2-0.1,0.4-0.1,0.6-0.2c0.4-0.1,1.2-0.5,1.4-1.3c0-0.2,0-0.3,0-0.4   c0-0.2-0.2-0.5-0.5-0.6c-0.1,0-0.2-0.1-0.2-0.1c-0.6-0.2-1.2-0.2-1.8-0.3c-0.2,0-0.3,0-0.5,0c-1.9-0.1-3.7,0.4-5.2,1.6   c-1.3,1-2.2,2.3-3,3.4c-0.8,1.1-1.5,2.2-2.2,3.3c-0.7,1-1.3,2-1.1,3.2c0,0.3,0.1,0.6,0.3,0.8c0.3,0.4,0.8,0.6,1.2,0.7   c0.5,0.1,1.1,0.3,1.5,0.6c0.2,0.1,0.4,0.4,0.4,0.6c-0.2,0-0.5,0-0.8-0.1c-0.1,0-0.3-0.1-0.4-0.1c-1.1-0.2-2,0.1-2.4,0.8   c-0.6,0.9-0.3,2.1,0.5,2.7c0.6,0.6,1.5,0.8,2.2,0.9l3.7,0.9l7.8,1.9c0.6,0.1,1.3,0.2,1.8-0.1c0.1-0.1,0.2-0.2,0.3-0.2   c0,0,0.1-0.1,0.1-0.1c0.2-0.1,0.7,0,0.9,0.4c0.2,0.3,0.4,0.7,0.5,1.2c0.1,0.2,0.1,0.4,0.2,0.6c0.4,0.9,0.9,1.7,1.4,2.5   c0.3,0.5,0.6,0.9,0.8,1.3c0.6,1,1,2.2,1.3,3.2c0.4,1.2,0.7,2.3,1.1,3.5c0.2,0.7,0.4,1.4,0.2,1.9c-0.2,0.7-1.1,1.1-1.8,1.3   c-0.2,0.1-0.4,0.1-0.6,0.2c-0.8,0.2-1.6,0.4-2.3,0.9c-0.6,0.4-1.1,1.2-1.1,1.9c0,0.3,0,0.6,0.1,0.9c-0.4,0.2-1,0.3-1.6,0.3   c-0.2,0-0.4,0-0.6,0c-0.3,0-0.5,0-0.8-0.1c-0.9-0.1-1.9-0.2-2.7,0c-1.3,0.3-2.7,1.4-2.6,2.9c0,1.3,1.1,2.2,2.1,2.5   c0.5,0.2,1.1,0.3,1.9,0.3c0.4,0,0.7,0,1.1,0l3.2-0.2c0,0,0.1,0,0.1,0c0.1,0,0.1,0,0.1,0c0,0.1,0.1,0.3,0.1,0.4   c0.1,0.4,0.2,1.2,1,1.4c0.1,0.1,0.2,0.7,0.2,0.9c0,0.3,0.1,0.7,0.2,1c1,3.3,4.3,5.2,7.5,6.7c0.3,0.2,0.7,0.3,1.1,0.3   c0.5,0,1-0.3,1.2-0.7c0.2-0.4,0-0.9-0.1-1.1c-0.7-1.8-1.6-3.5-2.7-5.2c0.5,0.2,1,0.6,1.5,1.1c0.1,0.1,0.3,0.3,0.4,0.4   c0.7,0.8,1.6,1.7,2.7,2.1c0.5,0.1,0.9,0.1,1.2-0.1c0.3-0.2,0.5-0.5,0.6-0.7c1.2-2.5,0.1-5.3-1-7.7l-1.5-3.2   c-0.2-0.4-0.4-0.9-0.4-1.3C211.7,93.9,211.8,93.5,212,93.4z"/>
	<path class="st1" d="M202.8,58.2c0.1,0.1,0.1,0.2,0.2,0.4c0.1,0.1,0.1,0.2,0.2,0.3c0.1,0.2,0.1,0.4,0.1,0.6c0.1,0.4,0.2,1,0.6,1.4   c0.4,0.5,1.2,0.6,2,0.5c0.1,0,0.3,0,0.4-0.1c0.3-0.1,0.6-0.1,0.9-0.1c0.1,0,0.3,0.1,0.4,0.1c0.1,0,0.3,0.1,0.4,0.1   c0.2,0,0.5,0.1,0.7,0.1c0.3,0,0.5,0,0.8-0.1l0.4-0.1l0-0.4c0.1-0.6,0.1-1.3,0.1-2c-0.1-0.6-0.3-1.4-0.9-2.1   c-0.7-0.7-1.7-0.9-2.5-1.1l-2.5-0.5l-0.2,0.1c-0.1,0-0.1,0-0.2,0c-0.3,0-0.7,0.1-0.9,0.4c-0.3,0.3-0.4,0.8-0.3,1.2   C202.5,57.4,202.6,57.8,202.8,58.2z"/>
	<path class="st1" d="M194.4,41.2c0.8-1.2,0.7-3-0.3-4.1c-0.3-0.3-0.6-0.6-0.9-0.8c-0.2-0.2-0.5-0.3-0.6-0.5c-0.3-0.3-0.5-0.6-0.7-1   c-0.2-0.3-0.4-0.7-0.7-1c-0.6-0.6-1.3-1.1-2.1-1.3c-0.2-0.1-0.6-0.1-0.9,0c-0.3,0.1-0.5,0.2-0.7,0.4c-0.7,0.6-1.2,1.3-1.3,2.1   c0,0.1,0,0.3,0,0.4c0,0.9,0.4,1.7,1.1,2.1c0.2,0.1,0.4,0.2,0.6,0.3c0.9,0.4,1.8,0.8,2.1,1.6c0.4,0.8,0.1,1.9-0.7,3.3l-0.2,0.3   c-0.7,1.2-1.6,2.5-1.4,4c0.2,1.9,1.9,3.1,3.3,3.6c1,0.3,2,0.5,2.9,0.6c0.5,0.1,1.1,0.1,1.6,0.2c0.5,0.1,1,0.2,1.4,0.4   c0.5,0.1,1,0.3,1.5,0.5c0.9,0.3,1.9,0.6,2.9,0.8c0.6,0.1,1.2,0.2,1.7,0.2c0.3,0,0.7,0,1-0.1c0.6-0.1,1.3-0.4,2-0.9   c1.2-0.8,2-1.8,2.4-2.9c0.5-1.4,0.2-2.9-0.7-3.9c-0.7-0.7-1.7-1-3.1-1c-0.6,0-1.2,0.1-1.8,0.1c-0.9,0.1-1.9,0.2-2.9,0.2   c-0.7,0-1.3-0.1-1.9-0.2c-1.7-0.3-3-1.2-3.7-2.3c-0.2-0.3-0.2-0.4-0.2-0.5c0-0.1,0.1-0.2,0.2-0.3C194.3,41.3,194.3,41.3,194.4,41.2   z"/>
	<path class="st1" d="M190.9,28.1c0.4,0.6,1.1,0.9,1.5,1.1c0.5,0.2,1.1,0.4,1.8,0.4h0c1,0,1.9-0.6,2.4-1.4c0.4-0.8,0.4-1.9,0-2.8   c-0.1-0.2-0.3-0.5-0.5-0.7c-0.1-0.1-0.2-0.3-0.3-0.4c-0.3-0.4-0.4-1-0.3-1.5c0.1-0.8-0.1-1.8-0.9-2.3c-0.6-0.3-1.5-0.2-2,0.3   c-0.4,0.4-0.7,1.2-0.7,1.8c0,0.6-0.3,1.3-0.5,1.9c-0.3,0.6-0.5,1.2-0.6,2C190.6,27.2,190.6,27.7,190.9,28.1z"/>
	<path class="st1" d="M182.6,22.8c0.2,0.1,0.4,0.2,0.6,0.2c0.8,0.3,1.5,0.5,1.7,1.1c0.1,0.3,0.1,0.7,0.1,1.1c0,0.7-0.1,1.5,0.5,2.2   c0.3,0.3,0.8,0.5,1.3,0.5c0.6,0,1.2-0.3,1.5-0.8c0.1-0.2,0.2-0.5,0.3-0.7c0-0.1,0-0.1,0.1-0.2c0.2-0.5,0.6-1,1-1.5   c0.5-0.6,1-1.2,1.3-1.9c0.5-1.6-0.1-3.2-0.9-4.5c0-0.5-0.3-0.8-0.5-0.9c-0.1-0.1-0.1-0.1-0.2-0.2c-0.2-0.2-0.3-0.4-0.5-0.6   c-0.8-0.8-2-1.8-3.3-1.8c-0.3,0-0.6,0-0.9,0.2c-1.8,0.7-2.6,2.6-3.3,4.4c-0.2,0.5-0.5,1.2-0.2,2C181.3,22,181.8,22.5,182.6,22.8z"/>
	<path class="st1" d="M174.5,229h0.1c0.3,0,0.5,0,0.8-0.1c0.2,0,0.4,0,0.6,0c0.5,0,1,0.2,1.6,0.4c0.6,0.2,1.3,0.5,2,0.5   c0.3,0,0.6,0,0.8-0.1c0.3-0.1,0.6-0.2,0.8-0.4c0.2-0.1,0.3-0.2,0.5-0.2c0.4-0.2,0.9-0.2,1.4-0.2c0.1,0,0.3,0,0.4,0   c0.9,0,1.8-0.2,2.7-0.5c0.2-0.1,0.9-0.3,1.1-0.9c0.1-0.4,0.1-0.8-0.1-1.3c-0.4-0.8-1.2-1.2-1.8-1.5c-0.5-0.3-1-0.5-1.3-0.9   c-0.8-1.1-2.1-1.2-3-1.2c-0.6,0-1.2,0-1.7,0.1c-0.5,0-1.1,0.1-1.5,0.1c-0.1,0-0.3,0-0.4,0l-0.1,0c-0.5,0-1,0.4-1.3,1   c0,0.1-0.1,0.2-0.1,0.3c-0.1,0.2-0.1,0.3-0.2,0.4c-0.1,0.1-0.2,0.2-0.3,0.2l-1.3,0.7c-1.5,0.8-1.6,1.7-1.4,2.3   C172.9,228.6,173.8,229,174.5,229z"/>
	<path class="st1" d="M174.3,36.1c-0.1,0.2-0.2,0.3-0.3,0.5c-0.1,0.2-0.2,0.4-0.2,0.6c-0.1,0.5-0.1,1,0.1,1.4   c0.4,0.7,1.2,0.9,1.8,1.1c0.3,0.1,0.6,0.2,0.8,0.3l-0.9,1.2c-0.2,0.2-0.6,0.8-0.3,1.5c0.2,0.5,0.6,0.7,0.9,0.8   c0.2,0.1,0.5,0.2,0.8,0.3c0.4,0.1,0.9,0.2,1.4,0.2c0.6,0,1.1-0.1,1.5-0.4c0.5-0.3,0.7-0.8,1-1.2l0.1-0.2c0.5-0.8,1.1-1.5,1.8-2.2   c0.9-0.9,1.8-1.9,2.3-3.2c0.2-0.5,0.3-0.9,0.3-1.3c0-1.1-0.6-2.1-1.5-2.5c-0.5-0.2-1.6-0.7-2.6-0.7c-0.4,0-0.8,0.1-1.1,0.2   c-0.7,0.3-1.3,0.9-1.6,1.6c0,0.1-0.1,0.2-0.1,0.2c-0.1,0.2-0.1,0.3-0.2,0.4c0,0,0,0-0.1,0c-0.2,0-0.5-0.2-0.6-0.4   c0-0.1-0.1-0.2-0.1-0.3c-0.1-0.2-0.1-0.4-0.3-0.7c-0.4-0.6-1.1-0.9-1.6-0.6c-0.5,0.2-0.8,0.8-0.7,1.7c0,0.5,0,0.9,0,1.2   C174.6,35.6,174.5,35.9,174.3,36.1z"/>
	<path class="st1" d="M170.8,51.8c-0.4,0.2-1,0-1.2-0.4c0-0.1,0-0.1-0.1-0.2c-0.1-0.2-0.2-0.4-0.4-0.7c-0.2-0.2-0.6-0.4-0.9-0.4   c-0.6,0-1.2,0.4-1.5,0.9c-0.1,0.2-0.2,0.4-0.2,0.6c-0.1,0.5-0.1,0.9,0,1.4c0,0.3,0.1,0.7,0.3,1.1c0.2,0.3,0.5,0.5,0.7,0.6   c0.1,0,0.1,0.1,0.2,0.1c0.5,0.3,0.9,1.1,1,2.2c0,0.2,0,0.5,0,0.7c0.1,0.8,0.1,1.6,0.5,2.4c0.3,0.7,0.8,1,1.1,1c0.1,0,0.1,0,0.2,0   c0.3,0,0.5-0.1,0.7-0.2c0.5-0.2,1-0.5,1.4-0.8c0.4-0.3,0.8-0.5,1.2-0.7c0.1-0.1,0.3-0.1,0.4-0.2c0.5-0.2,1.1-0.4,1.5-0.9   c0.3-0.3,0.4-0.7,0.6-1c0.1-0.1,0.1-0.3,0.2-0.5c0.1-0.1,0.2-0.3,0.3-0.5c0.1-0.1,0.1-0.2,0.2-0.3c0,0,0,0,0.1,0   c1.1,0,2.3-0.4,3.3-1.2c1-0.8,1.8-1.8,2.6-2.7c0.3-0.4,0.9-1.1,0.8-2c0.1-0.5-0.1-1.1-0.4-1.5c-0.4-0.6-1-0.9-1.6-0.7   c-0.3,0.1-0.7-0.1-1.1-0.2c-0.2-0.1-0.4-0.1-0.6-0.2c-0.3-0.1-0.6-0.1-0.9-0.2c-0.1-0.1-0.1-0.2-0.2-0.3c-0.4-0.4-0.9-0.6-1.5-0.8   c-0.4-0.1-0.9-0.2-1.4-0.2c-0.8,0-1.7,0.2-2.5,0.5c-0.5,0.2-1,0.4-1.4,0.8c-0.6,0.5-0.9,1.1-0.9,1.7c0,0.4,0.1,0.7,0.1,1   c0,0.1,0.1,0.3,0.1,0.4C171.6,51.1,171.3,51.6,170.8,51.8z"/>
	<path class="st1" d="M167.1,25.5c0.6,0.3,1.2,0.4,1.7,0.5c0.5,0.1,1,0.1,1.4,0.1c1,0,1.7-0.2,2.3-0.7c0.3-0.2,0.7-0.4,1.1-0.6   l0.1,0c0.2-0.1,0.5-0.2,0.7-0.5c0.3-0.5,0.3-1,0.2-1.2c-0.1-0.6-0.4-2.3-1.8-2.5c-1-0.2-2.1-0.4-3.3-0.4c-0.6,0-1.2,0.1-1.8,0.2   c-1,0.2-1.7,0.7-2.1,1.3c-0.4,0.7-0.4,1.5-0.1,2.3C165.9,24.7,166.4,25.2,167.1,25.5z"/>
	<path class="st1" d="M173.9,224.6c0.2-0.1,0.4-0.3,0.6-0.6c0.2-0.5,0-0.9-0.1-1.1c-0.3-0.7-0.7-1.7-1.6-2.2   c-0.5-0.3-1.1-0.4-1.5-0.5l-0.1,0c-0.9-0.2-2-0.4-2.9-0.9c-0.3-0.2-0.6-0.4-1-0.6c-0.5-0.3-0.9-0.6-1.5-0.8   c-0.6-0.3-1.3-0.4-1.9-0.6c-0.2,0-0.3-0.1-0.5-0.1c-0.5-0.1-0.9-0.2-1.4-0.4c-1-0.3-2-0.6-3-0.7c-2.5-0.3-5,0.5-7,2   c-0.9,0.7-0.9,1.4-0.8,1.7c0.2,0.6,0.7,0.9,1.4,0.9c0.2,0,0.4,0,0.7-0.1c0.6-0.1,1.2-0.3,1.8-0.5c1.1-0.4,2.2-0.7,3.3-0.7   c0.3,0,0.6,0,0.8,0.1c0.5,0.1,0.9,0.3,1.4,0.4c0.5,0.2,1.1,0.4,1.7,0.5l0.2,0c0.2,0,0.3,0,0.5,0.1c0.2,0.1,0.3,0.2,0.5,0.3l1.1,0.8   c0.5,0.3,1,0.7,1.3,1.1c0.1,0.2,0.2,0.4,0.3,0.7c0.1,0.3,0.3,0.6,0.4,0.9c0.3,0.5,1,1,1.7,1c0.2,0,0.3,0,0.5-0.1   c0.2-0.1,0.6-0.1,1-0.1c0.4,0,0.8,0,1,0C172.1,225.4,173.1,225.1,173.9,224.6z"/>
	<path class="st1" d="M161.6,30.9c-0.6-1.4-2.1-2.3-3.9-2.3c-0.5,0-1,0.1-1.5,0.2c-1.9,0.6-3.4,2.1-4.6,3.3   c-0.6,0.6-1.3,1.4-1.3,2.4c0,0.9,0.6,1.5,1.1,2c0.4,0.4,0.7,0.7,0.8,1.1c0.1,0.2,0.1,0.4,0.1,0.7c0,0.3,0,0.6,0.1,0.9   c0,0.1,0,0.2,0.1,0.3c0.5,1.3,2,1.9,3.3,1.9c0.3,0,0.6,0,0.8-0.1c0.8-0.1,1.5-0.4,2.2-0.7c0.6-0.2,1.2-0.5,1.8-0.6   c1.3-0.3,2.9-0.1,4.8,0.6l0.1,0c0.5,0.2,1.1,0.4,1.8,0.4c0.9,0,1.7-0.4,2.5-1.2c0.8-0.8,1.4-1.7,1.8-2.8c0.1-0.3,0.2-0.7,0.3-1.1   c0.1-0.3,0.1-0.7,0-1.1c-0.2-0.4-0.5-0.6-0.7-0.7l-0.1-0.1c-0.5-0.4-0.8-1-0.7-1.6l0-0.3l-0.2-0.2c-0.3-0.3-0.3-0.7-0.4-1.3   c-0.1-0.5-0.1-1-0.4-1.5c-0.3-0.6-0.8-0.8-1.3-0.7c-0.9-0.1-1.9,0.3-2.6,1.1c-0.6,0.7-0.9,1.6-1.1,2.4l-0.7,2.1   c-0.1,0.4-0.2,0.7-0.4,0.8c-0.4,0.3-1.1-0.3-1.3-0.9c-0.1-0.4-0.1-0.8-0.2-1.2C161.9,32.2,161.9,31.5,161.6,30.9z"/>
	<path class="st1" d="M171.3,227.7c0-0.1-0.1-0.3-0.2-0.4c0-0.1-0.2-0.4-0.5-0.4c-0.5-0.3-1.1-0.3-1.7-0.3h0c-0.8,0-1.6,0-2.3,0.1   c-1.1,0.2-1.3,0.8-1.4,1.1c-0.1,0.6,0.2,1.2,0.8,1.6c1,0.6,2.1,0.6,3.1,0.6h0.2c0.4,0,0.9,0,1.3-0.1c0.2,0,0.9-0.2,1.1-0.8   c0.1-0.5-0.1-0.8-0.2-1.1C171.4,227.9,171.3,227.8,171.3,227.7C171.3,227.8,171.3,227.8,171.3,227.7z"/>
	<path class="st1" d="M130.2,51.1c0.6,0.3,1.2,0.5,1.9,0.5c1,0,2-0.3,3-0.6c0.9-0.3,1.9-0.6,2.8-0.6c-0.3,0.3-1,1-0.5,1.8   c0.3,0.5,0.9,0.6,1.2,0.6l2.1,0.2c-0.1,0.1-0.3,0.2-0.4,0.2c-0.2,0.1-0.5,0.1-0.7,0.1c-0.4,0-0.9,0.1-1.3,0.3   c-0.6,0.2-1,0.7-1.2,1.3c-0.1,0.4-0.1,0.9,0.2,1.2l0.2,0.2l0.3,0c1.9,0.1,3.8,0.3,5.4,1.1c1.4,0.7,2.5,1.8,2.9,3   c-2.4-0.4-4.9-0.8-7.3-1.1c-0.2,0-0.4,0-0.7,0c-1.2,0-2,0.5-2.1,1.4c-0.1,0.9,0.7,1.5,1.2,1.9l0.2,0.1c0.8,0.6,1.3,1.6,1.3,2.6   c0,0.3,0,0.5-0.1,0.8c-0.1,0.7-0.2,1.4,0.1,2.1c0.1,0.3,0.3,0.6,0.5,0.8c0.7,0.7,1.8,1.1,3.3,1.1c2,0,3.9-0.5,5.7-1.4l0.3-0.2   c0.6-0.3,1.2-0.6,1.8-0.6h0.1c0.7,0,1.3,0.5,1.9,1c0.2,0.2,0.4,0.3,0.7,0.5c1.2,0.9,2.8,1.3,4.3,1.3c0.1,0,0.2,0,0.3,0   c0.3,0,0.8-0.1,1.2-0.4c0.5-0.5,0.5-1.2,0.5-1.7c0-0.2,0-0.5,0-0.7c0-0.1,0.1-0.3,0.8-0.3c0.3,0,0.6,0,0.8,0c0.3,0,0.6,0,0.9,0   c1,0,1.7-0.4,2-1.1c0.4-1.1-0.5-2-1.2-2.6l-0.1-0.1c-1.1-1.1-1.8-2.8-1.7-4.7c0-1.5,0.5-3.1,1.4-5.2l0.1-0.3   c0.4-0.8,0.7-1.7,0.9-2.6c0.1-0.5,0.1-1.1,0-1.6c-0.2-1.4-1.6-2.7-2.9-2.7c-0.4,0-0.8,0.1-1.2,0.3c-0.8,0.6-1.1,1.5-1.4,2.5l-1,4.1   c-0.5-0.3-0.9-1-1.3-1.6l-3.8-6.9c-0.7-1.4-1.3-2.6-1.2-3.8c0-0.6-0.1-1.2-0.4-1.8c-0.1-0.2-0.1-0.4-0.2-0.5l-0.1-0.3   c-0.4-1-1.3-1.5-2-1.7l-0.3-0.1l-0.3,0.2c-0.1,0-0.1,0-0.1,0c-0.4,0-1.1-0.7-1.5-1.1c-1.1-1.1-2.6-1.7-4.2-1.7   c-1.1,0-2.2,0.3-3.1,0.9c-0.5,0.3-0.9,0.7-1.1,1.1c-0.2,0.5-0.3,1-0.3,1.5c0,0.3,0,0.6-0.1,0.9c-0.2,0.6-0.9,1-1.7,1.3   c-0.9,0.4-1.9,0.9-2.3,2c-0.1,0.2-0.1,0.4-0.2,0.6c0,0.2-0.1,0.4-0.2,0.5c-0.2,0.3-0.6,0.5-1.1,0.7c-0.2,0.1-0.4,0.2-0.5,0.2   c-1.3,0.6-2.2,1.9-2.4,3.3C128.2,48.9,128.9,50.4,130.2,51.1z"/>
	<path class="st1" d="M148.2,29.3h0.1c0.9,0,1.7-0.4,2.4-0.7l3.5-1.6c0.2-0.1,0.4-0.2,0.5-0.2l0,0c0,0.1,0,0.3,0,0.4   c0.1,0.4,0.4,0.7,0.9,0.8c1.1,0.2,2.1-0.4,2.6-0.8c0.4-0.3,0.8-0.7,1.1-1.1c0.2-0.2,0.4-0.4,0.6-0.6c0.1-0.1,0.2-0.2,0.3-0.3   c0.8-0.7,1.8-1.7,1.7-3c0-0.4-0.1-1-0.3-1.4c-0.3-0.4-0.8-0.7-1.3-0.7c-0.4,0-0.8,0.1-1.2,0.2c-0.3,0.1-0.5,0.1-0.8,0.2   c-0.4,0.1-0.8,0.1-1.2,0.3l-8.2,2.8c-0.8,0.3-1.8,0.6-2.5,1.3c-0.8,0.7-1.3,2-0.7,3.1C146.2,28.8,147.1,29.3,148.2,29.3z"/>
</g>
</svg>